<?xml version="1.0" encoding="UTF-8"?>
<svg width="88px" height="88px" viewBox="0 0 88 88" version="1.1" xmlns="http://www.w3.org/2000/svg" xmlns:xlink="http://www.w3.org/1999/xlink">
    <!-- Generator: Sketch 47 (45396) - http://www.bohemiancoding.com/sketch -->
    <title>Artboard</title>
    <desc>Created with Sketch.</desc>
    <defs></defs>
    <g id="Page-1" stroke="none" stroke-width="1" fill="none" fill-rule="evenodd">
        <g id="Artboard" transform="translate(-225.000000, -339.000000)" fill-rule="nonzero" fill="#FFFFFF">
            <path d="M265.109589,357.272856 L265.109589,357.272856 L265.109589,357.272856 C265.109589,358.377426 266.005019,359.272856 267.109589,359.272856 L296.109589,359.272856 L296.109589,359.272856 C297.214158,359.272856 298.109589,358.377426 298.109589,357.272856 L298.109589,357.272856 L298.109589,357.272856 C298.109589,356.168287 297.214158,355.272856 296.109589,355.272856 L267.109589,355.272856 L267.109589,355.272856 C266.005019,355.272856 265.109589,356.168287 265.109589,357.272856 Z" id="Shape" transform="translate(281.609589, 357.272856) rotate(-27.000000) translate(-281.609589, -357.272856) "></path>
            <path d="M282.788073,363.969792 L282.788073,363.969792 L282.788073,363.969792 C282.788073,365.074362 283.683504,365.969792 284.788073,365.969792 L313.788073,365.969792 L313.788073,365.969792 C314.892643,365.969792 315.788073,365.074362 315.788073,363.969792 L315.788073,363.969792 L315.788073,363.969792 C315.788073,362.865223 314.892643,361.969792 313.788073,361.969792 L284.788073,361.969792 L284.788073,361.969792 C283.683504,361.969792 282.788073,362.865223 282.788073,363.969792 Z" id="Shape" transform="translate(299.288073, 363.969792) rotate(-113.000000) translate(-299.288073, -363.969792) "></path>
        </g>
        <path d="M5,71 C33,71 56,56 69.5,12.5" id="Line" stroke="#FFFFFF" stroke-width="4" stroke-linecap="round" stroke-linejoin="round"></path>
    </g>
</svg>