<?xml version="1.0" encoding="UTF-8"?>
<svg width="251px" height="251px" viewBox="0 0 251 251" version="1.1" xmlns="http://www.w3.org/2000/svg" xmlns:xlink="http://www.w3.org/1999/xlink">
    <!-- Generator: Sketch 47 (45396) - http://www.bohemiancoding.com/sketch -->
    <title>BCH</title>
    <desc>Created with Sketch.</desc>
    <defs></defs>
    <g id="Page-1" stroke="none" stroke-width="1" fill="none" fill-rule="evenodd">
        <path d="M125.5,0.5 C194.535594,0.5 250.5,56.4644063 250.5,125.5 C250.5,194.535594 194.535594,250.5 125.5,250.5 C56.4644063,250.5 0.5,194.535594 0.5,125.5 C0.5,56.4644063 56.4644063,0.5 125.5,0.5 Z M174.174699,160.208835 C188.150602,153.983936 194.074297,136.795181 187.35743,121.76506 C183.535835,112.887103 175.699482,106.371735 166.273092,104.23494 C167.525992,97.7997919 166.750703,91.1344065 164.054217,85.1586345 C157.297189,69.9176707 140.47992,62.688755 126.504016,68.9136546 L122.487952,70.7108434 L112.026104,47.2369478 L100.289157,52.4578313 L110.740964,75.9317269 L99.0040161,81.1626506 L88.5522088,57.688755 L76.815261,62.9096386 L87.2670683,86.3433735 L60.8514056,98.1706827 L65.1285141,107.779116 C65.6238513,108.948335 66.9415356,109.532508 68.1405622,109.114458 C76.7449799,106.192771 83.6626506,109.767068 86.6746988,116.584337 L106.925703,162.066265 C109.676707,168.200803 107.257028,175.098394 100.640562,178.843373 C99.6983134,179.358914 99.211036,180.435838 99.4457831,181.483936 L103.662651,191.383534 L129.104418,180.339357 L139.556225,203.813253 L151.222892,198.542169 L140.771084,175.068273 L152.508032,169.84739 L162.959839,193.321285 L174.696787,188.090361 L164.2751,164.656627 L174.174699,160.208835 Z M158.351406,123.692771 C168.491968,130.630522 166.182731,143.572289 157.136546,147.588353 L133.271084,158.190763 L122.497992,133.983936 L147.598394,122.809237 C151.092493,121.213782 155.164596,121.548371 158.351406,123.692771 Z M143.371486,105.871486 C142.632704,109.581625 140.230265,112.746624 136.855422,114.455823 L117.618474,123.060241 L106.835341,98.8433735 L124.807229,90.811245 C133.863454,86.7349398 145.018072,93.6726908 143.371486,105.871486 Z" id="BCH" fill="#163D62" fill-rule="nonzero"></path>
    </g>
</svg>