<?xml version="1.0" encoding="UTF-8"?>
<svg width="250px" height="250px" viewBox="0 0 250 250" version="1.1" xmlns="http://www.w3.org/2000/svg" xmlns:xlink="http://www.w3.org/1999/xlink">
    <!-- Generator: Sketch 47 (45396) - http://www.bohemiancoding.com/sketch -->
    <title>BTC</title>
    <desc>Created with Sketch.</desc>
    <defs></defs>
    <g id="Page-1" stroke="none" stroke-width="1" fill="none" fill-rule="evenodd">
        <g id="BTC" transform="translate(125.000000, 125.000000) rotate(24.000000) translate(-125.000000, -125.000000) " fill-rule="nonzero" fill="#163D62">
            <path d="M125,0.5 C193.759451,0.5 249.5,56.2405486 249.5,125 C249.5,193.759451 193.759451,249.5 125,249.5 C56.2405486,249.5 0.5,193.759451 0.5,125 C0.5,56.2405486 56.2405486,0.5 125,0.5 Z M173.48,159.57 C187.4,153.37 193.3,136.25 186.61,121.28 C182.803692,112.437555 174.998684,105.948248 165.61,103.82 C166.857889,97.4105927 166.0857,90.7718688 163.4,84.82 C156.67,69.64 139.92,62.44 126,68.64 L122,70.43 L111.58,47.05 L99.89,52.25 L110.3,75.63 L98.61,80.84 L88.2,57.46 L76.51,62.66 L86.92,86 L60.61,97.78 L64.87,107.35 C65.3633559,108.514542 66.6757695,109.096378 67.87,108.68 C76.44,105.77 83.33,109.33 86.33,116.12 L106.5,161.42 C109.24,167.53 106.83,174.4 100.24,178.13 C99.3015201,178.643478 98.8161919,179.716095 99.05,180.76 L103.25,190.62 L128.59,179.62 L139,203 L150.62,197.75 L140.21,174.37 L151.9,169.17 L162.31,192.55 L174,187.34 L163.62,164 L173.48,159.57 Z M157.72,123.2 C167.82,130.11 165.52,143 156.51,147 L132.74,157.56 L122.01,133.45 L147.01,122.32 C150.490123,120.730927 154.545937,121.064178 157.72,123.2 Z M142.8,105.45 C142.064173,109.145298 139.671344,112.297638 136.31,114 L117.15,122.57 L106.41,98.45 L124.31,90.45 C133.33,86.39 144.44,93.3 142.8,105.45 Z" id="Combined-Shape"></path>
        </g>
    </g>
</svg>