<?xml version="1.0" encoding="UTF-8"?>
<svg width="121px" height="121px" viewBox="0 0 121 121" version="1.1" xmlns="http://www.w3.org/2000/svg" xmlns:xlink="http://www.w3.org/1999/xlink">
    <!-- Generator: Sketch 47 (45396) - http://www.bohemiancoding.com/sketch -->
    <title>Slice 4</title>
    <desc>Created with Sketch.</desc>
    <defs></defs>
    <g id="Page-1" stroke="none" stroke-width="1" fill="none" fill-rule="evenodd">
        <path d="M50.9127729,75.1986203 L28.4740668,51.9626599 C25.0212238,48.3871363 19.3236069,48.287684 15.7480833,51.7405271 L15.7480833,51.7405271 L15.7480833,51.7405271 C12.1725597,55.1933701 12.0731074,60.890987 15.5259504,64.4665106 L15.5259504,64.4665106 L44.701602,94.6787822 C48.0779955,98.17514 53.60086,98.3476501 57.1870146,95.1250402 C57.9104814,94.6525645 58.5775808,94.0670868 59.1617228,93.3709334 L105.803609,37.785298 L105.803609,37.785298 C108.998625,33.9776261 108.501969,28.3008257 104.694297,25.1058096 L104.694297,25.1058096 L104.694297,25.1058096 C100.886625,21.9107934 95.2098251,22.4074491 92.014809,26.2151211 L50.9127729,75.1986203 Z" id="Combined-Shape" fill="#FFFFFF"></path>
    </g>
</svg>