<?xml version="1.0" encoding="UTF-8"?>
<svg width="70px" height="70px" viewBox="0 0 70 70" version="1.1" xmlns="http://www.w3.org/2000/svg" xmlns:xlink="http://www.w3.org/1999/xlink">
    <!-- Generator: Sketch 47 (45396) - http://www.bohemiancoding.com/sketch -->
    <title>Artboard</title>
    <desc>Created with Sketch.</desc>
    <defs></defs>
    <g id="Page-1" stroke="none" stroke-width="1" fill="none" fill-rule="evenodd">
        <g id="ic-menu-18px" transform="translate(-4.000000, -3.000000)">
            <polygon id="Shape" points="3 3 73 3 73 73 3 73"></polygon>
            <path d="M36.1837662,36.1837662 L13.1837662,36.1837662 L13.1837662,36.1837662 C12.0791967,36.1837662 11.1837662,37.0791967 11.1837662,38.1837662 C11.1837662,39.2883357 12.0791967,40.1837662 13.1837662,40.1837662 L36.1837662,40.1837662 L36.1837662,63.1837662 C36.1837662,64.2883357 37.0791967,65.1837662 38.1837662,65.1837662 C39.2883357,65.1837662 40.1837662,64.2883357 40.1837662,63.1837662 L40.1837662,40.1837662 L63.1837662,40.1837662 C64.2883357,40.1837662 65.1837662,39.2883357 65.1837662,38.1837662 C65.1837662,37.0791967 64.2883357,36.1837662 63.1837662,36.1837662 L40.1837662,36.1837662 L40.1837662,13.1837662 L40.1837662,13.1837662 C40.1837662,12.0791967 39.2883357,11.1837662 38.1837662,11.1837662 L38.1837662,11.1837662 L38.1837662,11.1837662 C37.0791967,11.1837662 36.1837662,12.0791967 36.1837662,13.1837662 L36.1837662,36.1837662 Z" id="Combined-Shape" fill="#FFFFFF" fill-rule="nonzero" transform="translate(38.183766, 38.183766) rotate(45.000000) translate(-38.183766, -38.183766) "></path>
        </g>
    </g>
</svg>