<?xml version="1.0" encoding="UTF-8"?>
<svg width="250px" height="250px" viewBox="0 0 250 250" version="1.1" xmlns="http://www.w3.org/2000/svg" xmlns:xlink="http://www.w3.org/1999/xlink">
    <!-- Generator: Sketch 47 (45396) - http://www.bohemiancoding.com/sketch -->
    <title>EOS</title>
    <desc>Created with Sketch.</desc>
    <defs></defs>
    <g id="Page-1" stroke="none" stroke-width="1" fill="none" fill-rule="evenodd">
        <path d="M125,1.42679264e-14 C55.9644063,-3.56698161e-15 7.13396321e-15,55.9644063 0,125 C-7.13396321e-15,194.035594 55.9644063,250 125,250 C194.035594,250 250,194.035594 250,125 C250,55.9644063 194.035594,3.56698161e-15 125,1.42679264e-14 Z M113.864898,191.698479 L72.0484184,166.707843 C70.8118398,165.979095 70.2021883,164.523552 70.5502911,163.131064 L85.0165832,104.357655 C85.093536,104.03519 85.3756416,103.803307 85.7069041,103.79023 C86.0381667,103.777154 86.3376726,103.986079 86.4398042,104.301476 L115.213212,190.612337 C115.320654,190.976114 115.198008,191.368774 114.902618,191.606727 C114.607227,191.844681 114.197458,191.880911 113.864898,191.698479 Z M123.57054,194.455552 L88.2420655,88.7401794 C88.1929179,88.5886284 88.2217953,88.4225836 88.319223,88.296524 L122.644651,44.7700686 C122.970108,44.3555755 123.467908,44.1135285 123.994906,44.1135285 C124.521905,44.1135285 125.019704,44.3555755 125.345162,44.7700686 L159.738102,88.3640367 C159.844531,88.4859677 159.874274,88.6569885 159.81526,88.8076922 L124.467496,194.455552 C124.403299,194.648746 124.222598,194.779116 124.019018,194.779116 C123.815438,194.779116 123.634737,194.648746 123.57054,194.455552 Z M175.943549,166.726569 L134.192613,191.661026 C133.860053,191.843458 133.450284,191.807228 133.154893,191.569274 C132.859503,191.33132 132.736857,190.938661 132.844299,190.574884 L161.701976,104.863273 C161.804108,104.547877 162.103614,104.338952 162.434876,104.352028 C162.766139,104.365104 163.048245,104.596987 163.125197,104.919453 L177.441677,163.09361 C177.808257,164.497924 177.196128,165.974683 175.943549,166.707843 L175.943549,166.726569 Z" id="EOS" fill="#163D62" fill-rule="nonzero"></path>
    </g>
</svg>