<?xml version="1.0" encoding="UTF-8"?>
<svg width="250px" height="250px" viewBox="0 0 250 250" version="1.1" xmlns="http://www.w3.org/2000/svg" xmlns:xlink="http://www.w3.org/1999/xlink">
    <!-- Generator: Sketch 47 (45396) - http://www.bohemiancoding.com/sketch -->
    <title>ETC</title>
    <desc>Created with Sketch.</desc>
    <defs></defs>
    <g id="Page-1" stroke="none" stroke-width="1" fill="none" fill-rule="evenodd">
        <path d="M125,1.42679264e-14 C55.9644063,-3.56698161e-15 7.13396321e-15,55.9644063 0,125 C-7.13396321e-15,194.035594 55.9644063,250 125,250 C194.035594,250 250,194.035594 250,125 C250,55.9644063 194.035594,3.56698161e-15 125,1.42679264e-14 Z M125.043103,209.590517 L73.9439655,131.702586 L125.043103,159.116379 L174.978448,131.702586 L125.043103,209.590517 Z M76.4547414,124.655172 L125.140086,97.9525862 L173.329741,124.655172 L124.892241,151.400862 L76.4547414,124.655172 Z M125.043103,89.8275862 L73.9439655,117.241379 L125.043103,39.3318966 L174.978448,117.219828 L125.043103,89.8275862 Z" id="ETC" fill="#163D62" fill-rule="nonzero"></path>
    </g>
</svg>