<?xml version="1.0" encoding="UTF-8"?>
<svg width="250px" height="250px" viewBox="0 0 250 250" version="1.1" xmlns="http://www.w3.org/2000/svg" xmlns:xlink="http://www.w3.org/1999/xlink">
    <!-- Generator: Sketch 47 (45396) - http://www.bohemiancoding.com/sketch -->
    <title>ETH</title>
    <desc>Created with Sketch.</desc>
    <defs></defs>
    <g id="Page-1" stroke="none" stroke-width="1" fill="none" fill-rule="evenodd">
        <g id="ETH" fill="#163D62">
            <path d="M125,1.42679264e-14 C55.9644063,-3.56698161e-15 7.13396321e-15,55.9644063 0,125 C-7.13396321e-15,194.035594 55.9644063,250 125,250 C194.035594,250 250,194.035594 250,125 C250,55.9644063 194.035594,3.56698161e-15 125,1.42679264e-14 Z M121.798246,211.907895 L71.6776316,135.690789 L121.798246,167.489035 L121.798246,211.907895 Z M121.798246,159.616228 L70.4824561,127.620614 L121.798246,36.995614 L121.798246,159.616228 Z M126.929825,36.995614 L178.245614,127.620614 L126.929825,159.616228 L126.929825,36.995614 Z M127.620614,211.907895 L127.620614,167.47807 L178.421053,135.679825 L127.620614,211.907895 Z" fill-rule="nonzero"></path>
            <polygon id="Rectangle-6" points="69.0789474 125 123.903509 94.2982456 179.824561 125 179.824561 131.578947 123.903509 100.877193 69.0789474 131.578947"></polygon>
        </g>
    </g>
</svg>