<?xml version="1.0" encoding="UTF-8"?>
<svg width="250px" height="250px" viewBox="0 0 250 250" version="1.1" xmlns="http://www.w3.org/2000/svg" xmlns:xlink="http://www.w3.org/1999/xlink">
    <!-- Generator: Sketch 47 (45396) - http://www.bohemiancoding.com/sketch -->
    <title>LTC</title>
    <desc>Created with Sketch.</desc>
    <defs></defs>
    <g id="Page-1" stroke="none" stroke-width="1" fill="none" fill-rule="evenodd">
        <path d="M125,1.42679264e-14 C55.9644063,-3.56698161e-15 7.13396321e-15,55.9644063 0,125 C-7.13396321e-15,194.035594 55.9644063,250 125,250 C194.035594,250 250,194.035594 250,125 C250,55.9644063 194.035594,3.56698161e-15 125,1.42679264e-14 Z M179.859438,184.427711 L179.859438,184.427711 L72.1285141,184.166667 L82.8714859,143.002008 L67.2590361,148.885542 L72.6405622,129.176707 L87.9919679,123.805221 L106.676707,53.5240964 L147.238956,53.5240964 L133.032129,107.399598 L153.253012,99.7188755 L147.871486,119.427711 L127.911647,126.586345 L119.216867,158.835341 L186.777108,158.704819 L179.859438,184.427711 Z" id="LTC" fill="#163D62" fill-rule="nonzero"></path>
    </g>
</svg>