<?xml version="1.0" encoding="UTF-8"?>
<svg width="54px" height="36px" viewBox="0 0 54 36" version="1.1" xmlns="http://www.w3.org/2000/svg" xmlns:xlink="http://www.w3.org/1999/xlink">
    <!-- Generator: Sketch 47 (45396) - http://www.bohemiancoding.com/sketch -->
    <title>ic-menu-18px</title>
    <desc>Created with Sketch.</desc>
    <defs></defs>
    <g id="Page-1" stroke="none" stroke-width="1" fill="none" fill-rule="evenodd">
        <g id="Artboard" transform="translate(-164.000000, -16.000000)">
            <g id="ic-menu-18px" transform="translate(156.000000, 0.000000)">
                <polygon id="Shape" points="0 0 70 0 70 70 0 70"></polygon>
                <path d="M10,51.1578947 L60,51.1578947 L60,51.1578947 C61.1045695,51.1578947 62,50.2624642 62,49.1578947 L62,49.1578947 L62,49.1578947 C62,48.0533252 61.1045695,47.1578947 60,47.1578947 L10,47.1578947 L10,47.1578947 C8.8954305,47.1578947 8,48.0533252 8,49.1578947 L8,49.1578947 L8,49.1578947 C8,50.2624642 8.8954305,51.1578947 10,51.1578947 Z M10,35.5789474 L60,35.5789474 L60,35.5789474 C61.1045695,35.5789474 62,34.6835169 62,33.5789474 L62,33.5789474 L62,33.5789474 C62,32.4743779 61.1045695,31.5789474 60,31.5789474 L10,31.5789474 L10,31.5789474 C8.8954305,31.5789474 8,32.4743779 8,33.5789474 L8,33.5789474 L8,33.5789474 C8,34.6835169 8.8954305,35.5789474 10,35.5789474 Z M8,18 L8,18 L8,18 C8,19.1045695 8.8954305,20 10,20 L60,20 L60,20 C61.1045695,20 62,19.1045695 62,18 L62,18 L62,18 C62,16.8954305 61.1045695,16 60,16 L10,16 L10,16 C8.8954305,16 8,16.8954305 8,18 Z" id="Shape" fill="#FFFFFF" fill-rule="nonzero"></path>
            </g>
        </g>
    </g>
</svg>