<?xml version="1.0" encoding="UTF-8"?>
<svg width="269px" height="269px" viewBox="0 0 269 269" version="1.1" xmlns="http://www.w3.org/2000/svg" xmlns:xlink="http://www.w3.org/1999/xlink">
    <!-- Generator: Sketch 47 (45396) - http://www.bohemiancoding.com/sketch -->
    <title>Slice 2</title>
    <desc>Created with Sketch.</desc>
    <defs></defs>
    <g id="Page-1" stroke="none" stroke-width="1" fill="none" fill-rule="evenodd">
        <path d="M19,153 C9.0588745,153 1,144.941125 1,135 C1,125.058875 9.0588745,117 19,117 C28.9411255,117 37,125.058875 37,135 C37,144.941125 28.9411255,153 19,153 Z M104.5,166 C87.6553151,166 74,152.344685 74,135.5 C74,118.655315 87.6553151,105 104.5,105 C121.344685,105 135,118.655315 135,135.5 C135,152.344685 121.344685,166 104.5,166 Z M219,184 C191.938047,184 170,162.061953 170,135 C170,107.938047 191.938047,86 219,86 C246.061953,86 268,107.938047 268,135 C268,162.061953 246.061953,184 219,184 Z" id="Combined-Shape" fill="#163D62"></path>
    </g>
</svg>