<?xml version="1.0" encoding="UTF-8"?>
<svg width="118px" height="118px" viewBox="0 0 118 118" version="1.1" xmlns="http://www.w3.org/2000/svg" xmlns:xlink="http://www.w3.org/1999/xlink">
    <!-- Generator: Sketch 47 (45396) - http://www.bohemiancoding.com/sketch -->
    <title>Slice 3</title>
    <desc>Created with Sketch.</desc>
    <defs></defs>
    <g id="Page-1" stroke="none" stroke-width="1" fill="none" fill-rule="evenodd">
        <g id="Artboard" transform="translate(-55.000000, -83.000000)" fill-rule="nonzero" fill="#FFFFFF">
            <g id="Group-6" transform="translate(77.000000, 165.000000)">
                <path d="M54,14.5804598 C52.0287356,14.5804598 50.4195402,12.9712644 50.4195402,11 C50.4195402,9.00862069 52.0287356,7.41954023 54,7.41954023 C55.9712644,7.41954023 57.5804598,9.02873563 57.5804598,11 C57.6005747,12.9712644 55.9913793,14.5804598 54,14.5804598 M54,4 C50.137931,4 47,7.13793103 47,11 C47,14.862069 50.137931,18 54,18 C57.862069,18 61,14.862069 61,11 C61,7.11781609 57.862069,4 54,4" id="Shape"></path>
                <path d="M22,14.5804598 C20.0287356,14.5804598 18.4195402,12.9712644 18.4195402,11 C18.4195402,9.00862069 20.0287356,7.41954023 22,7.41954023 C23.9712644,7.41954023 25.5804598,9.02873563 25.5804598,11 C25.5804598,12.9712644 23.9712644,14.5804598 22,14.5804598 M22,4 C18.137931,4 15,7.13793103 15,11 C15,14.862069 18.137931,18 22,18 C25.862069,18 29,14.862069 29,11 C28.9798851,7.11781609 25.862069,4 22,4" id="Shape"></path>
                <path d="M46.5211268,14.6896552 C46.0821596,14.8137931 45.4037559,14.9586207 45.1643192,14.9586207 C43.9671362,14.9586207 43.7276995,14.5241379 43.7276995,13.3655172 L43.7276995,6.70344828 L46.5610329,6.70344828 L46.5610329,3.93103448 L43.7276995,3.93103448 L43.7276995,0 L40.5352113,0 L39.8568075,3.93103448 L37.6420188,3.93103448 L37.6420188,3.93103448 L37.4624413,3.93103448 C35.6467136,3.93103448 34.2699531,5.08965517 33.3920188,6.88965517 L32.2946009,3.93103448 L30,3.93103448 L30,17.7310345 L33.9107981,17.7310345 L33.9107981,11.7310345 C33.9107981,8.71034483 35.6467136,6.76551724 37.6819249,6.70344828 L39.8169014,6.70344828 L39.8169014,13.5724138 C39.8169014,16.8 41.4131455,18 44.0070423,18 C45.3438967,18 46.3814554,17.7103448 47,17.5034483 L46.5211268,14.6896552 Z" id="Shape"></path>
                <polyline id="Shape" points="66 8.10628743 66 17 62 17 62 4 64.4293194 4 65.2460733 5.98502994"></polyline>
                <path d="M66,6.24597365 C67.1497797,4.97071742 68.715859,4 70.5594714,4 C73.7114537,4 75,6.41727672 75,8.64421669 L75,17 L71.1145374,17 L71.1145374,8.75841874 C71.1145374,7.67349927 70.1629956,7.08345534 69.1519824,7.08345534 C68.061674,7.08345534 67.3678414,7.69253294 66.753304,8.32064422" id="Shape"></path>
                <polygon id="Shape" points="0 0 4.38 0 10.38 11.3069307 10.38 0 14 0 14 18 10.04 18 3.62 5.54455446 3.62 18 0 18"></polygon>
                <polygon id="Shape" points="73 0 73 0.684210526 74.0384615 0.684210526 74.0384615 4 74.9038462 4 74.9038462 0.684210526 76 0.684210526 76 0"></polygon>
                <polygon id="Shape" points="77.8059701 0 77.0298507 2.63157895 76.1940299 0 75 0 75 4 75.7761194 4 75.7761194 0.842105263 75.7761194 0.842105263 76.7313433 4 77.3283582 4 78.2835821 0.842105263 78.2835821 0.842105263 78.2835821 4 79 4 79 0"></polygon>
                <path d="M4.65100671,28.2178218 C4.65100671,27.0693069 4.2885906,25.7227723 2.95973154,25.7227723 C2.33557047,25.7227723 1.77181208,26 1.26845638,26.5148515 L1.26845638,30.2970297 C1.73154362,30.7920792 2.15436242,31.049505 2.79865772,31.049505 C3.98657718,31.029703 4.65100671,30.019802 4.65100671,28.2178218 M1.00671141,31.029703 L0.724832215,31.8811881 L0,31.8811881 L0,22 L1.26845638,22 L1.26845638,25.6039604 C1.69127517,25.1485149 2.37583893,24.6732673 3.24161074,24.6732673 C5.15436242,24.6732673 6,26.5346535 6,28.2178218 C6,30.4752475 4.81208054,32 3.04026846,32 C2.11409396,32 1.48993289,31.6237624 1.00671141,31.029703" id="Shape"></path>
                <path d="M7,25 L8.28,25 C8.28,25 10.08,31.1806982 10.08,31.201232 L11.76,25 L13,25 L10.6,32.8850103 C10.18,34.2402464 9.48,35 8.1,35 C7.82,35 7.52,34.9589322 7.24,34.8767967 L7.4,33.9527721 C7.58,33.973306 7.76,34.0349076 8,34.0349076 C8.74,34.0349076 9.3,33.6858316 9.58,32.7823409 L7,25 Z" id="Shape"></path>
                <path d="M17,30.904601 L17.5519288,30.0453851 C18.1038576,30.4945207 18.8872404,30.9827115 20.0623145,30.9827115 C21.2195846,30.9827115 21.8961424,30.3773549 21.8961424,29.3228627 C21.8961424,28.1512046 21.0771513,27.7801796 19.9020772,27.331044 C18.6379822,26.8428532 17.4807122,26.2179689 17.4807122,24.4409542 C17.4807122,22.8592159 18.620178,22 20.115727,22 C21.1839763,22 21.8071217,22.1952763 22.5014837,22.6248843 L22.0385757,23.5622107 C21.4866469,23.2302409 20.8991098,23.0349646 20.0979228,23.0349646 C19.1543027,23.0349646 18.5133531,23.4450449 18.5133531,24.4214266 C18.5133531,25.4563912 19.1364985,25.788361 20.4362018,26.2960794 C21.6824926,26.7647426 23,27.3700993 23,29.2838074 C23,30.9827115 21.8961424,31.9981485 20.0801187,31.9981485 C18.6023739,32.0372038 17.5875371,31.4513748 17,30.904601" id="Shape"></path>
                <path d="M24,25 L25.28,25 C25.28,25 27.08,31.1806982 27.08,31.201232 L28.76,25 L30,25 L27.6,32.8850103 C27.18,34.2402464 26.48,35 25.1,35 C24.82,35 24.52,34.9589322 24.24,34.8767967 L24.4,33.9527721 C24.58,33.973306 24.76,34.0349076 25,34.0349076 C25.74,34.0349076 26.3,33.6858316 26.58,32.7823409 L24,25 Z" id="Shape"></path>
                <path d="M39.2537313,25 C40.6353945,25 41,26.1730769 41,27.3076923 L41,32 L39.7910448,32 L39.7910448,27.3076923 C39.7910448,26.6346154 39.6759062,26.0192308 38.8507463,26.0192308 C38.2942431,26.0192308 37.6993603,26.3653846 37.1044776,26.9615385 L37.1044776,32 L35.8955224,32 L35.8955224,27.3076923 C35.8955224,26.6346154 35.7803838,26.0192308 34.9552239,26.0192308 C34.3795309,26.0192308 33.7654584,26.4230769 33.2089552,26.9807692 L33.2089552,32 L32,32 L32,25.1346154 L32.7100213,25.1346154 L33.0170576,26.25 C33.6503198,25.5576923 34.4179104,25 35.3390192,25 C36.2601279,25 36.6439232,25.5 36.91258,26.1923077 C37.5458422,25.4807692 38.3710021,25 39.2537313,25" id="Shape"></path>
                <path d="M47.6494465,28.4054054 C46.0774908,28.6513514 45.0590406,28.9351351 44.6605166,29.3513514 C44.4612546,29.5594595 44.4169742,29.7486486 44.4169742,30.0324324 C44.4169742,30.6945946 44.7933579,31.072973 45.6346863,31.072973 C46.4317343,31.072973 47.1402214,30.7324324 47.6494465,30.4108108 L47.6494465,28.4054054 Z M47.6494465,27.327027 C47.6494465,26.4189189 47.3173432,25.9648649 46.1660517,25.9648649 C45.3690037,25.9648649 44.6605166,26.2297297 43.9077491,26.5513514 L43.398524,25.7567568 C44.2177122,25.3216216 45.103321,25 46.2546125,25 C48.2250923,25 49,25.9081081 49,27.4216216 L49,31.9054054 L48.202952,31.9054054 L47.8487085,31.0918919 C47.295203,31.5648649 46.4317343,32 45.4132841,32 C44.0184502,32 43,31.2621622 43,30.127027 C43,29.3891892 43.3321033,28.8594595 44.0627306,28.4810811 C44.7712177,28.1027027 46.0332103,27.8378378 47.6494465,27.6297297 L47.6494465,27.327027 L47.6494465,27.327027 Z" id="Shape"></path>
                <path d="M51,25.1346154 L51.7985612,25.1346154 L52.1438849,26.2692308 C52.8561151,25.5576923 53.7625899,25 54.9064748,25 C56.5683453,25 57,26.1730769 57,27.3076923 L57,32 L55.6402878,32 L55.6402878,27.3076923 C55.6402878,26.6346154 55.4460432,26.0192308 54.4532374,26.0192308 C53.7410072,26.0192308 52.9856115,26.4230769 52.3597122,27 L52.3597122,32 L51,32 L51,25.1346154 L51,25.1346154 Z" id="Shape"></path>
                <path d="M58,25.8318966 L58,24.9784483 L59.0679612,24.9784483 L59.3786408,23 L60.2524272,23 L60.2524272,24.9784483 L61.8058252,24.9784483 L61.8058252,25.8318966 L60.2524272,25.8318966 L60.2524272,30.0991379 C60.2524272,30.7392241 60.368932,31.0883621 61.0291262,31.0883621 C61.3009709,31.0883621 61.5145631,31.0301724 61.8252427,30.9525862 L62,31.7866379 C61.7281553,31.9030172 61.3009709,32 60.8737864,32 C59.6116505,32 59.0485437,31.3987069 59.0485437,30.1573276 L59.0485437,25.8125 L58,25.8125 L58,25.8318966 Z" id="Shape"></path>
                <path d="M66.7038328,28.0459459 C66.6620209,26.627027 66.1393728,25.8891892 65.0940767,25.8891892 C64.1533101,25.8891892 63.5261324,26.5513514 63.4216028,28.0459459 L66.7038328,28.0459459 Z M65.28223,31.0540541 C66.1393728,31.0540541 66.6829268,30.7513514 67.3101045,30.3918919 L67.8536585,31.1108108 C67.1219512,31.6405405 66.4529617,32 65.1567944,32 C63.2334495,32 62,30.6567568 62,28.5189189 C62,26.4378378 63.1916376,25 65.0522648,25 C66.9756098,25 68,26.3054054 68,28.5567568 L68,28.8405405 L63.358885,28.8405405 C63.4634146,30.2783784 64.0278746,31.0540541 65.28223,31.0540541 L65.28223,31.0540541 Z" id="Shape"></path>
                <path d="M69,28.5471698 C69,26.8113208 69.9144981,25 72.3680297,25 C73.394052,25 74.1524164,25.2075472 74.866171,25.7169811 L74.2639405,26.509434 C73.7509294,26.1886792 73.1486989,25.9622642 72.3903346,25.9622642 C70.7174721,25.9622642 70.472119,27.4150943 70.472119,28.5660377 C70.472119,29.6792453 70.7620818,31.0377358 72.4349442,31.0377358 C73.2379182,31.0377358 73.795539,30.7735849 74.330855,30.3962264 L75,31.0943396 C74.4200743,31.5849057 73.6171004,32 72.3680297,32 C69.936803,31.9811321 69,30.2264151 69,28.5471698" id="Shape"></path>
            </g>
            <path d="M114,103.103647 C108.165067,103.103647 102.667946,105.3762 98.5220729,109.522073 C94.3761996,113.667946 92.1036468,119.165067 92.1036468,125 C92.1036468,130.834933 94.3761996,136.332054 98.5220729,140.477927 C102.667946,144.6238 108.165067,146.896353 114,146.896353 C119.834933,146.896353 125.332054,144.6238 129.477927,140.477927 C133.59309,136.332054 135.865643,130.834933 135.896353,125 C135.896353,119.165067 133.6238,113.667946 129.477927,109.522073 C125.332054,105.40691 119.834933,103.103647 114,103.103647 M114,157 C96.3723608,157 82,142.627639 82,125 C82,107.341651 96.3723608,93 114,93 C131.627639,93 146,107.341651 146,125 C146,142.627639 131.627639,157 114,157" id="Shape"></path>
            <rect id="Rectangle-path" x="148" y="88" width="3" height="3"></rect>
            <rect id="Rectangle-path" x="148" y="83" width="3" height="3"></rect>
            <rect id="Rectangle-path" x="141" y="90" width="3" height="3"></rect>
            <rect id="Rectangle-path" x="137" y="95" width="3" height="3"></rect>
            <rect id="Rectangle-path" x="143" y="93" width="3" height="3"></rect>
            <rect id="Rectangle-path" x="134" y="93" width="3" height="3"></rect>
            <rect id="Rectangle-path" x="141" y="95" width="3" height="3"></rect>
            <rect id="Rectangle-path" x="145" y="86" width="3" height="3"></rect>
            <rect id="Rectangle-path" x="141" y="88" width="5" height="3"></rect>
            <rect id="Rectangle-path" x="139" y="90" width="3" height="5"></rect>
            <path d="M137.776334,98 L137.776334,100.348023 L135.398247,100.348023 L135.398247,98 L131.475948,98 L131.475948,99.699227 L129.375819,99.699227 L129.375819,101.80009 L131.723022,101.80009 L131.723022,104.148112 L129.375819,104.148112 L129.375819,101.80009 L126.874195,101.80009 L126.874195,105.476599 L124.526992,105.476599 L124.526992,107.824622 L122.951895,107.824622 L122.951895,110.172645 L121.222378,110.172645 C119.27667,113.045883 114.458727,122.005444 112.976284,125.651058 C107.695077,118.298039 103.587472,115.393906 100.375511,114.343475 C98.6459928,113.818259 96.545864,115.702856 99.418099,118.699675 C106.058212,126.021799 108.158341,132.046331 110.165817,136.896852 C111.246766,139.430245 116.033824,139.83188 116.991236,137.236697 C119.029596,131.768275 121.994484,125.589268 125.515288,120.553377 L125.515288,117.927299 L127.399227,117.927299 L127.399227,115.579276 L129.375819,115.579276 L129.375819,112.829618 L131.723022,112.829618 L131.723022,110.20354 L129.344935,110.20354 L129.344935,107.793727 L131.723022,107.793727 L131.723022,110.20354 L134.03934,110.20354 L134.03934,107.824622 L135.892395,107.824622 L135.892395,104.951383 L137.992524,104.951383 L137.992524,102.974101 L140,102.974101 L140,98 L137.776334,98 Z" id="Shape"></path>
        </g>
    </g>
</svg>