<?xml version="1.0" encoding="UTF-8"?>
<svg width="185px" height="185px" viewBox="0 0 185 185" version="1.1" xmlns="http://www.w3.org/2000/svg" xmlns:xlink="http://www.w3.org/1999/xlink">
    <!-- Generator: Sketch 47 (45396) - http://www.bohemiancoding.com/sketch -->
    <title>Slice 5</title>
    <desc>Created with Sketch.</desc>
    <defs></defs>
    <g id="Page-1" stroke="none" stroke-width="1" fill="none" fill-rule="evenodd">
        <path d="M90.6639889,144.899292 C59.6227387,138.600973 36.2584053,111.158206 36.2584053,78.2584053 C36.2584053,40.7030423 66.7030423,10.2584053 104.258405,10.2584053 C141.813768,10.2584053 172.258405,40.7030423 172.258405,78.2584053 C172.258405,111.158206 148.894072,138.600973 117.852822,144.899292 C118.117833,145.975407 118.258405,147.10049 118.258405,148.258405 L118.258405,186.258405 C118.258405,193.990392 111.990392,200.258405 104.258405,200.258405 C96.5264188,200.258405 90.2584053,193.990392 90.2584053,186.258405 L90.2584053,148.258405 C90.2584053,147.10049 90.3989781,145.975407 90.6639889,144.899292 Z M104.758405,126.258405 C130.991931,126.258405 152.258405,104.991931 152.258405,78.7584053 C152.258405,52.5248797 130.991931,31.2584053 104.758405,31.2584053 C78.5248797,31.2584053 57.2584053,52.5248797 57.2584053,78.7584053 C57.2584053,104.991931 78.5248797,126.258405 104.758405,126.258405 Z" id="Combined-Shape" fill="#E8EBEE" transform="translate(104.258405, 105.258405) rotate(-45.000000) translate(-104.258405, -105.258405) "></path>
    </g>
</svg>