<?xml version="1.0" encoding="UTF-8"?>
<svg width="800px" height="800px" viewBox="0 0 800 800" version="1.1" xmlns="http://www.w3.org/2000/svg" xmlns:xlink="http://www.w3.org/1999/xlink">
    <!-- Generator: Sketch 52.2 (67145) - http://www.bohemiancoding.com/sketch -->
    <title>01</title>
    <desc>Created with Sketch.</desc>
    <defs>
        <linearGradient x1="50%" y1="0%" x2="50%" y2="100%" id="linearGradient-1">
            <stop stop-color="#5E9EEA" offset="0%"></stop>
            <stop stop-color="#3065D0" offset="100%"></stop>
        </linearGradient>
        <linearGradient x1="100%" y1="50%" x2="0%" y2="50%" id="linearGradient-2">
            <stop stop-color="#4E8EDB" offset="0%"></stop>
            <stop stop-color="#3064D0" offset="100%"></stop>
        </linearGradient>
        <path d="M29.4072165,225.401543 C49.0120275,191.762973 58.814433,154.19605 58.814433,112.700771 C58.814433,71.2054931 49.0120275,33.6385694 29.4072165,0 C9.8024055,33.6385694 0,71.2054931 0,112.700771 C0,154.19605 9.8024055,191.762973 29.4072165,225.401543 Z" id="path-3"></path>
        <path d="M18.4845361,143.185406 C30.8075601,121.816643 36.9690722,97.9524085 36.9690722,71.5927031 C36.9690722,45.2329977 30.8075601,21.3687633 18.4845361,0 C6.16151203,21.3687633 0,45.2329977 0,71.5927031 C0,97.9524085 6.16151203,121.816643 18.4845361,143.185406 Z" id="path-5"></path>
        <polygon id="path-7" points="0 0 76.9284794 0 64.9853172 74.1532091 11.9431622 74.1532091"></polygon>
        <polygon id="path-9" points="7.24688574 0 79.7157431 0 86.9626289 17.6956522 0 17.6956522"></polygon>
        <filter x="-4.6%" y="-11.3%" width="109.2%" height="145.2%" filterUnits="objectBoundingBox" id="filter-10">
            <feOffset dx="0" dy="2" in="SourceAlpha" result="shadowOffsetOuter1"></feOffset>
            <feGaussianBlur stdDeviation="1" in="shadowOffsetOuter1" result="shadowBlurOuter1"></feGaussianBlur>
            <feColorMatrix values="0 0 0 0 0.031372549   0 0 0 0 0.0274509804   0 0 0 0 0.235294118  0 0 0 0.3 0" type="matrix" in="shadowBlurOuter1"></feColorMatrix>
        </filter>
        <path d="M80.4804287,193.94159 C79.6358518,204.579318 79.2135633,209.898182 79.2135633,209.898182 C79.2135633,209.898182 48.6310259,209.898182 48.6310259,192.176139 C48.6310259,174.454096 41.8195521,162.787958 23.942546,135.248008 C10.3561873,114.317902 9.48402771,98.6042202 9.84800972,87.836529 C4.03952187,84.4430311 0,76.9136309 0,68.170136 C0,56.2478493 7.5106751,46.5829263 16.7755624,46.5829263 C20.6579314,46.5829263 24.2322687,48.2800432 27.0750037,51.1292158 C26.6921007,49.3186538 26.4877301,47.4134178 26.4877301,45.4467574 C26.4877301,33.8648787 33.5756348,24.4132984 42.4741167,23.8830126 C42.4121457,23.128655 42.3803681,22.3627078 42.3803681,21.5872097 C42.3803681,9.66492301 49.8910432,0 59.1559305,0 C68.4208177,0 75.9314928,9.66492301 75.9314928,21.5872097 C75.9314928,24.8636905 75.3642421,27.9696818 74.3492218,30.751432 C74.8716065,30.7018115 75.3992582,30.6765612 75.9314928,30.6765612 C87.6345083,30.6765612 97.1216769,42.884885 97.1216769,57.9446156 C97.1216769,65.4999634 94.7338044,72.3376264 90.8762338,77.2760753 C99.5978169,80.653382 105.95092,91.067652 105.95092,103.391373 C105.95092,110.608845 103.771844,117.171387 100.21411,122.049 C103.724884,125.904273 105.95092,131.639877 105.95092,138.044525 C105.95092,147.374375 101.227126,155.284468 94.6893479,158.030391 C97.8192621,161.859729 99.7704499,167.269527 99.7704499,173.265762 C99.7704499,184.874305 92.4574241,194.284888 83.4363497,194.284888 C82.4270451,194.284888 81.4391214,194.167088 80.4804287,193.94159 Z" id="path-11"></path>
        <path d="M60.0194818,196.885355 C59.4152845,202.827524 59.1131858,205.798608 59.1131858,205.798608 C59.1131858,205.798608 37.234909,205.798608 37.234909,195.899186 C37.234909,185.999763 32.3620855,179.483132 19.5731503,164.099488 C9.85367831,152.408061 9.22974875,143.630497 9.49013588,137.615732 C5.33483303,135.720145 2.44502124,131.514269 2.44502124,126.630207 C2.44502124,119.970493 7.81804266,114.571727 14.4460005,114.571727 C17.2233876,114.571727 19.7804135,115.519726 21.8140624,117.111256 C21.5401395,116.099887 21.3939358,115.035634 21.3939358,113.93707 C21.3939358,107.467505 26.4645138,102.187911 32.8303509,101.891697 C32.7860178,101.470318 32.7632846,101.042464 32.7632846,100.609276 C32.7632846,93.949561 38.136306,88.5507955 44.7642638,88.5507955 C51.3922216,88.5507955 56.765243,93.949561 56.765243,100.609276 C56.765243,102.439498 56.3594406,104.174485 55.6333107,105.728353 C56.0070167,105.700635 56.3844905,105.686531 56.765243,105.686531 C65.1374003,105.686531 71.9243747,112.506024 71.9243747,120.918296 C71.9243747,125.138666 70.2161275,128.958141 67.4564808,131.716728 C73.6957671,133.603271 78.2406796,139.420617 78.2406796,146.30457 C78.2406796,150.336205 76.6818019,154.002 74.1366537,156.726604 C76.648208,158.880137 78.2406796,162.084009 78.2406796,165.661605 C78.2406796,170.8732 74.86135,175.291729 70.184324,176.825584 C72.4234164,178.964628 73.8192662,181.986508 73.8192662,185.335967 C73.8192662,191.820427 68.58764,197.077119 62.1341022,197.077119 C61.4120612,197.077119 60.7053158,197.011317 60.0194818,196.885355 Z" id="path-13"></path>
        <path d="M57.706968,108.205364 C57.10138,114.140446 56.7985861,117.107987 56.7985861,117.107987 C56.7985861,117.107987 34.8699565,117.107987 34.8699565,107.22037 C34.8699565,97.3327537 29.9859182,90.8238936 17.1675494,75.4585957 C7.42570807,63.781112 6.80034254,55.0140152 7.06132895,49.0064232 C2.89646269,47.113097 0,42.9122369 0,38.0339999 C0,31.3822271 5.38538741,25.9898999 12.0285994,25.9898999 C14.8123787,25.9898999 17.3752896,26.9367682 19.4136189,28.5264003 C19.1390656,27.5162378 18.9925254,26.453254 18.9925254,25.3559999 C18.9925254,18.8941502 24.0747734,13.6208528 30.4552614,13.3249917 C30.4108262,12.9041148 30.3880407,12.4767717 30.3880407,12.0441 C30.3880407,5.39232723 35.7734281,0 42.4166401,0 C49.0598522,0 54.4452396,5.39232723 54.4452396,12.0441 C54.4452396,13.872139 54.0385031,15.6050572 53.3107021,17.1570724 C53.6852681,17.1293878 54.0636108,17.1152999 54.4452396,17.1152999 C62.8366653,17.1152999 69.6392599,23.9266607 69.6392599,32.3288999 C69.6392599,36.5442369 67.9270812,40.3591577 65.1610832,43.1144547 C71.4147292,44.9987472 75.9701017,50.8091558 75.9701017,57.6848998 C75.9701017,61.7117266 74.4076363,65.3731498 71.8566305,68.0945049 C74.3739651,70.2454695 75.9701017,73.4455206 75.9701017,77.0188497 C75.9701017,82.22423 72.5829946,86.6374895 67.8952045,88.1695155 C70.1394502,90.3060089 71.5385125,93.3242845 71.5385125,96.6697497 C71.5385125,103.146476 66.2948458,108.3969 59.8264551,108.3969 C59.1027523,108.3969 58.3943804,108.331176 57.706968,108.205364 Z" id="path-15"></path>
        <polygon id="path-17" points="0 0 53.9383591 0 45.5644178 51.3397473 8.37394131 51.3397473"></polygon>
        <polygon id="path-19" points="5.08114977 0.842857143 55.8926475 0.842857143 60.9737973 13.0943878 0 13.0943878"></polygon>
        <filter x="-6.6%" y="-16.3%" width="113.1%" height="165.3%" filterUnits="objectBoundingBox" id="filter-20">
            <feOffset dx="0" dy="2" in="SourceAlpha" result="shadowOffsetOuter1"></feOffset>
            <feGaussianBlur stdDeviation="1" in="shadowOffsetOuter1" result="shadowBlurOuter1"></feGaussianBlur>
            <feColorMatrix values="0 0 0 0 0.031372549   0 0 0 0 0.0274509804   0 0 0 0 0.235294118  0 0 0 0.3 0" type="matrix" in="shadowBlurOuter1"></feColorMatrix>
        </filter>
        <linearGradient x1="50%" y1="0%" x2="50%" y2="100%" id="linearGradient-21">
            <stop stop-color="#E9F0FB" offset="0%"></stop>
            <stop stop-color="#A8BEE6" offset="100%"></stop>
        </linearGradient>
        <linearGradient x1="50%" y1="100%" x2="50%" y2="6.0110602%" id="linearGradient-22">
            <stop stop-color="#D4E1F4" offset="0%"></stop>
            <stop stop-color="#A9BFE5" offset="100%"></stop>
        </linearGradient>
        <linearGradient x1="100%" y1="100%" x2="100%" y2="0%" id="linearGradient-23">
            <stop stop-color="#E9F0FB" offset="0%"></stop>
            <stop stop-color="#A8BEE6" offset="100%"></stop>
        </linearGradient>
        <linearGradient x1="95.9778843%" y1="7.12705748%" x2="19.9724571%" y2="37.7426114%" id="linearGradient-24">
            <stop stop-color="#135ECC" offset="0%"></stop>
            <stop stop-color="#154D93" offset="100%"></stop>
        </linearGradient>
    </defs>
    <g id="01" stroke="none" stroke-width="1" fill="none" fill-rule="evenodd">
        <g id="整体-1" transform="translate(70.000000, 177.000000)">
            <g id="bg" transform="translate(55.000000, 0.000000)">
                <rect id="矩形" fill="#2F5889" fill-rule="nonzero" opacity="0.494861421" x="110" y="177" width="360" height="241"></rect>
                <rect id="矩形-copy-45" fill="#2F5889" fill-rule="nonzero" opacity="0.494861421" x="0" y="0" width="244" height="241"></rect>
                <rect id="矩形-copy-46" fill="#2F6F89" fill-rule="nonzero" opacity="0.494861421" x="278" y="0" width="84" height="107"></rect>
                <path d="M513,28 L535,28 C537.209139,28 539,29.790861 539,32 L539,384.442216 C539,386.651355 537.209139,388.442216 535,388.442216 L513,388.442216 C510.790861,388.442216 509,386.651355 509,384.442216 L509,32 C509,29.790861 510.790861,28 513,28 Z" id="矩形-copy-34" fill="#385383" fill-rule="nonzero"></path>
                <path d="M62.5,32.5 L62.5,383.5 L520.5,383.5 L520.5,32.5 L62.5,32.5 Z" id="矩形-2" stroke="#89A7DB" stroke-width="9" fill="#FFFFFF" fill-rule="nonzero"></path>
                <rect id="矩形" fill="#E9EFFD" fill-rule="nonzero" x="72" y="211" width="130" height="124"></rect>
                <g id="分组-20" transform="translate(90.000000, 62.000000)" fill-rule="nonzero">
                    <polygon id="矩形" fill="#C5D3F1" points="31.0153846 0 112 0 112 22 31.0153846 22"></polygon>
                    <polygon id="矩形-copy-44" fill="#007AC4" points="3.69482223e-13 0 18.0923077 0 18.0923077 22 3.69482223e-13 22"></polygon>
                </g>
                <g id="分组-20-copy" transform="translate(90.000000, 110.000000)" fill-rule="nonzero">
                    <polygon id="矩形" fill="#C5D3F1" points="31.0153846 0 112 0 112 22 31.0153846 22"></polygon>
                    <polygon id="矩形-copy-44" fill="#007AC4" points="3.69482223e-13 0 18.0923077 0 18.0923077 22 3.69482223e-13 22"></polygon>
                </g>
                <g id="分组-20-copy-2" transform="translate(90.000000, 158.000000)" fill-rule="nonzero">
                    <polygon id="矩形" fill="#C5D3F1" points="31.0153846 0 112 0 112 22 31.0153846 22"></polygon>
                    <polygon id="矩形-copy-44" fill="#007AC4" points="3.69482223e-13 0 18.0923077 0 18.0923077 22 3.69482223e-13 22"></polygon>
                </g>
                <polygon id="矩形" fill="#E9EFFD" fill-rule="nonzero" points="233 37 370.929175 37 370.929175 205 233 205"></polygon>
                <polygon id="矩形-copy-36" fill="#E9EFFD" fill-rule="nonzero" points="377 37 514.929175 37 514.929175 205 377 205"></polygon>
                <polygon id="矩形-copy-35" fill="#E9EFFD" fill-rule="nonzero" points="234 211 372 211 372 379 234 379"></polygon>
                <polygon id="矩形-copy-37" fill="url(#linearGradient-1)" fill-rule="nonzero" points="378 211 516 211 516 379 378 379"></polygon>
                <path d="M301.527556,123.216169 L292.562075,90.5614852 L301.498315,77 L310.728146,91.003208 L301.527556,123.216169 Z M303.98931,124.866869 L312.017791,96.9239447 L316,116.281902 L303.98931,124.866869 Z M291.205627,95.8326621 L299.193109,125 L287,116.282262 L291.205627,95.8326621 Z" id="Combined-Shape" fill="#3166D1"></path>
                <path d="M457.558501,100.127329 C459.638099,101.721154 461.004379,104.413769 460.999989,107.469563 C460.999989,112.365543 457.489364,116.333912 453.157874,116.333912 C452.447847,116.333912 451.377869,116.333912 450.089506,116.333912 L450.089506,123.281738 C450.089506,123.676146 449.783327,124 449.408012,124 L447.135269,124 C446.761051,124 446.453775,123.677302 446.453775,123.281738 L446.453775,116.333912 L442.816947,116.333912 L442.816947,123.281738 C442.816947,123.676146 442.510769,124 442.135454,124 L439.86271,124 C439.488492,124 439.181217,123.677302 439.181217,123.281738 L439.181217,116.333912 L432.038153,116.333912 C431.616746,116.333912 431.298496,115.930251 431.376413,115.494204 L431.376508,113.051419 C431.433574,112.734505 431.685979,112.506651 431.989963,112.475422 C434.132113,112.257977 435.546584,110.668779 435.546584,108.666667 L435.546584,93.8121748 C435.546584,91.5868346 434.173719,89.7755651 431.612357,89.5280481 C431.262282,89.4945061 431,89.1741219 431,88.804003 L431,86.3843505 C431,85.9876292 431.305081,85.6660884 431.681494,85.6660884 L439.183411,85.6660884 L439.183411,78.7182622 C439.183411,78.3238542 439.48959,78.0000001 439.864905,78.0000001 L442.137648,78.0000001 C442.511866,78.0000001 442.819142,78.3226975 442.819142,78.7182622 L442.819142,85.6660884 L446.45597,85.6660884 L446.45597,78.7182622 C446.45597,78.3238542 446.762148,78.0000001 447.137464,78.0000001 L449.412402,78 C449.786619,78 450.093895,78.3226974 450.093895,78.7182621 L450.093895,85.6660883 C450.57566,85.6660883 450.997066,85.6660883 451.343849,85.6660883 C455.674242,85.6660883 459.185965,89.6888184 459.185965,94.6507254 C459.185965,96.7129817 458.577998,98.6109978 457.558501,100.127329 Z M442.785714,91.4634146 L442.785714,99.3170732 C442.785714,99.3170732 446.404198,99.3170732 448.547812,99.3170732 C450.691427,99.3170732 452.428571,97.5593058 452.428571,95.3902439 C452.428571,93.221182 450.691427,91.4634146 448.547812,91.4634146 C446.404198,91.4634146 442.785714,91.4634146 442.785714,91.4634146 Z M449.891977,110.536585 C451.88494,110.536585 453.5,108.778818 453.5,106.609756 C453.5,104.440694 451.88494,102.682927 449.891977,102.682927 C447.899015,102.682927 442.785714,102.682927 442.785714,102.682927 L442.785714,110.536585 C442.785714,110.536585 447.899015,110.536585 449.891977,110.536585 Z" id="Combined-Shape" fill="#3166D1" fill-rule="nonzero"></path>
                <path d="M303.665464,250 L289,273.90625 L303.665464,265.491176 L318,273.90625 L303.665464,250 Z M290.526316,275.491934 L304.264456,283.46875 L318,275.491934 L304.332211,267.53125 L290.526316,275.491934 Z M303.665464,285.508658 L289,277.09375 L303.665464,301 L318,277.09375 L303.665464,285.508658 Z" id="Page-1" fill="#3166D1" fill-rule="nonzero"></path>
                <rect id="矩形" fill="url(#linearGradient-2)" fill-rule="nonzero" x="269" y="143" width="64" height="10"></rect>
                <rect id="矩形-copy-40" fill="url(#linearGradient-2)" fill-rule="nonzero" x="269" y="313" width="64" height="10"></rect>
                <rect id="矩形-copy-38" fill="url(#linearGradient-2)" fill-rule="nonzero" x="413.929175" y="143" width="64" height="10"></rect>
                <rect id="矩形" fill="url(#linearGradient-2)" fill-rule="nonzero" x="269" y="159" width="48" height="6"></rect>
                <rect id="矩形-copy-41" fill="url(#linearGradient-2)" fill-rule="nonzero" x="269" y="329" width="48" height="6"></rect>
                <rect id="矩形-copy-39" fill="url(#linearGradient-2)" fill-rule="nonzero" x="413.929175" y="159" width="56" height="8"></rect>
                <rect id="矩形" fill="url(#linearGradient-2)" fill-rule="nonzero" x="269" y="171" width="48" height="6"></rect>
                <rect id="矩形-copy-42" fill="url(#linearGradient-2)" fill-rule="nonzero" x="269" y="341" width="48" height="6"></rect>
                <path d="M435.849765,101.62589 L208.888067,101.62589 L208.888067,276 L296.566964,276" id="路径-59" stroke="#549BE3" stroke-width="3" stroke-dasharray="8" fill-rule="nonzero"></path>
                <g id="分组-21" transform="translate(398.000000, 249.000000)" fill="#FFFFFF" fill-rule="nonzero">
                    <polygon id="矩形" points="27 1 99 1 99 11 27 11"></polygon>
                    <polygon id="矩形-copy-44" opacity="0.304896763" points="0 0 16 0 16 10 0 10"></polygon>
                    <polygon id="矩形" points="27 27 99 27 99 37 27 37"></polygon>
                    <polygon id="矩形-copy-44" opacity="0.304896763" points="0 27 16 27 16 37 0 37"></polygon>
                    <polygon id="矩形" points="27 55 99 55 99 65 27 65"></polygon>
                    <polygon id="矩形-copy-44" opacity="0.304896763" points="0 55 16 55 16 65 0 65"></polygon>
                    <polygon id="矩形" points="27 82 99 82 99 92 27 92"></polygon>
                    <polygon id="矩形-copy-44" opacity="0.304896763" points="0 82 16 82 16 92 0 92"></polygon>
                </g>
                <path d="M69.6709061,289 C84.7501203,290.333333 96.4998532,288 104.920105,282 C117.550482,273 129.933949,248.545477 145.758957,252.5 C161.583965,256.454523 186.210352,237.5 186.210352,235.5" id="路径-60" stroke="#196EEC" stroke-width="2" fill-rule="nonzero"></path>
                <path d="M83.3493264,311.703498 L182.722643,311.703498" id="路径-61" stroke="#196EEC" fill-rule="nonzero"></path>
                <circle id="椭圆形" stroke="#196EEC" fill-rule="nonzero" cx="185.5" cy="236.5" r="4.5"></circle>
                <circle id="椭圆形-copy-8" stroke="#196EEC" fill-rule="nonzero" cx="127.5" cy="259.5" r="4.5"></circle>
                <rect id="矩形" fill="#AECAFF" fill-rule="nonzero" x="202" y="269" width="14" height="14"></rect>
                <rect id="矩形-copy-43" fill="#AECAFF" fill-rule="nonzero" x="202" y="95" width="14" height="14"></rect>
            </g>
            <g id="plant" transform="translate(0.000000, 68.000000)">
                <g id="分组-3">
                    <path d="M116.869924,236.341557 C132.964006,203.031402 140.721041,165.674618 140.141028,124.271205 C139.561015,82.8677917 130.753774,45.2570644 113.719305,11.439023 C97.6252225,44.7491777 89.8681878,82.1059617 90.4482007,123.509375 C91.0282136,164.912788 99.8354546,202.523515 116.869924,236.341557 Z" id="Mask-Copy" fill="#6CA1E3" fill-rule="nonzero" transform="translate(115.294614, 123.890290) rotate(9.000000) translate(-115.294614, -123.890290) "></path>
                    <path d="M100.464792,300.265483 C119.367751,279.212742 128.33126,255.23433 127.355319,228.330247 C126.379378,201.426164 115.648772,176.690425 95.1634999,154.123029 C76.2605408,175.17577 67.2970316,199.154182 68.2729725,226.058265 C69.2489133,252.962348 79.9795197,277.698087 100.464792,300.265483 Z" id="Mask-Copy-2" fill="#6CA1E3" fill-rule="nonzero" transform="translate(97.814146, 227.194256) rotate(26.000000) translate(-97.814146, -227.194256) "></path>
                    <g id="分组-2" transform="translate(77.912458, 114.559897) rotate(3.000000) translate(-77.912458, -114.559897) translate(48.412458, 1.559897)">
                        <g id="矩形">
                            <mask id="mask-4" fill="white">
                                <use xlink:href="#path-3"></use>
                            </mask>
                            <use id="Mask" fill="#BED5FF" fill-rule="nonzero" xlink:href="#path-3"></use>
                            <rect fill="#549BE3" fill-rule="nonzero" mask="url(#mask-4)" x="28.5670103" y="-18.4755363" width="54.6134021" height="266.047723"></rect>
                        </g>
                        <ellipse id="椭圆形" fill="#BED5FF" fill-rule="nonzero" transform="translate(34.161944, 100.218170) rotate(-61.000000) translate(-34.161944, -100.218170) " cx="34.1619438" cy="100.21817" rx="4.06958846" ry="2.15562651"></ellipse>
                        <ellipse id="椭圆形" fill="#BED5FF" fill-rule="nonzero" transform="translate(39.232896, 107.556657) rotate(-28.000000) translate(-39.232896, -107.556657) " cx="39.2328962" cy="107.556657" rx="5.41072644" ry="3.17638573"></ellipse>
                        <ellipse id="椭圆形" fill="#BED5FF" fill-rule="nonzero" transform="translate(38.980834, 144.969618) rotate(-46.000000) translate(-38.980834, -144.969618) " cx="38.9808344" cy="144.969618" rx="7.95507221" ry="5.29677584"></ellipse>
                        <ellipse id="椭圆形" fill="#BED5FF" fill-rule="nonzero" transform="translate(38.980834, 163.445155) rotate(-64.000000) translate(-38.980834, -163.445155) " cx="38.9808344" cy="163.445155" rx="8.17114656" ry="4.29174745"></ellipse>
                    </g>
                    <g id="分组-2" transform="translate(41.966835, 189.834082) rotate(-19.000000) translate(-41.966835, -189.834082) translate(22.966835, 117.334082)">
                        <g id="矩形" transform="translate(0.236778, 0.830051)">
                            <mask id="mask-6" fill="white">
                                <use xlink:href="#path-5"></use>
                            </mask>
                            <use id="Mask" fill="#BED5FF" fill-rule="nonzero" xlink:href="#path-5"></use>
                            <rect fill="#549BE3" fill-rule="nonzero" mask="url(#mask-6)" x="17.9564065" y="-11.7365087" width="34.3284242" height="169.005725"></rect>
                        </g>
                        <ellipse id="椭圆形" fill="#BED5FF" fill-rule="nonzero" transform="translate(21.473222, 64.586959) rotate(-61.000000) translate(-21.473222, -64.586959) " cx="21.4732218" cy="64.5869588" rx="2.57939861" ry="1.35950964"></ellipse>
                        <ellipse id="椭圆形" fill="#BED5FF" fill-rule="nonzero" transform="translate(24.660678, 69.248703) rotate(-28.000000) translate(-24.660678, -69.248703) " cx="24.6606776" cy="69.2487027" rx="3.40980298" ry="2.01454706"></ellipse>
                        <ellipse id="椭圆形" fill="#BED5FF" fill-rule="nonzero" transform="translate(24.502239, 93.015133) rotate(-63.000000) translate(-24.502239, -93.015133) " cx="24.5022387" cy="93.0151328" rx="5.15980443" ry="3.25841259"></ellipse>
                        <ellipse id="椭圆形" fill="#BED5FF" fill-rule="nonzero" transform="translate(22.101759, 118.792786) rotate(-47.000000) translate(-22.101759, -118.792786) " cx="22.1017588" cy="118.792786" rx="3.04448205" ry="2.0206807"></ellipse>
                        <ellipse id="椭圆形" fill="#BED5FF" fill-rule="nonzero" transform="translate(25.084544, 112.105953) rotate(12.000000) translate(-25.084544, -112.105953) " cx="25.0845444" cy="112.105953" rx="2.90043736" ry="2.10812938"></ellipse>
                        <ellipse id="椭圆形" fill="#BED5FF" fill-rule="nonzero" transform="translate(28.774138, 102.460858) rotate(-64.000000) translate(-28.774138, -102.460858) " cx="28.7741385" cy="102.460858" rx="5.18122969" ry="2.70519718"></ellipse>
                    </g>
                    <path d="M121.20233,209.100925 C133.102418,191.431379 138.646326,171.400497 137.834052,149.008279 C137.021778,126.616061 130.007119,106.102245 116.790075,87.4668324 C104.889986,105.136378 99.346079,125.16726 100.158353,147.559479 C100.970627,169.951697 107.985286,190.465512 121.20233,209.100925 Z" id="Mask" fill="#BED5FF" fill-rule="nonzero" transform="translate(118.996202, 148.283879) rotate(26.000000) translate(-118.996202, -148.283879) "></path>
                </g>
                <path d="M95,211 C81.6666667,250.964274 75,281.630941 75,303" id="路径-2" stroke="#BED5FF" stroke-width="2" fill-rule="nonzero"></path>
                <path d="M71,228 C71,250.666667 72.3333333,273.333333 75,296" id="路径-3" stroke="#BED5FF" stroke-width="2" fill-rule="nonzero"></path>
                <path d="M60,259 C62.0037106,268.784964 67.0037106,279.784964 75,292" id="路径-4" stroke="#BED5FF" fill-rule="nonzero"></path>
                <g id="分组-5" transform="translate(27.000000, 289.000000)">
                    <g id="矩形" transform="translate(5.017075, 8.426501)">
                        <mask id="mask-8" fill="white">
                            <use xlink:href="#path-7"></use>
                        </mask>
                        <use id="Mask" fill="#3A589A" fill-rule="nonzero" xlink:href="#path-7"></use>
                        <polygon fill="#176DE0" fill-rule="nonzero" mask="url(#mask-8)" points="22.4979515 -8.71016543 93.6205079 -8.71016543 93.6205079 95.0859726 29.7553552 95.0859726"></polygon>
                    </g>
                    <g id="矩形" fill-rule="nonzero">
                        <use fill="black" fill-opacity="1" filter="url(#filter-10)" xlink:href="#path-9"></use>
                        <use fill="#BED6FF" xlink:href="#path-9"></use>
                    </g>
                </g>
            </g>
            <g id="plant" transform="translate(503.000000, 175.000000)">
                <g id="分组-13" transform="translate(78.349849, 116.142674) rotate(7.000000) translate(-78.349849, -116.142674) translate(13.349849, 7.142674)">
                    <g id="路径-27" transform="translate(23.767369, 0.000000)">
                        <mask id="mask-12" fill="white">
                            <use xlink:href="#path-11"></use>
                        </mask>
                        <use id="Mask" fill="#BED5FF" fill-rule="nonzero" xlink:href="#path-11"></use>
                        <path d="M56.2354884,-23.8821315 C56.2354884,-11.1517792 67.4524437,28.4568988 62.6241218,74.4905866 C57.7957998,120.524274 55.4046502,187.301295 62.6241218,201.060296 C69.8435933,214.819298 91.2134316,270.22221 108.067303,218.750441 C124.921175,167.278672 121.053239,38.3502761 121.053239,28.4568988 C121.053239,18.5635216 94.6693324,-31.9713252 82.4488471,-31.9713252 C70.2283618,-31.9713252 56.2354884,-36.6124838 56.2354884,-23.8821315 Z" fill="#549BE3" fill-rule="nonzero" mask="url(#mask-12)"></path>
                        <mask id="mask-14" fill="white">
                            <use xlink:href="#path-13"></use>
                        </mask>
                        <use id="Mask" fill="#498BCF" fill-rule="nonzero" xlink:href="#path-13"></use>
                    </g>
                    <g id="路径-27" transform="translate(64.350191, 147.202674) scale(-1, 1) rotate(32.000000) translate(-64.350191, -147.202674) translate(26.350191, 88.202674)">
                        <mask id="mask-16" fill="white">
                            <use xlink:href="#path-15"></use>
                        </mask>
                        <use id="Mask" fill="#BED5FF" fill-rule="nonzero" xlink:href="#path-15"></use>
                        <path d="M-5.77890912,-44.1690946 C-5.77890912,-37.0669272 2.37209991,-14.9695451 -1.13648999,10.7123014 C-4.64507989,36.3941479 -6.38265317,73.648543 -1.13648999,81.3245859 C4.10967319,89.0006289 34.1215788,152.763881 46.3687577,124.04817 C51.7708321,111.382036 39.6763028,87.6763123 37.6027291,60.4576543 C34.9752516,25.9682064 41.322114,-11.8846594 41.322114,-14.9695451 C41.322114,-20.4889855 22.1497578,-48.6819946 13.2695151,-48.6819946 C4.38927235,-48.6819946 -5.77890912,-51.2712619 -5.77890912,-44.1690946 Z" fill="#549BE3" fill-rule="nonzero" mask="url(#mask-16)"></path>
                    </g>
                    <ellipse id="椭圆形-copy-3" fill="#BED5FF" fill-rule="nonzero" transform="translate(96.015551, 94.477374) rotate(14.000000) translate(-96.015551, -94.477374) " cx="96.0155515" cy="94.4773735" rx="3.67651548" ry="6.14112603"></ellipse>
                    <ellipse id="椭圆形-copy-5" fill="#BED5FF" fill-rule="nonzero" transform="translate(64.380074, 123.016782) rotate(14.000000) translate(-64.380074, -123.016782) " cx="64.3800738" cy="123.016782" rx="3.26801368" ry="5.32230924"></ellipse>
                    <ellipse id="椭圆形-copy-3" fill="#BED5FF" fill-rule="nonzero" transform="translate(101.856266, 103.371418) rotate(47.000000) translate(-101.856266, -103.371418) " cx="101.856266" cy="103.371418" rx="2.76855876" ry="4.49811173"></ellipse>
                    <ellipse id="椭圆形-copy-6" fill="#BED5FF" fill-rule="nonzero" transform="translate(73.996963, 141.946958) rotate(137.000000) translate(-73.996963, -141.946958) " cx="73.9969629" cy="141.946958" rx="2.76807378" ry="4.49889983"></ellipse>
                    <ellipse id="椭圆形-copy-7" fill="#BED5FF" fill-rule="nonzero" transform="translate(78.961413, 153.955463) rotate(98.000000) translate(-78.961413, -153.955463) " cx="78.9614132" cy="153.955463" rx="2.01574725" ry="3.26769048"></ellipse>
                    <ellipse id="椭圆形-copy-7" fill="#BED5FF" fill-rule="nonzero" transform="translate(87.947124, 176.066761) rotate(117.000000) translate(-87.947124, -176.066761) " cx="87.9471241" cy="176.066761" rx="2.0148055" ry="3.26922542"></ellipse>
                    <ellipse id="椭圆形-copy-7" fill="#BED5FF" fill-rule="nonzero" transform="translate(85.433639, 167.467923) rotate(98.000000) translate(-85.433639, -167.467923) " cx="85.4336386" cy="167.467923" rx="2.77165246" ry="4.49307441"></ellipse>
                    <ellipse id="椭圆形-copy-4" fill="#BED5FF" fill-rule="nonzero" transform="translate(101.353569, 115.655473) rotate(70.000000) translate(-101.353569, -115.655473) " cx="101.353569" cy="115.655473" rx="2.26716203" ry="3.67705444"></ellipse>
                    <ellipse id="椭圆形" fill="#BED5FF" fill-rule="nonzero" transform="translate(98.017599, 56.593071) rotate(14.000000) translate(-98.017599, -56.593071) " cx="98.0175988" cy="56.5930712" rx="2.89029065" ry="4.35165303"></ellipse>
                    <ellipse id="椭圆形" fill="#BED5FF" fill-rule="nonzero" transform="translate(107.912912, 66.092834) rotate(65.000000) translate(-107.912912, -66.092834) " cx="107.912912" cy="66.0928342" rx="2.8996394" ry="4.33763967"></ellipse>
                </g>
                <g id="分组-5" transform="translate(58.000000, 207.000000)">
                    <g id="矩形" transform="translate(3.517719, 6.676919)">
                        <mask id="mask-18" fill="white">
                            <use xlink:href="#path-17"></use>
                        </mask>
                        <use id="Mask" fill="#3A589A" fill-rule="nonzero" xlink:href="#path-17"></use>
                        <polygon fill="#176DE0" fill-rule="nonzero" mask="url(#mask-18)" points="15.7744258 -6.03045637 65.6419653 -6.03045637 65.6419653 65.832482 20.8629502 65.832482"></polygon>
                    </g>
                    <g id="矩形" fill-rule="nonzero">
                        <use fill="black" fill-opacity="1" filter="url(#filter-20)" xlink:href="#path-19"></use>
                        <use fill="#BED6FF" xlink:href="#path-19"></use>
                    </g>
                </g>
            </g>
            <g id="people" transform="translate(63.000000, 160.000000)" fill-rule="nonzero">
                <g id="分组-19-copy" transform="translate(124.632430, 273.322455) scale(-1, 1) translate(-124.632430, -273.322455) translate(110.632430, 259.822455)">
                    <polygon id="矩形" fill="#CA8D7F" transform="translate(21.224052, 9.725427) scale(-1, 1) rotate(-3.000000) translate(-21.224052, -9.725427) " points="16.9404711 1.20984389 25.5076337 1.21261405 23.9555081 18.2410101 18.5036774 18.2392472"></polygon>
                    <path d="M0.32742507,14.6341081 L8.61959253,14.7386766 L24.0367345,19.5662713 C25.6848025,20.0823335 26.8064791,21.6092951 26.8061041,23.3362717 L26.8061041,23.3362717 C26.805756,24.9395509 25.5061272,26.239178 23.902848,26.2395239 L3.32490439,26.2452627 C1.66805018,26.2456202 0.324614635,24.9027643 0.324257116,23.2459101 C0.324257023,23.2454772 0.324257023,23.2450443 0.324257117,23.2446114 L0.32742507,14.6341081 Z" id="矩形" fill="#2C2C4F" transform="translate(13.565181, 20.439685) scale(-1, 1) rotate(2.000000) translate(-13.565181, -20.439685) "></path>
                </g>
                <g id="分组-19" transform="translate(162.632430, 264.322455) scale(-1, 1) rotate(19.000000) translate(-162.632430, -264.322455) translate(148.632430, 250.822455)">
                    <polygon id="矩形" fill="#CA8D7F" transform="translate(21.224052, 9.725427) scale(-1, 1) rotate(-3.000000) translate(-21.224052, -9.725427) " points="16.9404711 1.20984389 25.5076337 1.21261405 23.9555081 18.2410101 18.5036774 18.2392472"></polygon>
                    <path d="M0.32742507,14.6341081 L8.61959253,14.7386766 L24.0367345,19.5662713 C25.6848025,20.0823335 26.8064791,21.6092951 26.8061041,23.3362717 L26.8061041,23.3362717 C26.805756,24.9395509 25.5061272,26.239178 23.902848,26.2395239 L3.32490439,26.2452627 C1.66805018,26.2456202 0.324614635,24.9027643 0.324257116,23.2459101 C0.324257023,23.2454772 0.324257023,23.2450443 0.324257117,23.2446114 L0.32742507,14.6341081 Z" id="矩形" fill="#2C2C4F" transform="translate(13.565181, 20.439685) scale(-1, 1) rotate(2.000000) translate(-13.565181, -20.439685) "></path>
                </g>
                <g id="分组-29" transform="translate(96.500000, 140.000000) scale(-1, 1) translate(-96.500000, -140.000000) ">
                    <polygon id="路径-52" fill="#202042" points="72.9343023 182.733049 34.6192301 254.39118 45.7767662 262.590421 92.1938127 185"></polygon>
                    <path d="M101.065822,163.933175 L75.0955143,171.445225 C65.7375826,174.152057 59.6911187,183.207427 60.7775808,192.888203 L68.9813669,265.986943 L80.9813669,265.986943 L81.9813669,198.733049 L138.151714,176.130757 L101.065822,163.933175 Z" id="路径-51" fill="#2C2C4F"></path>
                    <path d="M120.069766,183.406721 L81.9813669,198.733049 L81.9813669,209.16057 C75.3414646,201.044832 71.6728789,194.039988 70.9756098,188.146038 C83.6260163,188.146038 97.9659414,181.764026 113.995385,169 L120.069766,183.406721 Z" id="合并形状" fill="#14143C" opacity="0.547619048"></path>
                    <path d="M121.782638,4.99999999 L122,4.99999998 C125.931137,4.99999997 129.463738,5.91184328 132.426701,7.56442732 C135.389664,9.21701137 137.782989,11.6103362 139.435573,14.5732991 C141.088157,17.5362621 142,21.0688632 142,25 L142,46.5198893 C142,53.7492955 136.835333,59.946633 129.724387,61.25 L129.611351,61.2707184 C126.948147,61.7588577 124.42134,61.7958405 122.052315,61.3898764 C119.68329,60.9839123 117.472047,60.1350015 115.439971,58.8513535 C113.407895,57.5677056 111.554985,55.8493207 109.902627,53.7044085 L103,39 L99,36 L103,29.7667903 L102.798106,24.7665317 C102.374763,14.2816646 110.531239,5.43881248 121.016106,5.01546868 C121.271486,5.00515727 121.527049,4.99999999 121.782638,4.99999999 Z" id="矩形" fill="#FFD6CD"></path>
                    <path d="M127.820629,59 L129.569015,59.2381324 C136.877458,60.2335512 141.700351,61.8353783 145.883407,64.3131979 C150.066463,66.7910176 153.381594,70.1137639 155.84981,74.302494 C158.318026,78.4912241 159.908783,83.3177792 160.887431,90.6284867 L169.335724,153.739044 C170.728005,164.139679 163.425291,173.699726 153.024656,175.092007 C152.264756,175.193731 151.499396,175.249367 150.732774,175.25861 L112.032352,175.72522 C107.742966,175.776936 103.743592,173.565052 101.507407,169.904316 L98.6328813,165.19859 C98.3103601,164.670608 98.215228,164.491906 98.1265924,164.280818 C98.0379569,164.069731 97.982146,163.86936 97.9488935,163.642847 C97.9156409,163.416333 97.904691,163.214182 97.9078219,162.595494 L98.3023235,84.6390863 C98.3750131,70.2750965 110.078254,58.6897087 124.442244,58.7623982 C125.572338,58.7681171 126.700858,58.8474859 127.820629,59 Z" id="矩形" fill="#196EEC"></path>
                    <path d="M140.110085,44 C139.443547,44.4839701 132.725199,53.294437 129.866552,55 C124.219035,58.369495 117.885315,54.3468448 116.771262,54 C112.500328,52.670305 103.985086,43.1492076 103.985086,35.3074457 C103.985086,29.9091084 103.58961,24.7511417 103.985086,19.0209922 C104.107497,17.2473376 101.52621,18.360159 102.077269,16.8121075 C103.476659,12.8808986 109.495015,6.20844847 113.908078,4.09102881 C125.673248,-1.55398535 133.647449,-0.864333853 143.141616,3.16814963 C149.471061,5.85647195 152.943475,11.1407528 153.55886,19.0209922 L144.55886,22.4769604 C145.432055,33.2501789 145.868652,37.1645601 145.868652,34.2201041 C145.868652,29.80342 141.455233,31.3878308 139.110085,28.9941312 C136.900447,26.7387472 134.866552,30.5975675 134.866552,31.8458247 C134.866552,38.3607484 144.451438,40.8477625 140.110085,44 Z" id="路径-5" fill="#1A1A1A" transform="translate(127.779430, 28.168194) scale(-1, 1) translate(-127.779430, -28.168194) "></path>
                    <g id="分组-28" transform="translate(63.389398, 111.000000)">
                        <path d="M63.5149904,0.764705882 L124.110747,0.764705882 L124.101308,0.872072647 C124.385584,0.801296307 124.683091,0.764033204 124.989374,0.764715076 C126.993782,0.769177444 128.615057,2.39704878 128.610593,4.40066748 C128.525276,42.6930141 121.458651,67.5975294 106.841209,79.0773842 L106.736305,79.1567393 C99.5797782,84.3691873 92.5909147,87.8806646 85.7823575,89.6522355 L85.4634343,89.8051506 L85.0611878,89.8335373 C80.4879243,90.9429336 75.996518,91.2637587 71.5908221,90.7841467 L68.5321278,91 L10.7957455,91 L23.2018031,89.8051506 L24.310544,89.0689151 C21.9279663,88.8812794 18.8396903,88.6764164 14.5449937,88.6764164 C12.5410525,88.6764164 6.84303649,88.0156975 7.69719425,86.0865523 C8.55135202,84.157407 10.5362109,84.8724783 12.4548752,85.7313021 C21.0548434,89.5807806 26.7280841,84.7360199 37.8352634,76.5874277 C50.7172338,65.7679999 57.4302097,41.5256499 57.4302097,3.82352941 C57.4302097,1.71185243 59.1327617,0 61.2329659,0 C62.0892134,0 62.8793643,0.284539017 63.5149904,0.764705882 Z" id="合并形状" fill="url(#linearGradient-21)"></path>
                        <path d="M56.9947357,3.79547658 C56.9994196,1.69461914 58.7080842,-0.00466929509 60.8111449,9.63930938e-06 C62.9142057,0.00468857371 64.6152763,1.71156306 64.6105925,3.8124205 C64.5210768,43.9631546 57.1066465,70.076325 41.7697645,82.1133151 L41.6596982,82.1965214 C28.152482,92.0280507 15.5090711,93.7265373 4.39866911,86.7794084 C2.61602408,85.6647534 2.07545883,83.3175417 3.19128282,81.5367643 C4.30710682,79.7559869 6.65678021,79.2159879 8.43942524,80.3306429 C16.6138543,85.4419623 25.9514341,84.1980798 37.1179773,76.0890201 C50.0861111,65.8599974 56.9100608,41.774969 56.9947357,3.79547658 Z" id="路径-49-copy-2" fill="url(#linearGradient-22)"></path>
                        <rect id="矩形" fill="url(#linearGradient-23)" x="50.6106021" y="90" width="18" height="14"></rect>
                        <polygon id="矩形" fill="url(#linearGradient-23)" points="54.6106021 103 62.6106021 103 62.6106021 162 54.6106021 162"></polygon>
                        <polygon id="三角形" fill="#C4D4EE" points="60.1106021 160 119.610602 169 0.610602106 169"></polygon>
                    </g>
                    <path d="M17,18.1314997 L5.35688728,11.5650258 L0.75,12 L10.4903698,20.1415688 L7,25.8458247 C8.65178191,29.4286776 10.3583201,31.2201041 12.1196146,31.2201041 C13.5429794,31.2201041 16.3712509,36 18.875,36 C21.0185199,36 25.8025514,25.8458247 24.6050636,28.8458247 C25.7649907,28.8458247 23.2299695,25.274383 17,18.1314997 Z" id="路径-30" fill="#FFD6CD"></path>
                    <path d="M120.411382,59 C118.678763,61.3333333 99.8749692,59.6666667 64,54 L21,23.0981907 L20.1877557,23.9079068 C17.2117859,26.8746138 15.7737542,31.0500473 16.2918014,35.2201041 L64.7350499,74.7706645 L104.703384,90 C116.908002,67 122.144002,56.6666667 120.411382,59 Z" id="路径-29" fill="#196EEC"></path>
                </g>
                <path d="M93.9403002,87.6779023 L123.915425,76.2859274 L130.710408,72.2307864 C130.710408,66.4102621 130.710408,63.5 130.710408,63.5 C130.710408,63.5 80.8455739,79.248383 80.8455739,82 C80.8455739,83.8344113 82.874601,87.8344113 86.9326552,94 C91.6044185,116.804166 93.9403002,127.115224 93.9403002,124.933175 C93.9403002,122.751125 93.9403002,110.332701 93.9403002,87.6779023 Z" id="路径-62" fill="url(#linearGradient-24)"></path>
            </g>
        </g>
    </g>
</svg>