<?xml version="1.0" encoding="UTF-8"?>
<svg width="300px" height="76px" viewBox="0 0 300 76" version="1.1" xmlns="http://www.w3.org/2000/svg" xmlns:xlink="http://www.w3.org/1999/xlink">
    <!-- Generator: Sketch 47 (45396) - http://www.bohemiancoding.com/sketch -->
    <title>blocktrail</title>
    <desc>Created with Sketch.</desc>
    <defs></defs>
    <g id="Page-1" stroke="none" stroke-width="1" fill="none" fill-rule="evenodd">
        <g id="blocktrail">
            <g id="tool/blocktrailIcon" transform="translate(4.000000, 7.000000)">
                <g id="Group-2" transform="translate(8.960000, 9.600000)">
                    <g id="Group-9" transform="translate(14.080000, 8.960000)" fill-rule="nonzero" fill="#3BB79C">
                        <g id="Group">
                            <g id="blocktrail">
                                <path d="M18.3618516,14.2491317 C20.2823533,11.7105967 20.7331208,8.12056457 19.5151125,5.06425472 C18.2971043,2.00794486 15.6345829,0.04809237 12.7032149,0.0500923675 L0.00874017145,0.0500923675 L0.00874017145,5.55882158 L12.7032149,5.55882158 C14.1858129,5.55882158 15.3876961,6.93648733 15.3876961,8.63592416 C15.3876961,10.335361 14.1858129,11.7130267 12.7032149,11.7130267 L0.00874017145,11.7130267 L0.00874017145,29.3398153 L4.81458587,29.3398153 L4.81458587,23.8282236 L4.81458587,23.8282236 L4.81458587,17.6740185 L13.2938008,17.6740185 C14.9332072,17.6740185 16.2679563,19.0551366 16.2679563,20.7496898 C16.2679563,22.4442431 14.9332072,23.8253612 13.2938008,23.8253612 L8.73892285,23.8253612 L8.73892285,29.3398153 L13.2938008,29.3398153 C17.5827278,29.3398153 21.073802,25.489859 21.073802,20.7525523 C21.0640291,18.2288831 20.069021,15.8427936 18.3618516,14.2491317 Z" id="Shape"></path>
                            </g>
                        </g>
                    </g>
                    <circle id="Oval" stroke="#3BB79C" stroke-width="5" cx="23.68" cy="23.68" r="23.68"></circle>
                </g>
            </g>
            <text id="BLOCKTRAIL" font-family="Lato-Bold, Lato" font-size="36" font-weight="bold" letter-spacing="-1.28571439" fill="#12324D">
                <tspan x="77" y="51">BLOCKTRAIL</tspan>
            </text>
        </g>
    </g>
</svg>