<?xml version="1.0" encoding="UTF-8"?>
<svg width="350px" height="76px" viewBox="0 0 350 76" version="1.1" xmlns="http://www.w3.org/2000/svg" xmlns:xlink="http://www.w3.org/1999/xlink">
    <!-- Generator: Sketch 47 (45396) - http://www.bohemiancoding.com/sketch -->
    <title>blockcypher</title>
    <desc>Created with Sketch.</desc>
    <defs></defs>
    <g id="Page-1" stroke="none" stroke-width="1" fill="none" fill-rule="evenodd">
        <g id="blockcypher">
            <g id="tool/blockcypherIcon" transform="translate(4.000000, 7.000000)" fill="#652D8F">
                <g id="blockcypher" transform="translate(7.680000, 7.680000)">
                    <path d="M49.2798462,1.57814639 C49.2857516,1.15785384 49.1214289,0.753044259 48.8242661,0.4558232 C48.5271032,0.158602141 48.1223729,-0.00575275088 47.7021626,0.000153878125 L1.57542456,0.000153878125 C1.15562984,-0.00509564425 0.751528137,0.15954941 0.454892462,0.456697535 C0.158256787,0.75384566 -0.0057374704,1.15827797 0.000153396629,1.57814639 L0.000153396629,47.7139182 C-0.00246930922,48.1317055 0.162967567,48.5330022 0.459241783,48.8275193 C0.755515998,49.1220363 1.1577431,49.2850368 1.57542456,49.2798466 L47.7021626,49.2798466 C48.1219488,49.2857386 48.5263019,49.1217122 48.8233919,48.8250184 C49.1204818,48.5283247 49.2850946,48.1241438 49.2798462,47.7042669 L49.2798462,1.57814639 Z M41.7894679,30.9495574 L35.97568,28.8793471 C35.4861611,30.2494824 34.7503604,31.5185783 33.8045559,32.6240632 L38.5351941,36.5666317 C37.1546782,38.2327163 35.4871812,39.6382315 33.6115671,40.7167037 L30.5551068,35.3843437 C29.2985503,36.0925554 27.9343345,36.5897684 26.516816,36.8561716 L27.5999657,42.9654637 C26.5271819,43.1623012 25.4387895,43.2616325 24.3481042,43.2622421 C23.2899638,43.26626 22.2339623,43.1668617 21.1951495,42.9654637 L22.2782992,36.8561716 C20.8649604,36.5709706 19.503265,36.0722354 18.2400083,35.3771052 L15.1835481,40.7167037 C13.307934,39.6382315 11.640437,38.2327163 10.259921,36.5666317 L14.9905593,32.6240632 C14.0595424,31.5081624 13.3253375,30.2418188 12.8194351,28.8793471 L7.00564722,30.9495574 C6.31571222,28.8793471 5.82359075,26.8091367 5.82359075,24.6400002 L11.8327798,24.6400002 C11.8327798,23.1633467 12.2284069,21.7832064 12.7205284,20.4030662 L7.10455398,18.3328559 C7.77924379,16.3020143 8.85193644,14.4260751 10.259921,12.8147077 L14.9881469,16.7572762 C15.9036587,15.6553311 17.0040535,14.721282 18.2400083,13.9969957 L15.1835481,8.67428702 C17.0323418,7.57725376 19.0721641,6.84041604 21.1951495,6.50273769 L22.2782992,12.6144426 C22.9961206,12.4948889 23.7218197,12.4287567 24.4494233,12.4165904 C25.1434479,12.428689 25.835476,12.4948399 26.5192283,12.6144426 L27.602378,6.40622439 C29.7181178,6.77165108 31.7530324,7.50671602 33.6139795,8.57777371 L30.5575192,13.9004824 C31.8119221,14.5984395 32.916842,15.5363297 33.8093806,16.6607629 L38.5376065,12.7278458 C39.8993019,14.3886914 40.9962006,16.2500406 41.7894679,18.2459939 L35.97568,20.4175432 C36.5009092,21.768176 36.7684728,23.2052819 36.7645218,24.6544772 L42.9715244,24.6544772 C42.9782049,26.8086438 42.5771254,28.9446058 41.7894679,30.9495574 Z" id="Shape" fill-rule="nonzero"></path>
                </g>
            </g>
            <g id="Group" transform="translate(77.000000, 26.000000)">
                <g id="blockcypher_logo_white" opacity="0.300000012" transform="translate(113.000000, 0.000000)"></g>
                <g id="Group-11"></g>
                <path d="M135.017857,4.4 L132.669286,7.4 C130.907857,5.5 128.461429,4.3 126.015,4.3 C121.22,4.3 117.501429,8.1 117.501429,12.8 C117.501429,17.5 121.22,21.4 126.015,21.4 C128.363571,21.4 130.81,20.3 132.669286,18.5 L135.017857,21.2 C132.571429,23.6 129.146429,25.2 125.819286,25.2 C118.871429,25.2 113.489286,19.8 113.489286,12.8 C113.489286,5.9 118.969286,0.6 126.015,0.6 C129.342143,0.7 132.767143,2.1 135.017857,4.4 Z M148.913571,25.1 L144.901429,25.1 L144.901429,17.1 L135.996429,0.7 L140.008571,0.7 L146.858571,12.6 L153.512857,0.7 L157.622857,0.7 L148.913571,16.9 L148.913571,25.1 Z M169.659286,0.8 C175.628571,0.8 179.053571,3.8 179.053571,9.1 C179.053571,14.6 175.628571,17.8 169.659286,17.8 L164.179286,17.8 L164.179286,25.1 L160.167143,25.1 L160.167143,0.8 L169.659286,0.8 Z M164.179286,14.1 L169.463571,14.1 C173.182143,14.1 175.237143,12.5 175.237143,9.2 C175.237143,6 173.182143,4.5 169.463571,4.5 L164.179286,4.5 L164.179286,14.1 Z M198.918571,25.1 L198.918571,15 L186.392857,15 L186.392857,25.1 L182.380714,25.1 L182.380714,0.8 L186.392857,0.8 L186.392857,11.4 L199.016429,11.4 L199.016429,0.8 L203.028571,0.8 L203.028571,25.1 L198.918571,25.1 Z M211.933571,4.5 L211.933571,11.1 L223.578571,11.1 L223.578571,14.8 L211.933571,14.8 L211.933571,21.5 L225.34,21.5 L225.34,25.2 L207.921429,25.2 L207.921429,0.8 L224.948571,0.8 L224.948571,4.5 L211.933571,4.5 L211.933571,4.5 Z M240.214286,17.8 C239.920714,17.8 239.529286,17.8 239.137857,17.8 L233.462143,17.8 L233.462143,25.1 L229.45,25.1 L229.45,0.8 L239.137857,0.8 C245.205,0.8 248.727857,3.8 248.727857,9.1 C248.727857,13 246.966429,15.7 243.835,17 L249.217143,25.1 L244.617857,25.1 L240.214286,17.8 Z M239.137857,14.1 C242.856429,14.1 244.911429,12.5 244.911429,9.2 C244.911429,6 242.758571,4.5 239.137857,4.5 L233.462143,4.5 L233.462143,14.1 C233.462143,14.1 239.137857,14.1 239.137857,14.1 Z" id="Combined-Shape" fill="#0B8ED8" fill-rule="nonzero"></path>
                <path d="M10.513913,0.8 C15.4269565,0.8 18.5713043,3.1 18.5713043,6.9 C18.5713043,9.6 16.9991304,11.7 14.346087,12.3 C17.5886957,12.9 19.4556522,15.2 19.4556522,18.5 C19.4556522,22.7 16.1147826,25.2 10.7104348,25.2 L0.196521739,25.2 L0.196521739,0.8 L10.513913,0.8 L10.513913,0.8 Z M4.22521739,10.9 L10.4156522,10.9 C12.9704348,10.9 14.5426087,9.7 14.5426087,7.6 C14.5426087,5.5 12.9704348,4.4 10.4156522,4.4 L4.22521739,4.4 L4.22521739,10.9 Z M4.22521739,21.5 L10.4156522,21.5 C13.56,21.5 15.4269565,20.2 15.4269565,18 C15.4269565,15.8 13.56,14.6 10.4156522,14.6 L4.22521739,14.6 L4.22521739,21.5 Z M37.9286957,21.4 L37.9286957,25.1 L23.5826087,25.1 L23.5826087,0.8 L27.6113043,0.8 L27.6113043,21.4 L37.9286957,21.4 L37.9286957,21.4 Z M64.4591304,13 C64.4591304,20 58.9565217,25.3 51.7834783,25.3 C44.6104348,25.3 39.1078261,19.9 39.1078261,13 C39.1078261,6 44.6104348,0.7 51.7834783,0.7 C58.9565217,0.7 64.4591304,6 64.4591304,13 Z M43.2347826,13 C43.2347826,17.8 47.1652174,21.7 51.8817391,21.7 C56.5982609,21.7 60.4304348,17.9 60.4304348,13 C60.4304348,8.2 56.5982609,4.4 51.8817391,4.4 C47.1652174,4.4 43.2347826,8.1 43.2347826,13 Z M88.8278261,4.4 L86.4695652,7.4 C84.7008696,5.5 82.2443478,4.3 79.7878261,4.3 C74.9730435,4.3 71.2391304,8.1 71.2391304,12.8 C71.2391304,17.5 74.9730435,21.4 79.7878261,21.4 C82.146087,21.4 84.6026087,20.3 86.4695652,18.5 L88.8278261,21.2 C86.3713043,23.6 82.9321739,25.2 79.5913043,25.2 C72.6147826,25.2 67.2104348,19.8 67.2104348,12.8 C67.2104348,5.9 72.7130435,0.6 79.7878261,0.6 C83.1286957,0.7 86.5678261,2.1 88.8278261,4.4 Z M99.7347826,14.4 L95.706087,19 L95.706087,25.2 L91.6773913,25.2 L91.6773913,0.8 L95.706087,0.8 L95.706087,13.4 L107.104348,0.8 L111.82087,0.8 L102.584348,11.2 L112.410435,25.1 L107.595652,25.1 L99.7347826,14.4 Z" id="Combined-Shape" fill="#12324D" fill-rule="nonzero"></path>
            </g>
        </g>
    </g>
</svg>