<?xml version="1.0" encoding="UTF-8"?>
<svg width="207px" height="76px" viewBox="0 0 207 76" version="1.1" xmlns="http://www.w3.org/2000/svg" xmlns:xlink="http://www.w3.org/1999/xlink">
    <!-- Generator: Sketch 47 (45396) - http://www.bohemiancoding.com/sketch -->
    <title>chainso</title>
    <desc>Created with Sketch.</desc>
    <defs></defs>
    <g id="Page-1" stroke="none" stroke-width="1" fill="none" fill-rule="evenodd">
        <g id="chainso" fill-rule="nonzero">
            <g transform="translate(12.000000, 11.000000)" id="Shape">
                <path d="M90.2313576,55 C89.9636711,54.4450925 89.4665392,54.6092201 89,54.5076173 C89.2217973,53.1477032 90.5296367,53.9996034 91.0956023,53.4525115 C91.1708535,53.2205707 91.2655316,52.995691 91.3785851,52.7803701 C91.5017214,52.6639193 91.6408609,52.5664962 91.791587,52.4911929 C92.0975143,52.3661434 92.4110899,52.2645406 92.7170172,52.1551222 C92.9483409,52.1032245 93.1738618,52.0272783 93.3900574,51.9284698 C93.7801147,51.3735624 93.6577438,50.4435062 94.5525813,50.2403006 C96.4825688,49.9198998 98.4505096,49.9198998 100.380497,50.2403006 C101.33652,50.5607401 101.214149,51.6549239 101.780115,52.256725 C102.110552,52.5892451 102.499884,52.8544813 102.927342,53.0382848 C103.087954,53.1242564 103.240918,53.2336748 103.393881,53.3352775 C103.845124,53.851107 104.984704,53.3899867 105,54.5154329 C104.449331,54.6717449 103.760994,54.3356741 103.347992,55 L100.380497,55 C99.5705833,54.6408468 98.651214,54.6408468 97.8413002,55 L96.5793499,55 C95.4785327,54.632914 94.2920218,54.632914 93.1912046,55 L90.2313576,55 Z" fill="#BBBCBE"></path>
                <path d="M94,54.6442182 C94.9154101,53.7852606 96.0845899,53.7852606 97,54.6442182 L94,54.6442182 Z" fill="#D2D3D5"></path>
                <path d="M98,54.6340636 C98.854102,53.7886455 100.145898,53.7886455 101,54.6340636 L98,54.6340636 Z" fill="#D2D3D4"></path>
                <path d="M12.1387394,46.9925552 C8.10118245,47.080623 4.31454713,46.4161114 1.417543,43.0375098 C0.429121751,41.9746355 -0.082479493,40.5187398 0.0108612022,39.0344274 C0.117312798,37.6253424 0.657174459,36.392393 2.05625257,36.0080971 C3.45533068,35.6238012 4.97606776,35.711869 5.74403998,37.2810773 C7.21915494,40.3074076 9.67514532,40.9719193 12.5873568,40.8278083 C15.6071004,40.7306105 18.5472827,39.7852821 21.1034844,38.0896999 C22.4949589,37.1529786 23.3845901,35.9440478 23.0576316,34.0866175 C22.7306731,32.2291873 21.5368945,31.4205646 19.9097058,30.9882317 C17.2256049,30.2997015 14.4730708,30.7880776 11.7737625,30.2596707 C10.256013,30.0088044 8.77099063,29.5735678 7.34841759,28.962672 C2.9762985,26.969137 1.85095306,23.2382642 4.30694344,18.8909167 C7.43966182,13.2866013 14.7468035,9.91600588 20.8145444,11.3170847 C22.467541,11.6320742 24.0750443,12.1702592 25.5972625,12.9183177 C26.7074006,13.5187801 27.6502576,14.3193965 27.300488,15.848574 C27.0267476,17.2799783 25.8123877,18.2947708 24.426295,18.2504235 C22.8855475,18.2636783 21.3504008,18.0535456 19.8640837,17.6259426 C16.6933469,16.8253261 13.9332091,17.9061584 11.2947303,19.5954592 C10.4355139,20.1478845 9.68274901,20.9645133 9.81201166,22.0853764 C9.95648168,23.3503505 10.9753755,23.9348005 12.0931173,24.054893 C14.8000293,24.3751396 17.5221486,24.5272567 20.2290606,24.8154786 C27.2928843,25.6160951 31.5205334,31.7648297 29.4903494,38.2898541 C28.6463403,40.9959378 26.7986448,42.709257 24.5251429,44.0222681 C20.6938062,46.0775506 16.4374858,47.0982257 12.1387394,46.9925552 Z" fill="#EAD06D"></path>
                <path d="M70.3976185,38.8122615 C73.2847991,37.958108 75.6882233,36.154895 78.2068276,34.5731292 C79.2095573,33.7956519 80.602491,33.8417197 81.5547284,34.6838528 C82.5150399,35.3627073 82.9821537,36.5717427 82.7372438,37.7445696 C82.6430487,38.2390649 82.4494993,38.7078085 82.1690221,39.1207058 C79.320235,43.1225732 70.7661948,46.0251134 65.967025,44.656886 C59.4094394,42.7824936 55.723677,36.3763422 57.4053061,28.9104078 C58.9867427,21.7217897 63.2618753,15.4679473 69.2995685,11.5109843 C70.4033033,10.7156534 71.6792424,10.210616 73.0160456,10.0399421 C74.8326069,10.3129012 76.6790944,10.296897 78.4909384,9.99248915 C81.2245455,8.16554969 82.9829613,8.86943545 83.7047565,12.032967 C83.9673005,12.9345032 84.0559925,13.8802492 83.9658313,14.8168747 C83.7273738,15.5047678 83.7273738,16.2564567 83.9658313,16.9443497 C83.8560046,18.2978409 82.8403229,19.3868672 81.5316924,19.5542632 C80.3219308,19.8200358 79.0791316,19.2840541 78.4141517,18.2097623 C76.6634146,15.6631194 74.6362453,15.3704928 72.094605,17.2211587 C69.076887,19.4039955 67.065075,22.4647122 65.2759446,25.6915144 C64.259997,27.5224996 63.6466287,29.5608484 63.4791354,31.6626802 C63.1643099,35.2058355 64.7768309,37.4677606 68.7543828,38.8676233 C69.2622004,39.1946545 69.9116362,39.1727745 70.3976185,38.8122615 L70.3976185,38.8122615 Z" fill="#EAD06D"></path>
                <path d="M152.095281,21.4128159 C154.477191,19.6230053 156.765693,18.2485515 159.708051,18.4977657 C162.217277,18.5708281 164.413733,20.153232 165.211353,22.462536 C165.65949,23.5598803 165.92233,24.7201475 165.989754,25.8986703 C166.058616,30.6948863 166.385992,35.4843257 166.970541,40.2473631 C167.204061,42.4525306 166.028674,43.7892246 164.176078,43.9780232 C162.323482,44.1668218 160.992415,43.1397574 160.657702,40.8741744 C160.003844,36.4109758 159.287714,31.9477771 159.980492,27.4090591 C160.128388,26.4197545 160.400829,25.0679566 159.24101,24.5770802 C157.956647,24.0333403 156.952509,25.0528527 156.127403,25.9137742 C153.200612,28.88924 152.173122,32.5821404 151.924033,36.5695666 C151.830625,38.1630267 151.713865,39.7564867 151.527048,41.3423949 C151.308406,42.8310591 149.994488,43.9370392 148.444577,43.9370392 C146.894666,43.9370392 145.580747,42.8310591 145.362106,41.3423949 C144.915931,38.1746841 144.881933,34.9651241 145.260913,31.7891863 C145.521625,28.3213758 145.59178,24.8425547 145.471082,21.3675042 C145.386923,20.192712 145.985404,19.0705279 147.022465,18.4585778 C148.059525,17.8466276 149.361855,17.8471786 150.398365,18.460006 C151.565968,19.0037459 151.612672,20.189401 152.095281,21.4128159 Z" fill="#EAD06D"></path>
                <path d="M142,24.3742632 C141.273337,29.0701482 141.636669,34.2785856 141.620872,39.487023 C141.620872,41.6050707 140.594066,42.8261515 138.753714,42.9844398 C137.827052,43.0733672 136.904999,42.7782022 136.221984,42.173989 C135.538969,41.5697758 135.160787,40.7147187 135.183589,39.8262122 C134.938804,35.7341487 134.938804,31.6320919 135.183589,27.5400284 C135.302067,25.9496083 135.404747,24.3591881 135.467935,22.768768 C135.554819,20.2889187 136.676407,19 138.801105,19 C140.925803,19 141.960507,20.3567565 141.960507,22.8516809 L142,24.3742632 Z" fill="#EAD06D"></path>
                <path d="M98.9179251,5.05155483 L99.6030739,5.05155483 C99.7519904,5.09830074 99.8585367,5.2548016 99.8665927,5.4386252 C100.197873,6.03273322 100.544212,5.34860884 100.875493,5.4386252 C101.191716,5.29459902 101.628404,5.4386252 101.794044,4.95253682 C101.76557,4.90020567 101.758367,4.83530712 101.774441,4.77590867 C101.790514,4.71651021 101.828148,4.66895462 101.876864,4.64648118 C102.212817,4.28917296 102.597299,4.00301572 103.01376,3.80032733 C103.676321,3.46726678 103.292337,2.34206219 103.954898,2 C105.20473,2.15302782 105.197201,3.70130933 105.88235,4.48445172 C106.037833,4.61565187 106.134837,4.82440892 106.145869,5.05155483 C106.296451,5.95171849 105.272492,6.6898527 106.010345,7.60801964 C106.832271,7.98295882 107.504844,8.71631066 107.892622,9.6603928 C108.035793,10.1345049 108.035793,10.6535475 107.892622,11.1276596 C106.319038,12.306874 104.489465,12.5319149 102.727654,13 C102.322575,12.9173118 101.941724,12.7128747 101.620875,12.405892 C100.443187,10.8816648 98.9167835,9.80485957 97.2314049,9.30932897 C96.8662419,8.92532195 96.5736492,8.45276166 96.3730866,7.92307692 C96.0568641,7.18494272 95.492181,6.67184943 95.1307838,5.96072013 C94.9802017,5.45662848 94.8220904,4.94353519 95.5072392,4.82651391 C96.6667218,4.93453355 97.8111462,4.56546645 98.9179251,5.05155483 Z" fill="#B05727"></path>
                <path d="M87.2695993,3.05097981 C88.4616744,2.2469129 89.621312,1.38656131 90.8458244,0.63877908 C92.9704751,-0.671849982 94.2030969,0.0518102359 94.3571747,2.64894635 C94.3571747,3.67011133 94.9815949,4.42593422 95.4600468,5.24608247 C95.9141706,5.81696997 96.6359031,6.17075941 96.8710744,6.92658231 C97.0586609,7.35601428 97.0407829,7.84645007 96.8224183,8.26133338 C95.7114368,9.37898638 94.3085185,8.8804649 93.0029126,8.93674958 C92.7692235,8.91802374 92.5381795,8.87490145 92.3136175,8.80809888 C91.122006,8.42902783 89.9660812,7.94743618 88.8590327,7.36881911 C88.2410083,7.05679607 87.7866696,6.49807071 87.6101922,5.83305131 C87.6264109,4.88425236 86.4992107,4.08018545 87.2695993,3.05097981 Z" fill="#AF5627"></path>
                <path d="M141.999976,12.5169296 C141.815738,14.4889376 140.257233,15.9933751 138.391731,15.9999974 C136.581325,16.0022667 135.088501,14.4934844 135.00058,12.572595 C134.983617,11.6104706 135.339574,10.6832119 135.98506,10.0080512 C136.630546,9.33289057 137.508843,8.96915304 138.414189,9.00205282 C140.263227,9.01000503 142.007462,10.7117779 141.999976,12.5169296 Z" fill="#EAD16E"></path>
                <path d="M177.618752,45.9922029 C175.961332,45.4775937 174.784565,44.5263463 175.033177,42.7564024 C175.28179,40.9864586 177.19611,39.9260517 179.325894,40.0040228 C181.198778,40.0663996 182.640732,40.877299 182.947355,42.6316487 C183.253978,44.3859983 182.201516,45.5867532 180.303771,46 C179.429208,45.7480658 178.494951,45.7453528 177.618752,45.9922029 L177.618752,45.9922029 Z" fill="#EAD16E"></path>
                <path d="M108.258894,18.2054558 C109.651439,20.3626368 109.040804,22.8949796 106.769541,24.3331003 C105.798866,24.9753845 104.714928,25.405996 103.582326,25.5992717 C103.050669,25.928258 102.429167,26.0603708 101.817443,25.9744336 C101.619778,25.953546 101.429009,25.8868041 101.258936,25.7790368 C100.886598,25.458586 100.983406,25.0756082 101.132341,24.6926304 C101.281276,24.3096527 101.437658,23.8250685 101.586593,23.3873796 C101.84723,22.7464781 102.442971,22.8793479 102.927011,22.7386622 C103.880197,22.6683193 104.513172,21.9179955 105.317422,21.5272019 C105.618202,21.3752752 105.909241,21.2029617 106.188694,21.0113542 C106.511501,20.7656497 106.778519,20.4480303 106.970604,20.0812654 C107.149326,19.6513923 106.970604,19.2058876 106.970604,18.7681987 C106.993943,18.5699944 107.065777,18.3815085 107.179113,18.2210876 C107.484358,17.9323618 107.946178,17.9256761 108.258894,18.2054558 L108.258894,18.2054558 Z" fill="#F5CE93"></path>
                <path d="M101.367685,12.2699662 C103.056675,12.0848701 104.494898,10.8706397 106.265019,11.0113128 C107.002569,11.0113128 106.855059,11.4925626 106.86981,11.9145817 C106.813177,13.0141702 106.852664,14.1166257 106.987818,15.209292 C107.039998,15.4942215 106.921837,15.7835256 106.685422,15.9496763 C106.375651,16.0903494 106.176513,15.9126571 105.947872,15.7053495 C105.54032,15.0947625 104.858268,14.7260927 104.126123,14.7206383 C102.392234,14.1537995 100.571279,13.9030515 98.749382,13.980254 C98.1323675,14.0814269 97.5060213,13.8644236 97.0825185,13.4027542 C96.7137434,12.0108316 97.6430566,11.8775624 98.6387494,11.707274 C99.6344422,11.5369856 100.401494,12.4328507 101.367685,12.2699662 Z" fill="#9B4322"></path>
                <path d="M76.9215973,25.4337522 C75.9219662,25.5090935 75.5859557,24.7556801 75.0567393,24.2358249 C74.7123286,22.5632471 76.0143691,22.9926928 76.845995,23.233785 C78.885148,23.7764616 80.9579537,24.2116736 83.0537882,24.5371902 L85.7922734,25.478957 C86.6322995,26.1042901 88.5307586,25.9234709 87.8587377,27.6864583 C86.2878888,28.5001447 84.6666383,27.4302977 83.0873892,27.7919361 C82.7467146,27.8313198 82.4007662,27.7761007 82.0961584,27.6337193 C81.8642577,27.4427345 81.7593358,27.1575716 81.8189497,26.8803059 C81.8361701,26.7527085 81.946089,26.6510422 82.0877581,26.6316795 C82.0877581,26.6316795 82.0877581,26.5864747 82.1381597,26.5638723 C81.2119669,26.528351 80.2983949,26.3578597 79.4332755,26.0590853 C78.6016496,25.8481296 77.8792271,25.2981378 76.9215973,25.4337522 Z" fill="#D51E24"></path>
                <path d="M90.4051047,23.7764597 C89.5860288,22.8316178 88.3350765,22.2525211 88,20.911455 C88.2159382,20.439034 87.8585233,19.9285146 88.0967999,19.4560936 C88.1821488,19.2749533 88.3234728,19.1276573 88.4988917,19.0370104 C88.6894885,18.9876632 88.8890941,18.9876632 89.0796909,19.0370104 C90.0998127,19.7989798 90.7401812,20.8885959 91.7081799,21.6658047 C93.152732,22.8239981 94.5823917,23.7916991 96.6524198,23.5478689 C97.8065722,23.4183342 98.3724792,24.4393731 97.7321108,25.6966225 C97.2828586,25.9649523 96.7544843,26.0595729 96.2428819,25.9633118 C95.1780832,25.6204256 94.0090386,25.7118619 92.9814706,25.2623 C92.3833798,24.9951903 91.8205002,24.652151 91.3060881,24.241261 C91.0827038,23.9517127 90.6880581,23.9974309 90.4051047,23.7764597 Z" fill="#DFA26D"></path>
                <path d="M87.1201229,27.0197839 C86.6532367,26.1448568 85.4133092,26.0354909 85,25.1022354 L88.3983198,24.1616888 C88.8558494,24.0139573 89.3425041,23.9666017 89.8219403,24.0231587 C90.3832021,24.6318611 91.1539185,25.029974 91.9956403,25.1459817 C92.1638484,25.2332358 92.3020457,25.3648823 92.3936417,25.5251168 C92.2252565,26.2542227 93.5493766,26.8375074 92.7304122,27.7124345 C92.0608886,27.9588284 91.3391392,28.0488332 90.625597,27.9749126 C89.805247,27.8932976 88.9919328,27.7568617 88.1916652,27.5666133 C87.8825038,27.5245302 87.5856038,27.4228121 87.3191236,27.2676799 L87.1201229,27.0197839 Z" fill="#E62A28"></path>
                <path d="M82,23.7519 C80.1195965,24.4471464 78.4841499,23.5026607 76.7550432,23.0960071 C76.2146974,22.9779464 75.3501441,22.2171107 75.1412104,23.4698661 C73.7579251,23.2862161 73.3760807,21.7448678 72,21.5612178 C72.5115274,20.5642607 73.3472622,21.1939178 74.0605187,21.2201536 C76.8861943,21.4948417 79.603644,22.3613837 82,23.7519 L82,23.7519 Z" fill="#D22027"></path>
                <path d="M110.487134,9.8509388 C110.652777,10.529777 111.452183,11.4672202 110.645575,11.8470464 C109.637315,12.3480936 108.773093,11.5480343 108.247357,10.4651257 C107.930635,10.0393054 107.686502,9.55167703 107.527172,9.02663527 C107.218517,8.20895591 107.042898,7.33584203 107.008638,6.44866638 C106.976362,5.78800416 107.034656,5.12569701 107.181483,4.48488443 C107.257441,4.28034639 107.391673,4.10982745 107.563181,4 L109.766949,6.2547126 C110.667181,7.28105131 109.414058,8.85692571 110.487134,9.8509388 Z" fill="#A85226"></path>
                <path d="M91.208337,8.97361478 C91.2812457,8.95761557 91.3562668,8.95761557 91.4291755,8.97361478 C91.6642615,9.19525066 92.0204525,9.29815303 91.9990811,9.7651715 C91.9128552,9.98210586 91.758336,10.1566131 91.564528,10.2559367 C88.3730565,10.9604222 88.1807134,11.348285 88.0596084,15.1398417 C88.0026178,16.7229551 88.8361048,18.408971 87.9598749,20 L87.9598749,20 C86.371263,19.1530343 86.7060825,17.3720317 86.3926344,15.9313984 C86.2145389,15.1398417 86.5636061,14.1741425 86.0221958,13.4063325 C85.921712,12.4527194 86.1650226,11.4936802 86.6989587,10.7387863 C87.2118738,10.2242744 86.8556828,9.40105541 87.2332452,8.8469657 C87.3951193,8.36470759 87.796807,8.03305845 88.2590754,8 C89.2421626,8.30079156 90.1041449,9.09234828 91.208337,8.97361478 Z" fill="#8B3D21"></path>
                <path d="M81.8292034,28.0831541 L82.8740264,28.0831541 C83.982172,28.0228056 85.0507409,28.3916022 86.1588865,28.3111375 C87.0955216,28.4754131 88.0533219,28.5362674 89.0084037,28.4921831 C89.2075212,28.5052935 89.4027352,28.5460706 89.5862225,28.6128802 C90.2115332,28.968266 89.9424122,29.4912866 89.9424122,29.9539587 C89.5383814,30.5208618 88.8558751,30.9046741 88.0823106,31 L87.5994758,31 C85.6523057,30.6982573 83.982172,29.531519 81.892526,29.6589214 C81.2832519,29.5452996 80.8973752,29.0354683 81.0297555,28.5190047 C80.8793643,27.8819923 81.3226226,27.9624571 81.8292034,28.0831541 Z" fill="#DF2025"></path>
                <path d="M91.0728768,38.8917891 L91.1332989,38.1391956 C91.9308703,37.5521727 91.4172827,36.5436975 91.6227177,35.7610003 C91.7038209,35.5833581 91.8230902,35.4374072 91.9671236,35.339548 C92.27371,35.1450501 92.608728,35.0298487 92.9520035,35.000881 C93.2221832,34.9863328 93.4779893,35.1528199 93.6226885,35.4373852 C93.9228927,36.9117965 94.0450779,38.4336867 93.985221,39.9529458 C93.1816074,40.7055393 91.9912924,40.7657467 91.4112405,42 C91.2304536,41.8058463 91.1088379,41.5400924 91.0668346,41.2474066 C91.0224952,40.9572542 91.0022478,40.6621883 91.0064126,40.3668722 C90.9876986,39.8736388 91.0099718,39.379317 91.0728768,38.8917891 Z" fill="#B05627"></path>
                <path d="M90.1770435,45.3183732 L90.2291826,44.6068913 C90.5278238,43.912358 90.776679,43.1992313 90.9740263,42.4724456 C91.2174146,42.1206775 91.6570174,41.9415147 92.0912918,42.0170972 C94.3779619,43.006057 94.5641729,44.0377058 92.895723,46.4923183 C92.1244153,47.1181485 91.009072,47.1706881 90.1770435,46.620385 C89.9409855,46.2156685 89.9409855,45.7230897 90.1770435,45.3183732 L90.1770435,45.3183732 Z" fill="#AB5326"></path>
                <path d="M103.267118,43.3987995 C103.820535,44.3196713 104.073653,45.4379422 103.981415,46.5545598 C102.869596,47.4387478 102.06834,46.9139859 101.403733,45.7925767 C101.16151,45.1416656 101.024662,44.4447962 101,43.73666 C101.024207,43.5409981 101.076702,43.3514482 101.155282,43.1759554 C101.639762,42.5361771 102.049707,41.7382514 103.018666,42.0833003 C103.248484,42.4714804 103.000033,43.0106194 103.267118,43.3987995 Z" fill="#AF5726"></path>
                <path d="M105.368583,50.0636135 L106.834725,51.831235 C107.016764,51.9596725 107.053262,52.1776099 106.920056,52.340763 C106.122139,52.9568103 104.967172,53.1606226 103.925713,52.8691623 C103.149976,52.5483484 102.04843,52.4980247 102.001886,51.6110687 C101.955342,50.7241126 102.777623,50.352975 103.661962,50.1202277 C104.215257,49.9821406 104.803228,49.9626356 105.368583,50.0636135 Z" fill="#F1C88D"></path>
                <path d="M87.9073484,54.9229387 C86.7772539,54.9669652 85.6539452,54.7017515 84.6264361,54.1483137 C84.3328421,54.0106026 83.9658497,53.8556776 84.0025489,53.3650818 C84.0392482,52.874486 84.340182,52.719561 84.6484556,52.5818499 C85.6932813,52.0684383 86.8357739,51.8902046 87.9587273,52.0654333 C88.2303017,52.5990638 88.6413332,53.0121971 88.9349272,53.5286138 C89.0329902,53.8457194 89.0197921,54.1954884 88.8982279,54.5011984 C88.6266535,54.8454762 88.3477393,55.1467192 87.9073484,54.9229387 Z" fill="#B8B9BB"></path>
                <path d="M107.593277,52.9623071 C107.591259,52.8059226 107.575167,52.6503231 107.545304,52.4984627 C108.600694,51.4333385 109.601258,52.3352582 110.512731,52.8076923 C111.293993,53.2114087 111.054132,54.0102519 110.368814,54.2937124 C109.372067,54.7848336 108.307707,55.0242052 107.236911,54.9980687 C107.115696,54.8706832 107.033372,54.6946618 107.003903,54.4998654 C106.991134,54.3025357 107.009769,54.1039924 107.058729,53.9157651 C107.212398,53.5774285 107.391386,53.2581725 107.593277,52.9623071 L107.593277,52.9623071 Z" fill="#B9BABC"></path>
                <path d="M82,29.9072377 C82.0624133,29.5371603 82.1248266,28.8586849 82.4299584,29.0261009 C83.9486824,29.9072377 85.7864078,29.9072377 87,31.6695114 L86.3550624,31.8016819 C85.4023559,32.066106 84.415952,32.066106 83.4632455,31.8016819 C82.9916782,31.1496407 82.2496533,30.8412428 82,29.9072377 Z" fill="#F32426"></path>
                <path d="M86.2564979,14 C87.6384859,14.1749049 87.2801927,14.9885932 87.2801927,15.634981 C87.2962289,17.2856928 87.8888235,18.9050427 89,20.3346008 C88.8976305,20.8973384 89.204739,21.5437262 88.4676787,22 C86.5431325,19.5209125 85.4784899,16.904943 86.2564979,14 Z" fill="#B05727"></path>
                <path d="M92.1970185,52.8153044 C92.082087,52.8223237 91.9687937,52.8442502 91.860465,52.8804399 C91.7527534,52.987146 91.5880279,53.0266358 91.4378165,52.9817619 C91.2536512,52.8684596 91.0629128,52.7645696 90.8664583,52.6705586 C90.6472158,52.6781418 90.437351,52.7547433 90.2716197,52.8876772 C90.1251661,52.9668371 89.9548633,52.9998561 89.7863566,52.9817619 C89.6152018,52.9192402 89.466177,52.8140112 89.3558813,52.6777959 C89.0662888,52.200135 88.7766963,51.7224741 89.2541325,51.2303387 C89.2541325,50.9408472 89.1602107,50.6368812 89.4967641,50.4414745 C89.8935874,50.1941233 90.3509573,50.0423698 90.8273242,50 C91.1890594,50.0004249 91.5465624,50.0719672 91.8761187,50.2098813 C93.0423155,50.9480845 93.5354054,51.7803724 92.1970185,52.8153044 Z" fill="#F8D296"></path>
                <path d="M90.5460053,34 C89.5060844,33.9330859 88.8569216,33.1568829 88.1447333,32.4944338 C87.6909497,31.7449964 88.4220456,31.6847737 88.724568,31.3769691 C88.9703675,31.2029925 89.1720492,30.8951879 89.5438997,31.0357074 C89.8968425,31.4706487 90.5144925,31.5107972 90.8359226,31.9992698 C91.0806007,32.5903087 91.0502747,33.2689256 90.7539895,33.8327149 L90.5460053,34 Z" fill="#BB2126"></path>
                <path d="M86.8651914,3 C86.7645448,3.91661816 88.3145026,4.44349316 87.9421102,5.43228598 C87.026226,5.8292466 87.2375839,7.04899833 85.7178201,6.99847606 C85.0636171,5.51167811 84.0772804,3.97435789 86.8651914,3 Z" fill="#76341D"></path>
                <path d="M105.652776,3.88557994 L105.539656,3.43887147 C105.747042,2.97648903 106.284358,3.11755486 106.680275,3 C107.196354,3.29684188 107.538466,3.76044907 107.622936,4.27742947 C107.627746,4.87776476 107.703523,5.47625341 107.849174,6.06426332 C108,6.54231975 107.905734,7.04388715 108,7.52978056 C107.957515,7.72509945 107.816947,7.89611889 107.613509,8 C106.783968,7.50626959 106.331491,6.57366771 105.106033,6.55799373 C104.728968,5.57836991 105.464244,4.79467085 105.652776,3.88557994 Z" fill="#8A391F"></path>
                <path d="M88.9587378,40.9935871 C88.3581307,41.0657217 88.2349293,40.5156952 88.0578272,40.0287864 C87.9807243,39.8312263 87.9807243,39.6041854 88.0578272,39.4066253 C88.5532184,38.7666757 89.1781382,38.2829548 89.8750486,38 C90.0133192,38.0012197 90.1507357,38.0255088 90.2831535,38.0721346 C90.7143585,38.5319929 91.430467,38.0721346 91.8231716,38.6942958 C92.0997141,39.3104256 92.0487674,40.0579145 91.6922701,40.6148803 C90.8144597,41.3632771 89.821148,40.5517625 88.9587378,40.9935871 Z" fill="#A75026"></path>
                <path d="M102.401633,45.1000992 C102.932049,46.4280397 103.939168,46.4820838 105,46.3585544 L105,47.2232598 C104.833224,47.443944 104.580115,47.5516326 104.328587,47.5089215 C103.999595,47.9181124 103.361753,46.3585544 103.173758,47.7482596 C103.046377,47.865844 102.896974,47.9477785 102.73734,47.9875977 C102.48021,48.0274758 102.218762,47.9705981 101.992072,47.8254654 C101.626414,47.5364043 101.319492,47.159769 101.092379,46.7214219 C100.950676,46.3252934 100.972901,45.8766325 101.152806,45.5015696 C101.432154,45.0417605 101.955413,44.8735443 102.401633,45.1000992 L102.401633,45.1000992 Z" fill="#953E21"></path>
                <path d="M103.846418,31 C104.758405,31.8561237 105.670391,32.7190421 104.302411,33.7790048 C103.889057,34.0308267 103.312206,34.071118 102.843232,33.8809242 C102.185907,33.422522 101.883989,32.7477015 102.040684,32.0871412 C102.129106,31.9253202 102.262792,31.7793931 102.432838,31.6590794 C102.857879,31.388704 103.334218,31.1666117 103.846418,31 L103.846418,31 Z" fill="#874027"></path>
                <path d="M86,7.59094539 C86.8833429,7.21749618 86.6006732,5.94337534 87.9521878,6.00195561 C87.8903538,6.62437096 88.7118626,6.77814416 88.9326984,7.24678631 C88.9888106,7.29328456 89.0119977,7.36049758 88.9940259,7.42455813 C88.9760542,7.48861868 88.9194692,7.54045317 88.8443641,7.56165525 L87.9080206,8.45500435 C87.5635169,8.83577609 87.2101797,9.1872577 86.5388392,8.88703382 L86,7.59094539 Z" fill="#A14824"></path>
                <path d="M90,39.770418 C89.8714514,40.933084 88.7145142,40.7992519 87.8245625,41 C86.8950573,40.3308397 86.5984068,39.6365859 87.7454557,38.9172386 C87.8344508,38.4571909 87.9926645,37.9051336 88.6354074,38.0138722 C89.6835727,38.2062558 89.4561406,39.2518187 90,39.770418 Z" fill="#E9C48B"></path>
                <path d="M102.003896,48.5957352 C102.123778,48.5284401 102.2493,48.4761453 102.378409,48.4397058 C102.710402,48.0902703 103.158666,47.9372658 103.597412,48.0236273 L104.434559,48.0843054 C105.02203,48.2923447 104.654861,49.0638235 105,49.4192238 L103.597412,50 C103.120091,49.453897 101.923118,50.0346732 102.003896,48.5957352 Z" fill="#F4C287"></path>
                <path d="M93.1236103,35.9244383 L92.6860983,36 C92.2088125,35.8035396 92.4176251,35.4257312 92.2883602,35.1310407 C92.1590953,34.8363501 92.0894911,34.5567719 92,34.2771937 L92.2088125,34.1789635 C92.7059852,32.9624204 92.0397738,31.7609897 92.2088125,30.5520027 C92.3031941,30.3281951 92.4963767,30.1360178 92.7557025,30.0079586 C93.0711233,29.9677047 93.3857335,30.0827036 93.5412353,30.295093 C94.3068813,31.5720854 93.8594259,32.9246396 93.9588604,34.2394128 C94.0084287,34.865791 93.7046771,35.4785766 93.1236103,35.9244383 L93.1236103,35.9244383 Z" fill="#571B0B"></path>
                <path d="M107.020238,14.0783826 C107.184904,14.2103543 107.34957,14.3423261 107.506002,14.4812437 C107.380224,15.1300596 107.557279,15.7947543 108,16.3357939 C107.917667,17.1762455 107.27547,17.030382 106.616806,16.8984102 C106.237804,16.5916519 106.023683,16.1676518 106.024009,15.7245564 C105.944045,15.1881963 106.064957,14.6441688 106.369807,14.168679 C106.439491,14.0813581 106.548795,14.022164 106.671916,14.0050717 C106.795037,13.9879794 106.921062,14.0145037 107.020238,14.0783826 L107.020238,14.0783826 Z" fill="#AB5124"></path>
                <path d="M104.367685,35 L105,37.8219055 C104.818649,37.9420969 104.567704,38.0066089 104.309317,37.9994636 C104.059435,37.9549175 103.840014,37.8565818 103.68673,37.7204438 C103.150799,37.1347703 102.918824,36.4520655 103.025231,35.773646 C103.210061,35.3297508 103.560267,35 104.367685,35 Z" fill="#4F3930"></path>
                <path d="M89.5153808,51 C89.6822169,51.581583 89.8411085,52.1710253 90,52.7526084 C89.7143724,53.0529365 89.2426801,53.0838161 88.9195375,52.8233414 C88.0615231,52.705453 87.7357955,52.3124915 88.2363038,51.5029907 L89.5153808,51 Z" fill="#8E7756"></path>
                <path d="M78,11.1400982 C76.385861,11.9643278 74.6236376,11.9854745 73,11.2000982 C74.6616039,10.955127 76.3357404,10.9350374 78,11.1400982 L78,11.1400982 Z" fill="#E9CD65"></path>
                <path d="M102.419695,30.3758344 L102.933339,31.406292 C103.13309,32.1173077 102.854866,32.5397953 102.4839,32.91076 C101.954087,33.1729622 101.370837,32.8412122 101.107047,32.1276123 C100.977862,31.6929869 100.965149,31.2045126 101.071377,30.7571037 C101.169401,30.3779257 101.396711,30.0994757 101.671704,30.0217147 C101.946698,29.9439537 102.229919,30.0780387 102.419695,30.3758344 L102.419695,30.3758344 Z" fill="#773A1F"></path>
                <path d="M91.3786954,42.9897514 C91.1391522,43.7026055 91.0593044,44.4867451 90.0212839,45 C89.8273679,43.8237907 91.0364908,42.7188669 90.5003703,41.521272 L90.6372521,41.2717731 C90.9452362,41.0935596 91.2532204,40.915346 91.7209,41.0436598 L91.8577818,41.8135422 C92.3368682,42.3054115 91.4585431,42.5762961 91.3786954,42.9897514 Z" fill="#4C3024"></path>
                <path d="M103,30.3501002 C102.423711,30.3501002 101.777869,30.2064174 101.440044,30.9145684 C100.814075,31.1711449 100.446442,30.8119378 100.108617,30.3398372 C99.8824137,29.6753864 100.014823,28.936841 100.456378,28.4001192 C100.734587,28.0922275 101.032667,27.825388 101.44998,28.1435428 C101.887165,28.9440613 102.940384,29.3032683 103,30.3501002 Z" fill="#A25328"></path>
                <path d="M88,54.4311526 L88.6987952,53.7262241 C89.3855255,52.7579253 90.3132697,52.7579253 91,53.7262241 C90.5421687,55.2770669 89.5481928,53.6322336 89.0542169,54.901105 C88.6851823,55.1320122 88.2809524,54.9518132 88,54.4311526 L88,54.4311526 Z" fill="#C7C9CA"></path>
                <path d="M79.133219,25.0002609 C80.1209128,24.9921614 81.0988935,25.1727191 82,25.5295346 C82,25.5752742 81.9481461,25.6471509 81.9036999,25.6602194 C81.7786199,25.7039587 81.6498193,25.7389167 81.5184993,25.7647673 C81.0444063,26.0784109 80.3925285,26.0784109 79.9184355,25.7647673 C79.607312,25.7124933 79.2147038,25.8235755 79.1109959,25.4119182 C79.0148289,25.3456098 78.9762825,25.2331438 79.0146958,25.1309458 C79.0517343,25.0590691 79.0961805,25.0002609 79.133219,25.0002609 Z" fill="#F22027"></path>
                <path d="M106.509434,17.4727518 C107.043127,17.5225152 107.601078,17.6303358 107.924528,17 C108.457436,17.2935245 108.847114,17.8013936 109,18.4016677 C108.555256,18.4016677 108.110512,18.4016677 107.859838,18.8993012 C107.455526,19.139824 107.140162,18.8993012 106.808625,18.7002478 C106.474925,18.5207051 106.195335,18.251142 106,17.920622 C106.008086,17.5888663 106.137466,17.381519 106.509434,17.4727518 Z" fill="#DDAF7C"></path>
                <path d="M102,32.163405 L102.509259,31.0287515 C103.342593,30.8837206 103.759259,31.3017508 104,31.9586555 C104,32.6240914 103.638889,33.016528 102.87037,32.9994656 C102.675926,32.905622 102.481481,32.8117785 102.287037,32.7008725 C102.14121,32.548408 102.04213,32.362883 102,32.163405 Z" fill="#984822"></path>
                <path d="M90.3662935,50 L89,50 C89.12809,49.5310826 89.1423222,48.9825378 89.5621729,48.7082653 L89.7187273,48.3720604 C90.3547271,47.9024953 91.1409074,47.8757155 91.7966321,48.3012804 C92.0955088,48.5932479 92.0385799,48.9029103 91.7966321,49.1860302 C91.4052459,49.6284051 90.7078669,49.3364377 90.3662935,50 Z" fill="#F0BA80"></path>
                <path d="M79,24.6207982 L79,24.9939063 C78.2424535,25.0428555 77.50123,24.7948326 77,24.3246806 C77.8345324,23.6080762 78.4028777,24.2476901 79,24.6207982 Z" fill="#F12027"></path>
                <path d="M101.958135,26.3498415 L101.958135,26.488696 C101.20864,26.9380462 100.350603,27.0972991 99.5142385,26.9422872 C99.2837387,26.8510876 99.1013691,26.6472516 99.0173128,26.3868694 C98.9755329,26.1254941 99.0098509,25.8557665 99.1150687,25.6185414 C99.5258653,25.1410068 100.11524,24.9200655 100.695455,25.0260957 C100.918094,25.049547 101.137139,25.1055514 101.347161,25.1927211 C101.545206,25.3038608 101.720157,25.4616413 101.86038,25.6555693 C102.001304,25.8497491 102.038707,26.1153906 101.958135,26.3498415 Z" fill="#CFB180"></path>
                <path d="M106,53.54249 C106,53.8481835 106,54.1421196 106,54.4478132 C105.686364,55.129745 105.256818,55.0121705 104.834091,54.9533833 C104.397727,53.7776389 103.381818,54.9533833 103,53.6247921 C103.942051,52.8215812 105.043609,52.7913611 106,53.54249 L106,53.54249 Z" fill="#C8C9CB"></path>
                <path d="M102.765785,4.85552643 L101,5 C101.207252,4.08870516 101,2.6773095 102.276671,3.06627681 C103.412411,3.18852368 102.906717,4.11093187 102.765785,4.85552643 Z" fill="#6D3D22"></path>
                <path d="M101.547753,25 L104,25.0347222 C103.426966,26.1041667 102.095506,25.6597222 101.160112,26 C101.215082,25.9353897 101.215082,25.8493325 101.160112,25.7847222 L101,25.5625 C101,25.4791667 101.058989,25.3958333 101.092697,25.3194444 C101.229401,25.1992684 101.382042,25.0921162 101.547753,25 L101.547753,25 Z" fill="#91826D"></path>
                <path d="M73,21.5641275 C72.4011748,22.2095541 71.5135044,20.9019365 70.9851292,22 L70.1890439,22 C70.0709787,21.9068199 70,21.7494609 70,21.5808918 C70,21.4123227 70.0709787,21.2549637 70.1890439,21.1617836 C71.1401192,21.1450193 72.1405097,20.616943 73,21.5641275 Z" fill="#562424"></path>
                <path d="M87.9408927,38 C87.6421824,38.7232187 87.6645188,39.5864857 88,40.2844037 L87.9113391,41 C87.0025644,39.9816514 86.4114914,38.9724771 87.9408927,38 Z" fill="#5E554D"></path>
                <path d="M103.866989,34.7661104 C103.35118,34.9596161 102.967903,35.4006882 102.848028,35.9387209 C101.890205,36.2038328 101.452052,35.5614462 101.024088,34.9190596 C100.97068,34.6666281 101.006705,34.403466 101.125984,34.1747068 C101.444636,33.9417644 101.877242,33.9417644 102.195893,34.1747068 L103.999454,34.378639 C104.005687,34.5198878 103.958374,34.6582802 103.866989,34.7661104 Z" fill="#170E0A"></path>
                <path d="M91.6261682,35 C91.7476636,35.262069 91.8691589,35.5310345 92,35.7931034 C91.6448598,36.5241379 92.6635514,37.5931034 91,38 C91.2056075,37 91.4205607,36.0068966 91.6261682,35 Z" fill="#2A170D"></path>
                <path d="M88,41.5745337 C88.8520379,40.6625755 89.908565,41.3465441 90.8202456,41 C90.965092,41.1003154 91.0247347,41.2006308 90.9906532,41.3191854 C90.9565717,41.4377399 90.9310105,41.5106966 90.8884086,41.5106966 L90.8032048,41.7386861 C89.8932338,42.1376256 88.8638767,42.0773476 88,41.5745337 L88,41.5745337 Z" fill="#4D190A"></path>
                <path d="M108.373972,9.72250934 C108.86298,10.2201669 109.08094,10.873725 108.972883,11.5183523 L108.338742,11.9017345 C108.045158,12.0732476 107.857265,12.0228026 107.751575,11.7302214 C107.800684,11.3086516 107.537985,10.9056322 107.093947,10.7213209 C107.093947,10.2370486 107.03523,9.71242033 107,9.25841509 L107.10569,9.11716901 C107.904238,8.74387581 108.056902,9.34921613 108.373972,9.72250934 Z" fill="#696C6D"></path>
                <path d="M99.2166233,28 L101.995192,28 C102.061744,28.5852451 101.421176,28.3706553 101.080094,28.4812016 L100.589269,28.8193432 C100.162084,29.0602189 99.5855757,29.0602189 99.1583899,28.8193432 C98.9270553,28.5699268 98.9513678,28.2278515 99.2166233,28 Z" fill="#1B1712"></path>
                <path d="M102.483607,5 C102.442623,4.45311828 102.557377,3.84135229 102,3.50766174 C102.065574,1.74651722 102.065574,1.74651722 103,2.40462912 C102.729508,3.24812466 103.254098,4.28627301 102.483607,5 Z" fill="#623015"></path>
                <path d="M95.5750854,5.84135817 C94.5127991,5.08483556 93.6098556,4.29312585 94.1728674,3 L95.4051196,4.43387425 C95.5410595,4.5003209 95.6310459,4.61608964 95.6477887,4.7460715 C95.6645316,4.87605337 95.6060585,5.0049356 95.4901025,5.09363233 L96,5.86774849 C95.840657,6.05248076 95.6919369,6.04368398 95.5750854,5.84135817 Z" fill="#34231B"></path>
                <path d="M106.674286,4.94701002 C106.457143,4.44864205 106.228571,3.95872099 106,3.46035302 C107.051429,2.80149367 107.817143,2.75081219 108,3.96716791 C107.887408,4.00251924 107.783225,4.05100206 107.691429,4.11076546 C107.417143,4.43174822 107.84,5.20886437 106.674286,4.94701002 Z" fill="#683C2E"></path>
                <path d="M95.048,4.89710678 C95.048,4.64710678 95.018,4.39710678 95,4.14710678 C96.014,4.20710678 97.064,3.52710678 98,4.66710678 C97.022,4.81710678 96.02,4.35710678 95.048,4.89710678 Z" fill="#411A04"></path>
                <path d="M81,26 L83,26 C83,26.3859649 83,26.7719298 83,27.1695906 C82.5774352,27.1467794 82.196344,27.4885581 82.0740741,28 C81.6944444,27.3333333 81.3518519,26.6666667 81,26 Z" fill="#601F1E"></path>
                <path d="M111,9 C109.41,8.19101124 110.56,6.97752809 110,6 C111.62,6.80224719 110.3,8.05617978 111,9 Z" fill="#321D12"></path>
                <path d="M108.067214,11 L108.567214,11.1092077 C108.567214,12.0728051 108.517214,13.0364026 108.497214,14 C107.647214,13.0428266 108.167214,12.0021413 108.067214,11 Z" fill="#241815"></path>
                <path d="M89.8232419,45 L89.8812518,46.4117647 C90.2127371,47.0336134 89.7818063,47.394958 89.4254596,47.7815126 C89.356284,47.8301 89.3288887,47.9203836 89.3591625,48 C88.5470236,46.8487395 89.2928655,45.9411765 89.8232419,45 Z" fill="#3D2F2B"></path>
                <path d="M90.1702182,38.7871403 C89.7466423,38.7871403 89.2799909,38.8869187 89,38.1884702 L90.6009734,38 C91.1609552,38.4656323 90.9814738,39.2305997 90.9383983,39.9401346 C90.220473,40.2949021 90.5578979,38.9645241 90.1702182,38.7871403 Z" fill="#26150B"></path>
                <path d="M83,31 L86,31 C85.0790955,31.7818452 83.9209045,31.7818452 83,31 Z" fill="#483D3C"></path>
                <path d="M89.8152241,31.3919598 C89.5510366,31.9748744 88.66473,32.0351759 88.8522179,33 L88,32.4170854 C88.2897541,31.4120603 89.1334498,31.321608 89.8152241,31 C89.9771455,31.0703518 90.0282786,31.1507538 89.9856677,31.241206 C89.9430568,31.3316583 89.8663572,31.3919598 89.8152241,31.3919598 Z" fill="#1B0C09"></path>
                <path d="M70,21.0012546 L70,22 L68,22 C68.5434953,21.3342117 69.2609146,20.9759521 70,21.0012546 L70,21.0012546 Z" fill="#343030"></path>
                <path d="M177,44.5425131 C177.887852,43.8191623 179.112148,43.8191623 180,44.5425131 L177,44.5425131 Z" fill="#E9CD63"></path>
                <path d="M89.5780569,24.8521327 L88,24.8021327 C88.2052182,23.9321327 88.7854902,24.5421327 89.1322381,24.2221327 C89.3869917,24.4321327 89.7195866,23.5521327 89.9389578,24.3221327 C90.1087935,24.8621327 89.9035753,24.9421327 89.5780569,24.8521327 Z" fill="#330F0D"></path>
                <path d="M87,9.55924171 L88,9 C87.8580645,9.75829384 87.7741935,10.5734597 87.2322581,11 C87.4,10.4407583 87.0645161,10.0521327 87,9.55924171 Z" fill="#000000"></path>
                <path d="M103.761439,44 C103.257809,43.6337246 103.381508,43.0407073 103.231303,42.5523401 C103.048282,42.2800877 102.969935,41.9522106 103.010413,41.6279308 C103.063238,41.4028884 103.179662,41.197255 103.346165,41.0349135 C103.567417,40.9654144 103.808796,41.0008291 104,41.1308428 C103.893973,42.0639729 103.823288,43.0319865 103.761439,44 Z" fill="#2D1105"></path>
                <path d="M103.472528,38 C103.607373,38.0134397 103.743069,38.0134397 103.877915,38 C104.056002,38.9926505 104.039087,40.0149342 103.828275,41 C103.000956,40.8652695 103.075414,40.1017964 103.000956,39.4730539 C102.985697,38.9357421 103.153615,38.4112158 103.472528,38 L103.472528,38 Z" fill="#2C2929"></path>
                <path d="M99.2268041,4.66 L99,4.11 L102,4 C101.907216,4.68 101.319588,4.68 100.824742,4.79 C100.316593,5.07555849 99.6788174,5.02367233 99.2268041,4.66 Z" fill="#3B1C0B"></path>
                <path d="M70,38 C69.3581395,38.92 68.6883721,38.77 68,38.06 L70,38 Z" fill="#E9CD64"></path>
                <path d="M83.5198058,16 C82.8267314,15.4329074 82.8267314,14.5670926 83.5198058,14 C83.5298058,14.6468401 83.5198058,15.330855 83.5198058,16 Z" fill="#E9CE64"></path>
                <path d="M103.632872,39 C103.740453,39.5045045 103.854759,40.009009 103.96234,40.5225225 C104.029579,40.7567568 104.022855,40.9369369 103.807692,41 L103.357194,41 C102.920144,40.2162162 102.752048,39.4774775 103.632872,39 Z" fill="#78452D"></path>
                <path d="M95,48.3702415 L94.928087,49.1156903 C94.0137651,49.8611392 94.928087,50.9942213 93.900759,51.7173067 C93.5429327,51.9652526 93.0319644,52.0586522 92.5549593,51.9633048 C93.3353147,51.1979439 93.1349971,50.1210011 92.1029349,49.5331417 C91.7536434,49.0486 92.3803135,48.9293281 92.6885119,48.6907845 L93.2432691,48.3478781 C93.4348354,48.1274062 93.77118,47.9955433 94.130313,48.0001151 C94.489446,48.0046869 94.8192093,48.1450295 95,48.3702415 Z" fill="#E1A36E"></path>
                <path d="M101.407236,50.109703 C101.917337,49.3614605 100.834673,48.7313615 101.022058,48.0028095 C101.886106,47.9634283 102.06308,48.3441131 102.167182,48.7641791 C103.353948,49.5583664 102.364976,50.628222 103,51.4946081 C102.990728,51.6856797 102.86377,51.8669595 102.646052,52 C101.230262,51.6061881 101.60503,50.7660561 101.407236,50.109703 Z" fill="#2A231E"></path>
                <path d="M90.985258,53 L88.1621622,53 C88.1105651,52.7535211 88.0515971,52.5070423 88,52.2957746 L88.995086,52.2323944 L89.3488943,52.2323944 C89.494428,52.2538612 89.6414462,52.2035073 89.7395577,52.0985915 C89.8759839,52.0377843 90.0239704,52.004235 90.1744472,52 C90.323113,52.028752 90.4622396,52.0915876 90.5798526,52.1830986 L91,52.2887324 L90.985258,53 Z" fill="#606467"></path>
                <path d="M93.1121296,53 C93.4776962,52.0544413 92.2830768,50.5415473 93.7649271,50 C93.7649271,50.3094556 93.8236789,50.6103152 93.8563187,50.9111748 C94.076491,51.5080417 94.041769,52.2134604 93.7649271,52.7679083 L93.1121296,53 Z" fill="#383B3C"></path>
                <path d="M105.921225,52.74 L103.065646,52.81 C103.060865,52.6810612 103.038509,52.5550523 103,52.44 C103.133815,52.184779 103.33109,52.0254695 103.544858,52 C104.352298,52.31 105.225383,51.67 106,52.41 C105.960224,52.5113821 105.933489,52.623378 105.921225,52.74 Z" fill="#6A6868"></path>
                <path d="M94,53 L94.14,51 C94.3029484,51.0206885 94.463583,51.0547738 94.62,51.1018519 C94.28,51.6944444 95.27,52.6666667 94,53 Z" fill="#C4C5C7"></path>
                <path d="M102.911422,52.8426738 L102.373835,53 C101.895979,52.8977379 101.29866,53.1022621 101,52.5437539 C101,52.4021603 101,52.268433 101,52.1268393 C101.674118,51.7099248 102.194639,52.4650908 102.826091,52.3392298 C102.948593,52.4049437 103.015984,52.5322993 102.996753,52.6617486 C102.979687,52.7797433 102.945555,52.8426738 102.911422,52.8426738 Z" fill="#30241D"></path>
                <path d="M127.957133,38.4489741 C126.011375,34.1974582 126.393043,29.7460518 127.081542,25.3792144 C127.493144,22.726822 127.448242,21.9580126 125.090881,20.6202842 C116.596899,15.7998493 106.014967,22.3270411 106,32.3907561 C106,37.8800552 107.788601,41.4012022 111.60528,43.0310781 C114.338826,44.322974 117.485457,44.322974 120.219002,43.0310781 C121.887864,42.2161402 123.212476,42.0085617 124.84392,43.3539781 C126.475363,44.6993945 129.094653,43.3539781 128.997365,41.4088903 C128.829563,40.3652484 128.476995,39.3620371 127.957133,38.4489741 L127.957133,38.4489741 Z M120.129198,37.4110815 C118.220858,38.4489741 116.215231,39.0640217 114.239538,37.9031195 C112.263845,36.7422173 112.23391,34.6818081 112.17404,33.2056941 C112.17404,28.5928377 114.71101,25.2562049 118.355565,24.5027717 C120.421062,24.0799265 120.989822,24.6334693 120.66054,26.7323189 C120.204035,29.6461066 120.862599,32.5060775 121.072142,35.3814247 C121.146979,36.4193173 120.974854,36.9497958 120.129198,37.4110815 Z" fill="#EAD06D"></path>
                <path d="M54.9853912,29.4983927 C54.730166,25.1934171 53.1060058,21.4111884 48.9141256,19.8121975 C44.7606272,18.1108847 39.9816163,19.1355558 36.903074,22.3874954 C33.6470195,25.562415 32.804003,29.4830178 33.0360259,33.8494931 C33.4923376,41.4293252 41.5435318,46.2877978 48.3959411,42.9053169 C53.2993582,40.4760806 54.8693797,36.086543 54.9621889,30.9666969 C54.9931252,30.4900746 55.0163275,29.9903899 54.9853912,29.4983927 Z M48.1716523,35.2639851 C47.2130325,37.3858709 44.8247275,38.4775634 42.5801041,37.8198776 C40.3354807,37.1621918 38.9248221,34.9573843 39.2774416,32.6579373 C39.2845005,31.0999401 39.6579422,29.5651629 40.3679492,28.1761502 C41.6131387,25.9775376 43.4615877,24.8474815 45.735412,25.2011045 C48.1639182,25.5931648 48.4346116,27.6226533 48.8290505,29.4753303 C48.921289,30.1039597 48.9626701,30.7389281 48.952796,31.3741321 C49.0524577,32.7171892 48.7824229,34.0618786 48.1716523,35.2639851 Z" fill="#EAD06D"></path>
                <path d="M102,10.8297467 C101.206764,11.6135871 100.413527,10.7292543 99.6202906,10.8297467 C98.7001362,10.9235396 97.4785521,10.5483681 97.5896052,11.9418622 C97.4243368,12.0193793 97.2234051,12.0193793 97.0581367,11.9418622 C96.5245174,11.3635151 95.598977,11.1578073 94.7974128,11.4394004 C93.6392875,11.6537841 92.5366888,11.7408774 92.0131527,10.5416686 C91.9168417,9.92435706 92.3578697,9.33741574 93.0602249,9.14817446 C93.5001442,9.02789672 93.9633309,8.98013433 94.4245916,9.00748515 C94.7618899,9.00089072 95.0991757,9.02107791 95.432002,9.06778057 C96.1617795,9.2620658 96.9391513,9.28216428 97.6927259,9.42285359 C98.9259781,9.48842893 100.110494,9.85369672 101.103643,10.4746737 L102,10.8297467 Z" fill="#973F21"></path>
                <path d="M100,11 C98.9815486,10.4162172 97.7666816,10.8383371 96.7846035,10.1018727 C96.4063215,9.36540825 95.6497576,9.70669664 95.1696306,9.20374533 C95.0476667,9.03762836 94.987067,8.81643268 95.0023135,8.59301875 C95.0962937,8.26640903 95.3341128,8.03571464 95.6133844,8.00025471 C97.4006737,7.98043106 99.0655374,9.1189323 100,11 L100,11 Z" fill="#933C20"></path>
                <path d="M104.997576,4 C105.02277,5.02045354 104.851365,6.03678353 104.491624,7 C103.301699,5.80351906 104.594689,4.96774194 104.997576,4 Z" fill="#23130C"></path>
                <path d="M96,8.55676683 L95.45,9 C95.2863995,8.96261842 95.1711194,8.80960377 95.175,8.63498445 L95,7.14015884 C95.1166667,6.94896022 95.2333333,6.95765107 95.3583333,7.14015884 L96,8.55676683 Z" fill="#331A0F"></path>
                <path d="M97,7 L96.5449735,7 C95.7611127,6.66321263 95.1810711,5.9123369 95,5 C95.1402867,5.02372326 95.2829937,5.02372326 95.4232804,5 C96.2193959,5.32710051 96.8126871,6.07966457 97,7 Z" fill="#311B0E"></path>
                <path d="M99.5175345,5 L101,5.13 C100.435707,5.77 99.7183847,5.6 99.0297556,5.5 C99.0297556,5.5 98.9628055,5.18 99.0297556,5.15 C99.1862859,5.08054034 99.3499624,5.03020713 99.5175345,5 Z" fill="#B95B28"></path>
                <path d="M95.7233944,8 L95.9592332,8.49405425 L95.9592332,9.32924118 C96.0449928,9.85858502 96.0235529,10.1997177 95.6161949,9.87034821 L94.822919,9.78800584 C94.0653762,9.01163488 93.1434608,10.3408761 92.4145046,9.2704252 L92,8.52934383 C93.2435137,8.37642228 94.5370538,9.03516128 95.7233944,8 Z" fill="#28130B"></path>
                <path d="M88,7.46849747 C88.0490218,7.32319531 88.0741038,7.16260073 88.0731707,7 C89.1038325,7.29436835 90.0934846,7.84697385 91,8.63429349 C89.7560976,9.61486958 88.9,8.41638769 88,7.46849747 Z" fill="#401C10"></path>
                <path d="M103,22.1118124 C102.939633,22.699896 102.245414,22.2098264 102.102043,22.6094216 C101.460644,23.2879795 100.758879,22.9110029 100.06466,22.7451332 C99.3037746,22.509593 98.5701946,22.1936599 97.8763602,21.8026916 C97.5443424,21.5991242 97.2123245,21.3880173 96.8878524,21.1618313 C96.2935011,20.7858289 95.9542596,20.1137092 96.0049867,19.4126598 C96.1860873,18.5908508 96.8652148,18.2138741 97.4688837,17.7615022 C97.6046184,17.6336529 97.7510376,17.5176247 97.9065437,17.4146837 C98.2904892,17.1435863 98.7493857,16.9986545 99.2195235,17.0000094 C99.7489715,17.1400114 100.302578,17.1631662 100.841884,17.0678652 C101.415369,17.1658791 101.981309,17.2714326 102.237868,17.8972138 C102.236007,18.2738243 102.156372,18.6459982 102.003946,18.990446 C101.724905,19.6692865 101.843923,20.446605 102.313327,21.0110407 C102.554794,21.3653987 102.977362,21.6142033 103,22.1118124 Z" fill="#FAD799"></path>
                <path d="M101.150105,18.9635922 L101.568602,18.2033332 C101.768062,18.0088606 102.06971,17.9473841 102.334662,18.0472086 C103.220296,18.8711807 104.391823,19.3544271 105.625887,19.4048139 C106.179153,19.6288187 105.959265,20.0836165 105.945079,20.4569579 L105.086807,20.9185437 L104.852733,20.8574515 C104.102491,20.8334189 103.351617,20.8811722 102.611296,21 C102.147031,20.9828263 101.709672,20.7870159 101.398366,20.4569579 C100.98101,20.0657971 100.880199,19.4593867 101.150105,18.9635922 L101.150105,18.9635922 Z" fill="#281410"></path>
                <path d="M106.804666,19.8795802 C105.347771,19.7933075 103.614067,20.2795715 103.118723,17.9815822 C102.945245,17.7293548 102.963624,17.3797667 103.16243,17.1502277 C103.402834,16.9908493 103.697055,16.9562916 103.963722,17.0561121 C104.459066,17.307087 104.692169,17.8404088 105.187513,18.1384415 C105.91596,18.6482344 106.819235,18.256086 107.605958,18.491375 C108.086733,18.9462671 108.174147,19.4090021 107.605958,19.8795802 C107.351001,19.8560513 107.074191,20.161927 106.804666,19.8795802 Z" fill="#3F1915"></path>
                <path d="M100.093999,26.915625 L98.6468296,27 L98.4218495,26.90625 C98.2930255,26.7714899 98.1867518,26.5915727 98.1117418,26.38125 C98.0503747,26.1545051 98.0134061,25.9138455 98.002292,25.66875 C97.9880239,25.2916987 98.0405724,24.9157683 98.1543056,24.58125 C98.3061895,24.2603133 98.5371383,24.050058 98.7927627,24 C99.6501193,24.140625 100.525718,24.253125 101,25.63125 L100.744617,26.475 C100.708134,26.55 100.66557,26.615625 100.623006,26.690625 C100.446671,26.775 100.252093,26.728125 100.093999,26.915625 Z" fill="#CC2925"></path>
                <path d="M102.227039,21 L103.477628,21.4085182 C104.297424,21.2118401 105.151383,21.2118401 105.971179,21.4085182 C106.009607,21.4724519 106.009607,21.5526975 105.971179,21.6166313 C104.972234,21.8324522 104.583331,23.7979644 103.103976,22.6340729 L102.166035,21.9095311 C102.049455,21.783224 101.989856,21.6137397 102.001416,21.4413941 C102.012976,21.2690486 102.09466,21.1092463 102.227039,21 Z" fill="#AE8A65"></path>
                <path d="M101.599535,25 L99,23.8654594 C99,22.7642877 99.727331,23.3232158 100.090997,23.0312384 C100.764451,22.8226832 101.289746,23.7403263 101.969935,23.373269 C102.066217,23.9578098 101.928206,24.5639303 101.599535,25 Z" fill="#6D2419"></path>
                <path d="M108,19.3358398 C107.140344,20.2213867 105.859656,20.2213867 105,19.3358398 C105.049451,17.8259839 105.148352,17.7772789 107.093407,18.3032932 L107.983516,18.8780125 C107.991758,19.0630916 108,19.1994657 108,19.3358398 Z" fill="#C9BEBC"></path>
                <path d="M107.192995,20.2065779 C107.459595,20.1504064 107.7334,19.771249 108,20.2065779 C107.962332,20.595557 107.671087,20.9162609 107.27946,21 C106.74626,20.7612712 107.128146,20.4733924 107.192995,20.2065779 Z" fill="#0E0504"></path>
                <path d="M101.678175,25 L101.128175,25.56 C101.026429,25.4789535 100.979842,25.3469573 101.008175,25.22 C101.008175,25.11 101.078175,25.05 101.118175,25.05 L101.348175,25.05 C101.459947,25.0485299 101.570985,25.0317059 101.678175,25 Z" fill="#EDD096"></path>
                <path d="M97.2918332,13.0068264 C97.4303357,13.013898 97.5691945,13.013898 97.707697,13.0068264 C100.447505,13.0068264 103.203622,12.8718064 105.821117,13.8027338 C106.059628,14.0623508 106.059628,14.4314062 105.821117,14.6910232 C105.416398,14.9403803 104.917214,15.044687 104.426751,14.9823821 C102.600212,14.7265548 100.814444,14.2717506 98.9389799,14.2717506 C98.5968451,14.2659966 98.2558775,14.2350929 97.919706,14.1793685 C97.6992088,14.136427 97.4893211,14.05941 97.2999874,13.9519664 C97.0328654,13.762038 96.9316617,13.4462312 97.0472075,13.1631653 L97.2918332,13.0068264 Z" fill="#9F4623"></path>
                <path d="M105,15.0273568 L105,14 C105.913242,14.1951978 106.881279,14.3390278 107,15.7156859 L106.47032,15.7156859 C106.235803,15.9958477 105.86934,16.0782988 105.557078,15.9211573 C105.250685,15.7461439 105.04183,15.4110468 105,15.0273568 Z" fill="#A44A23"></path>
                <path d="M106,12.51 L104,12.51 C104.900474,11.83 104.900474,11.83 106,12.51 Z" fill="#452013"></path>
                <path d="M85.8866667,28.8286561 C84.92,28.6400146 83.8866667,28.9516833 83,28.279135 C84.3333333,27.4589543 85.6666667,28.7548399 87,28.279135 L87,28.279135 C86.9133333,29.4437917 86.3133333,28.8532616 85.8866667,28.8286561 Z" fill="#4B1312"></path>
                <path d="M100.137065,18.5475353 L98.9266547,19.0879873 C98.3332447,19.4818365 97.6426693,19.6732133 96.9459841,19.6368838 C96.2216463,19.6064017 95.5116388,19.4106563 94.863136,19.0626536 C92.92938,17.8045264 90.4366546,18.1977513 88.9211242,20 L88.4966947,20 C88.4338163,18.243531 87.9700879,16.546174 88.0015271,14.7559268 C88.0958447,9.68918943 88.3316389,9.38518519 92.8746056,9.19096026 C93.2570607,8.90770953 93.7702899,8.94260907 94.1164546,9.27540588 C93.8335017,9.73141224 93.1968575,9.92563718 93.2518762,10.6349804 C93.0318017,11.3865465 93.0003624,12.1887799 92.7567085,12.9319014 C92.6781105,14.3505878 93.8335017,13.8776923 94.462286,14.2154748 C94.6327916,14.3206792 94.7656066,14.4841853 94.8395566,14.6799258 C95.1067899,15.2203777 94.3443889,15.8874982 94.6352017,16.0732785 C95.6176772,16.7150653 96.7180498,17.2048499 97.7791233,16.140835 C97.9611605,16.0498463 98.1543705,15.9872866 98.352889,15.9550547 C101.095961,15.6341613 101.143119,15.6679395 100.915185,17.6946345 C100.836903,18.1199729 100.531305,18.4549399 100.137065,18.5475353 Z" fill="#B05727"></path>
                <path d="M88,19.275949 C88.7948524,17.241248 90.4753974,16.5179753 92.6328539,17.3207285 C93.5942468,17.6783908 94.5404996,18.0757933 95.4943225,18.4572997 C95.6356457,18.5453092 95.7284608,18.698867 95.7441332,18.8705984 C95.8374079,19.2926709 95.9081715,19.7198808 95.9560939,20.1502346 C95.8879637,20.9450397 96.5541257,21.3027019 96.7887964,21.9147019 C97.1370174,22.6061823 97.326268,23.3850913 97.7274792,24.0527275 C97.8034567,24.2280824 97.8946837,24.3957021 98,24.5534547 L98,25.4515845 C97.8940197,25.6423377 97.8561696,25.8887273 97.6366389,26 L97.4171083,26 L97.2505678,25.848987 C96.993187,24.7918963 96.7358062,24.4580781 95.342922,24.4898703 C93.0719152,24.5455067 91.0355791,23.0433251 89.5215746,21.0881046 C89.006813,20.4681566 88.4920515,19.8800008 88,19.275949 Z" fill="#FCD396"></path>
                <path d="M90.0221032,24.4840183 L90.5318824,24 L92.7709124,25.086758 C92.9163615,25.2012576 93,25.3679672 93,25.543379 C93,25.7187908 92.9163615,25.8855004 92.7709124,26 C91.7013758,25.716895 89.7722115,26.7214612 90.0221032,24.4840183 Z" fill="#631F1C"></path>
                <path d="M93.0320193,24.876939 C93.0320193,24.5875491 93.0320193,24.2981593 93.0320193,24 C93.8773299,24.7980145 95.03643,24 95.8497212,25.0260187 C95.944925,25.134313 96,25.2950058 96,25.4644882 C96,25.6339705 95.944925,25.7946634 95.8497212,25.9029577 C95.5295278,26.1309618 95.2477576,25.9029577 94.9531797,25.7714168 C94.4427153,25.5789863 93.9225955,25.4382956 93.3970398,25.3504861 C93.2573335,25.2533522 93.1244298,25.1388703 93,25.0084799 L93.0320193,24.876939 Z" fill="#18160F"></path>
                <path d="M96.0237193,25.6514074 C96.0237193,25.467314 96.0237193,25.2903011 96.0237193,25.1062077 L97.7725709,25 L97.733359,25.0778857 C97.883962,25.1569325 97.9832051,25.296606 98,25.453153 C97.9844035,25.6082861 97.9189891,25.7559349 97.8117828,25.8779839 C97.659783,25.9524345 97.4905618,25.9936613 97.3177126,25.9983527 C96.9804901,25.9983527 96.6432676,25.9983527 96.3060452,25.9983527 C96.2081253,26.0085856 96.1116471,25.9706268 96.053284,25.8989054 C95.9949209,25.827184 95.9836362,25.7327148 96.0237193,25.6514074 L96.0237193,25.6514074 Z" fill="#180205"></path>
                <path d="M93.1418811,25 L93.5005364,25 C94.0444969,25.4556908 94.696054,25 95.2220817,25.3892359 L95.8198405,25.7784717 L95.8198405,26.0158107 C96.0035599,26.2731136 96.0529144,26.6963903 95.9393923,27.0411149 C95.564977,27.7119609 95.0135385,28.0636839 94.4509729,27.9904707 C94.2943165,27.9565831 94.1425944,27.8794747 94.0026538,27.7626253 C93.956149,27.6604015 93.9062658,27.5621636 93.8532141,27.468325 C93.5191458,27.3687989 93.2363506,27.0177009 93.0948955,26.5268517 C92.9534403,26.0360024 92.9709624,25.4666028 93.1418811,25 L93.1418811,25 Z" fill="#DA2026"></path>
                <path d="M86,28.5518605 C86.4167104,28.3854264 86.9697988,28.6306977 87.2425548,28 L88.121435,28 C88.3335785,28.394186 89.1442697,28.0437984 88.9775855,28.9197674 C87.9774804,28.8496899 86.9319161,29.3227132 86,28.5518605 Z" fill="#B91F25"></path>
                <path d="M92.9879786,29.8465109 L92.636344,29.8465109 C92.3275917,29.8465109 92.0617217,30.0070561 91.7786987,29.9997586 C91.4791804,29.94685 91.216812,29.7945193 91.0497003,29.5765031 C90.9639244,29.422711 90.9906841,29.2405572 91.1183119,29.1094626 L94,29 L93.9485413,29.0729751 C93.9914235,29.7078582 93.7169771,29.992461 92.9879786,29.8465109 Z" fill="#551012"></path>
                <path d="M91,28.4293219 C91,28.5315414 91,28.6337609 91,28.7359804 C90.8043606,28.8967582 90.5298063,28.9917932 90.2387166,28.9994931 C89.9476268,29.007193 89.6647182,28.9269041 89.4542683,28.7768682 C89.3206632,28.7363551 89.1777828,28.7155269 89.0335366,28.7155365 L88,28 L91,28.4293219 Z" fill="#34110E"></path>
                <path d="M107.034885,4.92307692 L107.885333,4 L108,6.49230769 C107.896298,6.71564589 107.713254,6.89574213 107.483998,7 C106.786439,6.40923077 107.053996,5.64307692 107.034885,4.92307692 Z" fill="#522214"></path>
                <polygon fill="#24110B" points="107 6.49253731 107.473684 6 108 9 107.052632 8.47164179"></polygon>
                <path d="M93.504451,9.64820501 L92.0979228,9.54820501 L92,9.08820501 C93.0059347,9.15820501 94.0830861,8.63820501 95,9.52820501 L93.504451,9.64820501 Z" fill="#481E11"></path>
                <path d="M89.1495065,29.0540541 L90.571022,29 L91,29.4774775 C90.9674675,29.9143272 90.7116097,30.2958992 90.3355046,30.4684685 L90.0411079,30.5225225 L89.1999745,31 C89.1545842,30.887928 89.1545842,30.7607207 89.1999745,30.6486486 C88.9523697,30.154495 88.9337136,29.5650322 89.1495065,29.0540541 Z" fill="#B91F25"></path>
                <path d="M103.110265,35.1480916 L104.367318,36.1847738 C104.519446,37.1015093 104.663566,38.0182449 104.815694,38.9349804 C105.352143,39.9116893 104.567486,40.6485047 104.359311,41.4195907 C104.155257,41.4629233 103.946187,41.3761081 103.822862,41.1968325 C103.900442,41.3015417 103.983301,41.401646 104.07107,41.4966993 C104.17504,41.6692302 104.217659,41.8759731 104.191171,42.0792976 C103.91256,42.8404807 103.32189,43.4219662 102.589829,43.65574 C100.87068,44.2333188 99.0096589,44.0798985 97.3934753,43.2273589 C96.6408447,42.5933549 95.6079793,42.1992443 95.6319995,40.8969658 C95.2295272,39.0292326 95.0413161,37.1159671 95.0715299,35.1994973 C94.9761567,35.0095715 94.9761567,34.7811219 95.0715299,34.5911961 C95.3033585,34.2192042 95.6945638,33.9970182 96.112402,34.0000302 C96.5155429,34.0681523 96.8958141,34.2450702 97.2173277,34.5140875 C97.8988061,35.1995628 98.9377607,35.2748741 99.6994073,34.6940076 C99.8604917,34.5835245 100.029107,34.4861507 100.20383,34.4027085 C100.378496,34.3270848 100.557717,34.2641136 100.740279,34.2142208 C101.100812,34.0848939 101.483893,34.0439021 101.861218,34.0942741 C102.374913,34.2882836 102.814118,34.6588396 103.110265,35.1480916 Z" fill="#FBD295"></path>
                <path d="M94.31571,39.4296664 L96,40.8775546 C94.8897281,42.4250681 93.1903323,41.48859 91.755287,41.6479905 C91.5060423,41.7608992 91.2643505,41.8804496 91,42 L91.3172205,40.9041213 C91.4531722,40.7048707 91.7024169,40.4989783 91.694864,40.2997276 C91.6495468,38.9713898 92.1706949,38.6525888 93.4773414,39.3831746 C93.7039275,39.4960833 94.0438066,39.416383 94.31571,39.4296664 Z" fill="#A64C25"></path>
                <path d="M95.9292016,32.8911317 L94.9908047,33.3128474 C94.5259912,33.2205971 94.1664186,33.2667223 94.0436377,33.6752594 C93.8069033,33.9235333 93.3986415,34.0446842 93,33.9849569 C93,33.5105267 93,33.0360965 93,32.5550769 C93.543744,32.067468 93.1490911,31.085661 94.4558307,31 C95.5082385,31.4019478 96.2361538,31.9225032 95.9292016,32.8911317 Z" fill="#8A331D"></path>
                <path d="M93.2950116,35 C92.8223684,34.6215482 92.962884,34.2633705 93.3972047,34.0538704 C93.8315254,33.8443703 93.9081702,34.2904028 93.9848151,34.6283062 C94.0177968,34.7420044 93.9963461,34.8655756 93.9273315,34.9594516 L93.2950116,35 Z" fill="#862F1B"></path>
                <path d="M91.0092593,39 L92,39.7722008 L92,40.6756757 L91.0740741,41 C91.0740741,40.8532819 91.0277778,40.7142857 91,40.5675676 C91,40.0501931 91.0092593,39.5328185 91.0092593,39 Z" fill="#421F12"></path>
                <path d="M92,41.9377023 C93.330525,40.91108 95.101934,42.0427896 96.4245861,41 C98.051497,41.620653 99.8117942,41.7770903 101.518371,41.4526838 C102.148205,41.7841131 102.148205,41.7841131 101.589227,43.2795865 L101.589227,43.2795865 C101.329421,43.6433503 101.093233,44.0313651 100.581493,44.0879505 C100.159647,43.9978787 99.7288308,43.9598857 99.2982051,43.9747796 L96.8418513,43.9747796 C96.2435087,44.1122015 95.6058014,43.5220957 95.0232047,44.055616 C94.6216853,44.2738743 94.66105,44.7023072 94.5823207,45.066071 C94.359382,45.7131631 94.0964157,46.3449733 93.7950278,46.9576428 C93.6082901,47.025683 93.4024468,47.0112768 93.2264282,46.9178488 C93.0504095,46.8244208 92.9199361,46.6603151 92.8660222,46.4645408 C94.2280389,43.5140121 94.1729284,43.2068338 92,41.9377023 Z" fill="#9E4623"></path>
                <path d="M92.9285823,47 L93.6952269,47.3706897 C94.1398808,47.8017241 94.0325505,48.2758621 93.7872243,48.7672414 C93.822616,48.7925575 93.8440496,48.8364539 93.8440496,48.8836207 C93.8440496,48.9307874 93.822616,48.9746839 93.7872243,49 L92.4915949,48.9568966 L90,48.8017241 L90.4139881,47.3965517 C91.2649636,47.3965517 92.1772706,47.8103448 92.9285823,47 Z" fill="#832C18"></path>
                <path d="M101.322205,44 C100.319285,43.4386441 102.054336,42.7993221 101.231942,42.2379662 L103.117431,41.0294917 C104.060175,40.8423731 103.618891,41.5986442 104,41.8091527 C104,42.1054239 104,42.4094916 104,42.7135594 C102.726292,42.7057628 102.315095,43.7037288 101.322205,44 Z" fill="#A44B24"></path>
                <path d="M101.425879,43.4803625 L102.454716,43 C102.629619,43.8338369 102.814809,44.6767372 103,45.510574 L101.322995,46 C101.251729,45.9655876 101.202087,45.9045008 101.188078,45.8339792 C101.174069,45.7634575 101.197212,45.6911497 101.250976,45.6374622 C100.861984,44.9435065 100.928872,44.1185674 101.425879,43.4803625 Z" fill="#994221"></path>
                <path d="M103.476612,52.9168577 L101.473301,52.5033249 C101.058369,51.3967233 100.913941,50.2276378 101.049177,49.0702225 L101.996689,49 L103.95488,50.2640059 C103.11794,50.2423396 102.380431,50.7361366 102.195215,51.4421842 C102.014737,52.5111274 103.49466,52.2224347 104,52.8076226 C103.873665,53.0416978 103.702211,53.0416978 103.476612,52.9168577 Z" fill="#E1A773"></path>
                <path d="M103,52.5669291 L103.384436,52.4566929 C104.247755,52.5871183 105.124586,52.428964 105.91641,52 C106.006162,52.1758097 106.024693,52.3902143 105.966886,52.5840222 C105.909079,52.77783 105.781049,52.9305426 105.61814,53 L103.006628,52.8661417 C103.006628,52.7637795 103,52.6929134 103,52.5669291 Z" fill="#3C2315"></path>
                <path d="M93,49.0424011 L92.3471486,50 L91.0987136,49.9576284 C90.5603975,48.313609 92.3700557,49.3559512 93,49.0424011 Z" fill="#EAB27B"></path>
                <path d="M90.8642419,53 L90.3311581,53 C90.1754399,52.9248648 90.0550995,52.7783819 90,52.5969018 C90,51.9006413 90.4361595,52.0105771 90.8077027,52.0014158 C91.0408132,52.2730514 91.0648042,52.6967751 90.8642419,53 Z" fill="#B78055"></path>
                <path d="M90.16,52 L90.57,52.44 C90.36,53.04 90.18,52.85 90,52.44 C90.0977107,52.313496 90.1536297,52.1597187 90.16,52 Z" fill="#1B100A"></path>
                <path d="M91.07,53 C91.07,52.65 91.07,52.3 91,52 C91.3587021,52.197481 91.5607682,52.5936891 91.51,53 L91.29,53 L91.07,53 Z" fill="#FDE6A4"></path>
                <path d="M91.9205505,30.0758403 C91.7855013,31.0485463 92.37393,32.0575022 91.5539885,33 C91.4864639,32.3958348 91.4092929,31.7433363 91.3321219,31.1089628 C90.9414958,30.8404541 90.8899383,30.4405404 91.2067191,30.1362568 C91.2815674,30.0631411 91.4039045,30.0142998 91.5413293,30.0026686 C91.678754,29.9910374 91.8174014,30.0177897 91.9205505,30.0758403 Z" fill="#2E080B"></path>
                <path d="M91,30.1016105 C91,30.6309422 91,31.160274 91,31.6799815 C90.1707317,32.4691669 90.0365854,31.6799815 90,30.6020696 L90.0792683,30.5443243 C90.3719512,30.3229674 90.6036585,29.7743873 91,30.1016105 Z" fill="#A51E23"></path>
                <path d="M104,48.4690388 C103.542601,48.7430192 103.103139,49.2114374 102.511211,48.8932666 L102,48.1773822 C102.664062,47.8598293 103.457728,47.9755683 104,48.4690388 Z" fill="#8B321B"></path>
                <path d="M102.918807,35 L102.122621,34.7920417 C101.737722,34.8171801 101.36921,34.5863299 101.143313,34.1785646 C101.052431,33.9614983 101.003252,33.718866 101,33.4715063 C101.083751,32.8599478 101.407187,32.3507037 101.851918,32.130175 C102.017973,32.0269637 102.202201,31.983872 102.385363,32.0054 L102.608294,32.2237563 C102.5446,33.1803646 103.229319,33.9914021 102.918807,35 Z" fill="#E0A772"></path>
                <path d="M102.131934,32 L102.611934,32.56 L102.171934,32.56 L102.091934,32.56 C101.955327,32.3920484 101.972843,32.1468303 102.131934,32 Z" fill="#000304"></path>
                <path d="M94.2590845,32.3154671 L93,34 L93,29.7656968 C93.3685125,29.5895865 93.7677345,29.4134763 93.8368306,29 L94.3205033,29 C94.9500455,29.4517611 95.6026198,29 96.2475167,29 C96.4418306,29.0296836 96.6276185,29.1001478 96.7926082,29.2067381 C96.9288331,29.3517985 97.0031665,29.5440031 96.9998965,29.7427259 C96.9154669,30.0283205 96.7656586,30.2904445 96.5622879,30.5084227 C95.8099081,31.143951 95.3185581,32.0627871 94.2590845,32.3154671 Z" fill="#8C3B1F"></path>
                <path d="M91.3451327,29.6634146 L90,30 C90.300885,29.7292683 90.5929204,29.4585366 90.8849558,29.195122 C91.2566372,29.195122 91.6460177,28.7560976 92,29.195122 L91.8672566,29.5902439 L91.3451327,29.6634146 Z" fill="#120A07"></path>
                <path d="M103.808463,18.6028498 L103.140312,18.6028498 C103.05319,18.4987047 103.001523,18.3386711 103,18.1682414 C103,18.0026763 103.013363,17.9198937 103.040089,17.9198937 C103.226026,17.6533864 103.458314,17.4771084 103.708241,17.4128506 C104.376392,17.4128506 104.797327,16.5332859 105.331849,16.0676341 C105.558667,15.9340015 105.814437,16.0013414 106,16.243547 C106,16.8230249 106,17.4025028 106,17.9716328 C105.906459,18.1578936 105.806236,18.3338065 105.712695,18.5097195 C105.147107,19.1278056 104.398105,19.1644371 103.808463,18.6028498 L103.808463,18.6028498 Z" fill="#8E4A23"></path>
                <path d="M107,16.9543379 L105.936769,17 L105.596535,16.8721461 C105.338577,16.6435113 105.148882,16.3646428 105.043654,16.0593607 C104.985449,15.85229 104.985449,15.6362945 105.043654,15.4292237 C105.177003,15.250729 105.359616,15.1032881 105.57527,15 L105.936769,15 L106.936206,15 L107,16.9543379 Z" fill="#6B3C27"></path>
                <path d="M102.632258,41 L102.064516,40.3303571 C102.064516,40.1964286 102.019355,40.0691964 102,39.9419643 L102,39.9419643 C102.6,39.4397321 102.406452,38.6361607 102.645161,38 L103,38.0669643 L102.96129,39.1651786 C102.670814,39.6030397 102.574552,40.1489125 102.696774,40.6651786 C102.691042,40.7794446 102.669308,40.8922352 102.632258,41 L102.632258,41 Z" fill="#B75D2F"></path>
                <path d="M99.0581891,30.1293621 L99.8367292,30.660371 L99.9924373,31.46493 C100.051755,31.9878933 99.7551679,32.189033 99.3473611,32.2694889 C98.7251373,32.1801302 98.0966755,32.375386 97.6123288,32.8085434 C97.383569,33.0052934 97.0753487,33.0543866 96.80413,32.9372728 C96.1677314,32.5684764 95.8579334,31.7650565 96.0626631,31.014377 C96.80413,30.4511857 97.7309635,30.5316416 98.4724303,30.0247695 C98.6725867,29.9695985 98.8848794,30.0075054 99.0581891,30.1293621 Z" fill="#F2D397"></path>
                <path d="M100.127059,31.6990766 C100.569589,31.7166908 100.988342,31.4525771 101.235447,31 C101.598998,31.5024613 101.962549,31.9830764 102.592113,31.8519996 L103,32.3107686 C103,32.52923 103,32.7476914 103,32.9661528 L102.538911,32.9661528 C101.71427,32.9006144 100.836427,33.2719988 100.100458,32.5073838 C99.9571732,32.2625467 99.968156,31.9288223 100.127059,31.6990766 L100.127059,31.6990766 Z" fill="#C79264"></path>
                <path d="M99.653861,29.3438997 L99.1077306,29.5871408 C98.3385329,30.0588811 97.4770314,29.8967204 96.6462978,29.9999135 C96.3480289,30.0046114 96.0833805,29.8174283 96.0001717,29.5429152 C95.9968502,29.355973 96.0417684,29.1711391 96.1309353,29.0048364 C96.161449,28.8737705 96.161449,28.7378715 96.1309353,28.6068056 C96.2460118,28.4582189 96.3998791,28.3412794 96.57707,28.2677423 C96.8490827,28.1814808 97.1303029,28.1246174 97.4154956,28.0982106 C97.8693222,28.0613559 98.3308409,27.8697114 98.7769756,28.1498072 L100,28.2235166 L99.653861,29.3438997 Z" fill="#E8B018"></path>
                <path d="M104,17.0538922 L106.220779,17 L107,17.3652695 C106.407792,17.6946108 105.215584,16.9281437 105.020779,18 C104.374026,17.8922156 104.272727,17.4131737 104,17.0538922 Z" fill="#361510"></path>
                <path d="M99,28.3964745 C98.568566,28.6829129 98.1859736,29.0977547 97.6242953,28.9792285 C97.0707573,28.2977026 96.5823415,27.6161768 97.5591732,26.8556334 C97.5998745,26.7173528 97.6487161,26.5790722 97.6975577,26.4506688 C97.7155537,26.2550733 97.8178503,26.0858132 97.9661864,26.0061954 C98.1246056,25.9856741 98.2846801,26.016342 98.4301815,26.0950901 L98.8127739,26.460546 C98.8616155,26.72723 98.9023168,27.0037912 98.9511584,27.2704752 L99,28.3964745 Z" fill="#CFB196"></path>
                <path d="M101.85,25 C101.935335,25.1592912 101.935335,25.3507088 101.85,25.51 L101.92,25.51 C101.882198,25.6113413 101.794308,25.6856521 101.688092,25.7060782 C101.581876,25.7265044 101.472693,25.6900921 101.4,25.61 C101.280283,25.5293073 101.143256,25.477922 101,25.46 C101.11,24.95 101.54,25.08 101.85,25 Z" fill="#202019"></path>
                <path d="M99.36,26.44 L99.16,26.44 L99,26.29 L99.25,26 L99.56,26.23 L99.56,26.23 C99.4,26.23 99.34,26.3 99.36,26.44 Z" fill="#6B4B25"></path>
                <path d="M101,26.1 L101.52,26 C101.52,26.2 101.52,26.4 101.52,26.6 C101.33,26.47 101.16,26.27 101,26.1 Z" fill="#F2D397"></path>
                <path d="M101.877778,33 L102.922222,34.0930233 C102.922222,34.3953488 102.922222,34.6976744 103,35 L101,33.9069767 C101.062078,33.4312537 101.422444,33.0588996 101.877778,33 L101.877778,33 Z" fill="#624833"></path>
                <path d="M94.1013938,47 L94,45.7188329 C94.1130191,45.0550972 94.4650672,44.4481882 94.997039,44 C95.0341695,45.0630619 94.7213307,46.1109281 94.1013938,47 L94.1013938,47 Z" fill="#453B38"></path>
                <path d="M96.1872788,44 L99,44.06 L99,44.41 L96.1357368,44.41 C96.0105634,44.3 95.9737477,44.21 96.0179265,44.13 C96.0538453,44.049555 96.1180067,44.0003027 96.1872788,44 Z" fill="#1A0A06"></path>
                <path d="M100,44.394958 L100,44.1008403 L102,44 C102,44.6722689 101.899441,45.3361345 101.843575,46 C101.027933,45.5714286 101.597765,44.2941176 100,44.394958 Z" fill="#363230"></path>
                <path d="M95.9931401,43.5938404 C96.0022866,43.7267355 96.0022866,43.8609453 95.9931401,43.9938404 L95,43.9238404 C95.0957243,42.0838404 95.6102427,43.5538404 95.9931401,43.5938404 Z" fill="#451A09"></path>
                <path d="M92.010795,12.872668 C91.9433886,12.1657161 92.19452,11.467087 92.6839499,11 C93.2274144,12.0816855 93.9746782,11.7909825 94.7404691,11.3785899 C94.9101011,11.5538539 95.004289,11.7993464 94.9998499,12.0546434 C94.8863526,12.5589508 94.6963865,13.0388461 94.4378582,13.4743556 C94.2649376,13.7515375 94.141423,14.1098458 93.7276488,13.9678746 L93.6905944,13.9678746 C93.3262262,13.2580185 92.0910795,14.1233669 92.010795,12.872668 Z" fill="#A24823"></path>
                <path d="M95.0921986,13.4551571 L95,12.0190726 C95.8439716,12.1262431 97,11.429635 97,13.7552345 L96.9148936,13.8409709 C96.3007093,14.148121 95.6268948,14.0054932 95.0921986,13.4551571 L95.0921986,13.4551571 Z" fill="#A74F22"></path>
                <path d="M95,9.47078612 L95.3537906,9.0717068 C96.0036101,9.12376062 96.898917,8.54249292 97,10 C96.3429603,9.78310907 95.5631769,10.2082153 95,9.47078612 Z" fill="#401C11"></path>
                <path d="M99,18.2696846 L99.4193548,17.3895749 C100.709677,15.4445326 101.167742,15.5149413 102,17.7680221 C101.707768,18.4520117 101.084483,18.7253117 100.554839,18.4017011 C100.025806,19.2202031 99.5032258,19.2202031 99,18.2696846 Z" fill="#F9D094"></path>
                <path d="M98.8934687,25 C98.7247569,24.990807 98.55931,24.9439744 98.4066259,24.8621908 C98.0695809,23.8975265 97.657637,22.9328622 98.4815248,22 L101,23.3144876 L99.4832975,24.3745583 L98.8934687,25 Z" fill="#601B16"></path>
                <path d="M98,22.4615157 C98,23.3076771 97.9641213,24.1538386 97.942594,25 C97.4976976,24.0598206 96.6366079,23.3546861 97.1676132,22.0008278 C97.4905219,22.0196314 97.8421335,21.8880063 98,22.4615157 Z" fill="#341C16"></path>
                <path d="M101,17.3481013 L102.756458,17 L103,17 C102.98509,17.1050977 102.98509,17.2113579 103,17.3164557 C102.95572,17.5063291 102.918819,17.6962025 102.881919,17.8797468 L102.107011,18 C102.04797,17.4240506 101.147601,17.8544304 101,17.3481013 Z" fill="#806C51"></path>
                <path d="M95.7783542,20 C95.2812736,19.5371742 94.6624591,19.1052034 95.2204066,18.292687 C96.1069602,17.9024377 97.1134464,17.9024377 98,18.292687 L95.7783542,20 Z" fill="#FDDB9D"></path>
                <path d="M102,20.9272727 C102,21.2909091 101.941278,21.6454545 101.907723,22 C101.203059,21.0909091 100.531951,20.1818182 101.437947,19 C101.430629,19.6909756 101.627589,20.3663489 102,20.9272727 Z" fill="#F9D094"></path>
                <path d="M97.9787986,18.47 L96.0424028,18.47 C96.0356813,18.312172 96.0215155,18.1551557 96,18 L98,18 C97.9861963,18.1559124 97.979116,18.3128696 97.9787986,18.47 Z" fill="#DEA169"></path>
                <path d="M106,21.5178512 C105.016496,21.7978432 103.983504,21.7978432 103,21.5178512 C103.899683,20.8273829 105.100317,20.8273829 106,21.5178512 L106,21.5178512 Z" fill="#080203"></path>
                <path d="M98.6317312,26 L98.5017312,25.9152542 L98.3417312,25.9152542 C98.0417312,25.8644068 97.9317312,25.7288136 98.0417312,25.4745763 L98.5017312,25 L98.6117312,25.4576271 C98.7517312,25.5508475 98.8017312,25.6440678 98.7517312,25.7372881 C98.7017312,25.8305085 98.6517312,25.8728814 98.6017312,25.8728814 L98.6317312,26 Z" fill="#FDE5A3"></path>
                <path d="M99,25.49 C99,25.33 99,25.17 99,25 L99.58,25.55 L99,25.49 Z" fill="#FDECA7"></path>
                <path d="M98.1691517,14.0238342 C100.120877,13.9038138 102.073683,14.2380592 103.897605,15.0043255 C103.997442,15.1769616 104.025854,15.3874527 103.975862,15.5840942 C103.883295,15.8871137 103.75154,16.1742038 103.584574,16.4366952 C103.369813,16.830672 102.961013,17.0483386 102.543749,16.9908859 C101.697688,16.6424689 100.802971,16.4550119 99.8986436,16.4366952 C98.9544259,16.5030123 98.1268738,15.7547947 98.0126366,14.7314931 C97.9724294,14.482165 98.0291204,14.2258452 98.1691517,14.0238342 Z" fill="#A54C24"></path>
                <path d="M95.9548872,13.2281442 C96.5946127,12.8246683 97.3567192,12.9645526 97.887218,13.5828225 L98,14.56804 C97.8782346,14.7308178 97.7149338,14.8290379 97.5413534,14.8439009 C97.1959873,14.8094878 96.8491255,14.8094878 96.5037594,14.8439009 C96,14.8439009 95.4360902,15.3463618 95,14.5483356 L95.9548872,13.2281442 Z" fill="#E1E3E4"></path>
                <path d="M98.6074361,14.0424306 C98.6074361,14.2333685 98.6585742,14.434914 98.6790294,14.6258519 C98.9756302,15.3471728 99.2210929,16.1533549 98.6790294,16.7473838 C98.1369659,17.3414128 97.6562681,16.7473838 97.2778465,16.3973311 C96.8515348,15.6379854 96.9206762,14.6846566 97.4517159,14 L98.6074361,14.0424306 Z" fill="#77381B"></path>
                <path d="M96.8101431,14.0177515 L96.9068746,16.0680473 C97.0277891,16.3786982 97.0640634,16.6804734 96.8101431,16.9023669 C96.7376865,16.9131596 96.6676201,16.9464394 96.6045885,17 C96.0000162,16.4497041 96.1330221,15.5 96.0000162,14.683432 C95.9988877,14.434746 96.0565815,14.1931928 96.1632508,14 L96.550177,14 C96.6360045,14.0216009 96.7233203,14.0275631 96.8101431,14.0177515 Z" fill="#EDEFF0"></path>
                <path d="M104.045446,14.5434839 C103.984851,14.4057781 103.984851,14.2444616 104.045446,14.1067558 L105.417977,14 L106,14.5725991 L105.878383,14.6793548 L105.77414,14.5531889 C105.668235,14.7297105 105.501503,14.8492073 105.313734,14.8831613 C105.137662,14.9646864 104.948321,15.0043489 104.757772,14.9996221 C104.46694,14.9904405 104.199533,14.8192064 104.045446,14.5434839 L104.045446,14.5434839 Z" fill="#E8EAEC"></path>
                <path d="M96.6244458,14.9185078 C97.2205636,15.4477312 96.7377082,16.2751085 97,16.8863242 C96.4873388,17.7062477 96.0342893,18.3770942 95.0089668,17.7584247 C93.9836444,17.1397551 93.7332749,16.4092778 94.2876644,15.2017541 L94.609568,14.2998383 C95.080501,14.560723 95.4143269,13.964415 95.8494928,14.0016843 C96.1415905,14.262569 95.9865999,15.1346695 96.6244458,14.9185078 Z" fill="#231A15"></path>
                <path d="M98,16.1532417 C98.0353276,15.9096267 98.0777207,15.6581532 98.1130482,15.367387 C99.3989717,15.6031434 98.6076342,14.4557957 98.8195996,14 C99.1190234,14.9502977 100.002072,15.5100962 100.889795,15.3123772 C101.709395,15.1630648 102.557256,15.194499 103.058908,16.1689587 C103.711442,16.4262456 104.100292,17.171467 103.977425,17.9292731 L103.214349,18 L103.101301,18 L102.981187,18 C102.147457,16.6640472 101.207743,16.1453831 100.027802,17.5284872 C100.317489,15.2495088 98.5935032,16.7504912 98,16.1532417 Z" fill="#AD5326"></path>
                <path d="M92.0899032,14 C92.3563078,14.6143548 92.8518671,14.8396176 93.2758008,14.5390648 C94.1793418,14.1146946 93.9816922,15.1010685 93.9816922,15.903931 C92.019314,16.1677286 91.8357823,15.9956867 92.0899032,14 Z" fill="#A44F27"></path>
                <path d="M98.58,25 L98.88,25.52 L98.16,25.71 C98.16,25.49 98.05,25.27 98,25.05 L98.58,25 Z" fill="#6B4B25"></path>
                <path d="M96,25.4472642 C94.9583333,25.4472642 93.9166667,25.8372642 93,25.0372642 C94.0208333,25.0672642 95.0729167,24.7772642 96,25.4472642 Z" fill="#BB2025"></path>
                <path d="M96.4267929,28 L95.7898961,28 C95.6278426,27.9851935 95.4636621,27.9851935 95.3016086,28 C95.1311911,27.9069125 95.0234426,27.7698354 95.0033936,27.6206119 C94.9833445,27.4713885 95.05274,27.3230076 95.1954591,27.2099386 L95.2591488,26.4125618 C95.8323559,26.3174618 96.3206434,25.6005542 97,26.3101464 C96.6497068,26.8441694 97.1698391,27.5171847 96.4267929,28 Z" fill="#F19C1D"></path>
                <path d="M97,28 C97.0869565,27.3189655 96.8173913,26.5517241 97.4695652,26 L97.9304348,26.137931 C97.5130435,26.7758621 97.9913043,27.3793103 98,27.9913793 L97,28 Z" fill="#D7C2B9"></path>
                <path d="M95.9275362,28 L96,28.9727503 C95.3405797,28.7655905 94.5507246,29.3960769 94,28.513396 L95.9275362,28 Z" fill="#2F170E"></path>
                <path d="M96.2276204,30.0788151 L96.662278,30.5515923 C96.777734,30.6447151 96.8184831,30.7378379 96.777734,30.8309606 C96.7369848,30.9240834 96.6894441,30.9670632 96.648695,30.9670632 L97.4093458,32.2636188 C97.8100458,33.0730706 99.4468035,32.9799479 98.8831069,34.4842389 C98.7700157,34.4913687 98.6566218,34.4913687 98.5435306,34.4842389 C97.579134,35.3581604 96.6283204,34.9570161 95.6775068,34.4842389 L95.1206017,34.0329516 L94,32.0916998 C94.4689691,31.2787137 95.1225098,30.6017076 95.9016272,30.1217949 C95.9281944,30.0561866 95.9858034,30.0104009 96.0529203,30.001552 C96.1200372,29.9927032 96.186559,30.0221232 96.2276204,30.0788151 L96.2276204,30.0788151 Z" fill="#AF5626"></path>
                <path d="M99.6224089,34 C99.5256296,32.7786045 97.8803817,32.7870279 98.0069393,31.3887407 L98.535503,31.1444616 C98.9449539,31.1444616 99.3469601,30.849642 99.7564109,31.1023445 C100.128639,31.6330198 100.843317,31.8014881 100.984763,32.5680191 C101.12621,33.33455 100.240307,33.3177032 100.083972,33.9073424 L99.6224089,34 Z" fill="#994523"></path>
                <path d="M95,35 C95.9808,35.2825716 97.0192,35.2825716 98,35 C96.9834123,36.5947032 95.9881517,36.0438057 95,35 Z" fill="#472E1E"></path>
                <path d="M102,39.8648882 C101.682158,39.6835636 101.268363,40.3694435 101.022485,39.6993309 C100.985424,39.5644953 100.994492,39.4151839 101.047358,39.2897867 C101.100224,39.1643895 101.19173,39.0751401 101.298348,39.0449857 C101.83808,38.8400101 101.898051,39.3761002 102,39.8333535 L102,39.8648882 Z" fill="#FDF6EA"></path>
                <path d="M100.040661,35 C99.7889023,34.1059327 100.774045,33.9603869 101.135264,33.3574113 C101.34175,33.1079408 101.667294,32.9748717 102,33.0039429 L102,33.7732566 L101.135264,34.5841548 L100.040661,35 Z" fill="#3A291D"></path>
                <path d="M102.117647,33.6210615 L101.383901,34 C100.762594,33.6081297 100.273575,32.9701237 100,32.1944693 C100.092879,31.9715643 100.22291,31.9381285 100.390093,32.1053073 C101.244582,32.4173743 102.247678,31.6817877 103,32.7740224 L102.117647,33.6210615 Z" fill="#FAC084"></path>
                <path d="M96.48,30.51 C96.3218875,30.5414549 96.1612008,30.5581931 96,30.56 C96.14,30.37 96.29,30.18 96.44,30 C96.4880665,30.1654764 96.5016804,30.3390533 96.48,30.51 Z" fill="#78614B"></path>
                <path d="M104.057307,17.9735579 L103,16.1392731 L103.567335,15.1090583 C103.851341,14.9836366 104.173094,14.9657218 104.469914,15.0588039 C104.721762,15.2324717 104.915982,15.4741204 105.028653,15.7539895 C105.29329,16.0537301 105.580629,16.3337066 105.888252,16.5915625 L106,16.5915625 C105.587393,17.4207597 105.148997,18.1494482 104.057307,17.9735579 Z" fill="#35251C"></path>
                <path d="M105,15.995286 C104.616352,15.995286 104.194969,16.0888262 104,15.4425486 C104.140287,15.2588832 104.30447,15.1118522 104.484277,15.0088623 C104.611302,14.9874772 104.740257,15.004913 104.861635,15.0598842 L105,15.995286 Z" fill="#302E2D"></path>
                <path d="M105.226088,15 L105.847017,15 C105.911717,15.1818853 105.881993,15.3801857 105.766027,15.5403226 C105.838018,15.6612903 105.919009,15.7903226 106,15.9032258 L105.865015,16 L105.730031,15.9032258 C105.289081,16.1290323 105.145097,15.8629032 105.010112,15.5645161 C104.969875,15.3556437 105.051304,15.1428064 105.226088,15 Z" fill="#B7B6B6"></path>
                <path d="M105,15.67 L105.09,15 C105.180116,15.0346593 105.279884,15.0346593 105.37,15 C105.63,15.42 105.39,15.56 105,15.67 Z" fill="#FDFDFD"></path>
                <path d="M97,30.96 L97,30.38 L100,30 C99.3322884,31.49 97.9592476,30.49 97,30.96 Z" fill="#655740"></path>
                <path d="M99.8761905,31.7984928 C99.7385434,31.7910668 99.6008543,31.8124709 99.4761905,31.8606737 C98.9809524,31.9461725 98.4761905,32.156033 98,31.7984928 C98.6190476,31.4875883 98.952381,30.4538309 100,31.3709992 L99.8761905,31.7984928 Z" fill="#382B1F"></path>
                <path d="M104,14.06 L104,14.68 C103.88125,14.87 103.8,14.84 103.75,14.59 L103,14.48 L103.375,14 L104,14.06 Z" fill="#AFB5B7"></path>
                <path d="M97,15.1219173 C96.9119834,15.842297 96.3728815,16.2158272 95.6027359,15.8689777 C94.4365155,15.3442567 95.2616715,14.6505577 95.6027359,14.0280073 C96.1223999,13.9277417 96.6639697,14.102142 96.9559917,14.4637926 C96.9449896,14.686132 96.9779958,14.9084714 97,15.1219173 Z" fill="#E0E0E0"></path>
                <path d="M104.084112,15 C104.206304,15.036863 104.331306,15.0642393 104.457944,15.0818717 L105,15.5094236 C104.88785,16.1553 104.429907,16.0097504 104,15.9187819 L104.084112,15 Z" fill="#F2F2F2"></path>
            </g>
        </g>
    </g>
</svg>