toolIcon.svg<?xml version="1.0" encoding="UTF-8"?>
<svg width="289px" height="76px" viewBox="0 0 289 76" version="1.1" xmlns="http://www.w3.org/2000/svg" xmlns:xlink="http://www.w3.org/1999/xlink">
    <!-- Generator: Sketch 47 (45396) - http://www.bohemiancoding.com/sketch -->
    <title>eosmonitor</title>
    <desc>Created with Sketch.</desc>
    <defs></defs>
    <g id="Page-1" stroke="none" stroke-width="1" fill="none" fill-rule="evenodd">
        <g id="eosmonitor" fill="#FFFFFF">
            <g transform="translate(17.000000, 11.000000)" id="Group-2" fill-rule="nonzero">
                <g>
                    <path d="M31.6136418,17.3058062 L37.7307087,42.9900715 C37.7807113,43.0255778 37.8144273,43.0795724 37.8243528,43.1400382 C37.8342782,43.2005041 37.8195896,43.2624235 37.783556,43.3120154 C37.6824672,43.4074621 37.5747421,43.4956452 37.4611879,43.5759039 L19.3768654,54.4982479 L18.5180979,54.4982479 L0.481338046,43.5838206 C0.373001223,43.5838206 0.301657461,43.5125707 0.264664399,43.367432 L0.264664399,42.9900715 L6.54555779,17.3058062 L6.54555779,17.0894177 L18.5180979,0.337777248 C18.6243768,0.137465571 18.8327892,0.0122000971 19.0597821,0.0122000971 C19.2867749,0.0122000971 19.4951873,0.137465571 19.6014662,0.337777248 L31.6215688,17.0999732 L31.6215688,17.3163617 L31.6136418,17.3058062 Z M28.7440371,27.3098183 L33.7777359,35.4191112 L30.5302735,22.1164931 L28.7440371,27.3098183 L28.7440371,27.3098183 Z M14.8187918,44.0693754 L5.83476253,44.0693754 L16.9855283,50.7747815 L14.8187918,44.0693754 Z M10.4879612,30.3471747 L3.7208733,41.6917402 L14.1687708,41.6917402 L10.4879612,30.3471747 Z M20.2329906,13.3685902 L27.0000785,24.7157946 L29.2196622,18.0103884 L20.235633,5.5205469 L20.235633,13.3580346 L20.2329906,13.3685902 Z M26.1333839,27.7505121 L18.9435182,16.1710858 L11.9597566,27.7399565 L16.5627504,41.6917402 L21.5964491,41.6917402 L26.1333839,27.7505121 Z M17.9050701,13.3685902 L17.9050701,5.51790802 L8.92632554,18.0183051 L11.1459092,24.7237112 L17.9050701,13.3685902 Z M32.258378,44.0693754 L23.327196,44.0693754 L21.1604595,50.7747815 L32.258378,44.0693754 Z M24.1938905,41.6943791 L34.6365034,41.6943791 L27.9222627,30.3471747 L24.1938905,41.6943791 Z M9.57370412,27.3124572 L7.89580454,21.9053823 L4.59285261,35.627583 L9.57370412,27.3124572 Z M20.9358588,44.0720143 L17.4822922,44.0720143 L19.1601918,49.5345057 L20.9358588,44.0720143 Z" id="Shape"></path>
                </g>
            </g>
            <text id="EOS-Monitor" font-family="Lato-Bold, Lato" font-size="36" font-weight="bold" letter-spacing="-1.28571439">
                <tspan x="77" y="51">EOS Monitor</tspan>
            </text>
        </g>
    </g>
</svg>