<?xml version="1.0" encoding="UTF-8"?>
<svg width="233px" height="76px" viewBox="0 0 233 76" version="1.1" xmlns="http://www.w3.org/2000/svg" xmlns:xlink="http://www.w3.org/1999/xlink">
    <!-- Generator: Sketch 47 (45396) - http://www.bohemiancoding.com/sketch -->
    <title>eospark</title>
    <desc>Created with Sketch.</desc>
    <defs></defs>
    <g id="Page-1" stroke="none" stroke-width="1" fill="none" fill-rule="evenodd">
        <g id="eospark">
            <g id="Group" transform="translate(77.000000, 24.000000)">
                <path d="M64.0150376,4.03843436 L64.0150376,0 L51.1578947,0 C47.8441862,6.08718376e-16 45.1578947,2.6862915 45.1578947,6 L45.1578947,6 L45.1578947,10.1537375 C45.1578947,13.0869171 47.2626512,15.5285045 50.0442472,16.0505827 L50.1203008,16.1537375 L59.0300752,16.1537375 C60.6869294,16.1537375 62.0300752,17.4968832 62.0300752,19.1537375 L62.0300752,21.2306062 C62.0300752,22.8874604 60.6869294,24.2306062 59.0300752,24.2306062 L46.1503759,24.2306062 L46.1503759,28.2690406 L60,28.2690406 C63.3137085,28.2690406 66,25.5827491 66,22.2690406 L66,18.1153031 C66,15.1821235 63.8952435,12.7405361 61.1136476,12.2184578 L61.037594,12.1153031 L51.1353383,12.1153031 C49.4784841,12.1153031 48.1353383,10.7721573 48.1353383,9.11530309 L48.1353383,7.03843436 C48.1353383,5.38158012 49.4784841,4.03843436 51.1353383,4.03843436 L64.0150376,4.03843436 Z M19.3091644,29 L9,29 C4.02943725,29 6.08718376e-16,24.9705627 0,20 L0,9 L-1.77635684e-15,9 C-2.38507522e-15,4.02943725 4.02943725,-8.63279275e-16 9,-1.77635684e-15 L19.1170334,0 L19.1170334,4.43175074 L7.1329471,4.43175074 L7.1329471,4.43175074 C5.62568691,4.43175074 4.35243457,5.55010696 4.15801017,7.04477496 L3.47368421,12.305638 L17.676051,12.305638 L17.676051,16.694362 L3.47368421,16.694362 L4.15801017,21.955225 C4.35243457,23.449893 5.62568691,24.5682493 7.1329471,24.5682493 L19.3091644,24.5682493 L19.3091644,29 Z M29.3458647,0 L33.1804511,0 L33.1804511,-1.77635684e-15 C38.1510139,-2.6894344e-15 42.1804511,4.02943725 42.1804511,9 L42.1804511,19.2690406 C42.1804511,24.2396033 38.1510139,28.2690406 33.1804511,28.2690406 L29.3458647,28.2690406 C24.3753019,28.2690406 20.3458647,24.2396033 20.3458647,19.2690406 L20.3458647,9 C20.3458647,4.02943725 24.3753019,-8.63279275e-16 29.3458647,-1.77635684e-15 L29.3458647,0 Z M29.3157895,4.03843436 C26.5543657,4.03843436 24.3157895,6.27701062 24.3157895,9.03843436 L24.3157895,19.2306062 C24.3157895,21.9920299 26.5543657,24.2306062 29.3157895,24.2306062 L33.2105263,24.2306062 C35.9719501,24.2306062 38.2105263,21.9920299 38.2105263,19.2306062 L38.2105263,9.03843436 C38.2105263,6.27701062 35.9719501,4.03843436 33.2105263,4.03843436 L29.3157895,4.03843436 Z" id="Combined-Shape" fill="#1E5FC0"></path>
                <path d="M103.321336,24.4724283 L103.321336,20.4136459 L97.4470048,20.4136459 L97.4470048,20.4136459 C96.326203,20.4136459 95.4176136,21.3222353 95.4176136,22.4430371 L95.4176136,22.4430371 L95.4176136,22.4430371 C95.4176136,23.5638389 96.326203,24.4724283 97.4470048,24.4724283 L103.321336,24.4724283 Z M97.94261,28.8944717 C95.9096954,28.8944717 94.2932701,28.2978366 93.0932858,27.1045486 C91.8933014,25.9112607 91.2933183,24.4054675 91.2933183,22.5871239 C91.2933183,20.5414873 92.0556498,18.9362549 93.5803358,17.7713786 C95.1050218,16.6065022 97.307313,16.0240728 100.187275,16.0240728 L103.321336,16.0240728 L103.321336,14.7029391 C103.321336,13.5096511 103.010757,12.600493 102.389589,11.9754374 C101.76842,11.3503818 100.709626,11.0378586 99.2131753,11.0378586 C97.6884893,11.0378586 95.8108762,11.1190343 93.5803358,11.2813856 C93.5803358,8.57553067 93.5803358,7.33692559 93.5803358,7.56557033 C93.5803358,7.90853744 97.1661383,7.22260322 100.187275,7.22260322 C106.00367,7.22260322 107.518236,9.46099442 107.518236,14.9160252 L107.518236,24.7388646 L107.518236,24.7388646 C107.518236,26.9397957 105.734028,28.7240028 103.533097,28.7240028 L103.533097,28.7240028 C101.631964,28.8376487 99.7684686,28.8944717 97.94261,28.8944717 Z M128.694324,13.9665492 L133.901287,7 L139.830591,7 L131.953086,17.313366 L140,28.6069279 L134.028343,28.6069279 L128.694324,20.8802324 L128.694324,28.7240028 L124.308809,28.7240028 L124.308809,0 L128.694324,0 L128.694324,13.9665492 Z M72.0114374,0 L82.1143739,0 C86.5326519,-8.11624501e-16 90.1143739,3.581722 90.1143739,8 L90.1143739,10 C90.1143739,14.418278 86.5326519,18 82.1143739,18 L74.0228748,18 L74.0228748,28 L70,28 L70,0 L72.0114374,0 Z M74.0228748,4 L74.0228748,14 L83.0914991,14 C84.7483534,14 86.0914991,12.6568542 86.0914991,11 L86.0914991,7 C86.0914991,5.34314575 84.7483534,4 83.0914991,4 L74.0228748,4 Z M115.717155,29 L111.509018,28.9573828 L111.538154,14.2339651 L111.538155,14.2339651 C111.545726,10.4082632 114.623289,7.29727934 118.448686,7.24838967 C119.793802,7.2311987 120.707649,7.22260322 121.190228,7.22260322 C121.788848,7.22260322 122.273438,7.26522001 122.644013,7.35045486 L122.644013,12.2940518 L122.644013,12.2940518 C120.132457,11.2056763 117.214137,12.3593917 116.125761,14.8709472 C115.856205,15.4929795 115.717127,16.1636988 115.717127,16.8416254 C115.717155,17.217474 115.717155,17.5483621 115.717155,17.8342897 L115.717155,29 Z" id="Combined-Shape" fill="#FB7965"></path>
            </g>
            <g id="tool/eosparkIcon" transform="translate(4.000000, 7.000000)">
                <g id="Group-2" transform="translate(13.440000, 0.000000)">
                    <g id="Group-10">
                        <g id="Group-3">
                            <path d="M4,4.26666667 L19.1340206,4.26666667 C31.8900344,6.92148148 38.2680412,13.2266667 38.2680412,23.1822222 C38.2680412,34.4651852 31.2186652,40.7703704 17.1199132,42.0977778 L17.1199132,46.8800868 L17.1199132,46.8800868 C17.1199132,56.3351538 9.45506697,64 1.04829234e-15,64 L0,64 L0,8.26666667 L0,8.26666667 C-2.705415e-16,6.05752767 1.790861,4.26666667 4,4.26666667 Z" id="Rectangle-4" fill="#FB7965"></path>
                            <path d="M6.93998743,0.985730402 L6.01354934,13.0302646 L9.02032401,11.0256085 L7.15451654,0.76295252 C7.44303736,0.472192371 7.7308871,0.217874864 8.01806578,0 C9.02032401,-1.13951505e-13 8.01806578,6.01396825 12.0270987,9.02095238 C12.9364732,9.70303082 22.4486456,9.86605464 24.0541973,15.0349206 C24.3596575,16.0183102 23.7529393,17.102494 25.0564556,19.0442328 C25.5334975,19.7548422 26.5357558,20.7571703 28.0632302,22.0512169 C28.0632302,25.3923104 27.7291442,27.7310758 27.060972,29.0675132 C26.0587138,31.0721693 19.9971231,32.9194715 20.0451645,35.0814815 C20.0517451,35.3776327 18.7042325,34.9182064 18.040648,38.0884656 C17.2157434,42.0294278 15.5179819,46.175177 15.0338733,48.111746 C14.0316151,52.1210582 5.88899573,55.9161671 4.00903289,57.1326984 C2.75572433,57.9437193 1.41938004,59.9483754 0,63.1466667 L0,15.0349206 C2.35483985,8.097605 4.66816899,3.41454158 6.93998743,0.985730402 Z M22.0505891,18.9833742 C21.7478786,19.070175 21.5728493,19.3859363 21.6596501,19.6886467 L22.1741537,21.482934 C22.2609545,21.7856444 22.5767158,21.9606737 22.8794262,21.8738729 C23.1821366,21.7870721 23.357166,21.4713108 23.2703651,21.1686004 L22.7558615,19.3743131 C22.6690607,19.0716027 22.3532995,18.8965734 22.0505891,18.9833742 Z" id="Combined-Shape" fill="#F8E71C"></path>
                        </g>
                    </g>
                </g>
            </g>
        </g>
    </g>
</svg>