<?xml version="1.0" encoding="UTF-8"?>
<svg width="300px" height="76px" viewBox="0 0 300 76" version="1.1" xmlns="http://www.w3.org/2000/svg" xmlns:xlink="http://www.w3.org/1999/xlink">
    <!-- Generator: Sketch 47 (45396) - http://www.bohemiancoding.com/sketch -->
    <title>eostracker</title>
    <desc>Created with Sketch.</desc>
    <defs></defs>
    <g id="Page-1" stroke="none" stroke-width="1" fill="none" fill-rule="evenodd">
        <g id="eostracker">
            <g id="tool/eosmonitorIcon" transform="translate(4.000000, 7.000000)">
                <g id="eosmonitor" stroke-width="1" fill-rule="evenodd" transform="translate(12.800000, 4.480000)">
                    <g id="Group-2"></g>
                </g>
                <path d="M53.0724714,48.6498439 C53.1287395,48.6894118 53.1666803,48.7495831 53.1778495,48.8169657 C53.1890187,48.8843484 53.1724895,48.9533509 53.1319407,49.0086159 C53.018185,49.1149809 52.8969615,49.2132515 52.7691783,49.3026912 L32.418806,61.4744708 L31.4524309,61.4744708 L11.1555809,49.3115135 C11.0336689,49.3115135 10.9533855,49.2321131 10.911757,49.0703717 L10.911757,48.6498439 L17.9796756,20.0274882 L17.9796756,19.7863464 L31.4524309,2.398442 C31.572027,2.17521614 31.8065544,2.03562122 32.0619906,2.03562122 C32.3174267,2.03562122 32.5519542,2.17521614 32.6715502,2.398442 L46.1978278,19.7981094 L46.1978278,20.0392512 L53.0724714,48.6498439 Z" id="Path" fill="#000000" fill-rule="evenodd"></path>
                <path d="M44.7464169,21.7983922 L50.9278741,47.501337 C50.978403,47.5368691 51.0124739,47.590903 51.0225038,47.6514128 C51.0325338,47.7119226 51.0176905,47.773887 50.9812776,47.8235151 C50.8791248,47.9190312 50.7702657,48.0072784 50.6555162,48.0875955 L32.3808325,59.017883 L31.5130253,59.017883 L13.2864048,48.0955179 C13.1769276,48.0955179 13.1048328,48.0242162 13.0674503,47.878972 L13.0674503,47.501337 L19.4144584,21.7983922 L19.4144584,21.5818463 L31.5130253,4.8180229 C31.6204229,4.61756555 31.8310291,4.49220897 32.0604113,4.49220897 C32.2897936,4.49220897 32.5003998,4.61756555 32.6077974,4.8180229 L44.7544275,21.5924095 L44.7544275,21.8089555 L44.7464169,21.7983922 Z M41.8466059,31.80968 L46.933291,39.9248705 L43.6516448,26.6125778 L41.8466059,31.80968 L41.8466059,31.80968 Z M27.7747791,48.5814258 L18.6961811,48.5814258 L29.9643233,55.2917086 L27.7747791,48.5814258 Z M23.3983608,34.8492453 L16.5600404,46.2020615 L27.1179158,46.2020615 L23.3983608,34.8492453 Z M33.2459694,17.8583128 L40.0842899,29.2137697 L42.3272376,22.5034869 L33.2486396,10.0045618 L33.2486396,17.8477496 L33.2459694,17.8583128 Z M39.2084722,32.2506943 L31.9429236,20.6628466 L24.8856488,32.240131 L29.5370951,46.2020615 L34.6237802,46.2020615 L39.2084722,32.2506943 Z M30.8935445,17.8583128 L30.8935445,10.001921 L21.8202869,22.5114093 L24.0632346,29.2216921 L30.8935445,17.8583128 Z M45.3979398,48.5814258 L36.3727454,48.5814258 L34.1832012,55.2917086 L45.3979398,48.5814258 Z M37.2485631,46.2047023 L47.8010981,46.2047023 L41.0161812,34.8492453 L37.2485631,46.2047023 Z M22.47448,31.8123208 L20.7789183,26.4013135 L17.4411984,40.133494 L22.47448,31.8123208 Z M33.9562362,48.5840666 L30.4663163,48.5840666 L32.161878,54.0505308 L33.9562362,48.5840666 Z" id="Shape" fill="#FFFFFF" fill-rule="nonzero"></path>
            </g>
            <path d="M80,25.5283019 L80,52.4716981 L97.4587681,52.4716981 L97.4587681,48.6981132 L83.8396163,48.6981132 L83.8396163,40.5471698 L96.1132615,40.5471698 L96.1132615,36.7735849 L83.8396163,36.7735849 L83.8396163,29.3018868 L96.9008751,29.3018868 L96.9008751,25.5283019 L80,25.5283019 Z M111.471727,25 C115.048805,25 117.871087,26.3207547 119.938573,29 C121.907607,31.5283019 122.892124,34.8867925 122.892124,39.0377358 C122.892124,43.1886792 121.907607,46.509434 119.938573,49.0377358 C117.871087,51.6792453 115.048805,53 111.471727,53 C107.861831,53 105.039549,51.6415094 103.004881,49 C101.035847,46.4339623 100.084147,43.1132075 100.084147,39.0377358 C100.084147,34.9245283 101.035847,31.6037736 103.004881,29.0377358 C105.039549,26.3207547 107.861831,25 111.471727,25 Z M111.471727,28.8867925 C109.043251,28.8867925 107.172669,29.8301887 105.827163,31.7169811 C104.54729,33.5283019 103.923763,35.9433962 103.923763,39.0377358 C103.923763,42.0943396 104.54729,44.509434 105.827163,46.3207547 C107.139852,48.1698113 109.043251,49.1132075 111.471727,49.1132075 C113.900202,49.1132075 115.770784,48.2075472 117.083474,46.4339623 C118.363346,44.6603774 119.01969,42.2075472 119.01969,39.0377358 C119.01969,35.8679245 118.363346,33.3773585 117.083474,31.5660377 C115.770784,29.754717 113.900202,28.8867925 111.471727,28.8867925 Z M134.771962,25 C132.245035,25 130.17755,25.6415094 128.536688,26.9622642 C126.764557,28.3207547 125.911309,30.2075472 125.911309,32.5849057 C125.911309,34.9622642 126.797375,36.7735849 128.602322,38.0188679 C129.291484,38.4716981 131.096432,39.2264151 133.984349,40.2830189 C136.57691,41.1886792 138.086503,41.7924528 138.545944,42.0566038 C139.989902,42.8867925 140.744699,44.0188679 140.744699,45.4528302 C140.744699,46.5849057 140.219623,47.4528302 139.235106,48.1320755 C138.250589,48.7735849 136.872265,49.1132075 135.165769,49.1132075 C133.229552,49.1132075 131.818411,48.6981132 130.899529,47.9433962 C129.882195,47.0754717 129.258667,45.6037736 128.996129,43.5660377 L125.18933,43.5660377 C125.353416,47 126.436385,49.490566 128.405419,51.0754717 C130.013463,52.3584906 132.277853,53 135.165769,53 C138.152137,53 140.482161,52.2830189 142.123023,50.9245283 C143.763884,49.5283019 144.584315,47.6037736 144.584315,45.1886792 C144.584315,42.6981132 143.566981,40.7735849 141.532312,39.3773585 C140.61343,38.7735849 138.578761,37.8679245 135.39549,36.7358491 C133.229552,35.9433962 131.884046,35.3773585 131.391787,35.0754717 C130.276001,34.3962264 129.750926,33.4528302 129.750926,32.3207547 C129.750926,31.0377358 130.210367,30.0943396 131.194884,29.5283019 C131.982497,29.0377358 133.098283,28.8113208 134.575059,28.8113208 C136.281555,28.8113208 137.594244,29.1509434 138.447492,29.9056604 C139.30074,30.6226415 139.924268,31.8301887 140.25244,33.490566 L144.059239,33.490566 C143.829519,30.5471698 142.877819,28.3584906 141.236957,26.9622642 C139.694547,25.6415094 137.52861,25 134.771962,25 Z M156.989229,25.5283019 L156.989229,29.3018868 L164.668462,29.3018868 L164.668462,52.4716981 L168.508078,52.4716981 L168.508078,29.3018868 L176.187311,29.3018868 L176.187311,25.5283019 L156.989229,25.5283019 Z M186.656008,32.4339623 C185.605857,32.4339623 184.719791,32.7735849 183.964995,33.490566 C183.341468,34.0188679 182.816392,34.7735849 182.356951,35.754717 L182.356951,32.9622642 L178.648603,32.9622642 L178.648603,52.4716981 L182.356951,52.4716981 L182.356951,42.1320755 C182.356951,40.4716981 182.783575,39.1509434 183.702457,38.1320755 C184.490071,37.2264151 185.376136,36.8113208 186.360653,36.8113208 C187.148267,36.8113208 187.93588,36.9245283 188.789128,37.2264151 L188.789128,32.9245283 C188.198418,32.5849057 187.476439,32.4339623 186.656008,32.4339623 Z M198.634298,32.4339623 C201.128408,32.4339623 202.99899,33.1509434 204.180411,34.5849057 C205.230562,35.8301887 205.755638,37.6415094 205.755638,40.0188679 L205.755638,52.4716981 L202.277011,52.4716981 L202.277011,49.9056604 C201.620666,50.8867925 200.800236,51.6037736 199.848536,52.1320755 C198.765567,52.6981132 197.485695,53 196.00892,53 C194.236789,53 192.858465,52.4716981 191.841131,51.4528302 C190.790979,50.3962264 190.265904,49.0754717 190.265904,47.4528302 C190.265904,45.2641509 190.987883,43.5660377 192.497476,42.3962264 C193.875799,41.2641509 195.812016,40.6603774 198.306126,40.5849057 L202.014473,40.4716981 L202.014473,39.7169811 C202.014473,37.1509434 200.800236,35.9056604 198.37176,35.9056604 C197.321609,35.9056604 196.501178,36.0943396 195.877651,36.5471698 C195.155671,37.0377358 194.663413,37.7924528 194.46651,38.8113208 L190.758162,38.4716981 C191.119152,36.3207547 192.038034,34.7358491 193.51481,33.754717 C194.761865,32.8490566 196.468361,32.4339623 198.634298,32.4339623 Z M202.014473,43.5660377 L198.568664,43.6792453 C195.582296,43.754717 194.10552,44.9622642 194.10552,47.3018868 C194.10552,47.9811321 194.335241,48.5471698 194.860316,49 C195.385392,49.4528302 196.041737,49.7169811 196.862168,49.7169811 C198.306126,49.7169811 199.520364,49.2264151 200.504881,48.2830189 C201.489398,47.3018868 202.014473,46.0566038 202.014473,44.5471698 L202.014473,43.5660377 Z M217.307304,32.4339623 C214.649108,32.4339623 212.581622,33.4528302 211.104847,35.490566 C209.726523,37.3396226 209.037361,39.754717 209.037361,42.6981132 C209.037361,45.7169811 209.726523,48.1698113 211.137664,50.0566038 C212.581622,52.0188679 214.616291,53 217.241669,53 C219.440424,53 221.212555,52.3584906 222.525244,51.1132075 C223.870751,49.8301887 224.756816,47.8679245 225.150623,45.2264151 L221.442275,45.2264151 C221.14692,48.0566038 219.768596,49.490566 217.274487,49.490566 C215.830528,49.490566 214.74756,48.8867925 214.025581,47.7169811 C213.237967,46.509434 212.876977,44.8113208 212.876977,42.6603774 C212.876977,40.5471698 213.270784,38.8867925 214.058398,37.7169811 C214.846011,36.509434 215.92898,35.9433962 217.307304,35.9433962 C218.42309,35.9433962 219.341972,36.245283 220.031134,36.8490566 C220.687479,37.4528302 221.14692,38.3584906 221.376641,39.6037736 L225.084988,39.6037736 C224.756816,37.1509434 223.903568,35.3396226 222.558061,34.1320755 C221.245372,33 219.506059,32.4339623 217.307304,32.4339623 Z M228.104174,25 L228.104174,52.4716981 L231.845338,52.4716981 L231.845338,45.6415094 L233.551834,43.7924528 L239.491754,52.4716981 L244.28307,52.4716981 L236.111579,41.0377358 L243.626725,32.9622642 L238.802592,32.9622642 L231.845338,40.6981132 L231.845338,25 L228.104174,25 Z M253.471895,32.4339623 C256.26136,32.4339623 258.39448,33.490566 259.871255,35.6792453 C261.216762,37.6415094 261.905924,40.3962264 261.905924,43.9056604 L249.205655,43.9056604 C249.336924,45.7169811 249.763548,47.1132075 250.485527,48.0566038 C251.207506,49 252.257657,49.490566 253.603164,49.490566 C254.751767,49.490566 255.67065,49.1886792 256.392629,48.5849057 C256.950522,48.0943396 257.44278,47.3018868 257.902221,46.2075472 L261.643386,46.2075472 C261.249579,48.0188679 260.461966,49.5660377 259.280545,50.7735849 C257.770953,52.245283 255.90037,53 253.635981,53 C251.109054,53 249.107203,52.0943396 247.630427,50.3207547 C246.0552,48.4716981 245.267587,45.9433962 245.267587,42.6981132 C245.267587,39.7924528 245.989566,37.3773585 247.499159,35.4150943 C248.943117,33.4150943 250.944968,32.4339623 253.471895,32.4339623 Z M253.570347,35.9433962 C252.323292,35.9433962 251.371592,36.3207547 250.649613,37.1509434 C249.960451,37.9433962 249.50101,39.1132075 249.271289,40.6603774 L258.000673,40.6603774 C257.672501,37.490566 256.195725,35.9433962 253.570347,35.9433962 Z M272.86688,32.4339623 C271.816728,32.4339623 270.930663,32.7735849 270.175867,33.490566 C269.552339,34.0188679 269.027264,34.7735849 268.567822,35.754717 L268.567822,32.9622642 L264.859475,32.9622642 L264.859475,52.4716981 L268.567822,52.4716981 L268.567822,42.1320755 C268.567822,40.4716981 268.994446,39.1509434 269.913329,38.1320755 C270.700942,37.2264151 271.587008,36.8113208 272.571525,36.8113208 C273.359138,36.8113208 274.146752,36.9245283 275,37.2264151 L275,32.9245283 C274.40929,32.5849057 273.687311,32.4339623 272.86688,32.4339623 Z" id="EOS-Tracker" fill="#000000"></path>
        </g>
    </g>
</svg>