<?xml version="1.0" encoding="UTF-8"?>
<svg width="274px" height="76px" viewBox="0 0 274 76" version="1.1" xmlns="http://www.w3.org/2000/svg" xmlns:xlink="http://www.w3.org/1999/xlink">
    <!-- Generator: Sketch 47 (45396) - http://www.bohemiancoding.com/sketch -->
    <title>etherscan</title>
    <desc>Created with Sketch.</desc>
    <defs></defs>
    <g id="Page-1" stroke="none" stroke-width="1" fill="none" fill-rule="evenodd">
        <g id="etherscan">
            <g id="tool/etherscanIcon" transform="translate(4.000000, 7.000000)">
                <g id="Group-8" transform="translate(8.320000, 7.680000)">
                    <g id="etherscan" fill-rule="nonzero">
                        <path d="M25.9477226,39.1984595 C20.6212763,41.4349914 14.9804698,42.8373415 9.22482759,43.3559065 C16.8883403,49.4526628 27.4753429,50.3540257 36.0637067,45.6409319 C44.6520705,40.9278381 49.5566548,31.5250535 48.4972113,21.8041379 C43.4251235,28.806029 35.7015547,35.0908733 25.9477226,39.1984595 Z" id="Shape" fill="#979695"></path>
                        <path d="M23.9073154,7.4896036e-07 C15.1056438,-0.00221591631 7.01499963,4.9161396 2.84814619,12.8020075 C-1.31870725,20.6878754 -0.887412188,30.2650177 3.97076578,37.7303885 C5.96925521,37.7641455 7.96804105,37.684573 9.95782316,37.4920411 C9.95782316,37.4753568 9.95782316,37.456289 9.95782316,37.4372213 L9.95782316,22.7311889 C9.9578145,22.1601952 10.1816138,21.6127601 10.5796551,21.2101265 C10.9776965,20.807493 11.5171295,20.5828904 12.0784834,20.5860626 L15.888642,20.5860626 C17.0533796,20.5860626 17.9975859,21.5464683 17.9975859,22.7311889 L17.9975859,36.1167769 C18.4334343,36.0071371 18.8692827,35.8951138 19.3027879,35.7759401 C19.3027879,35.7306541 19.3027879,35.6877516 19.3027879,35.6448491 L19.3027879,17.5304494 C19.3027792,16.9594557 19.5265785,16.4120206 19.9246198,16.009387 C20.3226612,15.6067535 20.8620942,15.3821509 21.4234481,15.3853231 L25.2336067,15.3853231 C25.7949607,15.3821509 26.3343937,15.6067535 26.732435,16.009387 C27.1304764,16.4120206 27.3542756,16.9594557 27.354267,17.5304494 L27.354267,32.8442675 C28.0853675,32.5129647 28.807095,32.172128 29.5147628,31.8146069 C29.4015411,31.5482392 29.3433183,31.2610545 29.3437041,30.9708573 L29.3437041,12.8707584 C29.3436954,12.2997647 29.5674947,11.7523296 29.965536,11.3496961 C30.3635774,10.9470625 30.9030103,10.72246 31.4643643,10.7256321 L35.2745229,10.7256321 C35.8358769,10.72246 36.3753099,10.9470625 36.7733512,11.3496961 C37.1713926,11.7523296 37.3951918,12.2997647 37.3951832,12.8707584 L37.3951832,26.9880728 C40.9640673,24.3914373 44.1809551,21.3277201 46.9627586,17.8760531 C44.1079578,7.31915147 34.6716133,0.00267590892 23.9073154,7.4896036e-07 Z" id="Shape" fill="#0C5B8A"></path>
                    </g>
                </g>
            </g>
            <text id="EtherScan" font-family="AmericanTypewriter, American Typewriter" font-size="36" font-weight="normal" fill="#12324D">
                <tspan x="77" y="51">EtherScan</tspan>
            </text>
        </g>
    </g>
</svg>