<?xml version="1.0" encoding="UTF-8"?>
<svg width="48px" height="48px" viewBox="0 0 48 48" version="1.1" xmlns="http://www.w3.org/2000/svg" xmlns:xlink="http://www.w3.org/1999/xlink">
    <!-- Generator: Sketch 47 (45396) - http://www.bohemiancoding.com/sketch -->
    <title>Slice 2</title>
    <desc>Created with Sketch.</desc>
    <defs></defs>
    <g id="Page-1" stroke="none" stroke-width="1" fill="none" fill-rule="evenodd" opacity="0.699999988">
        <g id="063-bitcoin-35" transform="translate(9.000000, 9.000000)" fill-rule="nonzero" fill="#000000">
            <path d="M29.6295217,28.6827636 L31,27.3048947 L23.0107122,19.272523 L21.7749556,20.5149437 L20.5062455,19.2393918 C22.2899148,17.1346459 23.2668289,14.4583864 23.2607712,11.6932695 L23.2607712,11.4779166 L21.3223295,11.5061756 L21.3223295,11.6932695 C21.3222689,17.0750218 16.9828247,21.4376847 11.6299994,21.4376238 C9.05956507,21.4375629 6.59435175,20.4109823 4.77675971,18.5835886 C0.991770416,14.7780661 0.991830992,8.60822928 4.77688086,4.80282865 C6.5944729,2.97543487 9.05962565,1.94885431 11.6301206,1.94879341 C13.7283627,1.94166776 15.7711168,2.62627811 17.4454459,3.89768863 L18.608511,2.33857245 C13.9781188,-1.15275153 7.49887714,-0.689645301 3.40628137,3.42508154 C-1.13542712,7.99158665 -1.13542712,15.3949524 3.40628137,19.9614575 C7.68042433,24.2630346 14.522094,24.5483042 19.1357671,20.6172607 L20.4044773,21.8937871 L18.8992772,23.4071042 L26.4524156,31 L27.8228939,29.6231055 L21.6402339,23.4080787 L23.0107122,22.0292353 L29.6295217,28.6827636 Z" id="Shape"></path>
            <path d="M21.4191858,9 L23,8.67845659 C22.8834139,8.10490354 22.7147823,7.54310691 22.4961709,7 L21,7.5988746 C21.1824869,8.05210008 21.3228033,8.52110129 21.4191858,9 Z" id="Shape"></path>
            <path d="M21,4.85126922 C20.5816431,4.1925724 20.1047177,3.57295763 19.5750536,3 L18,4.4565606 C18.4418111,4.93405881 18.8393942,5.45063908 19.1879914,6 L21,4.85126922 Z" id="Shape"></path>
            <path d="M14.1617654,7.81775 C14.1496792,7.8050625 14.1374289,7.7925 14.125124,7.78 L14.125124,5 L12.3750886,5 L12.3750886,7 L10.6250531,7 L10.6250531,5 L8.87501771,5 L8.87501771,7 L8,7 L8,17 L8.87501771,17 L8.87501771,19 L10.6250531,19 L10.6250531,17 L12.3750886,17 L12.3750886,19 L14.125124,19 L14.125124,16.22 C15.196966,15.1374375 15.2979212,13.2668125 14.3506598,12.041875 C14.3397768,12.0278125 14.3287844,12.013875 14.3176279,12 C15.285124,10.7959375 15.2153414,8.9235 14.1617654,7.81775 Z M13,15 L10,15 L10,13 L13,13 C13.5523125,13 14,13.4476875 14,14 C14,14.5523125 13.5523125,15 13,15 Z M13,11 L10,11 L10,9 L13,9 C13.5523125,9 14,9.4476875 14,10 C14,10.5523125 13.5523125,11 13,11 Z" id="Shape"></path>
        </g>
    </g>
</svg>