<?xml version="1.0" encoding="UTF-8"?>
<svg width="289px" height="76px" viewBox="0 0 289 76" version="1.1" xmlns="http://www.w3.org/2000/svg" xmlns:xlink="http://www.w3.org/1999/xlink">
    <!-- Generator: Sketch 47 (45396) - http://www.bohemiancoding.com/sketch -->
    <title>gastracker</title>
    <desc>Created with Sketch.</desc>
    <defs></defs>
    <g id="Page-1" stroke="none" stroke-width="1" fill="none" fill-rule="evenodd">
        <g id="gastracker">
            <g id="tool/gastrackerIcon" transform="translate(4.000000, 7.000000)">
                <g id="gastracker" stroke-width="1" fill-rule="evenodd" transform="translate(37.760000, 3.840000)">
                    <g id="cb6d81b4-054e-46fb-8b0b-711e7b2c0194"></g>
                </g>
                <path d="M8.32,19.6277961 L8.32,44.2529882 C8.32131632,50.8510285 13.6697558,56.199468 20.2677961,56.2007843 L29.4569412,56.2007843 L29.4569412,7.68 L20.2677961,7.68 C13.6697558,7.68131632 8.32131632,13.0297558 8.32,19.6277961 Z M19.0875608,33.7572392 C19.0875612,34.2312897 18.8990823,34.6858896 18.5636544,35.0208703 C18.2282266,35.3558509 17.7733756,35.5437231 17.2993255,35.5430902 L14.6288941,35.5430902 C14.155257,35.5430902 13.7010188,35.3549386 13.3661068,35.0200266 C13.0311948,34.6851145 12.8430431,34.2308763 12.8430431,33.7572392 L12.8430431,25.2404706 C12.8430431,24.2541723 13.6425959,23.4546196 14.6288941,23.4546196 L17.2993255,23.4546196 C17.7733756,23.4539867 18.2282266,23.6418589 18.5636544,23.9768395 C18.8990823,24.3118202 19.0875612,24.7664201 19.0875608,25.2404706 L19.0875608,33.7572392 Z M21.0903843,31.4849882 C21.0903843,30.49869 21.889937,29.6991373 22.8762353,29.6991373 L25.5466667,29.6991373 C26.0207168,29.6985043 26.4755677,29.8863765 26.8109956,30.2213572 C27.1464235,30.5563378 27.3349024,31.0109377 27.334902,31.4849882 L27.334902,40.0017569 C27.3349024,40.4758074 27.1464235,40.9304073 26.8109956,41.2653879 C26.4755677,41.6003686 26.0207168,41.7882408 25.5466667,41.7876078 L22.8762353,41.7876078 C21.889937,41.7876078 21.0903843,40.9880551 21.0903843,40.0017569 L21.0903843,31.4849882 Z M44.8929882,7.68 C51.4910285,7.68131632 56.839468,13.0297558 56.8407843,19.6277961 L56.8407843,44.2529882 C56.839468,50.8510285 51.4910285,56.199468 44.8929882,56.2007843 L35.7038431,56.2007843 L35.7038431,7.68 L44.8929882,7.68 Z M43.986949,38.3208157 L43.986949,10.9584314 C43.9875819,10.4843813 43.7997098,10.0295303 43.4647291,9.69410242 C43.1297485,9.35867454 42.6751486,9.17019566 42.201098,9.17019608 L39.5306667,9.17019608 C38.5430516,9.17019608 37.7424314,9.97081629 37.7424314,10.9584314 L37.7424314,38.3208157 C37.742431,38.7948662 37.9309098,39.2494661 38.2663377,39.5844468 C38.6017656,39.9194274 39.0566166,40.1072996 39.5306667,40.1066667 L42.201098,40.1066667 C43.1873963,40.1066667 43.986949,39.3071139 43.986949,38.3208157 Z M52.3153569,31.4349176 L52.3153569,25.3167686 C52.3153569,24.3291535 51.5147367,23.5285333 50.5271216,23.5285333 L47.8566902,23.5285333 C46.8690751,23.5285333 46.0684549,24.3291535 46.0684549,25.3167686 L46.0684549,31.4349176 C46.0684545,31.9089682 46.2569334,32.3635681 46.5923612,32.6985487 C46.9277891,33.0335294 47.3826401,33.2214015 47.8566902,33.2207686 L50.5271216,33.2207686 C51.0011717,33.2214015 51.4560226,33.0335294 51.7914505,32.6985487 C52.1268784,32.3635681 52.3153573,31.9089682 52.3153569,31.4349176 Z" id="Combined-Shape" fill="#522C83" fill-rule="nonzero"></path>
            </g>
            <text id="Gastracker.io" font-family="Lato-Bold, Lato" font-size="36" font-weight="bold" letter-spacing="-1.28571439" fill="#304132">
                <tspan x="77" y="51">Gastracker.io</tspan>
            </text>
        </g>
    </g>
</svg>