<?xml version="1.0" encoding="UTF-8"?>
<svg width="207px" height="76px" viewBox="0 0 207 76" version="1.1" xmlns="http://www.w3.org/2000/svg" xmlns:xlink="http://www.w3.org/1999/xlink">
    <!-- Generator: Sketch 47 (45396) - http://www.bohemiancoding.com/sketch -->
    <title>morden</title>
    <desc>Created with Sketch.</desc>
    <defs></defs>
    <g id="Page-1" stroke="none" stroke-width="1" fill="none" fill-rule="evenodd">
        <g id="morden">
            <g id="tool/mordenIcon" transform="translate(4.000000, 7.000000)">
                <g id="morden" transform="translate(14.720000, 2.560000)">
                    <polygon id="Shape" stroke="#000000" stroke-width="0.5" points="22.0162154 21.12 35.2 29.5408108 22.1413313 37.76 8.96 29.3367001"></polygon>
                    <path d="M8.96,29.44 L22.4,37.76" id="Shape" stroke="#000000" stroke-width="0.5"></path>
                    <path d="M9.6,28.8 L23.04,37.12" id="Shape" stroke="#000000" stroke-width="0.5"></path>
                    <path d="M9.6,28.8 L23.04,37.12" id="Shape" stroke="#000000" stroke-width="0.5"></path>
                    <path d="M10.24,28.16 L23.68,36.48" id="Shape" stroke="#000000" stroke-width="0.5"></path>
                    <path d="M10.88,28.16 L24.32,36.48" id="Shape" stroke="#000000" stroke-width="0.5"></path>
                    <path d="M10.88,28.16 L24.32,36.48" id="Shape" stroke="#000000" stroke-width="0.5"></path>
                    <path d="M11.52,27.52 L24.96,35.84" id="Shape" stroke="#000000" stroke-width="0.5"></path>
                    <path d="M12.16,26.88 L25.6,35.2" id="Shape" stroke="#000000" stroke-width="0.5"></path>
                    <path d="M12.16,26.88 L25.6,35.2" id="Shape" stroke="#000000" stroke-width="0.5"></path>
                    <path d="M12.8,26.24 L26.24,34.56" id="Shape" stroke="#000000" stroke-width="0.5"></path>
                    <path d="M13.44,26.24 L26.88,34.56" id="Shape" stroke="#000000" stroke-width="0.5"></path>
                    <path d="M14.08,26.24 L27.52,34.56" id="Shape" stroke="#000000" stroke-width="0.5"></path>
                    <path d="M14.08,26.24 L27.52,34.56" id="Shape" stroke="#000000" stroke-width="0.5"></path>
                    <path d="M14.72,25.6 L28.16,33.92" id="Shape" stroke="#000000" stroke-width="0.5"></path>
                    <path d="M15.36,25.6 L28.8,33.92" id="Shape" stroke="#000000" stroke-width="0.5"></path>
                    <path d="M15.36,25.6 L28.8,33.92" id="Shape" stroke="#000000" stroke-width="0.5"></path>
                    <path d="M16,24.96 L29.44,33.28" id="Shape" stroke="#000000" stroke-width="0.5"></path>
                    <path d="M16,24.96 L29.44,33.28" id="Shape" stroke="#000000" stroke-width="0.5"></path>
                    <path d="M16.64,24.32 L30.08,32.64" id="Shape" stroke="#000000" stroke-width="0.5"></path>
                    <path d="M16.64,23.68 L30.08,32" id="Shape" stroke="#000000" stroke-width="0.5"></path>
                    <path d="M17.28,23.68 L30.72,32" id="Shape" stroke="#000000" stroke-width="0.5"></path>
                    <path d="M18.56,23.68 L32,32" id="Shape" stroke="#000000" stroke-width="0.5"></path>
                    <path d="M18.56,23.04 L32,31.36" id="Shape" stroke="#000000" stroke-width="0.5"></path>
                    <path d="M19.2,23.04 L32.64,31.36" id="Shape" stroke="#000000" stroke-width="0.5"></path>
                    <path d="M19.2,22.4 L32.64,30.72" id="Shape" stroke="#000000" stroke-width="0.5"></path>
                    <path d="M19.84,22.4 L33.28,30.72" id="Shape" stroke="#000000" stroke-width="0.5"></path>
                    <path d="M19.84,22.4 L33.28,30.72" id="Shape" stroke="#000000" stroke-width="0.5"></path>
                    <path d="M20.48,22.4 L33.92,30.72" id="Shape" stroke="#000000" stroke-width="0.5"></path>
                    <path d="M21.12,21.76 L34.56,30.08" id="Shape" stroke="#000000" stroke-width="0.5"></path>
                    <path d="M21.12,21.76 L34.56,30.08" id="Shape" stroke="#000000" stroke-width="0.5"></path>
                    <path d="M33.92,29.44 L21.12,37.76" id="Shape" stroke="#000000" stroke-width="0.5"></path>
                    <path d="M33.92,29.44 L21.12,37.76" id="Shape" stroke="#000000" stroke-width="0.5"></path>
                    <path d="M33.28,28.8 L20.48,37.12" id="Shape" stroke="#000000" stroke-width="0.5"></path>
                    <path d="M32.64,28.8 L19.84,37.12" id="Shape" stroke="#000000" stroke-width="0.5"></path>
                    <path d="M32.64,28.16 L19.84,36.48" id="Shape" stroke="#000000" stroke-width="0.5"></path>
                    <path d="M32,28.16 L19.2,36.48" id="Shape" stroke="#000000" stroke-width="0.5"></path>
                    <path d="M32,27.52 L19.2,35.84" id="Shape" stroke="#000000" stroke-width="0.5"></path>
                    <path d="M31.36,27.52 L18.56,35.84" id="Shape" stroke="#000000" stroke-width="0.5"></path>
                    <path d="M31.36,26.88 L18.56,35.2" id="Shape" stroke="#000000" stroke-width="0.5"></path>
                    <path d="M30.72,26.24 L17.92,34.56" id="Shape" stroke="#000000" stroke-width="0.5"></path>
                    <path d="M30.08,26.24 L17.28,34.56" id="Shape" stroke="#000000" stroke-width="0.5"></path>
                    <path d="M29.44,26.24 L16.64,34.56" id="Shape" stroke="#000000" stroke-width="0.5"></path>
                    <path d="M28.8,26.24 L16,34.56" id="Shape" stroke="#000000" stroke-width="0.5"></path>
                    <path d="M28.8,26.24 L16,34.56" id="Shape" stroke="#000000" stroke-width="0.5"></path>
                    <path d="M28.16,25.6 L15.36,33.92" id="Shape" stroke="#000000" stroke-width="0.5"></path>
                    <path d="M28.16,25.6 L15.36,33.92" id="Shape" stroke="#000000" stroke-width="0.5"></path>
                    <path d="M27.52,25.6 L14.72,33.92" id="Shape" stroke="#000000" stroke-width="0.5"></path>
                    <path d="M26.88,24.96 L14.08,33.28" id="Shape" stroke="#000000" stroke-width="0.5"></path>
                    <path d="M26.88,24.32 L14.08,32.64" id="Shape" stroke="#000000" stroke-width="0.5"></path>
                    <path d="M26.24,24.32 L13.44,32.64" id="Shape" stroke="#000000" stroke-width="0.5"></path>
                    <path d="M25.6,23.68 L12.8,32" id="Shape" stroke="#000000" stroke-width="0.5"></path>
                    <path d="M24.96,23.68 L12.16,32" id="Shape" stroke="#000000" stroke-width="0.5"></path>
                    <path d="M24.96,23.68 L12.16,32" id="Shape" stroke="#000000" stroke-width="0.5"></path>
                    <path d="M24.32,23.04 L11.52,31.36" id="Shape" stroke="#000000" stroke-width="0.5"></path>
                    <path d="M23.68,22.4 L10.88,30.72" id="Shape" stroke="#000000" stroke-width="0.5"></path>
                    <path d="M23.68,22.4 L10.88,30.72" id="Shape" stroke="#000000" stroke-width="0.5"></path>
                    <path d="M23.04,22.4 L10.24,30.72" id="Shape" stroke="#000000" stroke-width="0.5"></path>
                    <path d="M22.4,22.4 L9.6,30.72" id="Shape" stroke="#000000" stroke-width="0.5"></path>
                    <path d="M22.4,21.76 L9.6,30.08" id="Shape" stroke="#000000" stroke-width="0.5"></path>
                    <path d="M21.76,21.76 L8.96,30.08" id="Shape" stroke="#000000" stroke-width="0.5"></path>
                    <path d="M5.6161442,58.88 L0.64,32.64 L11.9433115,44.2921564 L28.8,42.7006662 L5.6161442,58.88 Z M1.05550804,33.4479873 L5.80026153,58.4221405 L27.8396042,43.0385518 L11.8363244,44.5492433 L11.7915391,44.5051712 L1.05550804,33.4479873 Z" id="Shape" fill="#000000" fill-rule="nonzero"></path>
                    <polygon id="Shape" fill="#000000" fill-rule="nonzero" points="9.49546059 49.92 9.46804938 49.8640631 1.92 33.3310728 2.03961254 33.28 9.56274264 49.7546215 28.1126534 42.4123005 28.16 42.5314703"></polygon>
                    <path d="M4.39708149,49.28 L4.28426867,49.2297664 L5.59241732,43.2734965 L3.45617457,44.9120688 L3.36016365,44.8331303 L5.44840095,40.7666006 L1.92,36.5613306 L2.01841118,36.48 L5.52040914,40.6541731 L6.66773952,38.4295421 L6.78535288,38.4725995 L6.14207978,41.4005008 L6.80455506,42.1922781 L8.88319127,40.5991553 L8.96,40.6996225 L6.88616434,42.2903532 L8.32632799,44.0174323 L4.39708149,49.28 Z M5.76043641,43.1538927 L4.48349131,48.9690301 L8.16070917,44.0198243 L6.77575179,42.37886 L5.76043641,43.1538927 Z M5.54921241,40.8838124 L3.60019093,44.6393721 L5.63082168,43.0821304 L5.99326287,41.4339899 L5.54921241,40.8838124 Z M6.11087624,41.5559858 L5.80124105,42.9625266 L6.70614388,42.2688245 L6.11087624,41.5559858 Z M5.6116195,40.7594244 L6.04126833,41.2761129 L6.55972724,38.9199178 L5.6116195,40.7594244 Z" id="Shape" fill="#000000" fill-rule="nonzero"></path>
                    <path d="M5.40192771,58.88 L6.0139759,51.8011905 L7.78506024,44.7198841 L1.92,40.1280214 L3.98506024,36.48 L4.09590361,36.5449203 L2.0886747,40.1005551 L7.93204819,44.6649515 L7.93204819,44.7073994 L6.14891566,51.8311537 L5.58024096,58.4130732 L11.3995181,44.1306075 L11.52,44.1680615 L10.033253,52.889854 L5.63325301,58.5678832 L5.61879518,58.6053372 L5.61879518,58.6053372 L5.40192771,58.88 Z M11.3079518,44.7198841 L5.8260241,58.1234288 L9.92240964,52.8374183 L11.3079518,44.7198841 Z" id="Shape" fill="#000000" fill-rule="nonzero"></path>
                    <path d="M12.9763958,53.76 L12.8545018,53.7203553 L13.0535124,51.9858984 L10.24,52.8704714 L13.6455689,46.8890731 L13.6455689,46.841995 L13.7002968,46.841995 L17.307364,46.3464359 L19.2551802,43.1253018 L19.3720989,43.1798133 L18.3770459,46.1928126 L22.0413286,45.6774311 L22.7577668,42.88 L22.884636,42.9122113 L22.180636,45.6774311 L24.3000989,45.3800957 L24.32,45.5114188 L22.1458092,45.8137099 L21.7328622,47.4341881 L21.6781343,47.4341881 L18.0287774,47.2334867 L16.8173004,50.8114234 L14.2774276,51.6241403 L12.9763958,53.76 Z M13.1903322,51.9536871 L13.0186855,53.4403644 L14.0883675,51.676174 L13.1903322,51.9536871 Z M13.6057668,47.2310089 L10.5186148,52.6549032 L13.0709258,51.8520975 L13.6057668,47.2310089 Z M13.7674629,46.9832293 L13.2077456,51.8050194 L14.1903604,51.4977727 L16.8173004,47.1641084 L13.7674629,46.9832293 Z M16.9715336,47.1591528 L14.3794205,51.4432612 L16.7227703,50.6999226 L17.8919576,47.2062309 L16.9715336,47.1591528 Z M18.0710671,47.0872967 L21.6308693,47.2830426 L22.0065018,45.8186655 L18.322318,46.3340469 L18.0710671,47.0872967 Z M17.0486502,47.0327852 L17.9342473,47.0798634 L18.1830106,46.3563471 L17.3969187,46.4653701 L17.0486502,47.0327852 Z M14.3843958,46.8865953 L16.8993922,47.0228741 L17.2252721,46.4876702 L14.3843958,46.8865953 Z M19.0561696,43.6951947 L17.4690601,46.3167023 L18.2153498,46.2126349 L19.0561696,43.6951947 Z" id="Shape" fill="#000000" fill-rule="nonzero"></path>
                    <rect id="Rectangle-path" fill="#000000" fill-rule="nonzero" transform="translate(16.320000, 47.040000) rotate(-6.260000) translate(-16.320000, -47.040000) " x="16" y="43.52" width="1" height="7.04"></rect>
                    <polygon id="Shape" fill="#000000" fill-rule="nonzero" points="6.48029963 51.84 3.2 45.1571528 3.31970037 45.0939829 6.50067416 51.5741601 12.1902622 43.52 14.08 46.5705789 13.9679401 46.6469092 12.1826217 43.7647833"></polygon>
                    <circle id="Oval" fill="#000000" fill-rule="nonzero" cx="6.08" cy="57.92" r="1"></circle>
                    <circle id="Oval" fill="#000000" fill-rule="nonzero" cx="27.84" cy="41.92" r="1"></circle>
                    <circle id="Oval" fill="#000000" fill-rule="nonzero" cx="0.96" cy="32.32" r="1"></circle>
                    <circle id="Oval" fill="#000000" fill-rule="nonzero" cx="11.84" cy="43.84" r="1"></circle>
                    <circle id="Oval" fill="#000000" fill-rule="nonzero" cx="12.8" cy="53.76" r="1"></circle>
                    <circle id="Oval" fill="#000000" fill-rule="nonzero" cx="16.64" cy="50.56" r="1"></circle>
                    <circle id="Oval" fill="#000000" fill-rule="nonzero" cx="21.76" cy="47.36" r="1"></circle>
                    <circle id="Oval" fill="#000000" fill-rule="nonzero" cx="24.32" cy="45.44" r="1"></circle>
                    <circle id="Oval" fill="#000000" fill-rule="nonzero" cx="19.84" cy="42.88" r="1"></circle>
                    <circle id="Oval" fill="#000000" fill-rule="nonzero" cx="7.04" cy="38.4" r="1"></circle>
                    <circle id="Oval" fill="#000000" fill-rule="nonzero" cx="3.2" cy="45.44" r="1"></circle>
                    <circle id="Oval" fill="#000000" fill-rule="nonzero" cx="2.56" cy="40.32" r="1"></circle>
                    <circle id="Oval" fill="#000000" fill-rule="nonzero" cx="6.4" cy="50.56" r="1"></circle>
                    <circle id="Oval" fill="#000000" fill-rule="nonzero" cx="9.6" cy="50.56" r="1"></circle>
                    <circle id="Oval" fill="#000000" fill-rule="nonzero" cx="10.24" cy="52.48" r="1"></circle>
                    <circle id="Oval" fill="#000000" fill-rule="nonzero" cx="13.44" cy="46.72" r="1"></circle>
                    <circle id="Oval" fill="#000000" fill-rule="nonzero" cx="8.96" cy="44.16" r="1"></circle>
                    <circle id="Oval" fill="#000000" fill-rule="nonzero" cx="1.92" cy="37.12" r="1"></circle>
                    <path d="M28.8,16.8193338 L11.9433115,15.2278436 L0.64,26.88 L5.6161442,0.64 L28.8,16.8193338 Z M11.7965153,15.0025865 L11.8413006,14.9585145 L27.8445803,16.4692059 L5.80523767,1.08561724 L1.06048418,26.0720127 L11.7965153,15.0025865 Z" id="Shape" fill="#000000" fill-rule="nonzero"></path>
                    <polygon id="Shape" fill="#000000" fill-rule="nonzero" points="9.49546059 8.96 9.46804938 9.01593686 1.92 25.5489272 2.03961254 25.6 9.56274264 9.12537854 28.1126534 16.4676995 28.16 16.3485297"></polygon>
                    <path d="M8.32459487,14.2281979 L6.88049231,15.9539869 L8.96,17.5435294 L8.8829812,17.6439216 L6.79865983,16.0519888 L6.13437265,16.8431746 L6.77940513,19.7688889 L6.66147009,19.8119141 L5.51100171,17.5889449 L2.01868034,21.76 L1.92,21.6787302 L5.44842393,17.4670401 L3.35447521,13.4035481 L3.45074872,13.3246685 L5.59283419,14.9620168 L4.28110769,9.01019608 L4.39422906,8.96 L8.32459487,14.2281979 Z M6.77940513,15.8774977 L8.16815043,14.2258077 L4.46884103,9.28029879 L5.76131282,15.0910924 L6.77940513,15.8774977 Z M6.00199658,16.821662 L5.6385641,15.1747526 L3.59515897,13.6067227 L5.53507009,17.3594771 L6.00199658,16.821662 Z M6.70238632,15.987451 L5.79500855,15.294267 L6.1054906,16.6997572 L6.70238632,15.987451 Z M6.55556923,19.3338562 L6.03569231,16.9794211 L5.60486838,17.4957236 L6.55556923,19.3338562 Z" id="Shape" fill="#000000" fill-rule="nonzero"></path>
                    <path d="M5.61731358,0.929418579 L5.61731358,0.929418579 L5.63177504,0.966843395 L10.0328797,6.64044553 L11.52,15.3554377 L11.3994878,15.3928626 L5.57151896,1.12402762 L6.14033643,7.70081533 L7.92391665,14.8190154 L7.92391665,14.8614302 L2.08871705,19.4222678 L4.09644991,22.9751303 L3.98557871,23.04 L1.92,19.3873379 L7.78653276,14.7990555 L6.01259352,7.71329027 L5.40039166,0.64 L5.61731358,0.929418579 Z M9.92441878,6.69034529 L5.82700477,1.40845623 L11.3103088,14.7990555 L9.92441878,6.69034529 Z" id="Shape" fill="#000000" fill-rule="nonzero"></path>
                    <path d="M14.2774276,7.28012765 L16.8173004,8.08118532 L18.0188269,11.6747846 L21.6781343,11.4838204 L21.7328622,11.4838204 L22.1458092,13.1057762 L24.32,13.4083428 L24.3000989,13.5397857 L22.180636,13.2198587 L22.884636,15.9677593 L22.7577668,16 L22.0413286,13.2198587 L18.369583,12.7064873 L19.364636,15.7222339 L19.2477173,15.7767951 L17.2999011,12.552724 L13.6928339,12.056713 L13.638106,12.056713 L13.638106,12.009592 L10.24,6.01033964 L13.0535124,6.89571917 L12.8545018,5.15968088 L12.9763958,5.12 L14.2774276,7.28012765 Z M14.0883675,7.22060634 L13.0186855,5.45480739 L13.1903322,6.94284021 L14.0883675,7.22060634 Z M13.0709258,7.03956234 L10.5186148,6.23602462 L13.6057668,11.6648644 L13.0709258,7.03956234 Z M16.8173004,11.7318258 L14.1903604,7.38925006 L13.2077456,7.08172327 L13.7674629,11.9079097 L16.8173004,11.7318258 Z M17.8869823,11.6747846 L16.7177951,8.17790745 L14.3744452,7.43389104 L16.9715336,11.7318258 L17.8869823,11.6747846 Z M18.3173428,12.5502439 L22.0015265,13.0660953 L21.625894,11.6003829 L18.0611166,11.8037474 L18.3173428,12.5502439 Z M17.3869682,12.418801 L18.1730601,12.5279234 L17.9242968,11.8037474 L17.0386996,11.8508685 L17.3869682,12.418801 Z M17.2202968,12.3964805 L16.894417,11.8607887 L14.3794205,11.9971917 L17.2202968,12.3964805 Z M18.2153498,12.6668065 L17.4690601,12.5626442 L19.0561696,15.2039024 L18.2153498,12.6668065 Z" id="Shape" fill="#000000" fill-rule="nonzero"></path>
                    <rect id="Rectangle-path" fill="#000000" fill-rule="nonzero" transform="translate(16.320000, 12.480000) rotate(-83.740000) translate(-16.320000, -12.480000) " x="12.8" y="12.16" width="7.04" height="1"></rect>
                    <polygon id="Shape" fill="#000000" fill-rule="nonzero" points="6.48029963 7.68 3.2 14.3628472 3.31970037 14.4260171 6.50067416 7.94583992 12.1902622 16 14.08 12.9494211 13.9679401 12.8730908 12.1826217 15.7552167"></polygon>
                    <circle id="Oval" fill="#000000" fill-rule="nonzero" cx="6.08" cy="0.96" r="1"></circle>
                    <circle id="Oval" fill="#000000" fill-rule="nonzero" cx="27.84" cy="16.32" r="1"></circle>
                    <circle id="Oval" fill="#000000" fill-rule="nonzero" cx="0.96" cy="26.56" r="1"></circle>
                    <circle id="Oval" fill="#000000" fill-rule="nonzero" cx="11.84" cy="15.04" r="1"></circle>
                    <circle id="Oval" fill="#000000" fill-rule="nonzero" cx="12.8" cy="5.76" r="1"></circle>
                    <circle id="Oval" fill="#000000" fill-rule="nonzero" cx="16.64" cy="8.96" r="1"></circle>
                    <circle id="Oval" fill="#000000" fill-rule="nonzero" cx="21.76" cy="12.16" r="1"></circle>
                    <circle id="Oval" fill="#000000" fill-rule="nonzero" cx="24.32" cy="14.08" r="1"></circle>
                    <circle id="Oval" fill="#000000" fill-rule="nonzero" cx="19.84" cy="16" r="1"></circle>
                    <circle id="Oval" fill="#000000" fill-rule="nonzero" cx="7.04" cy="19.84" r="1"></circle>
                    <circle id="Oval" fill="#000000" fill-rule="nonzero" cx="3.2" cy="13.44" r="1"></circle>
                    <circle id="Oval" fill="#000000" fill-rule="nonzero" cx="2.56" cy="19.2" r="1"></circle>
                    <circle id="Oval" fill="#000000" fill-rule="nonzero" cx="6.4" cy="8.32" r="1"></circle>
                    <circle id="Oval" fill="#000000" fill-rule="nonzero" cx="9.6" cy="8.96" r="1"></circle>
                    <circle id="Oval" fill="#000000" fill-rule="nonzero" cx="10.24" cy="6.4" r="1"></circle>
                    <circle id="Oval" fill="#000000" fill-rule="nonzero" cx="13.44" cy="12.8" r="1"></circle>
                    <circle id="Oval" fill="#000000" fill-rule="nonzero" cx="8.96" cy="14.72" r="1"></circle>
                    <circle id="Oval" fill="#000000" fill-rule="nonzero" cx="1.92" cy="22.4" r="1"></circle>
                </g>
            </g>
            <path d="M92.9358731,41.7229551 L97.5556666,43.7038259 C96.847402,47.1866929 95.6696615,49.7734084 94.0224099,51.4640501 C92.3751582,53.1546918 90.2852725,54 87.7526901,54 C84.619156,54 82.0436871,52.5524551 80.0262062,49.6573219 C78.0087253,46.7621887 77,42.8041148 77,37.7829815 C77,32.4716093 78.0140909,28.3466506 80.042303,25.4079815 C82.0705152,22.4693125 84.7371986,21 88.0424333,21 C90.9291479,21 93.2738977,22.1536824 95.076753,24.4610818 C96.1498811,25.8252047 96.9547151,27.784288 97.4912792,30.3383905 L92.7749047,31.8621372 C92.4958913,30.2077754 91.9137281,28.9017198 91.0283974,27.9439314 C90.1430666,26.986143 89.0672718,26.5072559 87.8009806,26.5072559 C86.0517818,26.5072559 84.6325911,27.356192 83.5433661,29.0540897 C82.454141,30.7519874 81.9095367,33.5019599 81.9095367,37.3040897 C81.9095367,41.3384107 82.4460927,44.2117329 83.5192208,45.9241425 C84.5923489,47.6365521 85.9873946,48.4927441 87.7043996,48.4927441 C88.9706908,48.4927441 90.0598995,47.9485543 90.9720584,46.8601583 C91.8842173,45.7717624 92.5388157,44.0593784 92.9358731,41.7229551 Z M100.434702,53.4558047 L100.434702,21.5441953 L104.957914,21.5441953 L104.957914,53.4558047 L100.434702,53.4558047 Z M111.796772,37.3911609 L107.692077,36.3898417 C108.153522,34.155002 108.947625,32.500665 110.07441,31.426781 C111.201194,30.352897 112.875249,29.8159631 115.096624,29.8159631 C117.114105,29.8159631 118.616462,30.138849 119.60374,30.7846306 C120.591018,31.4304122 121.285858,32.2503248 121.688281,33.2443931 C122.090704,34.2384614 122.291913,36.0633113 122.291913,38.7189974 L122.243622,45.8588391 C122.243622,47.8905115 122.316057,49.3888474 122.460929,50.3538918 C122.605802,51.3189362 122.876763,52.3528969 123.27382,53.4558047 L118.798898,53.4558047 C118.680854,53.0494703 118.535984,52.4472335 118.364283,51.6490765 C118.289164,51.2862779 118.235509,51.0468344 118.203315,50.9307388 C117.430663,51.946575 116.604366,52.7084407 115.724401,53.2163588 C114.844436,53.7242769 113.905463,53.9782322 112.907454,53.9782322 C111.147524,53.9782322 109.760527,53.3324603 108.74642,52.0408971 C107.732314,50.7493339 107.225269,49.1167645 107.225269,47.1431398 C107.225269,45.8370647 107.455988,44.6724985 107.917433,43.6494063 C108.378878,42.6263141 109.025428,41.8426808 109.857103,41.2984828 C110.688777,40.7542849 111.88798,40.2790258 113.454747,39.8726913 C115.568809,39.3357493 117.033607,38.8350947 117.849184,38.3707124 L117.849184,37.7612137 C117.849184,36.5857461 117.634562,35.7476938 117.205311,35.2470317 C116.776059,34.7463695 115.96586,34.4960422 114.774688,34.4960422 C113.969842,34.4960422 113.342071,34.7100902 112.891357,35.1381926 C112.440643,35.566295 112.075785,36.317277 111.796772,37.3911609 Z M117.849184,42.3542216 C117.269695,42.6154367 116.352184,42.9274388 115.096624,43.2902375 C113.841065,43.6530361 113.020134,44.0085735 112.633808,44.3568602 C112.043587,44.922826 111.748481,45.6411566 111.748481,46.5118734 C111.748481,47.3680782 111.984566,48.1081763 112.456742,48.73219 C112.928919,49.3562036 113.529862,49.6682058 114.259589,49.6682058 C115.075166,49.6682058 115.853172,49.3054126 116.593631,48.5798153 C117.140926,48.0283614 117.500419,47.353566 117.672119,46.555409 C117.790163,46.0329789 117.849184,45.0389255 117.849184,43.573219 L117.849184,42.3542216 Z M123.979781,46.8601583 L128.519091,45.9241425 C128.712254,47.114122 129.10394,48.0174771 129.69416,48.6342348 C130.28438,49.2509925 131.110677,49.5593668 132.173074,49.5593668 C133.342783,49.5593668 134.222735,49.2691322 134.812956,48.6886544 C135.210013,48.2823199 135.408539,47.7381301 135.408539,47.0560686 C135.408539,46.5916863 135.301228,46.2071255 135.086602,45.9023747 C134.861245,45.6121358 134.356882,45.3436688 133.573499,45.0969657 C129.924863,44.0085698 127.612307,43.0145164 126.63576,42.1147757 C125.283619,40.8667484 124.607558,39.1325969 124.607558,36.9122691 C124.607558,34.9096206 125.192404,33.2262601 126.362114,31.8621372 C127.531823,30.4980143 129.345383,29.8159631 131.802846,29.8159631 C134.142266,29.8159631 135.880707,30.3311294 137.018223,31.3614776 C138.155739,32.3918257 138.93911,33.9155572 139.368362,35.9327177 L135.102699,36.9993404 C134.920267,36.0995997 134.574188,35.4102926 134.064452,34.9313984 C133.554717,34.4525042 132.827683,34.2130607 131.88333,34.2130607 C130.692158,34.2130607 129.839034,34.4379925 129.323933,34.8878628 C128.980532,35.2071256 128.808834,35.6207099 128.808834,36.128628 C128.808834,36.5639863 128.959069,36.9340354 129.259545,37.2387863 C129.667334,37.6451208 131.075794,38.218334 133.484966,38.9584433 C135.894139,39.6985525 137.576242,40.6055355 138.531326,41.6794195 C139.475679,42.7678155 139.947848,44.2842911 139.947848,46.2288918 C139.947848,48.3476359 139.29325,50.1688578 137.984033,51.6926121 C136.674817,53.2163665 134.73785,53.9782322 132.173074,53.9782322 C129.844386,53.9782322 128.001316,53.3397161 126.643809,52.0626649 C125.286301,50.7856137 124.398301,49.0514621 123.979781,46.8601583 Z M141.136715,46.8601583 L145.676024,45.9241425 C145.869187,47.114122 146.260873,48.0174771 146.851093,48.6342348 C147.441314,49.2509925 148.26761,49.5593668 149.330007,49.5593668 C150.499717,49.5593668 151.379668,49.2691322 151.969889,48.6886544 C152.366946,48.2823199 152.565472,47.7381301 152.565472,47.0560686 C152.565472,46.5916863 152.458161,46.2071255 152.243535,45.9023747 C152.018178,45.6121358 151.513816,45.3436688 150.730432,45.0969657 C147.081797,44.0085698 144.76924,43.0145164 143.792693,42.1147757 C142.440552,40.8667484 141.764491,39.1325969 141.764491,36.9122691 C141.764491,34.9096206 142.349338,33.2262601 143.519047,31.8621372 C144.688757,30.4980143 146.502316,29.8159631 148.95978,29.8159631 C151.299199,29.8159631 153.03764,30.3311294 154.175156,31.3614776 C155.312672,32.3918257 156.096044,33.9155572 156.525295,35.9327177 L152.259632,36.9993404 C152.0772,36.0995997 151.731122,35.4102926 151.221386,34.9313984 C150.71165,34.4525042 149.984617,34.2130607 149.040264,34.2130607 C147.849092,34.2130607 146.995968,34.4379925 146.480866,34.8878628 C146.137465,35.2071256 145.965767,35.6207099 145.965767,36.128628 C145.965767,36.5639863 146.116003,36.9340354 146.416479,37.2387863 C146.824267,37.6451208 148.232727,38.218334 150.6419,38.9584433 C153.051072,39.6985525 154.733175,40.6055355 155.688259,41.6794195 C156.632612,42.7678155 157.104781,44.2842911 157.104781,46.2288918 C157.104781,48.3476359 156.450183,50.1688578 155.140967,51.6926121 C153.83175,53.2163665 151.894783,53.9782322 149.330007,53.9782322 C147.001319,53.9782322 145.158249,53.3397161 143.800742,52.0626649 C142.443235,50.7856137 141.555235,49.0514621 141.136715,46.8601583 Z M159.887235,27.2038259 L159.887235,21.5441953 L164.410448,21.5441953 L164.410448,27.2038259 L159.887235,27.2038259 Z M159.887235,53.4558047 L159.887235,30.3383905 L164.410448,30.3383905 L164.410448,53.4558047 L159.887235,53.4558047 Z M182.774644,37.1734828 L178.315819,38.2618734 C178.165581,37.0573818 177.824868,36.1503988 177.29367,35.5408971 C176.762471,34.9313954 176.072997,34.6266491 175.225226,34.6266491 C174.098441,34.6266491 173.19971,35.1526992 172.529005,36.2048153 C171.8583,37.2569314 171.522952,39.0164784 171.522952,41.4835092 C171.522952,44.226267 171.863665,46.1635827 172.545101,47.2955145 C173.226538,48.4274463 174.141366,48.9934037 175.289613,48.9934037 C176.148115,48.9934037 176.851004,48.6632619 177.398299,48.0029683 C177.945595,47.3426748 178.331915,46.2071321 178.557272,44.5963061 L183,45.6193931 C182.538555,48.3766629 181.653237,50.4590959 180.344021,51.8667546 C179.034805,53.2744134 177.280267,53.9782322 175.080354,53.9782322 C172.579965,53.9782322 170.58666,52.9116202 169.100377,50.7783641 C167.614095,48.6451081 166.870965,45.6919714 166.870965,41.9188654 C166.870965,38.1022237 167.616778,35.1309473 169.108426,33.0049472 C170.600074,30.8789472 172.617525,29.8159631 175.160838,29.8159631 C177.242707,29.8159631 178.897982,30.4218277 180.126714,31.6335752 C181.355446,32.8453227 182.23808,34.6919401 182.774644,37.1734828 Z" id="Classic" fill="#12324D"></path>
        </g>
    </g>
</svg>