<?xml version="1.0" encoding="UTF-8"?>
<svg width="320px" height="160px" viewBox="0 0 320 160" version="1.1" xmlns="http://www.w3.org/2000/svg" xmlns:xlink="http://www.w3.org/1999/xlink">
    <!-- Generator: Sketch 52.2 (67145) - http://www.bohemiancoding.com/sketch -->
    <title>Bibox</title>
    <desc>Created with Sketch.</desc>
    <defs>
        <polygon id="path-1" points="0 0 62.6665333 0 62.6665333 68.7013 0 68.7013"></polygon>
    </defs>
    <g id="Bibox" stroke="none" stroke-width="1" fill="none" fill-rule="evenodd">
        <g id="分组-2" transform="translate(70.000000, 46.000000)">
            <g id="分组">
                <mask id="mask-2" fill="white">
                    <use xlink:href="#path-1"></use>
                </mask>
                <g id="Clip-2"></g>
                <path d="M31.7975333,59.8816333 C29.9595333,59.8816333 28.3855333,61.0066333 27.7232,62.6053 L8.34586667,51.4176333 C8.64653333,50.8216333 8.81986667,50.1506333 8.81986667,49.4369667 C8.81986667,48.7923 8.6782,48.1819667 8.42953333,47.6303 L28.5282,35.2139667 C29.3352,36.1073 30.4988667,36.6716333 31.7975333,36.6716333 C33.0962,36.6716333 34.2598667,36.1073 35.0668667,35.2139667 L54.4632,47.1966333 C54.0742,47.8536333 53.8468667,48.6179667 53.8468667,49.4369667 C53.8468667,50.0463 53.9705333,50.6266333 54.1938667,51.1546333 L35.5208667,61.9353 C34.7388667,60.7026333 33.3655333,59.8816333 31.7975333,59.8816333 Z M27.3878667,32.2619667 C27.3878667,32.7309667 27.4625333,33.1819667 27.5978667,33.6063 L7.3222,46.1316333 C6.6542,45.5426333 5.8092,45.1499667 4.87386667,45.0523 L4.87386667,23.6493 C7.0912,23.4173 8.81986667,21.5426333 8.81986667,19.2643 C8.81986667,18.5233 8.63486667,17.8256333 8.31153333,17.2126333 L27.6958667,6.0213 C28.2008667,7.30563333 29.2895333,8.29296667 30.6372,8.6603 L30.6372,28.0116333 C28.7655333,28.5216333 27.3878667,30.2286333 27.3878667,32.2619667 Z M54.2282,17.4759667 C53.9852,18.0229667 53.8468667,18.6269667 53.8468667,19.2643 C53.8468667,21.3383 55.2805333,23.0729667 57.2095333,23.5436333 L57.2095333,45.1576333 C56.6798667,45.2869667 56.1872,45.5086333 55.7515333,45.8099667 L35.9972,33.6063 C36.1325333,33.1819667 36.2072,32.7309667 36.2072,32.2619667 C36.2072,30.0639667 34.5975333,28.2469667 32.4938667,27.9123 L32.4938667,8.75963333 C33.7942,8.55296667 34.9025333,7.77996667 35.5615333,6.69896667 L54.2282,17.4759667 Z M59.0665333,45.1046333 L59.0665333,23.5969667 C61.1145333,23.2159667 62.6665333,21.4226333 62.6665333,19.2643 C62.6665333,16.8289667 60.6925333,14.8543 58.2568667,14.8543 C57.1335333,14.8543 56.1112,15.2779667 55.3322,15.9699667 L36.1772,4.9103 C36.1955333,4.74596667 36.2072,4.5793 36.2072,4.40996667 C36.2072,1.9743 34.2332,-3.33333333e-05 31.7975333,-3.33333333e-05 C29.4855333,-3.33333333e-05 27.5925333,1.7803 27.4062,4.0443 L7.09486667,15.7716333 C6.35053333,15.1986333 5.42153333,14.8543 4.40986667,14.8543 C1.97453333,14.8543 -0.000133333333,16.8289667 -0.000133333333,19.2643 C-0.000133333333,21.2126333 1.26486667,22.8626333 3.0172,23.4459667 L3.0172,45.2553 C1.26486667,45.8386333 -0.000133333333,47.4886333 -0.000133333333,49.4369667 C-0.000133333333,51.8726333 1.97453333,53.8469667 4.40986667,53.8469667 C5.4522,53.8469667 6.40853333,53.4836333 7.1632,52.8786333 L27.4015333,64.5636333 C27.5425333,66.8719667 29.4538667,68.7013 31.7975333,68.7013 C34.2332,68.7013 36.2072,66.7269667 36.2072,64.2913 C36.2072,64.0933 36.1898667,63.8993 36.1645333,63.7079667 L55.2715333,52.6763 C56.0572,53.4009667 57.1035333,53.8469667 58.2568667,53.8469667 C60.6925333,53.8469667 62.6665333,51.8726333 62.6665333,49.4369667 C62.6665333,47.2786333 61.1145333,45.4856333 59.0665333,45.1046333 Z" id="Fill-1" fill="#FFFFFF" mask="url(#mask-2)"></path>
            </g>
            <path d="M75.780303,48 L75.780303,20.719697 C81.2954821,20.3257556 84.7095894,20.1287879 86.0227273,20.1287879 C88.6818315,20.1287879 90.6925437,20.8674169 92.0549242,22.344697 C93.4173048,23.8219771 94.0984848,25.6603425 94.0984848,27.8598485 C94.0984848,30.1578398 93.3270279,31.8813074 91.7840909,33.030303 C93.0644003,33.7197004 94.041032,34.6799181 94.7140152,35.9109848 C95.3869983,37.1420516 95.7234848,38.4962047 95.7234848,39.9734848 C95.7234848,42.5997606 94.8535441,44.5940588 93.1136364,45.9564394 C91.3737287,47.3188199 89.5353632,48 87.5984848,48 L75.780303,48 Z M81.8863636,31.5037879 L85.1363636,31.5037879 C85.9899033,31.5037879 86.6628763,31.2247503 87.155303,30.6666667 C87.6477297,30.1085831 87.8939394,29.419196 87.8939394,28.5984848 C87.8939394,27.876259 87.6395227,27.2443209 87.1306818,26.7026515 C86.6218409,26.1609821 85.9570748,25.8901515 85.1363636,25.8901515 C84.7424223,25.92298 84.192554,25.9393939 83.4867424,25.9393939 C82.7809308,25.9393939 82.2474766,25.9558079 81.8863636,25.9886364 L81.8863636,31.5037879 Z M81.8863636,42.1893939 L86.1704545,42.1893939 C87.0568226,42.1893939 87.7954516,41.9267703 88.3863636,41.4015152 C88.9772757,40.87626 89.2727273,40.154045 89.2727273,39.2348485 C89.2727273,38.3484804 88.9854827,37.6508864 88.4109848,37.1420455 C87.836487,36.6332045 87.1717209,36.3787879 86.4166667,36.3787879 L81.8863636,36.4280303 L81.8863636,42.1893939 Z M106.507576,23.9204545 C105.851007,24.544195 104.99748,24.8560606 103.94697,24.8560606 C102.896459,24.8560606 102.05114,24.535988 101.410985,23.8958333 C100.77083,23.2556786 100.450758,22.3939448 100.450758,21.3106061 C100.450758,20.2929242 100.779037,19.4558114 101.435606,18.7992424 C102.092175,18.1426735 102.929288,17.8143939 103.94697,17.8143939 C104.964652,17.8143939 105.809971,18.1426735 106.482955,18.7992424 C107.155938,19.4558114 107.492424,20.2929242 107.492424,21.3106061 C107.492424,22.3939448 107.164145,23.2638856 106.507576,23.9204545 Z M100.943182,48 L100.943182,27.0719697 L107.098485,26.7272727 L107.098485,48 L100.943182,48 Z M123.496212,26.0871212 C125.958346,25.5290376 128.0183,26.3825644 129.676136,28.6477273 C131.333973,30.9128901 132.162879,33.7853361 132.162879,37.2651515 C132.162879,40.7777953 131.219075,43.5763785 129.331439,45.6609848 C127.443804,47.7455912 125.268952,48.4760132 122.806818,47.8522727 C121.263881,47.4911598 119.950763,46.4570792 118.867424,44.75 L118.867424,44.9469697 L118.57197,48 L112.810606,48 L112.810606,18.7007576 L118.965909,18.3560606 L118.916667,30.3712121 C120.229805,27.941907 121.756304,26.513891 123.496212,26.0871212 Z M121.920455,42.9280303 C123.06945,42.9608588 123.988633,42.4766464 124.67803,41.4753788 C125.367428,40.4741112 125.712121,39.0707161 125.712121,37.2651515 C125.712121,35.4595869 125.383842,33.982329 124.727273,32.8333333 C124.070704,31.6843377 123.151521,31.1755044 121.969697,31.3068182 C121.017672,31.4053035 120.000005,32.2260024 118.916667,33.7689394 L118.867424,40.9583333 C120.01642,42.2386428 121.034086,42.8952019 121.920455,42.9280303 Z M179.829545,26.530303 L172.295455,37.2159091 L179.681818,48 L173.083333,48 L168.799242,41.4015152 L164.465909,48 L157.867424,48 L165.253788,37.2159091 L157.916667,26.4810606 L164.515152,26.0871212 L168.799242,32.9318182 L173.280303,26.0871212 L179.829545,26.530303 Z" id="Bibox" fill="#FFFFFF"></path>
            <path d="M152.69697,45.094697 C150.858577,47.1957176 148.429308,48.2462121 145.409091,48.2462121 C142.388874,48.2462121 139.959605,47.1875106 138.121212,45.0700758 C136.282819,42.9526409 135.363636,40.3838535 135.363636,37.3636364 L135.363636,36.969697 C135.363636,33.9494798 136.282819,31.3806924 138.121212,29.2632576 C139.959605,27.1458227 142.388874,26.0871212 145.409091,26.0871212 C148.429308,26.0871212 150.866784,27.1458227 152.721591,29.2632576 C154.576398,31.3806924 155.503788,33.9494798 155.503788,36.969697 L155.503788,37.3636364 C155.503788,40.3838535 154.568191,42.9608479 152.69697,45.094697 Z M142.454545,41.4507576 C143.143943,42.4684394 144.128781,42.9772727 145.409091,42.9772727 C146.6894,42.9772727 147.682446,42.4602324 148.388258,41.4261364 C149.094069,40.3920403 149.44697,39.0378872 149.44697,37.3636364 L149.44697,36.969697 C149.44697,35.2954462 149.094069,33.941293 148.388258,32.907197 C147.682446,31.8731009 146.6894,31.3560606 145.409091,31.3560606 C144.128781,31.3560606 143.143943,31.8731009 142.454545,32.907197 C141.765148,33.941293 141.420455,35.2954462 141.420455,36.969697 L141.420455,37.3636364 C141.420455,39.0378872 141.765148,40.4002473 142.454545,41.4507576 Z" id="合并形状" fill="#FFFFFF"></path>
        </g>
    </g>
</svg>