<?xml version="1.0" encoding="UTF-8"?>
<svg width="320px" height="160px" viewBox="0 0 320 160" version="1.1" xmlns="http://www.w3.org/2000/svg" xmlns:xlink="http://www.w3.org/1999/xlink">
    <!-- Generator: Sketch 52.2 (67145) - http://www.bohemiancoding.com/sketch -->
    <title>binance</title>
    <desc>Created with Sketch.</desc>
    <g id="binance" stroke="none" stroke-width="1" fill="none" fill-rule="evenodd">
        <g id="分组-2" transform="translate(37.000000, 45.000000)" fill="#FFFFFF">
            <g id="分组">
                <path d="M13.1898,21.1183544 L20.9201333,28.8858786 L34.2054667,15.5367233 L47.4978,28.8932476 L55.2281333,21.1253883 L34.2054667,-2.84217094e-14 L13.1898,21.1183544 Z M0.000133333333,34.3707087 L7.73046667,42.138233 L15.4604667,34.3697039 L7.73046667,26.6025146 L0.000133333333,34.3707087 Z M52.9508,34.3740583 L60.6814667,42.1415825 L68.4114667,34.3733883 L60.6811333,26.6058641 L52.9508,34.3740583 Z M34.2054667,53.205699 L20.9198,39.8562087 L13.1784667,47.6140194 L13.1891333,47.6247379 L34.2054667,68.7424223 L55.2281333,47.6177039 L55.2321333,47.6133495 L47.4974667,39.8498447 L34.2054667,53.205699 Z" id="Fill-1"></path>
                <polygon id="Fill-2" points="42.0468667 34.3672587 42.0502 34.3672587 34.2058667 26.4848461 28.4085333 32.3096519 28.4082 32.3096519 27.7425333 32.9792199 26.3685333 34.3602248 26.3578667 34.3709432 26.3685333 34.3823316 34.2058667 42.2577102 42.0502 34.3749626 42.0538667 34.3709432"></polygon>
            </g>
            <path d="M76.4469697,49.2378641 L76.4469697,21.8251324 C81.9621488,21.4292787 85.3762561,21.2313548 86.6893939,21.2313548 C89.3484981,21.2313548 91.3592104,21.9735694 92.7215909,23.4580207 C94.0839715,24.9424721 94.7651515,26.7897617 94.7651515,28.9999448 C94.7651515,31.3090914 93.9936946,33.0409254 92.4507576,34.1954987 C93.731067,34.8882427 94.7076987,35.8531216 95.3806818,37.0901644 C96.053665,38.3272072 96.3901515,39.6879339 96.3901515,41.1723853 C96.3901515,43.8114099 95.5202107,45.8153892 93.780303,47.1843833 C92.0403953,48.5533773 90.2020299,49.2378641 88.2651515,49.2378641 L76.4469697,49.2378641 Z M82.5530303,32.6615733 L85.8030303,32.6615733 C86.6565699,32.6615733 87.329543,32.3811811 87.8219697,31.8203883 C88.3143964,31.2595956 88.5606061,30.566862 88.5606061,29.7421668 C88.5606061,29.016435 88.3061894,28.3814292 87.7973485,27.8371304 C87.2885076,27.2928316 86.6237415,27.0206862 85.8030303,27.0206862 C85.4090889,27.053674 84.8592207,27.0701677 84.1534091,27.0701677 C83.4475975,27.0701677 82.9141432,27.0866614 82.5530303,27.1196492 L82.5530303,32.6615733 Z M82.5530303,43.3990512 L86.8371212,43.3990512 C87.7234893,43.3990512 88.4621183,43.1351527 89.0530303,42.6073477 C89.6439423,42.0795428 89.9393939,41.3538219 89.9393939,40.4301633 C89.9393939,39.5394925 89.6521493,38.838512 89.0776515,38.327201 C88.5031537,37.81589 87.8383876,37.5602383 87.0833333,37.5602383 L82.5530303,37.6097198 L82.5530303,43.3990512 Z M108.55303,21.3303177 L108.55303,49.2378641 L102.397727,49.2378641 L102.397727,21.6272065 L108.55303,21.3303177 Z M130.958333,21.5282436 L137.113636,21.5282436 L137.113636,49.2378641 L131.549242,49.2378641 L121.75,32.958462 L121.75,49.2378641 L115.594697,49.2378641 L115.594697,21.7261695 L121.159091,21.3797992 L130.958333,37.95609 L130.958333,21.5282436 Z M159.814394,49.2378641 L158.534091,44.7350508 L149.128788,44.7350508 L147.848485,49.2378641 L141.693182,49.2378641 L150.064394,21.7756509 L157.549242,21.3303177 L165.969697,49.2378641 L159.814394,49.2378641 Z M150.704545,39.1436452 L156.958333,39.1436452 L153.806818,28.0103155 L150.704545,39.1436452 Z M185.863636,21.5282436 L192.018939,21.5282436 L192.018939,49.2378641 L186.454545,49.2378641 L176.655303,32.958462 L176.655303,49.2378641 L170.5,49.2378641 L170.5,21.7261695 L176.064394,21.3797992 L185.863636,37.95609 L185.863636,21.5282436 Z M209.5,49.4852714 C206.184327,49.4852714 203.377537,48.2812345 201.079545,45.8731244 C198.781554,43.4650144 197.632576,40.1003085 197.632576,35.7789056 L197.632576,34.9872021 C197.632576,30.6657992 198.781554,27.3010932 201.079545,24.8929832 C203.377537,22.4848732 206.184327,21.2808363 209.5,21.2808363 C211.732334,21.2808363 213.775875,21.9240889 215.630682,23.2106134 C217.485489,24.4971379 218.856056,26.2619592 219.742424,28.5051302 L214.227273,30.7317961 C213.800503,29.6431984 213.152151,28.8102688 212.282197,28.2329821 C211.412243,27.6556955 210.484853,27.3670565 209.5,27.3670565 C207.891406,27.3670565 206.520839,27.9855686 205.388258,29.2226114 C204.255676,30.4596542 203.689394,32.3811653 203.689394,34.9872021 L203.689394,35.7789056 C203.689394,38.3849424 204.255676,40.3064534 205.388258,41.5434962 C206.520839,42.7805391 207.891406,43.3990512 209.5,43.3990512 C210.55051,43.3990512 211.527142,43.0691781 212.429924,42.4094219 C213.332707,41.7496657 213.964645,40.8260209 214.325758,39.6384598 L219.890152,41.9146072 C219.06944,44.3886929 217.723494,46.2689697 215.852273,47.5554943 C213.981051,48.8420188 211.863648,49.4852714 209.5,49.4852714 Z M243.132576,27.2680936 L231.560606,27.2680936 L231.560606,32.8100177 L239.537879,32.8100177 L239.537879,38.5993491 L231.560606,38.5993491 L231.560606,43.4485327 L243.132576,43.4485327 L243.132576,49.2378641 L225.503788,49.2378641 L225.503788,21.5282436 L243.132576,21.4787621 L243.132576,27.2680936 Z" id="BINANCE"></path>
        </g>
    </g>
</svg>