<?xml version="1.0" encoding="UTF-8"?>
<svg width="320px" height="160px" viewBox="0 0 320 160" version="1.1" xmlns="http://www.w3.org/2000/svg" xmlns:xlink="http://www.w3.org/1999/xlink">
    <!-- Generator: Sketch 52.2 (67145) - http://www.bohemiancoding.com/sketch -->
    <title>BitBank</title>
    <desc>Created with Sketch.</desc>
    <defs>
        <polygon id="path-1" points="0 0.210684466 58.4603028 0.210684466 58.4603028 68.6648811 0 68.6648811"></polygon>
    </defs>
    <g id="BitBank" stroke="none" stroke-width="1" fill="none" fill-rule="evenodd">
        <g id="分组-2" transform="translate(52.000000, 45.000000)">
            <g id="分组">
                <path d="M29.2301848,27.6389883 C22.7174208,27.6389883 17.4452469,32.9285417 17.4452469,39.4627748 C17.4452469,45.9973427 22.7174208,51.2868961 29.2301848,51.2868961 C35.7429488,51.2868961 41.0154565,45.9973427 41.0154565,39.4627748 C40.9376693,32.9285417 35.6654953,27.6389883 29.2301848,27.6389883" id="Fill-1" fill="#FFFFFF"></path>
                <g transform="translate(0.000000, 0.124267)">
                    <mask id="mask-2" fill="white">
                        <use xlink:href="#path-1"></use>
                    </mask>
                    <g id="Clip-4"></g>
                    <path d="M29.2301848,10.0118665 C25.0433602,10.0118665 21.0892298,10.8676675 17.4452469,12.5012257 L17.4452469,22.5360364 C20.7790823,20.2024296 24.8106661,18.8019976 29.2301848,18.8019976 C40.5500683,18.8019976 49.6992531,28.059051 49.6992531,39.3385413 C49.6992531,50.6957403 40.5500683,59.87475 29.2301848,59.87475 C17.9103012,59.87475 8.76111646,50.6957403 8.76111646,39.3385413 L8.76111646,18.4908277 L8.76111646,0.21051699 L-0.000133540373,0.21051699 L-0.000133540373,39.3385413 C-0.000133540373,55.5187063 13.1031817,68.6648811 29.2301848,68.6648811 C45.3571879,68.6648811 58.4605031,55.5187063 58.4605031,39.3385413 C58.3827158,23.1583762 45.3571879,10.0118665 29.2301848,10.0118665" id="Fill-3" fill="#FFFFFF" mask="url(#mask-2)"></path>
                </g>
            </g>
            <path d="M81.6682842,28.5584179 C84.1342409,27.9976252 86.1973937,28.8552953 87.8578046,31.1314541 C89.5182154,33.4076129 90.3484084,36.2940028 90.3484084,39.7907105 C90.3484084,43.320406 89.4031392,46.1325745 87.5125723,48.2273003 C85.6220055,50.3220261 83.4437764,51.0559939 80.9778197,50.4292255 C79.4324869,50.0663596 78.1173297,49.0272592 77.0323087,47.3118932 L77.0323087,47.5098191 L76.7363954,50.5776699 L70.9660855,50.5776699 L70.9660855,21.1361981 L77.1309465,20.7898279 L77.0816276,32.8633054 C78.3968045,30.4222076 79.9256748,28.9872594 81.6682842,28.5584179 Z M80.0900798,45.481079 C81.2408596,45.5140668 82.1614696,45.0275039 82.8519375,44.0213758 C83.5424053,43.0152476 83.8876341,41.60504 83.8876341,39.7907105 C83.8876341,37.976381 83.5588448,36.4919519 82.9012564,35.3373786 C82.2436679,34.1828053 81.3230579,33.671502 80.1393986,33.8034532 C79.1858954,33.9024166 78.1666486,34.7270995 77.0816276,36.2775265 L77.0323087,43.5018204 C78.1830885,44.7883449 79.2023353,45.4480912 80.0900798,45.481079 Z M100.360143,26.3812335 C99.7025541,27.0080018 98.8477019,27.3213813 97.7955604,27.3213813 C96.7434189,27.3213813 95.8967864,26.999755 95.2556377,26.3564927 C94.614489,25.7132305 94.2939194,24.8473135 94.2939194,23.7587158 C94.2939194,22.7360937 94.6227087,21.8949172 95.2802971,21.2351611 C95.9378856,20.5754049 96.7762983,20.2455318 97.7955604,20.2455318 C98.8148225,20.2455318 99.661455,20.5754049 100.335483,21.2351611 C101.009511,21.8949172 101.34652,22.7360937 101.34652,23.7587158 C101.34652,24.8473135 101.017731,25.7214773 100.360143,26.3812335 Z M94.7871083,50.5776699 L94.7871083,29.5480472 L100.951969,29.201677 L100.951969,50.5776699 L94.7871083,50.5776699 Z M117.720391,34.7436011 L114.120112,34.7436011 L114.120112,40.1865622 C114.120112,41.6710136 114.259848,42.7595949 114.539323,43.4523389 C114.818798,44.1450829 115.402399,44.524437 116.290143,44.5904126 C116.618938,44.6234004 117.079243,44.6398941 117.671072,44.6398941 L117.671072,50.5281884 C116.684689,50.5941641 116.04355,50.6271514 115.747636,50.6271514 C113.084402,50.6271514 111.119886,50.0003924 109.854028,48.7468557 C108.588171,47.493319 107.955251,45.2996626 107.955251,42.1658208 L107.955251,34.7436011 L105.292031,34.7436011 L105.292031,28.8058252 L108.00457,28.8058252 L108.00457,22.9670124 L114.169431,22.6701236 L114.169431,28.8058252 L117.720391,28.8058252 L117.720391,34.7436011 Z M133.30516,28.5584179 C135.771116,27.9976252 137.834269,28.8552953 139.49468,31.1314541 C141.155091,33.4076129 141.985284,36.2940028 141.985284,39.7907105 C141.985284,43.320406 141.040015,46.1325745 139.149448,48.2273003 C137.258881,50.3220261 135.080652,51.0559939 132.614695,50.4292255 C131.069362,50.0663596 129.754205,49.0272592 128.669184,47.3118932 L128.669184,47.5098191 L128.373271,50.5776699 L122.602961,50.5776699 L122.602961,21.1361981 L128.767822,20.7898279 L128.718503,32.8633054 C130.03368,30.4222076 131.56255,28.9872594 133.30516,28.5584179 Z M131.726955,45.481079 C132.877735,45.5140668 133.798345,45.0275039 134.488813,44.0213758 C135.179281,43.0152476 135.524509,41.60504 135.524509,39.7907105 C135.524509,37.976381 135.19572,36.4919519 134.538132,35.3373786 C133.880543,34.1828053 132.959933,33.671502 131.776274,33.8034532 C130.822771,33.9024166 129.803524,34.7270995 128.718503,36.2775265 L128.669184,43.5018204 C129.819964,44.7883449 130.839211,45.4480912 131.726955,45.481079 Z M164.474696,40.5824139 C164.474696,42.0338775 164.639091,43.0729779 164.967885,43.6997462 C165.29668,44.3265146 165.937819,44.6398941 166.891322,44.6398941 L166.891322,50.2312996 C162.485479,51.2539217 159.756528,49.9509228 158.704387,46.3222639 C157.422089,48.8623251 155.811022,50.2807796 153.871136,50.5776699 C151.3723,50.9735236 149.292707,50.1488408 147.632296,48.1035966 C145.971886,46.0583525 145.141693,43.3698865 145.141693,40.0381178 C145.141693,36.7063492 146.029424,33.8611934 147.804912,31.5025651 C149.580401,29.1439368 151.717532,28.2120452 154.216368,28.7068623 C155.958977,29.0367404 157.356332,30.3232456 158.408473,32.5664166 L158.408473,31.0324912 L158.55643,28.5089365 L164.524015,28.8553067 L164.474696,40.5824139 Z M155.252065,45.3326346 C156.304206,45.2996468 157.323453,44.6728878 158.309836,43.4523389 L158.309836,42.9575243 L158.359154,36.0796006 C157.339892,34.8260639 156.320646,34.1333303 155.301383,34.0013791 C154.183483,33.9024157 153.271093,34.4302127 152.564185,35.584786 C151.857278,36.7393593 151.503829,38.2567757 151.503829,40.1370808 C151.503829,41.7204956 151.832618,42.9905071 152.490207,43.9471536 C153.147795,44.9038 154.068405,45.3656224 155.252065,45.3326346 Z M182.328134,28.5584179 C184.432417,28.2945155 186.18322,28.9212744 187.580595,30.4387136 C188.977971,31.9561528 189.676648,33.8859106 189.676648,36.228045 L189.676648,50.5776699 L183.511787,50.5776699 L183.511787,37.9598963 C183.511787,36.7063596 183.215877,35.724987 182.624047,35.0157491 C182.032218,34.3065112 181.193805,34.0178722 180.108784,34.1498235 C179.122401,34.2487869 178.168912,34.8425585 177.248288,35.9311562 L177.248288,50.5776699 L171.083427,50.5776699 L171.083427,28.8553067 L177.001694,28.5089365 L177.248288,32.2200463 C178.596345,30.042851 180.28961,28.8223204 182.328134,28.5584179 Z M208.763058,50.5776699 L203.831169,41.7204876 L201.315906,44.8378199 L201.315906,50.5776699 L195.151045,50.5776699 L195.151045,22.2247904 L201.315906,21.8784201 L201.315906,36.3270079 L207.579404,28.8058252 L214.188135,28.8058252 L207.480767,37.1681929 L214.977237,50.5776699 L208.763058,50.5776699 Z" id="bitbank" fill="#FFFFFF"></path>
        </g>
    </g>
</svg>