<?xml version="1.0" encoding="UTF-8"?>
<svg width="320px" height="160px" viewBox="0 0 320 160" version="1.1" xmlns="http://www.w3.org/2000/svg" xmlns:xlink="http://www.w3.org/1999/xlink">
    <!-- Generator: Sketch 52.2 (67145) - http://www.bohemiancoding.com/sketch -->
    <title>bitfinex</title>
    <desc>Created with Sketch.</desc>
    <g id="bitfinex" stroke="none" stroke-width="1" fill="none" fill-rule="evenodd">
        <g id="分组-2" transform="translate(35.000000, 47.000000)" fill="#FFFFFF">
            <g id="分组">
                <path d="M65.0443258,0.359854592 C64.8126836,0.26467602 40.4495327,-3.03573214 16.3650868,12.3768954 C1.40981308,21.9478138 -0.567156208,35.9553138 0.115086782,45.2891148 C35.126769,41.3964107 64.250267,1.45722704 65.0443258,0.359854592 M2.49325768,55.6436811 C5.53064085,58.8399566 22.2148865,74.1580689 48.4028037,56.3802372 C67.3390521,41.7277117 66.8660881,9.9606199 65.046996,0.367813776 C64.4131509,1.76365561 42.4178238,49.6209005 2.49325768,55.6436811" id="Fill-1"></path>
                <path d="M65.0443258,0.359854592 C64.8126836,0.26467602 40.4495327,-3.03573214 16.3650868,12.3768954 C1.40981308,21.9478138 -0.567156208,35.9553138 0.115086782,45.2891148 C35.126769,41.3964107 64.250267,1.45722704 65.0443258,0.359854592" id="Fill-3"></path>
            </g>
            <path d="M80.4405874,20.8928571 L93.2369596,20.8928571 C96.0153768,20.8928571 98.2068045,21.4534742 99.7721099,22.5747085 C101.220017,23.6299877 101.963538,25.0480192 101.963538,26.8288029 C101.963538,28.147902 101.572211,29.2691362 100.828691,30.1925056 C100.085171,31.04992 99.0285898,31.676492 97.6198149,32.1381767 C99.4590488,32.434974 100.828691,33.061546 101.767874,34.0178929 C102.667925,34.9412622 103.137517,36.2273838 103.137517,37.8103027 C103.137517,40.184681 102.159201,41.9324873 100.241702,43.0537215 C98.5981308,43.9770908 96.2501726,44.4387755 93.2760923,44.4387755 L80.4405874,44.4387755 L80.4405874,20.8928571 Z M85.1134846,23.877551 L85.1134846,30.5102041 L92.1090991,30.5102041 C94.0631813,30.5102041 95.4310389,30.217587 96.2517534,29.697379 C97.0333863,29.1446579 97.4632844,28.2668067 97.4632844,27.0638255 C97.4632844,25.9583834 97.0333863,25.1455582 96.2517534,24.6578631 C95.3919572,24.1376551 94.0631813,23.877551 92.1872623,23.877551 L85.1134846,23.877551 Z M85.1134846,33.8265306 L85.1134846,41.122449 L92.5993811,41.122449 C94.2972132,41.122449 95.6477616,40.8923975 96.6124389,40.4322945 C97.847226,39.8407336 98.4646195,38.9205277 98.4646195,37.6059478 C98.4646195,36.2585034 98.0015744,35.305433 97.1140712,34.713872 C96.1879809,34.1223111 94.7216713,33.8265306 92.7151423,33.8265306 L85.1134846,33.8265306 Z M107.142857,20.8928571 L111.815754,20.8928571 L111.815754,44.4387755 L107.142857,44.4387755 L107.142857,20.8928571 Z M115.153538,20.8928571 L137.850467,20.8928571 L137.850467,24.1906048 L128.771696,24.1906048 L128.771696,44.4387755 L124.23231,44.4387755 L124.23231,24.1906048 L115.153538,24.1906048 L115.153538,20.8928571 Z M141.188251,20.8928571 L160.213618,20.8928571 L160.213618,24.1906048 L145.759027,24.1906048 L145.759027,30.7201452 L159.393222,30.7201452 L159.393222,34.0178929 L145.759027,34.0178929 L145.759027,44.4387755 L141.188251,44.4387755 L141.188251,20.8928571 Z M163.88518,20.8928571 L168.558077,20.8928571 L168.558077,44.4387755 L163.88518,44.4387755 L163.88518,20.8928571 Z M173.898531,20.8928571 L178.450208,20.8928571 L192.183046,37.8762576 L192.338659,37.8762576 L192.338659,20.8928571 L196.929239,20.8928571 L196.929239,44.4387755 L192.494272,44.4387755 L178.605821,27.2245327 L178.450208,27.2245327 L178.450208,44.4387755 L173.898531,44.4387755 L173.898531,20.8928571 Z M202.269693,20.8928571 L222.302669,20.8928571 L222.302669,24.1906048 L206.820874,24.1906048 L206.820874,30.7201452 L221.369094,30.7201452 L221.369094,34.0178929 L206.820874,34.0178929 L206.820874,41.1410278 L222.963952,41.1410278 L222.963952,44.4387755 L202.269693,44.4387755 L202.269693,20.8928571 Z M225.253447,20.8928571 L230.800088,20.8928571 L237.316422,29.2031813 L243.832756,20.8928571 L249.379397,20.8928571 L240.031561,32.2700866 L250,44.4387755 L244.453359,44.4387755 L237.316422,35.3369919 L230.179485,44.4387755 L224.632844,44.4387755 L234.523707,32.2700866 L225.253447,20.8928571 Z" id="bitfinex"></path>
        </g>
    </g>
</svg>