<?xml version="1.0" encoding="UTF-8"?>
<svg width="320px" height="160px" viewBox="0 0 320 160" version="1.1" xmlns="http://www.w3.org/2000/svg" xmlns:xlink="http://www.w3.org/1999/xlink">
    <!-- Generator: Sketch 52.2 (67145) - http://www.bohemiancoding.com/sketch -->
    <title>bithumb</title>
    <desc>Created with Sketch.</desc>
    <g id="bithumb" stroke="none" stroke-width="1" fill="none" fill-rule="evenodd">
        <g id="分组" transform="translate(31.000000, 45.000000)" fill="#FFFFFF">
            <g id="all_icon_画板-1-副本-68">
                <path d="M20.64,68.6682692 L17.0080258,68.6682692 C12.4669504,68.7015181 8.12298577,66.8221087 5.0468129,63.4932692 C1.36254142,59.485571 0.00561280656,53.8714558 1.4547871,48.6317308 L5.34975484,34.3673077 L4.93362581,34.3673077 C3.38675973,34.3663457 1.93352002,33.6287284 1.02318828,32.3824965 C0.112856537,31.1362646 -0.144911942,29.5315348 0.329574194,28.0644231 L3.99483871,16.8054808 L10.1468903,16.7258654 L14.8974194,0.384807692 L26.319329,0.318461538 C28.0080034,0.306135695 29.6032544,1.08954141 30.6221421,2.43151361 C31.6410299,3.7734858 31.9637654,5.51625102 31.4926452,7.13221154 L28.8294194,16.7258654 L38.283871,16.7258654 C42.3961551,16.6907184 46.3323009,18.3868408 49.1232,21.3966346 C52.5154839,25.1352404 53.1180387,32.5726442 52.016129,37.5419712 L50.4181935,44.5812981 C46.8827613,58.305 33.7630452,68.6682692 20.64,68.6682692 Z M25.2673548,50.4230769 L25.6601806,50.3832692 C29.6783226,49.7198077 30.4040516,47.5900962 31.8055742,42.6075 L32.6245161,39.6949038 C33.3768774,37.0211538 31.3594839,34.6957212 28.5730839,34.6957212 L23.7826065,34.6957212 L20.8230968,45.2149038 C20.4626059,46.5315802 20.7764945,47.9407072 21.6621757,48.9817456 C22.5478569,50.0227841 23.8915266,50.5619675 25.2540387,50.4230769 L25.2673548,50.4230769 Z" id="形状" fill-rule="nonzero"></path>
                <path d="M32.1251613,36.4903846 L32.1418065,36.5169231 C32.2072851,36.611869 32.2673041,36.7104409 32.3215742,36.8121635 L32.3615226,36.8884615 C32.4048,36.9747115 32.4480774,37.0642788 32.4846968,37.1538462 C32.4846968,37.1903365 32.511329,37.2268269 32.5279742,37.2633173 C32.5446194,37.2998077 32.5845677,37.4291827 32.6112,37.5121154 C32.6378323,37.5950481 32.6378323,37.6016827 32.6478194,37.6448077 C32.6578065,37.6879327 32.6877677,37.8073558 32.7010839,37.8902885 C32.7144,37.9732212 32.7210581,37.9864904 32.7277161,38.0395673 C32.7343742,38.0926442 32.7476903,38.1987981 32.7543484,38.2817308 L32.7543484,38.4409615 C32.7543484,38.5238942 32.7543484,38.6101442 32.7543484,38.6963942 C32.7543484,38.7826442 32.7543484,38.7992308 32.7543484,38.8523077 C32.7543484,38.9053846 32.7343742,39.0413942 32.7210581,39.1342788 C32.7077419,39.2271635 32.7210581,39.2271635 32.7044129,39.2736058 C32.6794648,39.4177751 32.6472433,39.5606004 32.607871,39.7015385 L31.788929,42.6141346 C31.5092903,43.6093269 31.2529548,44.4884135 30.9966194,45.2679808 L50.2151226,45.2679808 C50.2817032,45.0424038 50.3449548,44.8168269 50.4048774,44.5879327 L52.0028129,37.5486058 C52.0449806,37.3539904 52.084929,37.1549519 52.1226581,36.9514904 C52.1226581,36.9050481 52.1226581,36.8586058 52.1492903,36.8088462 C52.1825806,36.6230769 52.215871,36.4373077 52.2425032,36.2449038 L52.2425032,36.1951442 C52.3090839,35.7373558 52.3656774,35.2662981 52.4056258,34.7852885 L52.4355871,34.7852885 C52.4722065,34.2876923 52.4855226,33.7900962 52.4888516,33.2659615 C52.4888516,32.7119712 52.4888516,32.1480288 52.4722065,31.5840865 C52.4489032,31.0234615 52.4056258,30.4562019 52.3423742,29.8955769 C52.1731895,28.2531332 51.8019918,26.6376484 51.2371355,25.0854808 L51.2371355,25.0523077 C51.1572387,24.8499519 51.0773419,24.6475962 50.9941161,24.451875 L50.9741419,24.40875 C50.874271,24.1732212 50.7644129,23.9443269 50.6412387,23.71875 C50.634824,23.702631 50.6270274,23.6870928 50.6179355,23.6723077 C50.5180645,23.4732692 50.4148645,23.2808654 50.3050065,23.0917788 C50.3039136,23.0840768 50.3039136,23.0762598 50.3050065,23.0685577 C50.1873806,22.8695192 50.0675355,22.6771154 49.945471,22.4913462 C49.932526,22.4772673 49.9213472,22.4616721 49.9121806,22.4449038 C49.6699254,22.0852508 49.4029641,21.7427486 49.1132129,21.4198558 C48.9600774,21.2506731 48.8002839,21.088125 48.6404903,20.9288942 L48.4973419,20.7895673 C48.3741677,20.6701442 48.2476645,20.5540385 48.1211613,20.4379327 C48.0745548,20.398125 48.0279484,20.3516827 47.9780129,20.311875 C47.8148903,20.1692308 47.6451097,20.0299038 47.4819871,19.8972115 L47.3088774,19.7645192 L46.956,19.4991346 L46.7196387,19.3332692 L46.3867355,19.1176442 L45.9672774,18.8588942 L45.6643355,18.6797596 C45.5511484,18.6134135 45.4346323,18.5537019 45.3314323,18.4906731 L45.1250323,18.3845192 C44.998529,18.3214904 44.8720258,18.2551442 44.7421935,18.1954327 L44.7222194,18.1954327 C44.4126194,18.0494712 44.0963613,17.9134615 43.7767742,17.7907212 L43.7268387,17.7675 L43.237471,17.5916827 L43.2108387,17.5916827 C42.6984078,17.4168843 42.1772781,17.2685145 41.6495226,17.1471635 C40.5468465,16.882478 39.4179844,16.7411718 38.283871,16.7258654 L10.1568774,16.7258654 L3.99483871,16.8054808 L0.332903226,28.0544712 C-0.145130687,29.5689155 0.0999318343,31.2181542 0.997865391,32.5295794 C1.89579895,33.8410046 3.34749536,34.6698696 4.93695484,34.7786538 L29.3953548,34.7786538 C30.4997611,34.9589143 31.4842122,35.5762163 32.1251613,36.4903846 Z" id="路径"></path>
                <polyline id="路径" points="10.2767226 16.2216346 5.17331613 34.9544712 23.6261419 35.2696154 28.8194323 16.6827404"></polyline>
            </g>
            <path d="M74.2219947,57.7211538 C71.8874917,57.7211538 69.6487109,56.5102548 68.0116097,54.321322 L67.8715395,54.321322 L66.6235506,57.0691313 L61.2541935,57.0691313 L69.9242352,19.9038462 L76.7409841,19.9038462 L74.5571766,29.265027 L73.4392822,33.4566005 C75.9282334,31.593679 78.8362241,30.3362069 81.4041775,30.3362069 C87.847406,30.3362069 90.4949684,35.5989603 88.6371023,43.56295 C86.5402125,52.5515465 79.9648723,57.7211538 74.2219947,57.7211538 Z M73.8769158,52.4134615 C77.0474702,52.4134615 80.1012979,49.6886672 81.4249686,43.9572032 C82.5858929,38.9304274 81.6407516,36.1586538 78.050565,36.1586538 C76.2787847,36.1586538 74.487362,37.0512589 72.2458152,38.8834482 L69.5767742,50.4403346 C70.8723346,51.8966902 72.4781418,52.4134615 73.8769158,52.4134615 Z M91.5483871,57.3894231 L97.5144101,31.5144231 L104.19871,31.5144231 L98.2326867,57.3894231 L91.5483871,57.3894231 Z M101.857544,27.2019231 C99.4936752,27.2019231 98.1454242,25.5805889 98.641565,23.3870192 C99.159277,21.0980769 101.219382,19.5721154 103.583251,19.5721154 C105.900769,19.5721154 107.270592,21.0980769 106.75288,23.3870192 C106.256739,25.5805889 104.175063,27.2019231 101.857544,27.2019231 Z M115.185771,57.7211538 C108.957561,57.7211538 107.484644,53.8338557 108.857662,48.0029085 L111.560109,36.5261236 L107.860645,36.5261236 L109.048414,31.4818915 L113.151957,31.15795 L115.582589,24.2163462 L121.342513,24.2163462 L119.707968,31.15795 L126.170323,31.15795 L124.906275,36.5261236 L118.443921,36.5261236 L115.741474,48.0029085 C115.044068,50.9646595 115.934704,52.3529802 118.276137,52.3529802 C119.119052,52.3529802 120.214665,52.0753161 120.982476,51.7976519 L120.940389,56.7493293 C119.426559,57.2121029 117.480375,57.7211538 115.185771,57.7211538 Z M125.171613,57.3894231 L133.877829,20.2355769 L140.723019,20.2355769 L138.5301,29.5938765 L137.103236,34.4825405 C139.671277,32.5270749 142.686347,30.6647267 146.249596,30.6647267 C151.922665,30.6647267 153.444235,34.5756579 151.905918,41.1404352 L148.098313,57.3894231 L141.206237,57.3894231 L144.817462,41.9784919 C145.755726,37.9744433 144.968701,36.5311235 142.390033,36.5311235 C140.233329,36.5311235 138.633647,37.555415 136.217171,39.4643219 L132.016803,57.3894231 L125.171613,57.3894231 Z M162.673901,57.7211538 C157.019708,57.7211538 155.490564,53.8374765 157.025574,47.3646811 L160.863099,31.1826923 L167.789486,31.1826923 L164.160283,46.4862302 C163.206384,50.5086103 164.008292,51.8956379 166.552679,51.8956379 C168.720119,51.8956379 170.352955,50.9709528 172.691667,48.6592402 L176.836194,31.1826923 L183.762581,31.1826923 L177.62254,57.0738743 L171.968347,57.0738743 L172.327195,53.375134 L172.138722,53.375134 C169.252076,56.0104865 166.302008,57.7211538 162.673901,57.7211538 Z M184.76129,57.3894231 L190.850122,31.1746013 L196.457159,31.1746013 L196.108943,34.6855149 L196.295844,34.6855149 C199.024707,32.391718 201.889339,30.5192308 205.300286,30.5192308 C209.03831,30.5192308 210.842975,32.2044693 211.430437,35.1068246 C214.400565,32.5789668 217.402139,30.5192308 220.813087,30.5192308 C226.373398,30.5192308 228.029965,34.451454 226.496884,41.0519717 L222.702236,57.3894231 L215.833617,57.3894231 L219.432552,41.8945909 C220.367622,37.8687433 219.53655,36.4175657 217.060109,36.4175657 C215.564899,36.4175657 213.654457,37.4006215 211.328783,39.3667331 L207.14271,57.3894231 L200.274091,57.3894231 L203.873026,41.8945909 C204.808096,37.8687433 203.977024,36.4175657 201.500583,36.4175657 C200.005373,36.4175657 198.094931,37.4006215 195.769257,39.3667331 L191.583185,57.3894231 L184.76129,57.3894231 Z M243.00393,57.7211538 C240.669427,57.7211538 238.430646,56.5102548 236.793545,54.321322 L236.653475,54.321322 L235.405486,57.0691313 L230.036129,57.0691313 L238.706171,19.9038462 L245.52292,19.9038462 L243.339112,29.265027 L242.221218,33.4566005 C244.710169,31.593679 247.61816,30.3362069 250.186113,30.3362069 C256.629341,30.3362069 259.276904,35.5989603 257.419038,43.56295 C255.322148,52.5515465 248.746808,57.7211538 243.00393,57.7211538 Z M242.658851,52.4134615 C245.829406,52.4134615 248.883233,49.6886672 250.206904,43.9572032 C251.367828,38.9304274 250.422687,36.1586538 246.832501,36.1586538 C245.06072,36.1586538 243.269298,37.0512589 241.027751,38.8834482 L238.35871,50.4403346 C239.65427,51.8966902 241.260077,52.4134615 242.658851,52.4134615 Z" id="Bithumb"></path>
        </g>
    </g>
</svg>