<?xml version="1.0" encoding="UTF-8"?>
<svg width="320px" height="160px" viewBox="0 0 320 160" version="1.1" xmlns="http://www.w3.org/2000/svg" xmlns:xlink="http://www.w3.org/1999/xlink">
    <!-- Generator: Sketch 52.2 (67145) - http://www.bohemiancoding.com/sketch -->
    <title>BitStamp</title>
    <desc>Created with Sketch.</desc>
    <defs>
        <polygon id="path-1" points="0 67.83 45.0118922 67.83 45.0118922 0 0 0"></polygon>
    </defs>
    <g id="BitStamp" stroke="none" stroke-width="1" fill="none" fill-rule="evenodd">
        <g id="分组-2" transform="translate(53.000000, 46.000000)">
            <g id="分组">
                <path d="M34.984418,34.9295 C34.984418,39.0845 31.6216805,42.4525 27.4728398,42.4525 L15.3534727,42.4525 C15.1601086,42.4525 15.0030211,42.2958333 15.0030211,42.1021667 L15.0030211,27.7568333 C15.0030211,27.5628333 15.1601086,27.4061667 15.3534727,27.4061667 L27.4728398,27.4061667 C31.6216805,27.4061667 34.984418,30.7741667 34.984418,34.9295 Z M15.0030211,6.72716667 L26.8917492,6.72716667 C30.8465602,6.72716667 34.0528758,9.93816667 34.0528758,13.8995 C34.0528758,17.8608333 30.8465602,21.0721667 26.8917492,21.0721667 L15.0030211,21.0721667 L15.0030211,6.72716667 Z M35.2876102,23.8558333 C39.7616086,21.9858333 42.9070195,17.5635 42.9070195,12.4048333 C42.9070195,5.55383333 37.3620305,0.000166666667 30.5217352,0.000166666667 L0.569275781,0.000166666667 C0.392219531,0.000166666667 0.248777344,0.143833333 0.248777344,0.321166667 L0.248777344,6.72716667 L0.647819531,6.72716667 C4.60296328,6.72716667 7.80927891,9.93816667 7.80927891,13.8995 C7.80927891,17.8608333 4.60296328,21.0721667 0.647819531,21.0721667 L0.248777344,21.0721667 L0.248777344,23.8868333 L0.248777344,24.4881667 L0.248777344,27.4061667 L0.607216406,27.4061667 C4.75572422,27.4061667 8.11879453,30.7741667 8.11879453,34.9295 C8.11879453,39.0845 4.75572422,42.4525 0.607216406,42.4525 L0.248777344,42.4525 L0.248777344,49.2781667 C0.248777344,49.4555 0.392219531,49.5991667 0.569275781,49.5991667 L32.6264414,49.5991667 C39.4667367,49.5991667 45.0117258,44.0458333 45.0117258,37.1948333 L45.0117258,35.9705 C45.0117258,30.0348333 40.8485742,25.0758333 35.2876102,23.8558333 Z" id="Fill-1" fill="#FFFFFF"></path>
                <mask id="mask-2" fill="white">
                    <use xlink:href="#path-1"></use>
                </mask>
                <g id="Clip-4"></g>
                <polygon id="Fill-3" fill="#FFFFFF" mask="url(#mask-2)" points="-0.0003328125 67.83 44.7759281 67.83 44.7759281 60.3556667 -0.0003328125 60.3556667"></polygon>
            </g>
            <path d="M65.5973438,45.6666667 L65.5973438,21 L73.75125,21 C78.81,21 82.670625,22.4666667 82.670625,27.0666667 C82.670625,29.3333333 81.4059375,31.6666667 79.3092188,32.4 L79.3092188,32.5666667 C81.9717188,33.2 83.9353125,35.0666667 83.9353125,38.4 C83.9353125,43.3666667 79.8084375,45.6666667 74.3835938,45.6666667 L65.5973438,45.6666667 Z M70.5229688,31.0333333 L73.3851563,31.0333333 C76.5135938,31.0333333 77.878125,29.7666667 77.878125,27.8 C77.878125,25.6333333 76.41375,24.7666667 73.4517188,24.7666667 L70.5229688,24.7666667 L70.5229688,31.0333333 Z M70.5229688,41.8666667 L73.9509375,41.8666667 C77.3123438,41.8666667 79.1428125,40.6666667 79.1428125,38.1 C79.1428125,35.7 77.345625,34.7 73.9509375,34.7 L70.5229688,34.7 L70.5229688,41.8666667 Z M87.8625,45.6666667 L87.8625,27 L92.7215625,27 L92.7215625,45.6666667 L87.8625,45.6666667 Z M90.3253125,24 C88.6279688,24 87.3965625,22.8666667 87.3965625,21.3333333 C87.3965625,19.7333333 88.6279688,18.6666667 90.3253125,18.6666667 C91.989375,18.6666667 93.2207813,19.7333333 93.2207813,21.3333333 C93.2207813,22.8666667 91.989375,24 90.3253125,24 Z M104.802656,46.1333333 C100.37625,46.1333333 98.6789063,43.3333333 98.6789063,39.1333333 L98.6789063,30.8666667 L96.0496875,30.8666667 L96.0496875,27.2333333 L98.911875,27 L99.4776563,22 L103.57125,22 L103.57125,27 L108.164063,27 L108.164063,30.8666667 L103.57125,30.8666667 L103.57125,39.1333333 C103.57125,41.2666667 104.436563,42.2666667 106.100625,42.2666667 C106.699688,42.2666667 107.431875,42.0666667 107.931094,41.8666667 L108.729844,45.4333333 C107.731406,45.7666667 106.433438,46.1333333 104.802656,46.1333333 Z M117.283125,46.1333333 C114.787031,46.1333333 112.024687,45.0333333 110.194219,43.5 L112.424062,40.4333333 C114.088125,41.7333333 115.685625,42.4666667 117.41625,42.4666667 C119.28,42.4666667 120.112031,41.6666667 120.112031,40.5 C120.112031,39.1 118.181719,38.4666667 116.218125,37.7 C113.855156,36.8 111.126094,35.3666667 111.126094,32.2666667 C111.126094,28.9 113.855156,26.5333333 118.048594,26.5333333 C120.777656,26.5333333 122.841094,27.6666667 124.405313,28.8333333 L122.20875,31.8 C120.8775,30.8666667 119.579531,30.2 118.181719,30.2 C116.517656,30.2 115.718906,30.9333333 115.718906,32 C115.718906,33.3666667 117.549375,33.8666667 119.512969,34.6 C121.975781,35.5333333 124.704844,36.7666667 124.704844,40.2333333 C124.704844,43.5 122.142188,46.1333333 117.283125,46.1333333 Z M135.255,46.1333333 C130.828594,46.1333333 129.13125,43.3333333 129.13125,39.1333333 L129.13125,30.8666667 L126.502031,30.8666667 L126.502031,27.2333333 L129.364219,27 L129.93,22 L134.023594,22 L134.023594,27 L138.616406,27 L138.616406,30.8666667 L134.023594,30.8666667 L134.023594,39.1333333 C134.023594,41.2666667 134.888906,42.2666667 136.552969,42.2666667 C137.152031,42.2666667 137.884219,42.0666667 138.383438,41.8666667 L139.182188,45.4333333 C138.18375,45.7666667 136.885781,46.1333333 135.255,46.1333333 Z M147.003281,46.1333333 C143.675156,46.1333333 141.478594,43.7666667 141.478594,40.6 C141.478594,36.6 144.706875,34.5 152.195156,33.7 C152.128594,31.8666667 151.329844,30.4666667 149.033437,30.4666667 C147.302813,30.4666667 145.63875,31.2333333 143.908125,32.2333333 L142.144219,29 C144.340781,27.6333333 147.003281,26.5333333 149.932031,26.5333333 C154.657969,26.5333333 157.0875,29.3666667 157.0875,34.7666667 L157.0875,45.6666667 L153.09375,45.6666667 L152.727656,43.6666667 L152.627813,43.6666667 C150.997031,45.0666667 149.133281,46.1333333 147.003281,46.1333333 Z M148.600781,42.3 C149.998594,42.3 151.030313,41.6333333 152.195156,40.4666667 L152.195156,36.7 C147.668906,37.3 146.137969,38.5333333 146.137969,40.2 C146.137969,41.6666667 147.169688,42.3 148.600781,42.3 Z M162.079688,45.6666667 L162.079688,27 L166.073438,27 L166.40625,29.5 L166.539375,29.5 C168.103594,27.8666667 169.834219,26.5333333 172.26375,26.5333333 C174.92625,26.5333333 176.490469,27.7333333 177.389062,29.8 C179.086406,28 180.883594,26.5333333 183.313125,26.5333333 C187.273594,26.5333333 189.104062,29.3333333 189.104062,34.0333333 L189.104062,45.6666667 L184.211719,45.6666667 L184.211719,34.6333333 C184.211719,31.7666667 183.379687,30.7333333 181.615781,30.7333333 C180.550781,30.7333333 179.352656,31.4333333 178.021406,32.8333333 L178.021406,45.6666667 L173.129063,45.6666667 L173.129063,34.6333333 C173.129063,31.7666667 172.297031,30.7333333 170.533125,30.7333333 C169.468125,30.7333333 168.27,31.4333333 166.93875,32.8333333 L166.93875,45.6666667 L162.079688,45.6666667 Z M194.162813,52.8333333 L194.162813,27 L198.156563,27 L198.489375,28.9333333 L198.6225,28.9333333 C200.186719,27.6 202.117031,26.5333333 204.113906,26.5333333 C208.706719,26.5333333 211.435781,30.3 211.435781,36.0333333 C211.435781,42.4333333 207.608437,46.1333333 203.514844,46.1333333 C201.884063,46.1333333 200.319844,45.4 198.88875,44.1 L199.021875,47.1666667 L199.021875,52.8333333 L194.162813,52.8333333 Z M202.416562,42.1 C204.679687,42.1 206.410312,40.1666667 206.410312,36.1 C206.410312,32.5333333 205.27875,30.5666667 202.716094,30.5666667 C201.451406,30.5666667 200.319844,31.2 199.021875,32.5 L199.021875,40.7 C200.22,41.7333333 201.418125,42.1 202.416562,42.1 Z" id="Bitstamp" fill="#FFFFFF"></path>
        </g>
    </g>
</svg>