<?xml version="1.0" encoding="UTF-8"?>
<svg width="320px" height="160px" viewBox="0 0 320 160" version="1.1" xmlns="http://www.w3.org/2000/svg" xmlns:xlink="http://www.w3.org/1999/xlink">
    <!-- Generator: Sketch 52.2 (67145) - http://www.bohemiancoding.com/sketch -->
    <title>CoinBene</title>
    <desc>Created with Sketch.</desc>
    <defs>
        <polygon id="path-1" points="1.77151849e-05 0.220153525 68.200445 0.220153525 68.200445 68.6649359 1.77151849e-05 68.6649359"></polygon>
    </defs>
    <g id="CoinBene" stroke="none" stroke-width="1" fill="none" fill-rule="evenodd">
        <g id="分组-2" transform="translate(29.000000, 45.000000)">
            <g id="分组">
                <path d="M61.7428248,51.0241937 L30.5501067,66.719349 C25.8942281,69.0623345 20.2277401,67.1735432 17.8934594,62.5009704 L2.25437977,31.1967422 C-0.079900885,26.5238345 1.80180834,20.8373636 6.45768698,18.4947131 L37.6500713,2.79922282 C42.3059499,0.45657233 47.9724379,2.34536359 50.3067186,7.01760146 L65.946132,38.3221646 C68.2804126,42.9944024 66.3983697,48.6815432 61.7428248,51.0241937 Z M41.2694078,33.5317893 L41.2694078,44.8859738 L27.0888364,44.8859738 L27.0888364,24.8006097 L41.2694078,24.8006097 L41.2694078,29.9990563 L47.3036936,26.5966194 L47.3036936,24.467333 C47.3036936,21.3067311 44.7508035,18.7446874 41.6018276,18.7446874 L26.7897922,18.7446874 C23.6408162,18.7446874 21.0879262,21.3067311 21.0879262,24.467333 L21.0879262,45.2534155 C21.0879262,48.4140175 23.6408162,50.9757262 26.7897922,50.9757262 L41.6018276,50.9757262 C44.7508035,50.9757262 47.3036936,48.4140175 47.3036936,45.2534155 L47.3036936,30.1293524 L41.2694078,33.5317893 Z" id="合并形状" fill="#FFFFFF"></path>
                <g transform="translate(0.000000, 0.114888)">
                    <mask id="mask-2" fill="white">
                        <use xlink:href="#path-1"></use>
                    </mask>
                    <g id="Clip-4"></g>
                    <path d="M26.9026346,65.7789728 L2.65001264,40.6013417 C-0.969557522,36.8435214 -0.86876359,30.8522447 2.8759646,27.2193612 L27.9633072,2.87977864 C31.7077016,-0.753104854 37.6779064,-0.651614563 41.2978104,3.10654078 L65.5500986,28.2838369 C69.1703363,32.0413223 69.0692086,38.032934 65.3244804,41.6661524 L40.2371378,66.0054 C36.4924096,69.6379485 30.5225386,69.5367932 26.9026346,65.7789728 Z M41.2694078,33.416901 L41.2694078,44.7710854 L27.0888364,44.7710854 L27.0888364,24.6857214 L41.2694078,24.6857214 L41.2694078,29.884168 L47.3036936,26.4817311 L47.3036936,24.3524447 C47.3036936,21.1918427 44.7508035,18.629799 41.6018276,18.629799 L26.7897922,18.629799 C23.6408162,18.629799 21.0879262,21.1918427 21.0879262,24.3524447 L21.0879262,45.1385272 C21.0879262,48.2991291 23.6408162,50.8608379 26.7897922,50.8608379 L41.6018276,50.8608379 C44.7508035,50.8608379 47.3036936,48.2991291 47.3036936,45.1385272 L47.3036936,30.0144641 L41.2694078,33.416901 Z" id="合并形状" fill-opacity="0.3" fill="#FFFFFF" mask="url(#mask-2)"></path>
                </g>
            </g>
            <path d="M90.0737295,43.8484951 C85.7516056,43.8484951 82.4340834,40.6128641 82.4340834,34.962233 C82.4340834,29.3350485 85.8450569,25.9587379 90.1905436,25.9587379 C92.3399241,25.9587379 94.022048,26.9903883 95.0733755,28.1392718 L93.6015171,29.8743204 C92.7137295,28.9599029 91.6390392,28.3268447 90.2372693,28.3268447 C87.2701896,28.3268447 85.2142604,30.8121845 85.2142604,34.8684466 C85.2142604,38.9716019 87.1300126,41.4803883 90.1671808,41.4803883 C91.7324905,41.4803883 92.9473578,40.7769903 93.9753224,39.6515534 L95.423818,41.3631553 C94.0454109,42.9575243 92.2931985,43.8484951 90.0737295,43.8484951 Z M103.367181,43.8484951 C100.189836,43.8484951 97.3162073,41.3866019 97.3162073,37.1193204 C97.3162073,32.8051456 100.189836,30.3198058 103.367181,30.3198058 C106.544526,30.3198058 109.418154,32.8051456 109.418154,37.1193204 C109.418154,41.3866019 106.544526,43.8484951 103.367181,43.8484951 Z M103.367181,41.6445146 C105.399747,41.6445146 106.66134,39.8391262 106.66134,37.1193204 C106.66134,34.376068 105.399747,32.547233 103.367181,32.547233 C101.357977,32.547233 100.096384,34.376068 100.096384,37.1193204 C100.096384,39.8391262 101.357977,41.6445146 103.367181,41.6445146 Z M112.572137,43.5436893 L112.572137,30.6480583 L115.235499,30.6480583 L115.235499,43.5436893 L112.572137,43.5436893 Z M113.903818,28.2330583 C112.922579,28.2330583 112.198331,27.5765534 112.198331,26.6386893 C112.198331,25.6773786 112.922579,25.0443204 113.903818,25.0443204 C114.885057,25.0443204 115.632668,25.6773786 115.632668,26.6386893 C115.632668,27.5765534 114.885057,28.2330583 113.903818,28.2330583 Z M119.277269,43.5436893 L119.277269,30.6480583 L121.473375,30.6480583 L121.683641,32.43 L121.753729,32.43 C122.945234,31.2811165 124.253552,30.3198058 126.005765,30.3198058 C128.739216,30.3198058 129.954083,32.1486408 129.954083,35.431165 L129.954083,43.5436893 L127.267358,43.5436893 L127.267358,35.7594175 C127.267358,33.5319903 126.613198,32.6410194 125.094614,32.6410194 C123.90311,32.6410194 123.085411,33.2506311 121.940632,34.3995146 L121.940632,43.5436893 L119.277269,43.5436893 Z M134.089305,43.5436893 L134.089305,26.2869903 L139.41603,26.2869903 C142.943818,26.2869903 145.490367,27.4124272 145.490367,30.5308252 C145.490367,32.1720874 144.579216,33.7430097 143.037269,34.258835 L143.037269,34.376068 C144.999747,34.7981068 146.42488,36.1345631 146.42488,38.4792233 C146.42488,41.9024272 143.644703,43.5436893 139.836561,43.5436893 L134.089305,43.5436893 Z M136.799393,33.4850971 L139.112314,33.4850971 C141.728951,33.4850971 142.827004,32.5003398 142.827004,30.8825243 C142.827004,29.0771359 141.612137,28.3971845 139.182402,28.3971845 L136.799393,28.3971845 L136.799393,33.4850971 Z M136.799393,41.4100485 L139.532845,41.4100485 C142.21957,41.4100485 143.761517,40.4487379 143.761517,38.3385437 C143.761517,36.3924757 142.266296,35.5483981 139.532845,35.5483981 L136.799393,35.5483981 L136.799393,41.4100485 Z M154.788774,43.8484951 C151.307712,43.8484951 148.527535,41.3631553 148.527535,37.1193204 C148.527535,32.9223786 151.3778,30.3198058 154.391606,30.3198058 C157.802579,30.3198058 159.62488,32.781699 159.62488,36.4393689 C159.62488,36.9551942 159.578154,37.494466 159.508066,37.7992718 L151.167535,37.7992718 C151.3778,40.261165 152.919747,41.738301 155.139216,41.738301 C156.283995,41.738301 157.265234,41.3866019 158.199747,40.7769903 L159.13426,42.4885922 C157.942756,43.2857767 156.470898,43.8484951 154.788774,43.8484951 Z M151.144172,35.9469903 L157.31196,35.9469903 C157.31196,33.7195631 156.307358,32.43 154.438331,32.43 C152.826296,32.43 151.401163,33.6726699 151.144172,35.9469903 Z M162.638685,43.5436893 L162.638685,30.6480583 L164.834791,30.6480583 L165.045057,32.43 L165.115145,32.43 C166.30665,31.2811165 167.614968,30.3198058 169.367181,30.3198058 C172.100632,30.3198058 173.315499,32.1486408 173.315499,35.431165 L173.315499,43.5436893 L170.628774,43.5436893 L170.628774,35.7594175 C170.628774,33.5319903 169.974614,32.6410194 168.45603,32.6410194 C167.264526,32.6410194 166.446827,33.2506311 165.302048,34.3995146 L165.302048,43.5436893 L162.638685,43.5436893 Z M182.567181,43.8484951 C179.086119,43.8484951 176.305942,41.3631553 176.305942,37.1193204 C176.305942,32.9223786 179.156207,30.3198058 182.170013,30.3198058 C185.580986,30.3198058 187.403287,32.781699 187.403287,36.4393689 C187.403287,36.9551942 187.356561,37.494466 187.286473,37.7992718 L178.945942,37.7992718 C179.156207,40.261165 180.698154,41.738301 182.917623,41.738301 C184.062402,41.738301 185.043641,41.3866019 185.978154,40.7769903 L186.912668,42.4885922 C185.721163,43.2857767 184.249305,43.8484951 182.567181,43.8484951 Z M178.922579,35.9469903 L185.090367,35.9469903 C185.090367,33.7195631 184.085765,32.43 182.216738,32.43 C180.604703,32.43 179.17957,33.6726699 178.922579,35.9469903 Z M204.34134,29.1709223 L204.34134,27.5296602 L200.696738,27.5296602 L200.696738,25.6773786 L204.34134,25.6773786 L204.34134,23.8954369 L206.350544,23.8954369 L206.350544,25.6773786 L209.925057,25.6773786 L209.925057,23.8954369 L211.957623,23.8954369 L211.957623,25.6773786 L215.648951,25.6773786 L215.648951,27.5296602 L211.957623,27.5296602 L211.957623,29.1709223 L209.925057,29.1709223 L209.925057,27.5296602 L206.350544,27.5296602 L206.350544,29.1709223 L204.34134,29.1709223 Z M200.650013,26.9200485 L199.248243,28.5144175 C198.500632,27.7641262 196.958685,26.6152427 195.743818,25.8649515 L197.075499,24.4112621 C198.290367,25.0912136 199.855676,26.1463107 200.650013,26.9200485 Z M199.528597,32.9927184 L198.196915,34.6808738 C197.425942,33.9305825 195.860632,32.898932 194.599039,32.2189806 L195.883995,30.7183981 C197.098862,31.3045631 198.73426,32.312767 199.528597,32.9927184 Z M197.005411,44.9035922 L195.066296,43.4967961 C196.140986,41.7851942 197.65957,38.8778155 198.804349,36.2752427 L200.486473,37.6351456 C199.458508,40.026699 198.173552,42.7465049 197.005411,44.9035922 Z M207.14488,33.4382039 L209.527889,33.4382039 C209.551252,32.8520388 209.574614,32.2424272 209.574614,31.6093689 L207.168243,31.6093689 C207.168243,32.2424272 207.14488,32.8520388 207.14488,33.4382039 Z M203.126473,35.3373786 L203.126473,41.0349029 C204.50488,39.6515534 205.065588,37.7523786 205.299216,35.3373786 L203.126473,35.3373786 Z M215.835853,31.6093689 L211.280101,31.6093689 C211.280101,32.2424272 211.256738,32.8520388 211.233375,33.4382039 L215.275145,33.4382039 L215.275145,43.4264563 C215.275145,44.3643204 215.06488,44.739466 214.434083,44.9973786 C213.803287,45.2552913 212.798685,45.2552913 211.303464,45.2552913 C211.210013,44.7863592 210.953021,44.2001942 210.742756,43.7781553 C211.700632,43.8250485 212.635145,43.8250485 212.868774,43.8016019 C213.195853,43.8016019 213.289305,43.7078155 213.289305,43.4264563 L213.289305,35.3373786 L211.116561,35.3373786 C211.069836,35.8766505 210.999747,36.3455825 210.929659,36.8379612 C211.794083,37.9868447 212.75196,39.4639806 213.149128,40.4018447 L211.723995,41.5507282 C211.490367,40.8707767 210.999747,39.9798058 210.462402,39.1357282 C210.065234,40.5425243 209.481163,41.738301 208.616738,42.7699515 C208.313021,42.5120388 207.542048,41.9493204 207.098154,41.7148544 C208.523287,40.1673786 209.154083,38.0337379 209.411075,35.3373786 L207.028066,35.3373786 C206.957977,35.9469903 206.887889,36.5097087 206.794437,37.0489806 C207.495322,37.7054854 208.21957,38.5026699 208.54665,39.0653883 L207.378508,40.3080583 C207.14488,39.909466 206.771075,39.4170874 206.373906,38.9247087 C205.976738,40.2142718 205.392668,41.3397087 204.551606,42.2775728 C204.271252,41.972767 203.570367,41.3631553 203.126473,41.0817961 L203.126473,45.2787379 L201.047181,45.2787379 L201.047181,33.4382039 L205.392668,33.4382039 C205.41603,32.8520388 205.41603,32.2424272 205.41603,31.6093689 L200.509836,31.6093689 L200.509836,29.8039806 L215.835853,29.8039806 L215.835853,31.6093689 Z M237.049305,30.9997573 L237.049305,40.026699 C237.049305,41.1755825 236.815676,41.8320874 235.974614,42.1603398 C235.156915,42.5354854 233.895322,42.5823786 232.073021,42.558932 C231.97957,41.9493204 231.629128,40.9645631 231.348774,40.3783981 C232.633729,40.4252913 233.918685,40.4252913 234.292491,40.4018447 C234.666296,40.3783981 234.78311,40.2846117 234.78311,39.9798058 L234.78311,33.1333981 L229.736738,33.1333981 L229.736738,45.3725243 L227.493906,45.3725243 L227.493906,33.1333981 L222.681163,33.1333981 L222.681163,42.7465049 L220.461694,42.7465049 L220.461694,30.9997573 L227.493906,30.9997573 L227.493906,27.5296602 C224.690367,27.6703398 221.840101,27.7641262 219.223464,27.7875728 C219.200101,27.1779612 218.94311,26.3338835 218.756207,25.8180583 C225.204349,25.7008252 232.914083,25.2318932 237.610013,24.4581553 L238.451075,26.4745631 C236.02134,26.8497087 232.937446,27.1545146 229.736738,27.3889806 L229.736738,30.9997573 L237.049305,30.9997573 Z M258.987004,39.088835 L257.515145,40.4487379 C257.117977,39.557767 256.557269,38.5026699 255.856384,37.377233 C255.015322,39.5108738 253.917269,41.3397087 252.515499,42.7465049 C252.165057,42.4651456 251.300632,41.8320874 250.833375,41.5507282 C252.492137,40.026699 253.707004,37.8930583 254.548066,35.3608252 C253.613552,33.9774757 252.562225,32.5941262 251.53426,31.3983495 L252.865942,30.2260194 C253.660278,31.0935437 254.454614,32.078301 255.225588,33.0865049 C255.552668,31.7031553 255.809659,30.2260194 256.019924,28.6785437 L257.959039,28.8895631 C257.655322,31.1404369 257.234791,33.2037379 256.674083,35.1029126 C257.655322,36.5331553 258.473021,37.9399515 258.987004,39.088835 Z M261.720455,25.2318932 L261.720455,42.6292718 C261.720455,43.9422816 261.393375,44.5987864 260.552314,44.9504854 C259.687889,45.3021845 258.332845,45.3490777 256.206827,45.3490777 C256.06665,44.739466 255.692845,43.7312621 255.389128,43.1685437 C256.860986,43.2623301 258.473021,43.2388835 258.940278,43.2154369 C259.384172,43.1919903 259.547712,43.0513107 259.547712,42.6058252 L259.547712,27.2951942 L244.595499,27.2951942 L244.595499,41.2693689 C246.114083,39.7687864 247.235499,37.7523786 248.053198,35.3608252 C247.025234,34.0009223 245.927181,32.5941262 244.922579,31.3983495 L246.184172,30.132233 C247.001871,31.0700971 247.866296,32.1251942 248.683995,33.1802913 C249.0578,31.7500485 249.361517,30.2260194 249.571783,28.6316505 L251.510898,28.8426699 C251.160455,31.0935437 250.739924,33.1802913 250.155853,35.079466 C251.020278,36.2752427 251.814614,37.4006796 252.35196,38.3150971 L250.973552,39.8156796 C250.576384,39.0653883 250.015676,38.1978641 249.38488,37.26 C248.567181,39.3467476 247.492491,41.1521359 246.184172,42.558932 C245.857092,42.2775728 245.086119,41.738301 244.595499,41.4334951 L244.595499,45.3490777 L242.422756,45.3490777 L242.422756,25.2318932 L261.720455,25.2318932 Z" id="CoinBene-满币网" fill="#FFFFFF"></path>
        </g>
    </g>
</svg>