<?xml version="1.0" encoding="UTF-8"?>
<svg width="320px" height="160px" viewBox="0 0 320 160" version="1.1" xmlns="http://www.w3.org/2000/svg" xmlns:xlink="http://www.w3.org/1999/xlink">
    <!-- Generator: Sketch 52.2 (67145) - http://www.bohemiancoding.com/sketch -->
    <title>coinbasepro</title>
    <desc>Created with Sketch.</desc>
    <defs>
        <path d="M101.957791,0 L101.957791,43.1095082 C104.947115,44.151746 108.667297,44.9991492 112.918067,44.9991492 C123.812453,44.9991492 130.122285,38.7389159 130.122285,29.4132272 C130.122285,20.1521998 123.744829,14.8057325 115.241555,14.8057325 C112.651906,14.8057325 109.927876,15.5221115 108.532916,16.2410429 L108.532916,0 L101.957791,0 Z M108.532916,38.8707909 L108.532916,21.9788811 C109.861986,21.2625021 111.856025,20.608232 114.445674,20.608232 C119.428169,20.608232 123.481269,23.9340341 123.481269,29.5434006 C123.481269,36.1958556 119.161141,39.4569965 113.115737,39.4569965 C111.457217,39.4569965 109.795229,39.2596094 108.532916,38.8707909 Z M57.4976674,6.58694296 C57.4976674,8.86965646 59.426683,10.6971886 61.6166574,10.6971886 C63.8092329,10.6971886 65.7365144,8.86965646 65.7365144,6.58694296 C65.7365144,4.37059235 63.8092329,2.60942315 61.6166574,2.60942315 C59.426683,2.60942315 57.4976674,4.37059235 57.4976674,6.58694296 Z M134.969532,17.1522565 L134.969532,22.7607722 C137.427401,21.3918247 140.084674,20.415099 143.471939,20.415099 C146.72569,20.415099 149.119403,21.8470061 149.119403,24.9779736 L149.119403,27.3925621 L145.863918,27.3925621 C137.360644,27.3925621 132.244635,30.2614812 132.244635,36.1294927 C132.244635,42.6526252 137.826209,44.9361895 145.466844,44.9361895 C148.787352,44.9361895 152.772828,44.4776049 155.561881,43.7603751 L155.561881,24.6521147 C155.561881,17.4134541 150.978194,14.8048817 144.535715,14.8048817 C140.881423,14.8048817 137.559181,15.7186478 134.969532,17.1522565 Z M138.754737,35.9346581 C138.754737,32.9993761 141.744061,31.6959407 146.329483,31.6959407 L149.119403,31.6959407 L149.119403,39.7820045 C147.924714,39.9785408 146.529754,40.1078633 145.531867,40.1078633 C141.546391,40.1078633 138.754737,38.9346013 138.754737,35.9346581 Z M70.6747942,17.2832807 L70.6747942,44.3474315 L77.2516534,44.3474315 L77.2516534,21.5211473 C78.9803981,20.999603 81.3038865,20.6737441 83.6291088,20.6737441 C87.2842682,20.6737441 89.9415412,22.1754174 89.9415412,26.3494734 L89.9415412,44.3474315 L96.4507766,44.3474315 L96.4507766,25.7607154 C96.4507766,17.6099904 91.667685,14.8048817 84.1605635,14.8048817 C79.8439035,14.8048817 74.7937842,15.7186478 70.6747942,17.2832807 Z M23.8192237,29.9356223 C23.8192237,38.8707909 30.1966791,45 38.9643798,45 C47.7988374,45 54.1771598,38.8707909 54.1771598,29.9356223 C54.1771598,20.9357925 47.7988374,14.8048817 38.9643798,14.8048817 C30.1966791,14.8048817 23.8192237,20.9357925 23.8192237,29.9356223 Z M30.4611059,29.9356223 C30.4611059,24.0667599 34.0486413,20.3478853 38.9643798,20.3478853 C44.0144991,20.3478853 47.5352776,24.0667599 47.5352776,29.9356223 C47.5352776,35.7406742 44.0144991,39.4569965 38.9643798,39.4569965 C34.0486413,39.4569965 30.4611059,35.7406742 30.4611059,29.9356223 Z M0,29.9356223 C0,39.1975005 6.5101023,45 15.4789408,45 C18.4960078,45 21.2625195,44.3772097 23.9024531,42.9835889 C22.705163,41.6614358 21.702075,40.1538069 20.9243999,38.483674 C19.4904261,39.0366981 17.9792917,39.3268231 16.3424462,39.3268231 C10.6282253,39.3268231 6.64188224,35.6743113 6.64188224,29.9356223 C6.64188224,23.8702237 10.7608723,20.5444215 16.0754184,20.5444215 C17.6377043,20.5444215 19.1531735,20.8073207 20.6270281,21.3867199 C21.3414141,19.672345 22.2794792,18.1145185 23.419549,16.741317 C20.9772853,15.4608535 18.553228,14.8048817 15.4789408,14.8048817 C6.84128609,14.8048817 0,20.608232 0,29.9356223 Z M183.162842,30.1313078 C183.162842,39.2596094 189.407651,44.9991492 198.575893,44.9991492 C202.359365,44.9991492 206.278951,44.151746 208.937091,42.3267664 L208.937091,36.651037 C206.014524,38.5423796 203.09109,39.4569965 199.03799,39.4569965 C194.455169,39.4569965 189.939105,36.651037 189.540298,31.501106 L189.540298,31.3709327 L210,31.3709327 L210,28.108941 C210,20.2185627 205.948634,14.8057325 197.380337,14.8057325 C189.27327,14.8057325 183.162842,20.9357925 183.162842,30.1313078 Z M197.180066,20.2185627 C201.431703,20.2185627 203.690169,22.6944093 203.821948,27.1968766 L189.739702,27.1968766 C190.603207,22.8271351 193.393127,20.2185627 197.180066,20.2185627 Z M159.944431,23.5443648 C159.944431,28.5666749 162.537548,30.9795617 168.647976,32.3485092 C172.434915,33.3252349 174.161926,34.1734889 174.161926,36.5217145 C174.161926,38.804428 172.235511,39.7820045 169.312077,39.7820045 C166.321887,39.7820045 163.069003,38.5432304 160.344973,36.5217145 L160.344973,42.6526252 C162.537548,44.0879356 165.990703,44.9991492 169.446458,44.9991492 C175.823047,44.9991492 180.539381,42.2612543 180.539381,36.1958556 C180.539381,30.9795617 177.616814,28.500312 170.906441,27.0650016 C167.517443,26.153788 166.257731,25.173659 166.257731,23.2831673 C166.257731,21.3918247 167.785337,20.0228772 170.642014,20.0228772 C173.762251,20.0228772 176.288611,21.1314779 178.87826,22.9564576 L178.87826,17.022934 C176.420391,15.5221115 173.762251,14.8057325 170.441744,14.8057325 C164.463096,14.8057325 159.944431,17.6738008 159.944431,23.5443648 Z M58.3629068,44.3474315 L64.9371651,44.3474315 L64.9371651,15.4565994 L58.3629068,15.4565994 L58.3629068,44.3474315 Z" id="path-1"></path>
    </defs>
    <g id="coinbasepro" stroke="none" stroke-width="1" fill="none" fill-rule="evenodd">
        <g id="分组" transform="translate(55.000000, 58.000000)">
            <mask id="mask-2" fill="white">
                <use xlink:href="#path-1"></use>
            </mask>
            <use id="Clip-2" fill="#FFFFFF" xlink:href="#path-1"></use>
            <polygon id="Fill-1" fill="#FFFFFF" mask="url(#mask-2)" points="0 45 211 45 211 -1 0 -1"></polygon>
        </g>
    </g>
</svg>