<?xml version="1.0" encoding="UTF-8"?>
<svg width="320px" height="160px" viewBox="0 0 320 160" version="1.1" xmlns="http://www.w3.org/2000/svg" xmlns:xlink="http://www.w3.org/1999/xlink">
    <!-- Generator: Sketch 52.2 (67145) - http://www.bohemiancoding.com/sketch -->
    <title>fcoin</title>
    <desc>Created with Sketch.</desc>
    <defs>
        <polygon id="path-1" points="0 0.186657893 13.5935886 0.186657893 13.5935886 13.9797884 0 13.9797884"></polygon>
        <polygon id="path-3" points="0.000661323291 0.313333333 13.6014921 0.313333333 13.6014921 14.0786452 0.000661323291 14.0786452"></polygon>
        <polygon id="path-5" points="0.128563006 0.00558744621 5.237 0.00558744621 5.237 5.25500498 0.128563006 5.25500498"></polygon>
    </defs>
    <g id="fcoin" stroke="none" stroke-width="1" fill="none" fill-rule="evenodd">
        <g id="分组-2" transform="translate(52.000000, 46.000000)">
            <g id="分组">
                <path d="M67.9029,7.3456 C67.8905667,8.8176 66.7602333,9.96226667 65.3352333,9.9456 C63.9395667,9.9296 62.7675667,8.71293333 62.7819,7.2956 C62.7965667,5.8796 63.9945667,4.68126667 65.3855667,4.69193333 C66.8025667,4.70293333 67.9149,5.87593333 67.9029,7.3456" id="Fill-1" fill="#FFFFFF"></path>
                <g transform="translate(0.000000, 19.020000)">
                    <mask id="mask-2" fill="white">
                        <use xlink:href="#path-1"></use>
                    </mask>
                    <g id="Clip-4"></g>
                    <path d="M6.76943333,13.9672 C2.99076667,13.9538667 -0.0689,10.8028667 0.0011,6.99586667 C0.0691,3.2962 3.2521,0.1262 6.8371,0.187533333 C10.5264333,0.2512 13.6517667,3.3712 13.5927667,7.06553333 C13.5174333,11.7788667 9.69376667,14.1762 6.76943333,13.9672" id="Fill-3" fill="#FFFFFF" mask="url(#mask-2)"></path>
                </g>
                <g transform="translate(0.000000, 0.020000)">
                    <mask id="mask-4" fill="white">
                        <use xlink:href="#path-3"></use>
                    </mask>
                    <g id="Clip-6"></g>
                    <path d="M6.84366667,0.313233333 C10.5683333,0.3289 13.5756667,3.35723333 13.6013333,7.1179 C13.6273333,10.8939 10.4553333,14.1205667 6.75966667,14.0782333 C3.094,14.0362333 0.00466666667,10.8932333 0.000666666667,7.20156667 C-0.004,3.3699 3.04866667,0.297233333 6.84366667,0.313233333" id="Fill-5" fill="#FFFFFF" mask="url(#mask-4)"></path>
                </g>
                <path d="M32.1278333,7.21733333 C32.1191667,10.3573333 29.6601667,12.876 26.5815,12.8976667 C23.4585,12.9196667 20.9151667,10.323 20.9335,7.131 C20.9515,4.02166667 23.4405,1.47366667 26.5011667,1.432 C29.5788333,1.38966667 32.1368333,4.02 32.1278333,7.21733333" id="Fill-7" fill="#FFFFFF"></path>
                <path d="M6.6884,50.6984667 C3.56106667,50.6571333 1.1844,48.1601333 1.21606667,44.9491333 C1.2474,41.7864667 3.73706667,39.2931333 6.8424,39.3148 C10.0047333,39.3364667 12.4864,41.9531333 12.4117333,45.1864667 C12.3387333,48.3548 9.86173333,50.7404667 6.6884,50.6984667" id="Fill-9" fill="#FFFFFF"></path>
                <path d="M20.9335,26.1607 C20.9258333,22.9653667 23.4621667,20.4037 26.6045,20.4327 C29.6918333,20.4617 32.1241667,22.9663667 32.1278333,26.1207 C32.1315,29.3127 29.5661667,31.9330333 26.4805,31.8897 C23.4425,31.8470333 20.9408333,29.2633667 20.9335,26.1607" id="Fill-11" fill="#FFFFFF"></path>
                <path d="M26.579,41.4074333 C28.6023333,41.4244333 30.1803333,43.0691 30.129,45.1087667 C30.0796667,47.0907667 28.525,48.6564333 26.5853333,48.6784333 C24.588,48.7014333 22.9406667,47.0544333 22.9376667,45.0327667 C22.9343333,43.0081 24.559,41.3907667 26.579,41.4074333" id="Fill-13" fill="#FFFFFF"></path>
                <path d="M45.7818,3.5002 C47.7364667,3.52086667 49.4228,5.27186667 49.3778,7.23453333 C49.3338,9.1502 47.6871333,10.8342 45.8304667,10.8618667 C43.8468,10.8912 42.2251333,9.24686667 42.2161333,7.19786667 C42.2064667,5.12286667 43.7914667,3.47953333 45.7818,3.5002" id="Fill-15" fill="#FFFFFF"></path>
                <path d="M45.6838333,29.7407667 C43.6131667,29.7051 42.1628333,28.1421 42.2188333,26.0077667 C42.2711667,24.0424333 43.8635,22.4451 45.7661667,22.4507667 C47.6965,22.4561 49.3975,24.2067667 49.3815,26.1731 C49.3655,28.1914333 47.7225,29.7761 45.6838333,29.7407667" id="Fill-17" fill="#FFFFFF"></path>
                <path d="M3.21606667,65.0116 C3.21073333,62.9816 4.82373333,61.3856 6.85873333,61.4069333 C8.80606667,61.4272667 10.3644,62.9829333 10.4097333,64.9512667 C10.4554,66.9356 8.7974,68.6699333 6.83906667,68.6862667 C4.86573333,68.7032667 3.22106667,67.0349333 3.21606667,65.0116" id="Fill-19" fill="#FFFFFF"></path>
                <g transform="translate(62.666667, 23.686667)">
                    <mask id="mask-6" fill="white">
                        <use xlink:href="#path-5"></use>
                    </mask>
                    <g id="Clip-22"></g>
                    <path d="M5.2369,2.61693333 C5.22423333,4.08393333 4.08023333,5.2656 2.68256667,5.25493333 C1.30123333,5.24393333 0.130566667,4.02326667 0.128566667,2.5916 C0.126233333,1.11926667 1.23956667,0.00126666667 2.70423333,0.0056 C4.16556667,0.00993333333 5.24923333,1.12726667 5.2369,2.61693333" id="Fill-21" fill="#FFFFFF" mask="url(#mask-6)"></path>
                </g>
                <path d="M48.1867667,45.1734 C48.1784333,46.4950667 47.2467667,47.4380667 45.9394333,47.4484 C44.6394333,47.4587333 43.6394333,46.5100667 43.6091,45.2364 C43.5774333,43.9430667 44.7051,42.7800667 45.9574333,42.8144 C47.1634333,42.8470667 48.1947667,43.9387333 48.1867667,45.1734" id="Fill-23" fill="#FFFFFF"></path>
                <path d="M28.9611667,64.8530667 C28.9765,66.1427333 27.9918333,67.1394 26.6981667,67.1440667 C25.3775,67.1487333 24.4468333,66.2060667 24.4491667,64.8660667 C24.4515,63.5807333 25.4668333,62.5114 26.6871667,62.5097333 C27.9058333,62.5080667 28.9461667,63.5800667 28.9611667,64.8530667" id="Fill-25" fill="#FFFFFF"></path>
            </g>
            <path d="M86.9466667,52.3333333 L86.9466667,18.3133333 L105.706667,18.3133333 L105.706667,20.6933333 L89.7466667,20.6933333 L89.7466667,33.8066667 L103.233333,33.8066667 L103.233333,36.1866667 L89.7466667,36.1866667 L89.7466667,52.3333333 L86.9466667,52.3333333 Z M124,52.94 C115.6,52.94 109.626667,46.1733333 109.626667,35.3 C109.626667,24.4266667 115.646667,17.7066667 124.28,17.7066667 C128.293333,17.7066667 131.42,19.6666667 133.24,21.8133333 L131.653333,23.6333333 C129.833333,21.58 127.406667,20.2266667 124.28,20.2266667 C117.093333,20.2266667 112.566667,26.0133333 112.566667,35.2066667 C112.566667,44.4933333 117,50.42 124.14,50.42 C127.593333,50.42 130.16,48.9733333 132.586667,46.3133333 L134.173333,48.0866667 C131.56,51.12 128.386667,52.94 124,52.94 Z M152.98,52.94 C144.766667,52.94 138.886667,46.0333333 138.886667,35.2066667 C138.886667,24.4266667 144.766667,17.7066667 152.98,17.7066667 C161.286667,17.7066667 167.12,24.4266667 167.12,35.2066667 C167.12,46.0333333 161.286667,52.94 152.98,52.94 Z M152.98,50.42 C159.746667,50.42 164.226667,44.4466667 164.226667,35.2066667 C164.226667,25.9666667 159.746667,20.2266667 152.98,20.2266667 C146.26,20.2266667 141.826667,25.9666667 141.826667,35.2066667 C141.826667,44.4466667 146.26,50.42 152.98,50.42 Z M174.913333,52.3333333 L174.913333,18.3133333 L177.713333,18.3133333 L177.713333,52.3333333 L174.913333,52.3333333 Z M187.606667,52.3333333 L187.606667,18.3133333 L190.5,18.3133333 L204.406667,41.6933333 L208.186667,48.5533333 L208.42,48.5533333 C208.233333,45.1933333 208.046667,41.7866667 208.046667,38.4733333 L208.046667,18.3133333 L210.706667,18.3133333 L210.706667,52.3333333 L207.813333,52.3333333 L193.953333,28.9066667 L190.126667,22.0933333 L189.893333,22.0933333 C190.033333,25.36 190.266667,28.5333333 190.266667,31.94 L190.266667,52.3333333 L187.606667,52.3333333 Z" id="FCOIN" fill="#FFFFFF"></path>
        </g>
    </g>
</svg>