<?xml version="1.0" encoding="UTF-8"?>
<svg width="320px" height="160px" viewBox="0 0 320 160" version="1.1" xmlns="http://www.w3.org/2000/svg" xmlns:xlink="http://www.w3.org/1999/xlink">
    <!-- Generator: Sketch 52.2 (67145) - http://www.bohemiancoding.com/sketch -->
    <title>hitbtc</title>
    <desc>Created with Sketch.</desc>
    <g id="hitbtc" stroke="none" stroke-width="1" fill="none" fill-rule="evenodd">
        <g id="分组-2" transform="translate(63.000000, 40.000000)" fill="#FFFFFF">
            <g id="分组">
                <polygon id="Fill-1" points="0 36.1488667 26.7335345 32.5792 30.7362897 16.9532"></polygon>
                <polygon id="Fill-2" points="37.9872403 79.9776667 44.6534817 51.5993333 36.0057645 47.937"></polygon>
                <polygon id="Fill-3" points="0 36.1488667 19.6970207 47.3718667 26.7335345 32.5792"></polygon>
                <polygon id="Fill-4" points="37.9878424 79.9776667 36.0063666 47.937 19.6976562 47.3723333"></polygon>
                <polygon id="Fill-5" points="26.7351066 32.5792333 36.0073031 47.9369 19.6982583 47.3719"></polygon>
                <polygon id="Fill-6" points="30.7358214 16.9532667 52.9290869 19.8062667 26.7334007 32.5792667"></polygon>
                <polygon id="Fill-7" points="77.21685 9.85496667 63.2475121 26.4776333 64.2288845 11.0989667"></polygon>
                <polygon id="Fill-8" points="77.2162814 9.85506667 83.2590469 10.6097333 84.9585538 0.333066667"></polygon>
                <polygon id="Fill-9" points="69.6864055 18.4985333 83.2583779 10.6095333 77.2159469 9.8552"></polygon>
                <polygon id="Fill-10" points="44.6537828 51.5997667 45.3113759 32.5227667 36.0060655 47.9377667"></polygon>
                <polygon id="Fill-11" points="45.311309 32.5219667 36.0056641 47.9373 26.7334676 32.5796333"></polygon>
                <polygon id="Fill-12" points="52.9289531 19.8061333 45.3114428 32.5214667 26.7336014 32.5791333"></polygon>
                <polygon id="Fill-13" points="45.31064 32.5219667 44.6530469 51.5989667 61.6852434 69.4489667"></polygon>
                <polygon id="Fill-14" points="70.5931883 59.4777 61.5996159 36.6023667 61.6855779 69.4490333"></polygon>
                <polygon id="Fill-15" points="63.2472779 26.478 61.5996159 36.6026667 45.311309 32.522"></polygon>
                <polygon id="Fill-16" points="71.4966597 40.2296333 61.5996493 36.6026333 63.2473114 26.4779667"></polygon>
                <polygon id="Fill-17" points="75.0420431 58.839 64.2449397 41.1363333 70.4104603 41.1363333"></polygon>
                <polygon id="Fill-18" points="54.9574238 16.0447333 63.2479134 26.4780667 64.2289514 11.0994"></polygon>
                <polygon id="Fill-19" points="61.5997162 36.6023667 45.3114093 32.5220333 61.6853438 69.4490333"></polygon>
                <polygon id="Fill-20" points="70.5934893 59.4773667 74.1838272 61.5313667 61.7300307 69.4490333"></polygon>
                <polygon id="Fill-21" points="75.0417421 58.6414333 61.6002179 36.6024333 70.5934559 59.4777667"></polygon>
                <polygon id="Fill-22" points="54.9567548 16.0444333 45.3112755 32.5221 63.2472445 26.4781"></polygon>
                <path d="M0.783213957,36.6446495 C1.20332125,36.6446495 7.77186714,40.2075441 20.4888516,47.3333333 L37.8767177,80 L44.3412407,52 L61.993369,69.1793884 L74,61.919312 L70,59.6263568 L74.8619355,59.6263568 L70.4646195,40 L64.2095333,41.4145273 L61.993369,36.6446495 L70.4646195,38.6666667 L63.2093521,27.6666667 L70.8474622,17.6428978 L83.68,10.6701521 L84.504855,1.32100196 L77.3965625,10.6701521 L63.9393939,10.6701521 L54.44,15.8866725 L52.4405874,19.7243853 L31.2160894,17.6428978 C10.5073985,30.3107323 0.363106662,36.6446495 0.783213957,36.6446495 Z" id="路径-2" fill-rule="nonzero"></path>
            </g>
            <path d="M105.604798,29.747331 L110.713793,29.747331 L110.713793,52.3333333 L105.604798,52.3333333 L105.604798,44.6298932 L99.4331327,44.6298932 L99.4331327,52.3333333 L94.3241379,52.3333333 L94.3241379,29.9086595 L99.4331327,29.6666667 L99.4331327,39.5883749 L105.604798,39.5883749 L105.604798,29.747331 Z M120.287485,32.5804196 C119.7573,33.0823646 119.06807,33.3333333 118.219773,33.3333333 C117.371477,33.3333333 116.688874,33.0757602 116.171944,32.5606061 C115.655013,32.045452 115.396552,31.3519857 115.396552,30.4801865 C115.396552,29.6612236 115.66164,28.9875706 116.191825,28.4592075 C116.722011,27.9308443 117.397986,27.6666667 118.219773,27.6666667 C119.04156,27.6666667 119.724163,27.9308443 120.267603,28.4592075 C120.811043,28.9875706 121.082759,29.6612236 121.082759,30.4801865 C121.082759,31.3519857 120.81767,32.0520564 120.287485,32.5804196 Z M115.731034,52 L115.731034,34.9475309 L120.748276,34.6666667 L120.748276,52 L115.731034,52 Z M134.462069,39.1221239 L131.555255,39.1221239 L131.555255,43.5351032 C131.555255,44.7386491 131.668075,45.6212361 131.893719,46.1828909 C132.119363,46.7445456 132.590555,47.0521138 133.307307,47.1056047 C133.572771,47.1323502 133.944415,47.1457227 134.42225,47.1457227 L134.42225,51.919764 C133.625858,51.9732549 133.108211,52 132.869294,52 C130.719037,52 129.132914,51.4918438 128.110878,50.4755162 C127.088843,49.4591886 126.577833,47.680642 126.577833,45.139823 L126.577833,39.1221239 L124.427586,39.1221239 L124.427586,34.3079646 L126.617652,34.3079646 L126.617652,29.5740413 L131.595074,29.3333333 L131.595074,34.3079646 L134.462069,34.3079646 L134.462069,39.1221239 Z" id="HitBTC"></path>
            <path d="M139.144828,52 L139.144828,29.8138987 C143.677298,29.4935202 146.483071,29.3333333 147.562231,29.3333333 C149.747529,29.3333333 151.399967,29.934034 152.519596,31.1354535 C153.639224,32.3368729 154.199029,33.8319502 154.199029,35.6207303 C154.199029,37.4896049 153.565033,38.8912399 152.29702,39.8256773 C153.349201,40.3863397 154.151814,41.1672506 154.704883,42.1684335 C155.257952,43.1696163 155.534483,44.2709009 155.534483,45.4723204 C155.534483,47.6081771 154.81955,49.2300691 153.389664,50.3380448 C151.959777,51.4460205 150.448976,52 148.857216,52 L139.144828,52 Z M144.162069,38.6666667 L146.876314,38.6666667 C147.58915,38.6666667 148.151185,38.4347002 148.562436,37.9707602 C148.973688,37.5068203 149.17931,36.9337266 149.17931,36.251462 C149.17931,35.6510691 148.966834,35.1257332 148.541874,34.6754386 C148.116914,34.2251439 147.561733,34 146.876314,34 C146.547313,34.0272906 146.088089,34.0409357 145.498629,34.0409357 C144.909169,34.0409357 144.463653,34.0545808 144.162069,34.0818713 L144.162069,38.6666667 Z M144.162069,47.3333333 L147.654069,47.3333333 C148.376555,47.3333333 148.978618,47.1224127 149.460276,46.700565 C149.941933,46.2787173 150.182759,45.6986854 150.182759,44.960452 C150.182759,44.248584 149.948623,43.688326 149.480345,43.279661 C149.012067,42.8709961 148.47021,42.6666667 147.854759,42.6666667 L144.162069,42.7062147 L144.162069,47.3333333 Z" id="合并形状"></path>
            <polygon id="路径" points="173.262069 29.6666667 173.262069 34.5642857 168.078917 34.5642857 168.078917 52.3333333 162.97739 52.3333333 162.97739 34.5642857 157.875862 34.5642857 157.875862 29.6666667"></polygon>
            <path d="M185.412229,52.3333333 C182.671726,52.3333333 180.35183,51.3514718 178.452472,49.3877193 C176.553113,47.4239668 175.603448,44.6801346 175.603448,41.1561404 L175.603448,40.5105263 C175.603448,36.9865321 176.553113,34.2426999 178.452472,32.2789474 C180.35183,30.3151949 182.671726,29.3333333 185.412229,29.3333333 C187.25732,29.3333333 188.946367,29.8578895 190.479421,30.9070175 C192.012475,31.9561456 193.145289,33.3953125 193.877899,35.2245614 L189.319461,37.0403509 C188.966723,36.1526271 188.430841,35.4733942 187.711798,35.0026316 C186.992755,34.531869 186.22624,34.2964912 185.412229,34.2964912 C184.082678,34.2964912 182.949864,34.8008721 182.013751,35.8096491 C181.077639,36.8184261 180.60959,38.3853695 180.60959,40.5105263 L180.60959,41.1561404 C180.60959,43.2812972 181.077639,44.8482406 182.013751,45.8570175 C182.949864,46.8657945 184.082678,47.3701754 185.412229,47.3701754 C186.280507,47.3701754 187.087723,47.1011723 187.833899,46.5631579 C188.580076,46.0251435 189.102391,45.2719347 189.400862,44.3035088 L194,46.1596491 C193.321658,48.1772031 192.209193,49.7105211 190.662572,50.7596491 C189.115952,51.8087772 187.365855,52.3333333 185.412229,52.3333333 Z" id="路径"></path>
        </g>
    </g>
</svg>