<?xml version="1.0" encoding="UTF-8"?>
<svg width="320px" height="160px" viewBox="0 0 320 160" version="1.1" xmlns="http://www.w3.org/2000/svg" xmlns:xlink="http://www.w3.org/1999/xlink">
    <!-- Generator: Sketch 52.2 (67145) - http://www.bohemiancoding.com/sketch -->
    <title>huobi</title>
    <desc>Created with Sketch.</desc>
    <defs>
        <path d="M20.6031565,0.578206731 C20.603824,0.583514423 20.5988178,0.585173077 20.5988178,0.589817308 C20.2964487,19.5346298 10.6253068,24.6688269 5.30814792,31.5857452 C-6.96216748,47.5473029 4.44943276,65.0474279 16.069621,68.2818029 C22.5718936,70.0913942 14.568121,65.079274 13.5371956,54.4934135 C12.2910073,41.698226 29.2684034,31.9320721 29.2684034,21.3395769 C29.2684034,11.527976 24.4922384,3.09040385 20.8591357,0.342677885 C20.8524609,0.338697115 20.7980611,0.308177885 20.7409914,0.308177885 C20.6679022,0.308177885 20.5904743,0.358269231 20.6031565,0.578206731 Z" id="path-1"></path>
        <path d="M12.6784804,0.291259615 C12.46522,2.67640385 9.86738142,7.77742788 6.57402689,12.4617981 C-4.59527751,28.3507067 1.76949389,36.0090433 5.34919804,40.1228365 C7.42673472,42.5112981 5.34919804,40.1228365 10.5428729,37.682625 C10.9503704,37.4912163 20.6775807,32.3762596 21.7315342,20.7215625 C22.75178,9.43641346 15.5222861,2.32277885 12.9488105,0.255432692 C12.9094291,0.230221154 12.8617042,0.208990385 12.8139792,0.208990385 C12.7659205,0.208990385 12.7178619,0.230552885 12.6784804,0.291259615 Z" id="path-3"></path>
    </defs>
    <g id="huobi" stroke="none" stroke-width="1" fill="none" fill-rule="evenodd">
        <g id="分组-2" transform="translate(23.000000, 46.000000)">
            <g id="分组">
                <path d="M29.2683367,21.386749 C29.2683367,11.5751481 24.4921716,3.13724423 20.8590689,0.38985 C20.8440506,0.380893269 20.5807291,0.232941346 20.6030897,0.625378846 C20.6037572,0.630686538 20.5987511,0.632345192 20.5987511,0.636989423 C20.2963819,19.5818019 10.6252401,24.715999 5.30808117,31.633249 C-6.96223423,47.594475 4.44936601,65.0946 16.0695543,68.3286433 C22.5718269,70.1385663 14.5680543,65.1264462 13.5371289,54.5402538 C12.2909406,41.7453981 29.2683367,31.9792442 29.2683367,21.386749" id="Fill-1" fill="#FFFFFF"></path>
                <g transform="translate(0.000000, 0.047106)">
                    <mask id="mask-2" fill="white">
                        <use xlink:href="#path-1"></use>
                    </mask>
                    <g id="Clip-4"></g>
                    <polygon id="Fill-3" fill="#FFFFFF" mask="url(#mask-2)" points="-15.0183374 83.5961538 44.3104364 83.5961538 44.3104364 -14.6435913 -15.0183374 -14.6435913"></polygon>
                </g>
                <path d="M35.6432872,27.8363913 C35.5641906,27.7859683 35.4513862,27.7508048 35.3729571,27.8718865 C35.1596967,30.2573625 32.5618581,35.3580548 29.2681698,40.042425 C18.0991991,55.9313337 24.4639705,63.5896702 28.043341,67.7037952 C30.1212114,70.091925 28.043341,67.7037952 33.2373495,65.2632519 C33.6448471,65.072175 43.3720573,59.9568865 44.4256771,48.3021894 C45.4459229,37.0173721 38.216429,29.9034058 35.6432872,27.8363913" id="Fill-5" fill="#FFFFFF"></path>
                <g transform="translate(22.694377, 27.580760)">
                    <mask id="mask-4" fill="white">
                        <use xlink:href="#path-3"></use>
                    </mask>
                    <g id="Clip-8"></g>
                    <polygon id="Fill-7" fill="#FFFFFF" mask="url(#mask-4)" points="-14.767698 56.0625 36.8713533 56.0625 36.8713533 -14.7424471 -14.767698 -14.7424471"></polygon>
                </g>
            </g>
            <path d="M51.6297066,25.0324038 L55.9249511,25.0324038 L55.9249511,35.9065385 L69.214511,35.9065385 L69.214511,25.0324038 L73.5097555,25.0324038 L73.5097555,51.0865385 L69.214511,51.0865385 L69.214511,39.5555769 L55.9249511,39.5555769 L55.9249511,51.0865385 L51.6297066,51.0865385 L51.6297066,25.0324038 Z M78.2822494,32.2210096 L82.4673594,32.2210096 L82.4673594,43.7154808 C82.4673594,45.2480769 82.7610513,46.3427885 83.4218582,47.0725962 C84.082665,47.7659135 85.1105868,48.1308173 86.5790465,48.1308173 C87.4968337,48.1308173 88.3779095,47.7294231 89.2222738,46.963125 C90.0666381,46.1603365 90.6907335,45.1021154 91.0578484,43.7519712 L91.0578484,32.2210096 L95.2429584,32.2210096 L95.2429584,51.0865385 L91.0578484,51.0865385 L91.0578484,48.6416827 C89.4425428,50.6121635 87.4601222,51.5974038 85.1105868,51.5974038 C80.5583619,51.5974038 78.2822494,49.0430769 78.2822494,43.9709135 L78.2822494,32.2210096 Z M108.459095,31.7101442 C111.322592,31.7101442 113.635416,32.6224038 115.397567,34.5199038 C117.123007,36.3809135 118.004083,38.7527885 118.004083,41.6720192 C118.004083,44.5547596 117.123007,46.9266346 115.434279,48.7511538 C113.672127,50.6486538 111.322592,51.5974038 108.459095,51.5974038 C105.558888,51.5974038 103.246064,50.6486538 101.483912,48.7511538 C99.7584719,46.9266346 98.9141076,44.5547596 98.9141076,41.6720192 C98.9141076,38.7527885 99.7584719,36.3809135 101.520623,34.5199038 C103.246064,32.6224038 105.558888,31.7101442 108.459095,31.7101442 Z M108.459095,35.10375 C106.696944,35.10375 105.37533,35.7605769 104.420831,37.1472115 C103.613178,38.3149038 103.209352,39.8475 103.209352,41.6720192 C103.209352,43.4965385 103.613178,44.9926442 104.420831,46.1603365 C105.37533,47.5104808 106.696944,48.2037981 108.459095,48.2037981 C110.184535,48.2037981 111.542861,47.5104808 112.497359,46.1603365 C113.305012,44.9561538 113.74555,43.4600481 113.74555,41.6720192 C113.74555,39.8475 113.305012,38.3149038 112.497359,37.1472115 C111.542861,35.7605769 110.184535,35.10375 108.459095,35.10375 Z M177.843814,24.5215385 C181.221271,24.5215385 183.864499,25.2513462 185.810208,26.7474519 C187.682494,28.2070673 188.857262,30.36 189.334511,33.2792308 L185.002555,33.2792308 C184.63544,31.6006731 183.827787,30.36 182.65302,29.5207212 C181.44154,28.6814423 179.826235,28.2800481 177.843814,28.2800481 C175.384144,28.2800481 173.438435,29.0828365 172.006687,30.7613942 C170.428093,32.5129327 169.657152,34.9577885 169.657152,38.1689423 C169.657152,41.2341346 170.35467,43.6060096 171.749707,45.2480769 C173.254878,46.9996154 175.604413,47.8753846 178.798313,47.8753846 C180.046504,47.8753846 181.221271,47.7294231 182.322616,47.4375 C183.350538,47.1455769 184.268325,46.7441827 185.149401,46.2333173 L185.149401,40.8692308 L178.210929,40.8692308 L178.210929,37.2201923 L189.444645,37.2201923 L189.444645,48.2402885 C188.049609,49.335 186.471015,50.1377885 184.672152,50.7216346 C182.763154,51.3054808 180.670599,51.5974038 178.321064,51.5974038 C174.135954,51.5974038 170.905342,50.28375 168.592518,47.6564423 C166.42654,45.2115865 165.361907,42.0369231 165.361907,38.1689423 C165.361907,34.2644712 166.42654,31.0533173 168.592518,28.5354808 C170.868631,25.8351923 173.952396,24.5215385 177.843814,24.5215385 Z M194.217139,24.5215385 L198.402249,24.5215385 L198.402249,51.0865385 L194.217139,51.0865385 L194.217139,24.5215385 Z M211.985501,31.7101442 C214.848998,31.7101442 217.161822,32.6224038 218.923973,34.5199038 C220.649413,36.3809135 221.530489,38.7527885 221.530489,41.6720192 C221.530489,44.5547596 220.649413,46.9266346 218.960685,48.7511538 C217.198533,50.6486538 214.848998,51.5974038 211.985501,51.5974038 C209.085293,51.5974038 206.772469,50.6486538 205.010318,48.7511538 C203.284878,46.9266346 202.440513,44.5547596 202.440513,41.6720192 C202.440513,38.7527885 203.284878,36.3809135 205.047029,34.5199038 C206.772469,32.6224038 209.085293,31.7101442 211.985501,31.7101442 Z M211.985501,35.10375 C210.22335,35.10375 208.901736,35.7605769 207.947237,37.1472115 C207.139584,38.3149038 206.735758,39.8475 206.735758,41.6720192 C206.735758,43.4965385 207.139584,44.9926442 207.947237,46.1603365 C208.901736,47.5104808 210.22335,48.2037981 211.985501,48.2037981 C213.710941,48.2037981 215.069267,47.5104808 216.023765,46.1603365 C216.831418,44.9561538 217.271956,43.4600481 217.271956,41.6720192 C217.271956,39.8475 216.831418,38.3149038 216.023765,37.1472115 C215.069267,35.7605769 213.710941,35.10375 211.985501,35.10375 Z M225.201638,24.5215385 L229.386748,24.5215385 L229.386748,34.8118269 C230.928631,32.731875 232.837628,31.7101442 235.040318,31.7101442 C237.756968,31.7101442 239.886235,32.6953846 241.464829,34.6658654 C242.896577,36.4903846 243.630807,38.7892788 243.630807,41.5625481 C243.630807,44.4452885 242.896577,46.8171635 241.428117,48.6416827 C239.812812,50.6121635 237.610122,51.5974038 234.820049,51.5974038 C232.323667,51.5974038 230.41467,50.758125 229.093056,49.0795673 L229.093056,51.0865385 L225.201638,51.0865385 L225.201638,24.5215385 Z M234.049108,35.0672596 C232.690782,35.0672596 231.589438,35.6146154 230.708362,36.7093269 C229.717152,37.8770192 229.239902,39.4825962 229.239902,41.4895673 L229.239902,41.7814904 C229.239902,43.6060096 229.607017,45.1386058 230.41467,46.3062981 C231.295746,47.5834615 232.543936,48.2402885 234.195954,48.2402885 C236.031528,48.2402885 237.389853,47.5834615 238.270929,46.2698077 C238.968447,45.1750962 239.335562,43.6060096 239.335562,41.5625481 C239.335562,39.5190865 238.931736,37.9864904 238.197506,36.9282692 C237.31643,35.6875962 235.921394,35.0672596 234.049108,35.0672596 Z M255.929156,31.7101442 C258.71923,31.7101442 260.811785,32.4034615 262.133399,33.7900962 C263.308166,34.9942788 263.89555,36.7458173 263.89555,39.0447115 L263.89555,51.0865385 L260.004132,51.0865385 L260.004132,48.6051923 C259.269902,49.5539423 258.352115,50.2472596 257.287482,50.758125 C256.076002,51.3054808 254.644254,51.5974038 252.992237,51.5974038 C251.009817,51.5974038 249.467934,51.0865385 248.329878,50.1012981 C247.15511,49.0795673 246.567726,47.8024038 246.567726,46.2333173 C246.567726,44.116875 247.375379,42.4748077 249.064108,41.3436058 C250.60599,40.2488942 252.771968,39.6650481 255.562042,39.5920673 L259.71044,39.4825962 L259.71044,38.7527885 C259.71044,36.2714423 258.352115,35.0672596 255.635465,35.0672596 C254.460697,35.0672596 253.54291,35.2497115 252.845391,35.6875962 C252.037738,36.1619712 251.487066,36.8917788 251.266797,37.8770192 L247.118399,37.5486058 C247.522225,35.4686538 248.550147,33.9360577 250.202164,32.9873077 C251.5972,32.1115385 253.506198,31.7101442 255.929156,31.7101442 Z M259.71044,42.4748077 L255.855733,42.5842788 C252.514988,42.6572596 250.862971,43.8249519 250.862971,46.0873558 C250.862971,46.7441827 251.119951,47.2915385 251.707335,47.7294231 C252.294719,48.1673077 253.028949,48.4227404 253.946736,48.4227404 C255.562042,48.4227404 256.920367,47.9483654 258.021711,47.0361058 C259.123056,46.0873558 259.71044,44.8831731 259.71044,43.4235577 L259.71044,42.4748077 Z M268.668044,24.5215385 L272.853154,24.5215385 L272.853154,51.0865385 L268.668044,51.0865385 L268.668044,24.5215385 Z" id="Huobi-Global" fill="#FFFFFF"></path>
            <path d="M121.675232,24.5215385 L125.860342,24.5215385 L125.860342,34.8118269 C127.402225,32.731875 129.311222,31.7101442 131.513912,31.7101442 C134.230562,31.7101442 136.359829,32.6953846 137.938423,34.6658654 C139.370171,36.4903846 140.104401,38.7892788 140.104401,41.5625481 C140.104401,44.4452885 139.370171,46.8171635 137.901711,48.6416827 C136.286406,50.6121635 134.083716,51.5974038 131.293643,51.5974038 C128.797262,51.5974038 126.888264,50.758125 125.56665,49.0795673 L125.56665,51.0865385 L121.675232,51.0865385 L121.675232,24.5215385 Z M130.522702,35.0672596 C129.164377,35.0672596 128.063032,35.6146154 127.181956,36.7093269 C126.190746,37.8770192 125.713496,39.4825962 125.713496,41.4895673 L125.713496,41.7814904 C125.713496,43.6060096 126.080611,45.1386058 126.888264,46.3062981 C127.76934,47.5834615 129.017531,48.2402885 130.669548,48.2402885 C132.505122,48.2402885 133.863447,47.5834615 134.744523,46.2698077 C135.442042,45.1750962 135.809156,43.6060096 135.809156,41.5625481 C135.809156,39.5190865 135.40533,37.9864904 134.6711,36.9282692 C133.790024,35.6875962 132.394988,35.0672596 130.522702,35.0672596 Z M146.602335,24.5215385 C147.409988,24.5215385 148.107506,24.7769712 148.658178,25.2878365 C149.172139,25.7987019 149.465831,26.4555288 149.465831,27.2583173 C149.465831,28.0611058 149.172139,28.7544231 148.621467,29.2652885 C148.070795,29.7761538 147.409988,30.0315865 146.602335,30.0315865 C145.794682,30.0315865 145.133875,29.7761538 144.583203,29.2652885 C144.032531,28.7179327 143.77555,28.0611058 143.77555,27.2583173 C143.77555,26.4555288 144.032531,25.7987019 144.583203,25.2878365 C145.133875,24.7769712 145.794682,24.5215385 146.602335,24.5215385 Z M144.50978,32.2210096 L148.69489,32.2210096 L148.69489,51.0865385 L144.50978,51.0865385 L144.50978,32.2210096 Z" id="合并形状" fill="#FFFFFF"></path>
        </g>
    </g>
</svg>