<?xml version="1.0" encoding="UTF-8"?>
<svg width="320px" height="160px" viewBox="0 0 320 160" version="1.1" xmlns="http://www.w3.org/2000/svg" xmlns:xlink="http://www.w3.org/1999/xlink">
    <!-- Generator: Sketch 52.2 (67145) - http://www.bohemiancoding.com/sketch -->
    <title>kraken</title>
    <desc>Created with Sketch.</desc>
    <defs>
        <polygon id="path-1" points="0 0 68.0427816 0 68.0427816 53.8698634 0 53.8698634"></polygon>
    </defs>
    <g id="kraken" stroke="none" stroke-width="1" fill="none" fill-rule="evenodd">
        <g id="分组-2" transform="translate(36.000000, 53.000000)">
            <g id="分组">
                <mask id="mask-2" fill="white">
                    <use xlink:href="#path-1"></use>
                </mask>
                <g id="Clip-2"></g>
                <path d="M68.0029017,40.306472 C68.0029017,38.4023851 67.9985626,37.1067205 68.0035693,35.8107205 C68.0189233,31.626559 67.4885437,27.6396149 66.3173028,23.9055652 C66.298611,23.8435155 66.2769152,23.7828075 66.2575559,23.7210932 C66.1597577,23.4155404 66.0569529,23.112 65.9508102,22.8098012 C61.353965,9.53250932 48.7980888,-0.000335403727 34.0192248,-0.000335403727 C16.436926,-0.000335403727 1.99384657,13.4882609 0.367994616,30.7283478 C-0.40938358,36.9796025 0.296231494,43.3298012 0.231811575,49.6196273 C0.208113055,51.9640994 2.37802961,53.7028323 4.72051144,53.853764 C6.94783849,53.9969814 8.97222611,52.5681615 9.58471602,50.3149193 C9.79533244,49.5401366 9.8477362,48.7036398 9.85240915,47.894646 C9.87877793,43.4616149 9.84139435,39.0282484 9.88044684,34.5955528 C9.90080754,32.2738882 11.1027564,30.5888199 13.0957685,29.8740745 C16.4225734,28.6810435 19.4125922,31.0043851 19.5127268,35.0315776 C19.619537,39.3254161 19.5360915,43.6246211 19.5467725,47.9208075 C19.5494428,48.939764 19.504716,49.9660994 19.9242799,50.939441 C20.7907779,52.9488447 22.9263149,54.1442236 25.0428264,53.7846708 C27.4357093,53.3781615 29.0705734,51.6370807 29.1119623,49.1547578 C29.1904011,44.4503851 29.1019489,39.7426584 29.169039,35.0379503 C29.2154347,31.7637391 31.2044415,29.5930062 34.0085437,29.5601366 C36.8533674,29.5265963 38.8507187,31.8150559 38.86407,35.1754658 C38.8820942,39.6765839 38.8136689,44.1790435 38.8877685,48.6791553 C38.9488506,52.3504845 41.8841292,54.5997019 45.1655397,53.6209938 C47.2666972,52.994795 48.5554293,51.1691925 48.5741211,48.6147578 C48.6081669,43.9771304 48.5631063,39.3391677 48.5961507,34.7015404 C48.6131736,32.3577391 49.7894213,30.6344348 51.7316985,29.9109689 C55.0761938,28.6652795 58.2207537,30.996 58.2885114,34.8927205 C58.3659489,39.3244099 58.3025303,43.7587826 58.3135451,48.1918137 C58.3158816,49.0729193 58.2778304,49.9550311 58.6316393,50.8089689 C59.4337174,52.7449193 61.4604415,54.0392422 63.475817,53.852087 C65.7281777,53.6421242 67.4832032,52.1395155 67.8016312,49.9137764 C68.2862826,46.5245217 67.8670525,43.1030683 68.0029017,40.306472" id="Fill-1" fill="#FFFFFF" mask="url(#mask-2)"></path>
            </g>
            <path d="M86.115747,45.6149068 L86.115747,7.71428571 L90.8039822,7.71428571 L90.8039822,30.6433963 L102.142377,19.4466449 L108.563221,19.4466449 L95.3138607,31.9186528 L109.480485,45.6149068 L103.263477,45.6149068 L90.8039822,33.2449195 L90.8039822,45.6149068 L86.115747,45.6149068 Z M114.485473,45.6149068 L114.485473,25.8356699 C114.485473,25.2564301 114.455674,24.430174 114.396077,23.3568767 C114.33648,22.2835794 114.28114,21.355106 114.230057,20.5714286 L114.153432,19.3959184 L119.134039,19.3959184 L119.185123,23.4846495 C120.768708,20.34994 123.101482,18.7826087 126.183515,18.7826087 C127.154099,18.7826087 128.039532,18.884826 128.839838,19.0892635 L128.814297,23.2546584 C127.809657,22.9820749 126.8476,22.8457853 125.928099,22.8457853 C123.918818,22.8457853 122.301201,23.5485289 121.075199,24.9540373 C119.849197,26.3595456 119.236206,28.3825955 119.236206,31.0232476 L119.236206,45.6149068 L114.485473,45.6149068 Z M145.886597,42.5962733 C148.481077,42.5962733 150.460822,41.6886556 151.825892,39.873393 C153.190961,38.0581305 153.873486,35.6165111 153.873486,32.5484616 C153.873486,29.6508594 153.178244,27.3029846 151.787738,25.5047667 C150.397232,23.7065489 148.413248,22.8074534 145.835725,22.8074534 C143.122544,22.8074534 141.058013,23.71081 139.642071,25.5175502 C138.22613,27.3242904 137.51817,29.6934708 137.51817,32.6251625 C137.51817,35.5738989 138.230369,37.9729071 139.654789,39.8222591 C141.07921,41.6716112 143.156458,42.5962733 145.886597,42.5962733 Z M145.175208,46.2857143 C143.23811,46.2857143 141.482115,45.9186684 139.907171,45.1845657 C138.332226,44.450463 137.035233,43.4560249 136.016151,42.2012214 C134.997069,40.946418 134.21382,39.4953065 133.666379,37.8478434 C133.118938,36.2003804 132.845222,34.4462427 132.845222,32.5853777 C132.845222,30.0245543 133.337911,27.7070439 134.323304,25.632777 C135.308697,23.55851 136.744655,21.8982678 138.631219,20.6520004 C140.517784,19.405733 142.699092,18.7826087 145.175208,18.7826087 C147.011239,18.7826087 148.683014,19.235014 150.190581,20.1398383 C151.698148,21.0446626 152.839334,22.2055517 153.614173,23.6225407 L153.614173,19.4484194 L158.212651,19.4484194 L158.212651,45.722336 L153.56364,45.722336 L153.56364,41.2409175 C152.82249,42.8115558 151.719203,44.0450005 150.253747,44.9412887 C148.78829,45.8375769 147.095461,46.2857143 145.175208,46.2857143 Z M166.890983,45.6149068 L166.890983,7.71428571 L171.579218,7.71428571 L171.579218,30.6433963 L182.917613,19.4466449 L189.338457,19.4466449 L176.089096,31.9186528 L190.25572,45.6149068 L184.038712,45.6149068 L171.579218,33.2449195 L171.579218,45.6149068 L166.890983,45.6149068 Z M198.266487,30.1863354 L213.286676,30.1863354 C213.116667,27.8190372 212.419642,25.9974202 211.19558,24.7214296 C209.971518,23.4454391 208.339459,22.8074534 206.299355,22.8074534 C204.157246,22.8074534 202.367932,23.4622282 200.931359,24.7717974 C199.494786,26.0813666 198.606504,27.8861946 198.266487,30.1863354 Z M207.034481,46.2857143 C202.915598,46.2857143 199.645758,45.0437336 197.224863,42.5597349 C194.803969,40.0757362 193.59354,36.7765916 193.59354,32.662202 C193.59354,28.6161011 194.757737,25.2913486 197.086167,22.6878448 C199.414597,20.0843411 202.495307,18.7826087 206.32839,18.7826087 C208.749284,18.7826087 210.821304,19.3545173 212.54451,20.4983518 C214.267716,21.6421862 215.545391,23.1957291 216.377574,25.159027 C217.209756,27.122325 217.625841,29.4014236 217.625841,31.9963913 C217.625841,32.3207622 217.600624,32.7390238 217.550189,33.2511885 L198.384869,33.2511885 C198.435305,36.1875993 199.267475,38.453894 200.881404,40.0501405 C202.495334,41.6463871 204.630397,42.4444984 207.286656,42.4444984 C210.380021,42.4444984 213.120298,41.4714001 215.507569,39.5251744 L216.894533,43.0078767 C214.120591,45.1931127 210.83394,46.2857143 207.034481,46.2857143 Z M224.914623,45.6149068 L224.914623,26.6894646 C224.914623,25.5331874 224.89346,24.3514219 224.851132,23.1441324 C224.808805,21.936843 224.762245,21.0186367 224.711452,20.3894859 L224.635262,19.4457644 L229.460589,19.4457644 L229.511382,23.5522282 C230.408727,22.0558695 231.665839,20.8868568 233.282755,20.045155 C234.899671,19.2034533 236.605449,18.7826087 238.40014,18.7826087 C241.684765,18.7826087 244.105869,19.7815832 245.663526,21.7795621 C247.221183,23.7775411 248,26.8084722 248,30.8724464 L248,45.6149068 L243.327052,45.6149068 L243.327052,30.8979524 C243.327052,28.0582717 242.903782,25.9668017 242.05723,24.6234797 C241.210677,23.2801577 239.720767,22.6085067 237.587454,22.6085067 C235.623452,22.6085067 233.837252,23.2759067 232.228802,24.6107267 C230.620352,25.9455467 229.748416,27.4801415 229.612967,29.2145573 L229.612967,45.6149068 L224.914623,45.6149068 Z" id="kraken-copy" fill="#FFFFFF"></path>
        </g>
    </g>
</svg>