<?xml version="1.0" encoding="UTF-8"?>
<svg width="320px" height="160px" viewBox="0 0 320 160" version="1.1" xmlns="http://www.w3.org/2000/svg" xmlns:xlink="http://www.w3.org/1999/xlink">
    <!-- Generator: Sketch 52.2 (67145) - http://www.bohemiancoding.com/sketch -->
    <title>Newdex</title>
    <desc>Created with Sketch.</desc>
    <g id="Newdex" stroke="none" stroke-width="1" fill="none" fill-rule="evenodd">
        <g transform="translate(24.000000, 52.000000)" fill="#FFFFFF" fill-rule="nonzero">
            <g id="newDex">
                <path d="M5.45355725,45.0131781 L16.1688825,33.644008 C16.353783,33.447825 16.6587704,33.4103825 16.8885833,33.5556523 L30.6565773,42.2587061 C32.3477519,43.3277354 34.6032785,42.9773083 35.8622614,41.4499319 L56.3250471,16.6248346 C58.0424827,20.2398974 59,24.2619193 59,28.5 C59,44.2401154 45.7924002,57 29.5,57 C19.578602,57 10.8011424,52.268244 5.45355725,45.0131781 Z M1.48587225,37.4556282 C0.521786941,34.6393536 0,31.628546 0,28.5 C0,12.7598846 13.2075999,0 29.5,0 C38.1880011,0 45.998806,3.62840986 51.397427,9.40227491 C46.6073563,15.2755272 40.1886145,23.292962 32.1412013,33.4545791 C31.8739254,33.7920734 31.3822071,33.8728065 31.0145325,33.6395622 L31.0145328,33.6395617 L17.8662838,25.2986144 C16.2827179,24.2940367 14.1818059,24.5291061 12.8778262,25.856769 L1.48587225,37.4556282 Z" id="Combined-Shape"></path>
            </g>
            <path d="M97.9398615,46.212766 L90.6503653,46.212766 L77.7370131,23.3829787 L74.6134738,46.212766 L67,46.212766 L71.6529965,12.2042553 L79.2664702,12.2042553 L91.7265951,35.9787234 L94.9793842,12.2042553 L102.592858,12.2042553 L97.9398615,46.212766 Z M131.511216,36.4510638 L112.072559,36.4510638 C112.311509,40.2298062 114.846428,42.2241124 119.677394,42.4340426 C123.565145,42.4340426 127.344277,40.8595902 131.014905,37.7106383 L130.325572,42.7489362 C127.022007,45.5829928 122.724459,47 117.432799,47 C108.188478,46.6851048 103.888939,42.5915289 104.534055,34.7191489 C105.913296,26.2169788 110.990921,21.8609939 119.767082,21.6510638 C129.191202,21.4411337 133.105874,26.3744177 131.511216,36.4510638 Z M112.880798,31.7276596 L124.70598,31.7276596 C125.071906,28.2638125 123.3182,26.4794332 119.44481,26.3744681 C116.097025,26.3744681 113.909043,28.1588474 112.880798,31.7276596 Z M179.152348,22.1234043 L167.109081,46.212766 L158.523674,46.212766 L156.33688,31.412766 L156.174891,31.412766 L149.61429,46.212766 L141.51485,46.212766 L136.063327,22.1234043 L144.324755,22.1234043 L146.717474,38.9702128 L153.720106,22.1234043 L161.33358,22.1234043 L163.888288,38.9702128 L170.890919,22.1234043 L179.152348,22.1234043 Z M195.275407,21.493617 L199.811093,21.493617 L201.383634,10 L208.997107,10 L203.956361,46.8425532 L191.807201,46.8425532 C182.397442,46.9475183 178.321068,42.8014606 179.577954,34.4042553 C180.75557,25.7971201 185.988002,21.493617 195.275407,21.493617 Z M193.889808,42.2765957 L196.967596,42.2765957 L199.143302,26.3744681 L196.227503,26.3744681 C191.058197,26.269503 188.147013,28.9985538 187.493864,34.5617021 C186.790167,39.7049903 188.922127,42.2765957 193.889808,42.2765957 Z M237.451893,36.4510638 L218.013237,36.4510638 C218.252186,40.2298062 220.787106,42.2241124 225.618072,42.4340426 C229.505823,42.4340426 233.284955,40.8595902 236.955582,37.7106383 L236.26625,42.7489362 C232.962685,45.5829928 228.665137,47 223.373476,47 C214.129155,46.6851048 209.829617,42.5915289 210.474732,34.7191489 C211.853974,26.2169788 216.931599,21.8609939 225.70776,21.6510638 C235.13188,21.4411337 239.046552,26.3744177 237.451893,36.4510638 Z M218.821475,31.7276596 L230.646658,31.7276596 C231.012583,28.2638125 229.258878,26.4794332 225.385488,26.3744681 C222.037703,26.3744681 219.84972,28.1588474 218.821475,31.7276596 Z M268.352083,46.212766 L259.442699,46.212766 L254.752809,37.8680851 L247.455527,46.212766 L238.546143,46.212766 L249.783731,33.9319149 L242.651959,22.1234043 L251.075377,22.1234043 L255.765267,30.4680851 L262.576582,22.1234043 L271,22.1234043 L260.291462,34.0893617 L268.352083,46.212766 Z"></path>
        </g>
    </g>
</svg>