<?xml version="1.0" encoding="UTF-8"?>
<svg width="320px" height="160px" viewBox="0 0 320 160" version="1.1" xmlns="http://www.w3.org/2000/svg" xmlns:xlink="http://www.w3.org/1999/xlink">
    <!-- Generator: Sketch 52.2 (67145) - http://www.bohemiancoding.com/sketch -->
    <title>okex</title>
    <desc>Created with Sketch.</desc>
    <g id="okex" stroke="none" stroke-width="1" fill="none" fill-rule="evenodd">
        <g id="分组-2" transform="translate(68.000000, 46.000000)" fill="#FFFFFF">
            <path d="M92.7333333,51.1403883 C84.8933333,51.1403883 79.4933333,45.2318447 79.4933333,35.5852427 C79.4933333,25.8984466 84.8933333,20.2712621 92.7333333,20.2712621 C100.573333,20.2712621 105.973333,25.9386408 105.973333,35.5852427 C105.973333,45.2318447 100.573333,51.1403883 92.7333333,51.1403883 Z M92.7333333,45.995534 C97.1333333,45.995534 99.9333333,41.9359223 99.9333333,35.5852427 C99.9333333,29.1943689 97.1333333,25.3759223 92.7333333,25.3759223 C88.3333333,25.3759223 85.5333333,29.1943689 85.5333333,35.5852427 C85.5333333,41.9359223 88.3333333,45.995534 92.7333333,45.995534 Z M111.773333,50.5776699 L111.773333,20.8339806 L117.693333,20.8339806 L117.693333,33.7363107 L117.813333,33.7363107 L127.613333,20.8339806 L134.133333,20.8339806 L125.093333,32.5304854 L135.733333,50.5776699 L129.213333,50.5776699 L121.573333,37.2332039 L117.693333,42.2172816 L117.693333,50.5776699 L111.773333,50.5776699 Z M139.213333,50.5776699 L139.213333,20.8339806 L157.373333,20.8339806 L157.373333,25.7778641 L145.133333,25.7778641 L145.133333,32.651068 L155.533333,32.651068 L155.533333,37.6351456 L145.133333,37.6351456 L145.133333,45.5935922 L157.813333,45.5935922 L157.813333,50.5776699 L139.213333,50.5776699 Z M160.733333,50.5776699 L169.053333,35.2234951 L161.253333,20.8339806 L167.813333,20.8339806 L170.773333,26.9434951 C171.453333,28.3502913 172.093333,29.7972816 172.973333,31.6462136 L173.173333,31.6462136 C173.893333,29.7972816 174.493333,28.3502913 175.133333,26.9434951 L177.933333,20.8339806 L184.173333,20.8339806 L176.373333,35.5048544 L184.693333,50.5776699 L178.133333,50.5776699 L174.813333,43.9858252 C174.053333,42.4584466 173.373333,40.8908738 172.493333,39.0821359 L172.333333,39.0821359 C171.573333,40.8908738 170.893333,42.4584466 170.173333,43.9858252 L167.013333,50.5776699 L160.733333,50.5776699 Z" id="okex"></path>
            <circle id="椭圆形" cx="16" cy="35" r="16"></circle>
            <circle id="椭圆形-copy" cx="53" cy="35" r="16"></circle>
            <circle id="椭圆形-copy-2" cx="35" cy="16" r="16"></circle>
            <circle id="椭圆形-copy-3" cx="35" cy="54" r="16"></circle>
        </g>
    </g>
</svg>