<?xml version="1.0" encoding="UTF-8"?>
<svg width="320px" height="160px" viewBox="0 0 320 160" version="1.1" xmlns="http://www.w3.org/2000/svg" xmlns:xlink="http://www.w3.org/1999/xlink">
    <!-- Generator: Sketch 52.2 (67145) - http://www.bohemiancoding.com/sketch -->
    <title>Poloniex</title>
    <desc>Created with Sketch.</desc>
    <defs>
        <polygon id="path-1" points="0 0 237.40796 0 237.40796 36 0 36"></polygon>
    </defs>
    <g id="Poloniex" stroke="none" stroke-width="1" fill="none" fill-rule="evenodd">
        <g id="分组-2" transform="translate(41.000000, 62.000000)">
            <g id="分组">
                <mask id="mask-2" fill="white">
                    <use xlink:href="#path-1"></use>
                </mask>
                <g id="Clip-2"></g>
                <path d="M161.615088,36 L169.323383,36 L169.323383,0.0168567179 L161.615088,0.0168567179 L161.615088,36 Z M148.999794,0.0168567179 L148.999794,26.0981656 L135.12287,0.0168567179 L126.011436,0.0168567179 L126.011436,36 L133.021151,36 L133.021151,9.36142786 L147.178105,36 L156.008512,36 L156.008512,0.0168567179 L148.999794,0.0168567179 Z M74.5696552,29.1660882 L74.5696552,0.0168567179 L66.7198506,0.0168567179 L66.7198506,36 L88.7266087,36 L88.7266087,29.1660882 L74.5696552,29.1660882 Z M113.816685,24.4234011 C113.817681,27.2979673 111.51765,29.6479921 108.630652,29.7243431 L104.004678,29.7243431 C101.140601,29.7253347 98.8176486,27.4159643 98.816652,24.5651958 C98.816652,24.518592 98.8176486,24.4709965 98.8186451,24.4234011 L98.8186451,11.5934556 C98.741911,8.74367873 101.000088,6.37183937 103.863168,6.29449678 C103.911003,6.29350521 103.95784,6.29251363 104.004678,6.29251363 L108.630652,6.29251363 C111.51765,6.36886465 113.817681,8.71888944 113.816685,11.5934556 L113.816685,24.4234011 Z M112.555056,0.0168567179 L99.939761,0.0168567179 C95.0048579,0.378780367 91.1691466,4.43827467 91.1103503,9.36142786 L91.1103503,26.6554289 C91.1850914,31.784829 95.3456771,35.9256321 100.501814,36 L113.116112,36 C118.303142,36 122.507575,31.8155677 122.507575,26.6554289 L122.507575,9.36142786 C122.517541,4.20128904 118.320083,0.00892414477 113.133053,0 C112.94072,0 112.748386,0.00495785821 112.555056,0.0168567179 Z M55.2266685,24.4234011 C55.227665,27.2979673 52.9266369,29.6479921 50.0406354,29.7243431 L45.414662,29.7243431 C42.4728538,29.7243431 40.0891122,27.3505206 40.0891122,24.4234011 L40.0891122,11.5934556 C40.0891122,8.66633614 42.4728538,6.29251363 45.414662,6.29251363 L50.0406354,6.29251363 C52.9266369,6.36886465 55.227665,8.71888944 55.2266685,11.5934556 L55.2266685,24.4234011 Z M53.9650394,0.0168567179 L41.3497448,0.0168567179 C36.1946046,0.091224591 32.0340189,4.23202776 31.9582813,9.36142786 L31.9582813,26.6554289 C32.0340189,31.784829 36.1946046,35.9256321 41.3497448,36 L53.9650394,36 C59.0414523,35.8492811 63.0784661,31.7094695 63.0754765,26.6554289 L63.0754765,9.36142786 C63.0784661,4.30738721 59.0414523,0.167575607 53.9650394,0.0168567179 Z M21.0251588,13.9643034 C21.0251588,15.8899355 19.4565931,17.4506693 17.5212979,17.4506693 L7.99031773,17.4506693 L7.99031773,5.8740704 L17.9418409,5.8740704 C19.7326367,6.15270203 21.0470829,7.69757065 21.0251588,9.50123946 L21.0251588,13.9643034 Z M21.0251588,0.0168567179 L0,0.0168567179 L0,36 L7.99031773,36 L7.99031773,23.5875062 L21.0251588,23.5875062 C25.383061,23.5111552 28.8759599,19.9742191 28.8749634,15.6370848 L28.8749634,7.82746653 C28.8749634,3.51313832 25.3601404,0.0168567179 21.0251588,0.0168567179 Z" id="Fill-1" fill="#FFFFFF" mask="url(#mask-2)"></path>
                <polygon id="Fill-3" fill="#FFFFFF" mask="url(#mask-2)" points="227.540305 21.2459016 222.606965 28.3273938 227.540305 35.4098361 237.40796 35.4098361"></polygon>
                <polygon id="Fill-4" fill="#FFFFFF" mask="url(#mask-2)" points="236.223881 0 226.480899 0 222.014925 6.79949415 226.886897 14.1639344"></polygon>
                <path d="M198.802487,6.83810521 L198.802487,0 L174.059701,0 L174.059701,36 L198.802487,36 L198.802487,29.1628868 L181.748093,29.1628868 L181.748093,20.9309708 L198.383084,20.9309708 L198.383084,14.0928656 L181.748093,14.0928656 L181.748093,6.83810521 L198.802487,6.83810521 Z M219.351243,10.1862272 L212.362519,0 L202.297843,0 L214.318408,17.4419797 L201.598175,36 L211.662852,36 L224.383085,17.4419797 L219.351243,10.1862272 Z" id="Fill-5" fill="#FFFFFF" mask="url(#mask-2)"></path>
            </g>
        </g>
    </g>
</svg>