<?xml version="1.0" encoding="UTF-8"?>
<svg width="320px" height="160px" viewBox="0 0 320 160" version="1.1" xmlns="http://www.w3.org/2000/svg" xmlns:xlink="http://www.w3.org/1999/xlink">
    <!-- Generator: Sketch 52.2 (67145) - http://www.bohemiancoding.com/sketch -->
    <title>upbit</title>
    <desc>Created with Sketch.</desc>
    <defs>
        <polygon id="path-1" points="0 0.550429198 58.5945454 0.550429198 58.5945454 50.6224011 0 50.6224011"></polygon>
        <polygon id="path-3" points="0.327886178 0.551009165 59.3202267 0.551009165 59.3202267 50.6508753 0.327886178 50.6508753"></polygon>
        <polygon id="path-5" points="0.134918697 0.292018042 53.3928021 0.292018042 53.3928021 50.6224915 0.134918697 50.6224915"></polygon>
    </defs>
    <g id="upbit" stroke="none" stroke-width="1" fill="none" fill-rule="evenodd">
        <g id="分组-2" transform="translate(49.000000, 54.000000)">
            <g id="分组">
                <g transform="translate(0.000000, 0.617347)">
                    <mask id="mask-2" fill="white">
                        <use xlink:href="#path-1"></use>
                    </mask>
                    <g id="Clip-2"></g>
                    <path d="M52.8370769,12.5000491 L44.907624,14.7762533 L58.5945454,0.550429198 L41.5101868,0.550429198 L27.9186384,42.0870875 L19.9855864,42.0870875 C17.2062741,42.0870875 15.8152682,39.3462411 16.7042163,36.700312 L28.484578,0.550429198 L12.6274716,0.550429198 L0.570888221,37.7507287 C-1.57140469,44.0640766 2.53413187,50.6224011 9.17335044,50.6224011 L40.5915471,50.6224011 L52.8370769,12.5000491 Z" id="Fill-1" fill="#FFFFFF" mask="url(#mask-2)"></path>
                </g>
                <g transform="translate(50.833367, 0.617347)">
                    <mask id="mask-4" fill="white">
                        <use xlink:href="#path-3"></use>
                    </mask>
                    <g id="Clip-4"></g>
                    <path d="M42.2546971,14.382316 L39.9849225,21.2599813 C38.9051007,24.5323897 35.8733623,26.1704028 32.459299,26.1704028 L22.9602699,26.1704028 L29.1598436,7.95236832 L37.6667976,7.95236832 C40.9680438,7.95236832 43.2978085,11.2193498 42.2546971,14.382316 M50.5395982,0.551009165 L13.8856483,0.551009165 L19.0152494,16.4924677 L12.2515897,12.5073292 L0.327886178,50.6510562 L15.6334195,50.6510562 L20.7057166,34.1406798 L38.35355,34.1406798 C46.0188519,34.1406798 52.8559323,29.2682465 55.4265528,21.9727115 L58.8048011,12.3852244 C60.8381969,6.61464253 56.6021796,0.551009165 50.5395982,0.551009165" id="Fill-3" fill="#FFFFFF" mask="url(#mask-4)"></path>
                </g>
                <g transform="translate(107.178786, 0.000000)">
                    <mask id="mask-6" fill="white">
                        <use xlink:href="#path-5"></use>
                    </mask>
                    <g id="Clip-6"></g>
                    <path d="M38.0882129,30.6161917 L36.0949733,36.5953151 C34.8796271,40.2447816 31.4653397,42.705611 27.6207856,42.705611 L17.6626719,42.705611 L23.8822263,24.0440973 L33.3516864,24.0440973 C36.7596859,24.0440973 39.165227,27.3827033 38.0882129,30.6161917 M45.0587129,17.2572755 L26.7090514,17.2572755 L32.3627018,0.292018042 L15.9658582,0.292018042 L0.134918697,50.6226712 L31.7806291,50.6226712 C39.9026987,50.6226712 47.1211185,45.4458554 49.7287682,37.7525069 L52.9454383,28.2613783 C54.7760928,22.8599523 50.759971,17.2572755 45.0587129,17.2572755" id="Fill-5" fill="#FFFFFF" mask="url(#mask-6)"></path>
                </g>
                <polygon id="Fill-7" fill="#FFFFFF" points="177.970932 0.617347458 173.935858 12.9642966 189.499191 12.9642966 193.534265 0.617347458"></polygon>
                <polygon id="Fill-9" fill="#FFFFFF" points="172.377477 19.7551186 162.911755 50.0051441 177.944925 50.0051441 187.409763 19.7551186"></polygon>
                <path d="M210.81778,25.0520691 L218.278843,25.0520691 L221.094524,15.9601426 L213.803458,15.9601426 L218.842516,0.617347458 L203.636765,0.617347458 L191.503479,39.0921485 C189.704199,44.7986391 193.924589,50.6224915 199.860155,50.6224915 L214.336711,50.6224915 L217.470017,41.6361907 L210.195951,41.6361907 C207.820471,41.6361907 206.141978,39.289858 206.889069,37.0157479 L210.81778,25.0520691 Z" id="Fill-11" fill="#FFFFFF"></path>
            </g>
        </g>
    </g>
</svg>