<?xml version="1.0" encoding="UTF-8"?>
<svg width="320px" height="160px" viewBox="0 0 320 160" version="1.1" xmlns="http://www.w3.org/2000/svg" xmlns:xlink="http://www.w3.org/1999/xlink">
    <!-- Generator: Sketch 52.2 (67145) - http://www.bohemiancoding.com/sketch -->
    <title>zb</title>
    <desc>Created with Sketch.</desc>
    <defs>
        <polygon id="path-1" points="0 0.173839806 68.1602 0.173839806 68.1602 68.665015 0 68.665015"></polygon>
    </defs>
    <g id="zb" stroke="none" stroke-width="1" fill="none" fill-rule="evenodd">
        <g id="分组-2" transform="translate(20.000000, 46.000000)">
            <g id="分组">
                <g transform="translate(0.000000, 0.161112)">
                    <mask id="mask-2" fill="white">
                        <use xlink:href="#path-1"></use>
                    </mask>
                    <g id="Clip-2"></g>
                    <path d="M34.0802,6.11417039 C18.5478667,6.11417039 5.91153333,18.8115102 5.91153333,34.4195782 C5.91153333,50.0273112 18.5478667,62.7249859 34.0802,62.7249859 C49.6125333,62.7249859 62.2488667,50.0273112 62.2488667,34.4195782 C62.2488667,18.8115102 49.6125333,6.11417039 34.0802,6.11417039 M34.0802,68.665015 C15.2885333,68.665015 -0.000133333333,53.3024665 -0.000133333333,34.4195782 C-0.000133333333,15.5363549 15.2885333,0.173806311 34.0802,0.173806311 C52.8718667,0.173806311 68.1602,15.5363549 68.1602,34.4195782 C68.1602,53.3024665 52.8718667,68.665015 34.0802,68.665015" id="Fill-1" fill="#FFFFFF" mask="url(#mask-2)"></path>
                </g>
                <path d="M41.574,50.0911194 L27.04,50.0911194 C23.2576667,50.0911194 19.8866667,48.0609786 18.452,44.9201388 C17.1806667,42.1360223 17.6413333,39.0481049 19.6846667,36.6612408 L26.952,28.172566 C28.7176667,26.109935 31.3986667,24.9275563 34.3066667,24.9275563 C37.2153333,24.9275563 39.8966667,26.109935 41.662,28.172566 L37.1803333,32.0466146 C36.5486667,31.3083816 35.4743333,30.8675854 34.3066667,30.8675854 C33.1396667,30.8675854 32.0653333,31.3083816 31.4336667,32.0466146 L24.1663333,40.5352893 C23.6416667,41.1479155 23.527,41.7900175 23.8246667,42.4428379 C24.1846667,43.2309786 25.2426667,44.1510903 27.04,44.1510903 L41.574,44.1510903 C43.371,44.1510903 44.4286667,43.2309786 44.789,42.4428379 C45.0863333,41.7900175 44.972,41.1482505 44.447,40.5352893 L42.8663333,38.6887019 L47.348,34.8146534 L48.9286667,36.6612408 C50.972,39.0481049 51.433,42.1360223 50.1616667,44.9201388 C48.727,48.0616485 45.3563333,50.0911194 41.574,50.0911194" id="Fill-3" fill="#FFFFFF"></path>
                <path d="M34.3067333,42.1707233 C31.3984,42.1707233 28.7174,40.9883447 26.9520667,38.9257136 L31.4337333,35.052 C32.0654,35.7898981 33.1397333,36.2306942 34.3067333,36.2306942 C35.4744,36.2306942 36.5487333,35.7898981 37.1804,35.052 L44.4470667,26.5629903 C44.9720667,25.9500291 45.0864,25.3085971 44.7887333,24.6554417 C44.4287333,23.867301 43.3707333,22.9471893 41.5740667,22.9471893 L27.0400667,22.9471893 C25.2427333,22.9471893 24.1847333,23.867301 23.8247333,24.6554417 C23.5270667,25.3085971 23.6414,25.9503641 24.1664,26.5629903 L25.7477333,28.4102476 L21.2657333,32.2842961 L19.6847333,30.4373738 C17.6414,28.0501748 17.1807333,24.9622573 18.4520667,22.1781408 C19.8867333,19.037301 23.2577333,17.0071602 27.0400667,17.0071602 L41.5740667,17.0071602 C45.3560667,17.0071602 48.7270667,19.0366311 50.1614,22.1781408 C51.4330667,24.9622573 50.9720667,28.0501748 48.9287333,30.4373738 L41.6620667,38.9257136 C39.8967333,40.9883447 37.2154,42.1707233 34.3067333,42.1707233" id="Fill-5" fill="#FFFFFF"></path>
            </g>
            <path d="M81.26,29.7704854 L81.26,27.9818447 L88.16,17.3705825 L81.92,17.3705825 L81.92,14.8986408 L91.78,14.8986408 L91.78,16.6671845 L84.9,27.2784466 L91.86,27.2784466 L91.86,29.7704854 L81.26,29.7704854 Z M94.48,29.7704854 L94.48,14.8986408 L99.38,14.8986408 C102.42,14.8986408 104.74,15.7829126 104.74,18.5563107 C104.74,19.9229126 103.98,21.3297087 102.72,21.7718447 L102.72,21.8723301 C104.32,22.2541748 105.5,23.3796117 105.5,25.3893204 C105.5,28.3837864 103.02,29.7704854 99.76,29.7704854 L94.48,29.7704854 Z M97.44,20.9478641 L99.16,20.9478641 C101.04,20.9478641 101.86,20.1841748 101.86,18.9984466 C101.86,17.6921359 100.98,17.1696117 99.2,17.1696117 L97.44,17.1696117 L97.44,20.9478641 Z M97.44,27.4794175 L99.5,27.4794175 C101.52,27.4794175 102.62,26.7559223 102.62,25.2084466 C102.62,23.7614563 101.54,23.1585437 99.5,23.1585437 L97.44,23.1585437 L97.44,27.4794175 Z M112.64,29.7704854 L112.64,14.8986408 L115.66,14.8986408 L119.96,22.8168932 L121.44,26.0324272 L121.54,26.0324272 C121.38,24.4849515 121.16,22.5154369 121.16,20.8272816 L121.16,14.8986408 L123.96,14.8986408 L123.96,29.7704854 L120.96,29.7704854 L116.68,21.8120388 L115.18,18.6166019 L115.08,18.6166019 C115.22,20.2243689 115.44,22.0933981 115.44,23.8016505 L115.44,29.7704854 L112.64,29.7704854 Z M132.24,30.0518447 C129.12,30.0518447 126.68,27.8612621 126.68,24.1633981 C126.68,20.5057282 129.22,18.2347573 131.9,18.2347573 C134.98,18.2347573 136.58,20.5057282 136.58,23.6207767 C136.58,24.1633981 136.52,24.7060194 136.44,24.9672816 L129.54,24.9672816 C129.78,26.8162136 130.98,27.7808738 132.64,27.7808738 C133.56,27.7808738 134.36,27.4995146 135.16,26.9970874 L136.16,28.8058252 C135.06,29.5695146 133.64,30.0518447 132.24,30.0518447 Z M129.5,23.0178641 L134.06,23.0178641 C134.06,21.4904854 133.38,20.5258252 131.94,20.5258252 C130.76,20.5258252 129.72,21.3699029 129.5,23.0178641 Z M143.1,30.0518447 C140.44,30.0518447 139.42,28.3636893 139.42,25.8314563 L139.42,20.8473786 L137.84,20.8473786 L137.84,18.6567961 L139.56,18.5161165 L139.9,15.5015534 L142.36,15.5015534 L142.36,18.5161165 L145.12,18.5161165 L145.12,20.8473786 L142.36,20.8473786 L142.36,25.8314563 C142.36,27.1176699 142.88,27.7205825 143.88,27.7205825 C144.24,27.7205825 144.68,27.6 144.98,27.4794175 L145.46,29.6298058 C144.86,29.8307767 144.08,30.0518447 143.1,30.0518447 Z M149.26,29.7704854 L146.36,18.5161165 L149.3,18.5161165 L150.52,24.0830097 C150.74,25.1682524 150.88,26.2534951 151.08,27.358835 L151.16,27.358835 C151.38,26.2534951 151.58,25.1481553 151.86,24.0830097 L153.2,18.5161165 L155.82,18.5161165 L157.22,24.0830097 C157.48,25.1682524 157.68,26.2534951 157.92,27.358835 L158.02,27.358835 C158.22,26.2534951 158.36,25.1682524 158.58,24.0830097 L159.8,18.5161165 L162.52,18.5161165 L159.76,29.7704854 L156.3,29.7704854 L155.12,24.8667961 C154.88,23.8016505 154.7,22.776699 154.48,21.5909709 L154.38,21.5909709 C154.16,22.776699 154,23.8217476 153.76,24.8667961 L152.62,29.7704854 L149.26,29.7704854 Z M169.34,30.0518447 C166.54,30.0518447 163.96,27.8813592 163.96,24.1633981 C163.96,20.4052427 166.54,18.2347573 169.34,18.2347573 C172.14,18.2347573 174.72,20.4052427 174.72,24.1633981 C174.72,27.8813592 172.14,30.0518447 169.34,30.0518447 Z M169.34,27.6401942 C170.86,27.6401942 171.72,26.2735922 171.72,24.1633981 C171.72,22.0331068 170.86,20.6464078 169.34,20.6464078 C167.82,20.6464078 166.96,22.0331068 166.96,24.1633981 C166.96,26.2735922 167.82,27.6401942 169.34,27.6401942 Z M177.18,29.7704854 L177.18,18.5161165 L179.58,18.5161165 L179.78,20.5057282 L179.86,20.5057282 C180.68,19.0386408 181.88,18.2347573 183.04,18.2347573 C183.66,18.2347573 184.02,18.3352427 184.36,18.4759223 L183.84,21.0282524 C183.46,20.9076699 183.14,20.8473786 182.68,20.8473786 C181.8,20.8473786 180.74,21.4301942 180.1,23.0580583 L180.1,29.7704854 L177.18,29.7704854 Z M185.9,29.7704854 L185.9,13.7330097 L188.76,13.7330097 L188.76,23.3796117 L188.84,23.3796117 L192.72,18.5161165 L195.92,18.5161165 L192.04,23.1183495 L196.28,29.7704854 L193.1,29.7704854 L190.38,25.1079612 L188.76,26.9568932 L188.76,29.7704854 L185.9,29.7704854 Z M85.16,49.8675728 L85.16,37.4676699 L81,37.4676699 L81,34.9957282 L92.32,34.9957282 L92.32,37.4676699 L88.12,37.4676699 L88.12,49.8675728 L85.16,49.8675728 Z M99.34,50.148932 C96.22,50.148932 93.78,47.9583495 93.78,44.2604854 C93.78,40.6028155 96.32,38.3318447 99,38.3318447 C102.08,38.3318447 103.68,40.6028155 103.68,43.7178641 C103.68,44.2604854 103.62,44.8031068 103.54,45.0643689 L96.64,45.0643689 C96.88,46.913301 98.08,47.8779612 99.74,47.8779612 C100.66,47.8779612 101.46,47.5966019 102.26,47.0941748 L103.26,48.9029126 C102.16,49.6666019 100.74,50.148932 99.34,50.148932 Z M96.6,43.1149515 L101.16,43.1149515 C101.16,41.5875728 100.48,40.6229126 99.04,40.6229126 C97.86,40.6229126 96.82,41.4669903 96.6,43.1149515 Z M110.86,50.148932 C107.76,50.148932 105.4,47.9784466 105.4,44.2604854 C105.4,40.5023301 108.08,38.3318447 111.12,38.3318447 C112.5,38.3318447 113.56,38.874466 114.38,39.5778641 L112.98,41.4870874 C112.42,41.0047573 111.9,40.7434951 111.26,40.7434951 C109.56,40.7434951 108.4,42.1301942 108.4,44.2604854 C108.4,46.3706796 109.56,47.7372816 111.18,47.7372816 C111.98,47.7372816 112.74,47.3554369 113.36,46.8329126 L114.52,48.7823301 C113.46,49.7268932 112.1,50.148932 110.86,50.148932 Z M116.64,49.8675728 L116.64,33.8300971 L119.56,33.8300971 L119.56,37.8696117 L119.44,39.9798058 C120.34,39.1357282 121.44,38.3318447 122.96,38.3318447 C125.38,38.3318447 126.42,40.02 126.42,42.8536893 L126.42,49.8675728 L123.48,49.8675728 L123.48,43.2154369 C123.48,41.4870874 123,40.8640777 121.9,40.8640777 C120.98,40.8640777 120.4,41.3062136 119.56,42.1301942 L119.56,49.8675728 L116.64,49.8675728 Z M129.44,49.8675728 L129.44,38.6132039 L131.84,38.6132039 L132.04,40.1003883 L132.12,40.1003883 C133.1,39.1357282 134.24,38.3318447 135.76,38.3318447 C138.18,38.3318447 139.22,40.02 139.22,42.8536893 L139.22,49.8675728 L136.28,49.8675728 L136.28,43.2154369 C136.28,41.4870874 135.8,40.8640777 134.7,40.8640777 C133.78,40.8640777 133.2,41.3062136 132.36,42.1301942 L132.36,49.8675728 L129.44,49.8675728 Z M146.94,50.148932 C144.14,50.148932 141.56,47.9784466 141.56,44.2604854 C141.56,40.5023301 144.14,38.3318447 146.94,38.3318447 C149.74,38.3318447 152.32,40.5023301 152.32,44.2604854 C152.32,47.9784466 149.74,50.148932 146.94,50.148932 Z M146.94,47.7372816 C148.46,47.7372816 149.32,46.3706796 149.32,44.2604854 C149.32,42.1301942 148.46,40.7434951 146.94,40.7434951 C145.42,40.7434951 144.56,42.1301942 144.56,44.2604854 C144.56,46.3706796 145.42,47.7372816 146.94,47.7372816 Z M157.54,50.148932 C155.5,50.148932 154.78,48.8024272 154.78,46.7123301 L154.78,33.8300971 L157.7,33.8300971 L157.7,46.8530097 C157.7,47.5162136 158.02,47.7372816 158.3,47.7372816 C158.42,47.7372816 158.5,47.7372816 158.7,47.6970874 L159.06,49.8876699 C158.72,50.0283495 158.22,50.148932 157.54,50.148932 Z M165.76,50.148932 C162.96,50.148932 160.38,47.9784466 160.38,44.2604854 C160.38,40.5023301 162.96,38.3318447 165.76,38.3318447 C168.56,38.3318447 171.14,40.5023301 171.14,44.2604854 C171.14,47.9784466 168.56,50.148932 165.76,50.148932 Z M165.76,47.7372816 C167.28,47.7372816 168.14,46.3706796 168.14,44.2604854 C168.14,42.1301942 167.28,40.7434951 165.76,40.7434951 C164.24,40.7434951 163.38,42.1301942 163.38,44.2604854 C163.38,46.3706796 164.24,47.7372816 165.76,47.7372816 Z M177.54,54.751165 C174.9,54.751165 172.86,53.8467961 172.86,51.8571845 C172.86,50.9126214 173.44,50.1087379 174.46,49.5259223 L174.46,49.4254369 C173.88,49.0435922 173.44,48.4607767 173.44,47.5363107 C173.44,46.692233 174.02,45.9084466 174.68,45.4261165 L174.68,45.3457282 C173.92,44.7830097 173.2,43.7178641 173.2,42.4115534 C173.2,39.7587379 175.34,38.3318447 177.72,38.3318447 C178.34,38.3318447 178.94,38.4524272 179.4,38.6132039 L183.44,38.6132039 L183.44,40.7836893 L181.52,40.7836893 C181.82,41.165534 182.04,41.7885437 182.04,42.4919417 C182.04,45.0241748 180.12,46.3103883 177.72,46.3103883 C177.28,46.3103883 176.76,46.2099029 176.28,46.0491262 C175.96,46.3103883 175.8,46.5716505 175.8,47.0137864 C175.8,47.616699 176.24,47.9382524 177.56,47.9382524 L179.46,47.9382524 C182.16,47.9382524 183.62,48.7823301 183.62,50.7518447 C183.62,53.0228155 181.28,54.751165 177.54,54.751165 Z M177.72,44.4815534 C178.7,44.4815534 179.46,43.7379612 179.46,42.4115534 C179.46,41.0851456 178.72,40.3415534 177.72,40.3415534 C176.72,40.3415534 175.96,41.0851456 175.96,42.4115534 C175.96,43.7379612 176.74,44.4815534 177.72,44.4815534 Z M177.98,52.8821359 C179.66,52.8821359 180.82,52.1385437 180.82,51.2542718 C180.82,50.4503883 180.16,50.2494175 178.96,50.2494175 L177.6,50.2494175 C176.92,50.2494175 176.44,50.1891262 176.04,50.0886408 C175.54,50.4905825 175.3,50.9327184 175.3,51.3949515 C175.3,52.3395146 176.34,52.8821359 177.98,52.8821359 Z M186.52,54.3894175 C185.86,54.3894175 185.42,54.3090291 184.98,54.1683495 L185.52,51.8973786 C185.72,51.9576699 186.04,52.0380583 186.3,52.0380583 C187.44,52.0380583 188.08,51.3145631 188.4,50.3298058 L188.6,49.6666019 L184.24,38.6132039 L187.2,38.6132039 L188.98,43.8384466 C189.32,44.843301 189.6,45.9285437 189.92,47.0137864 L190.02,47.0137864 C190.28,45.9687379 190.56,44.8834951 190.82,43.8384466 L192.36,38.6132039 L195.18,38.6132039 L191.2,50.2092233 C190.22,52.8620388 189.02,54.3894175 186.52,54.3894175 Z M201.8,49.8675728 L201.8,34.9957282 L204.76,34.9957282 L204.76,47.375534 L210.76,47.375534 L210.76,49.8675728 L201.8,49.8675728 Z M213.1,49.8675728 L213.1,38.6132039 L216.02,38.6132039 L216.02,49.8675728 L213.1,49.8675728 Z M214.58,36.804466 C213.56,36.804466 212.82,36.121165 212.82,35.196699 C212.82,34.2320388 213.56,33.588932 214.58,33.588932 C215.58,33.588932 216.32,34.2320388 216.32,35.196699 C216.32,36.121165 215.58,36.804466 214.58,36.804466 Z M219.18,49.8675728 L219.18,38.6132039 L221.58,38.6132039 L221.78,40.1204854 L221.86,40.1204854 C222.8,39.1357282 223.84,38.3318447 225.3,38.3318447 C226.9,38.3318447 227.84,39.0553398 228.38,40.3013592 C229.4,39.2161165 230.48,38.3318447 231.94,38.3318447 C234.32,38.3318447 235.42,40.02 235.42,42.8536893 L235.42,49.8675728 L232.48,49.8675728 L232.48,43.2154369 C232.48,41.4870874 231.98,40.8640777 230.92,40.8640777 C230.28,40.8640777 229.56,41.2861165 228.76,42.1301942 L228.76,49.8675728 L225.82,49.8675728 L225.82,43.2154369 C225.82,41.4870874 225.32,40.8640777 224.26,40.8640777 C223.62,40.8640777 222.9,41.2861165 222.1,42.1301942 L222.1,49.8675728 L219.18,49.8675728 Z M238.46,49.8675728 L238.46,38.6132039 L241.38,38.6132039 L241.38,49.8675728 L238.46,49.8675728 Z M239.94,36.804466 C238.92,36.804466 238.18,36.121165 238.18,35.196699 C238.18,34.2320388 238.92,33.588932 239.94,33.588932 C240.94,33.588932 241.68,34.2320388 241.68,35.196699 C241.68,36.121165 240.94,36.804466 239.94,36.804466 Z M248.64,50.148932 C245.98,50.148932 244.96,48.4607767 244.96,45.9285437 L244.96,40.944466 L243.38,40.944466 L243.38,38.7538835 L245.1,38.6132039 L245.44,35.5986408 L247.9,35.5986408 L247.9,38.6132039 L250.66,38.6132039 L250.66,40.944466 L247.9,40.944466 L247.9,45.9285437 C247.9,47.2147573 248.42,47.8176699 249.42,47.8176699 C249.78,47.8176699 250.22,47.6970874 250.52,47.5765049 L251,49.7268932 C250.4,49.9278641 249.62,50.148932 248.64,50.148932 Z M257.8,50.148932 C254.68,50.148932 252.24,47.9583495 252.24,44.2604854 C252.24,40.6028155 254.78,38.3318447 257.46,38.3318447 C260.54,38.3318447 262.14,40.6028155 262.14,43.7178641 C262.14,44.2604854 262.08,44.8031068 262,45.0643689 L255.1,45.0643689 C255.34,46.913301 256.54,47.8779612 258.2,47.8779612 C259.12,47.8779612 259.92,47.5966019 260.72,47.0941748 L261.72,48.9029126 C260.62,49.6666019 259.2,50.148932 257.8,50.148932 Z M255.06,43.1149515 L259.62,43.1149515 C259.62,41.5875728 258.94,40.6229126 257.5,40.6229126 C256.32,40.6229126 255.28,41.4669903 255.06,43.1149515 Z M268.5,50.148932 C265.72,50.148932 263.92,47.9382524 263.92,44.2604854 C263.92,40.5827184 266.2,38.3318447 268.62,38.3318447 C269.88,38.3318447 270.66,38.8141748 271.46,39.557767 L271.34,37.7892233 L271.34,33.8300971 L274.28,33.8300971 L274.28,49.8675728 L271.9,49.8675728 L271.66,48.7019417 L271.6,48.7019417 C270.78,49.5058252 269.66,50.148932 268.5,50.148932 Z M269.26,47.7171845 C270.04,47.7171845 270.7,47.3956311 271.34,46.5515534 L271.34,41.6076699 C270.66,40.9846602 269.96,40.7635922 269.26,40.7635922 C268,40.7635922 266.94,41.9694175 266.94,44.2202913 C266.94,46.5515534 267.78,47.7171845 269.26,47.7171845 Z M279.1,50.148932 C278.06,50.148932 277.28,49.3048544 277.28,48.2196117 C277.28,47.1343689 278.06,46.2902913 279.1,46.2902913 C280.16,46.2902913 280.94,47.1343689 280.94,48.2196117 C280.94,49.3048544 280.16,50.148932 279.1,50.148932 Z" id="ZB-Network-Technolog" fill="#FFFFFF"></path>
        </g>
    </g>
</svg>